<svg xmlns="http://www.w3.org/2000/svg" xmlns:xlink="http://www.w3.org/1999/xlink" width="500" zoomAndPan="magnify" viewBox="0 0 375 374.999991" height="500" preserveAspectRatio="xMidYMid meet" version="1.0"><defs><clipPath id="51519f5efe"><path d="M 0 0 L 373.5 0 L 373.5 375 L 0 375 Z M 0 0 " clip-rule="nonzero"/></clipPath><clipPath id="b57f9defa8"><path d="M 120 0 L 373.5 0 L 373.5 256 L 120 256 Z M 120 0 " clip-rule="nonzero"/></clipPath></defs><g clip-path="url(#51519f5efe)"><path fill="#383838" d="M 127.160156 0.4375 C 123.171875 0.4375 120.011719 3.761719 120.011719 7.746094 C 120.011719 11.730469 123.335938 14.886719 127.324219 14.886719 C 131.316406 14.886719 134.472656 11.730469 134.472656 7.746094 C 134.472656 3.761719 131.316406 0.4375 127.324219 0.4375 C 127.324219 0.4375 127.324219 0.4375 127.160156 0.4375 Z M 7.3125 0.4375 C 3.324219 0.4375 0 3.59375 0 7.578125 C 0 11.566406 3.160156 14.886719 7.148438 14.886719 C 11.136719 14.886719 14.460938 11.730469 14.460938 7.746094 C 14.628906 3.925781 11.800781 0.605469 7.8125 0.4375 C 7.8125 0.4375 7.480469 0.4375 7.3125 0.4375 Z M 7.3125 120.664062 C 3.324219 120.664062 0 123.816406 0 127.804688 C 0 131.789062 3.160156 135.109375 7.148438 135.109375 C 11.136719 135.109375 14.460938 131.953125 14.460938 127.96875 C 14.628906 124.148438 11.800781 120.828125 7.8125 120.664062 C 7.8125 120.664062 7.480469 120.664062 7.3125 120.664062 Z M 246.671875 120.496094 C 242.683594 120.496094 239.523438 123.816406 239.523438 127.804688 C 239.523438 131.789062 242.851562 134.945312 246.839844 134.945312 C 250.828125 134.945312 253.988281 131.621094 253.988281 127.636719 C 253.988281 123.652344 250.664062 120.496094 246.671875 120.496094 Z M 366.1875 120.496094 C 362.195312 120.496094 359.039062 123.816406 359.039062 127.804688 C 359.039062 131.789062 362.363281 134.945312 366.351562 134.945312 C 370.339844 134.945312 373.5 131.621094 373.5 127.636719 C 373.332031 123.652344 370.175781 120.496094 366.1875 120.496094 Z M 127.160156 240.71875 C 123.171875 240.71875 120.011719 244.042969 120.011719 248.027344 C 120.011719 252.011719 123.335938 255.167969 127.324219 255.167969 C 131.316406 255.167969 134.472656 252.011719 134.472656 248.027344 C 134.472656 244.042969 131.316406 240.71875 127.324219 240.71875 C 127.324219 240.71875 127.324219 240.71875 127.160156 240.71875 Z M 7.3125 240.71875 C 3.324219 240.71875 0 243.875 0 247.859375 C 0 251.847656 3.160156 255.167969 7.148438 255.167969 C 11.136719 255.167969 14.460938 252.011719 14.460938 248.027344 C 14.628906 244.207031 11.800781 240.886719 7.8125 240.71875 C 7.8125 240.71875 7.480469 240.71875 7.3125 240.71875 Z M 366.1875 240.71875 C 362.195312 240.71875 359.039062 244.042969 359.039062 248.027344 C 359.039062 252.011719 362.363281 255.167969 366.351562 255.167969 C 370.339844 255.167969 373.5 251.847656 373.5 247.859375 C 373.332031 243.875 370.175781 240.554688 366.1875 240.71875 Z M 127.160156 360.445312 C 123.171875 360.445312 120.011719 363.765625 120.011719 367.753906 C 120.011719 371.738281 123.335938 374.894531 127.324219 374.894531 C 131.316406 374.894531 134.472656 371.738281 134.472656 367.753906 C 134.472656 363.765625 131.316406 360.445312 127.324219 360.445312 C 127.324219 360.445312 127.324219 360.445312 127.160156 360.445312 Z M 7.3125 360.445312 C 3.324219 360.445312 0 363.601562 0 367.585938 C 0 371.570312 3.160156 374.894531 7.148438 374.894531 C 11.136719 374.894531 14.460938 371.738281 14.460938 367.753906 C 14.628906 363.933594 11.800781 360.613281 7.8125 360.445312 C 7.8125 360.445312 7.480469 360.445312 7.3125 360.445312 Z M 246.671875 360.28125 C 242.683594 360.28125 239.523438 363.601562 239.523438 367.585938 C 239.523438 371.570312 242.851562 374.726562 246.839844 374.726562 C 250.828125 374.726562 253.988281 371.40625 253.988281 367.421875 C 253.988281 363.433594 250.664062 360.28125 246.671875 360.28125 Z M 366.1875 360.28125 C 362.195312 360.28125 359.039062 363.601562 359.039062 367.585938 C 359.039062 371.570312 362.363281 374.726562 366.351562 374.726562 C 370.339844 374.726562 373.5 371.40625 373.5 367.421875 C 373.332031 363.433594 370.175781 360.28125 366.1875 360.28125 Z M 366.1875 360.28125 " fill-opacity="1" fill-rule="nonzero"/></g><g clip-path="url(#b57f9defa8)"><path fill="#ed3b3b" d="M 253.988281 247.859375 C 253.988281 251.847656 250.828125 255.167969 246.839844 255.167969 C 242.851562 255.167969 239.527344 252.011719 239.527344 248.027344 C 239.527344 247.195312 239.691406 246.367188 239.859375 245.703125 L 129.152344 134.777344 C 128.488281 134.945312 127.824219 135.109375 127.324219 135.109375 C 123.335938 135.109375 120.011719 131.953125 120.011719 127.96875 C 120.011719 123.984375 123.171875 120.664062 127.160156 120.664062 C 131.148438 120.664062 134.472656 123.816406 134.472656 127.804688 C 134.472656 127.804688 134.472656 127.96875 134.472656 127.96875 C 134.472656 128.800781 134.308594 129.464844 134.140625 130.292969 L 244.679688 241.050781 C 245.34375 240.886719 246.007812 240.71875 246.671875 240.71875 C 250.664062 240.554688 253.988281 243.710938 253.988281 247.859375 Z M 373.5 7.578125 C 373.5 11.566406 370.34375 14.71875 366.351562 14.886719 C 363.691406 14.886719 361.199219 13.390625 359.871094 10.902344 L 253.15625 10.902344 C 251.992188 13.226562 249.5 14.71875 246.839844 14.71875 C 242.851562 14.71875 239.527344 11.566406 239.527344 7.578125 C 239.527344 3.59375 242.683594 0.273438 246.671875 0.273438 C 249.332031 0.273438 251.992188 1.769531 253.15625 4.09375 L 359.871094 4.09375 C 361.035156 1.769531 363.527344 0.273438 366.1875 0.105469 C 370.175781 0.273438 373.332031 3.429688 373.5 7.578125 C 373.332031 7.578125 373.5 7.578125 373.5 7.578125 Z M 373.5 7.578125 " fill-opacity="1" fill-rule="nonzero"/></g></svg>