<svg xmlns="http://www.w3.org/2000/svg" xmlns:xlink="http://www.w3.org/1999/xlink" width="500" zoomAndPan="magnify" viewBox="0 0 375 374.999991" height="500" preserveAspectRatio="xMidYMid meet" version="1.0"><defs><clipPath id="c909c523d8"><path d="M 4.917969 8.230469 L 370.164062 8.230469 L 370.164062 238.359375 L 4.917969 238.359375 Z M 4.917969 8.230469 " clip-rule="nonzero"/></clipPath><clipPath id="c43f350b29"><path d="M 230.34375 347.671875 L 257.492188 347.671875 L 257.492188 366.496094 L 230.34375 366.496094 Z M 230.34375 347.671875 " clip-rule="nonzero"/></clipPath><clipPath id="8df56361f1"><path d="M 239.59375 197.589844 L 254.371094 197.589844 L 254.371094 207.152344 L 239.59375 207.152344 Z M 239.59375 197.589844 " clip-rule="nonzero"/></clipPath><clipPath id="1137c6762f"><path d="M 254.191406 207.152344 L 239.59375 197.867188 L 239.769531 197.589844 L 254.371094 206.871094 Z M 254.191406 207.152344 " clip-rule="nonzero"/></clipPath><clipPath id="3c51759673"><path d="M 254.191406 207.152344 L 239.59375 197.867188 L 239.769531 197.589844 L 254.371094 206.871094 L 254.191406 207.152344 " clip-rule="nonzero"/></clipPath><linearGradient x1="0.0000386892" gradientTransform="matrix(14.779769, 0, 0, 14.764874, 239.592239, 202.368815)" y1="0" x2="0.999957" gradientUnits="userSpaceOnUse" y2="0" id="1c486d339c"><stop stop-opacity="1" stop-color="rgb(0.00305176%, 19.203186%, 67.799377%)" offset="0"/><stop stop-opacity="1" stop-color="rgb(0.201416%, 19.40155%, 67.799377%)" offset="0.00390625"/><stop stop-opacity="1" stop-color="rgb(0.39978%, 19.599915%, 67.799377%)" offset="0.0078125"/><stop stop-opacity="1" stop-color="rgb(0.782776%, 19.799805%, 67.999268%)" offset="0.0117188"/><stop stop-opacity="1" stop-color="rgb(1.165771%, 19.999695%, 68.199158%)" offset="0.015625"/><stop stop-opacity="1" stop-color="rgb(1.405334%, 20.222473%, 68.222046%)" offset="0.0195312"/><stop stop-opacity="1" stop-color="rgb(1.646423%, 20.446777%, 68.24646%)" offset="0.0234375"/><stop stop-opacity="1" stop-color="rgb(1.837158%, 20.637512%, 68.421936%)" offset="0.03125"/><stop stop-opacity="1" stop-color="rgb(2.368164%, 21.212769%, 68.598938%)" offset="0.0351562"/><stop stop-opacity="1" stop-color="rgb(2.708435%, 21.598816%, 68.598938%)" offset="0.0390625"/><stop stop-opacity="1" stop-color="rgb(2.903748%, 21.794128%, 68.79425%)" offset="0.0429688"/><stop stop-opacity="1" stop-color="rgb(3.09906%, 21.990967%, 68.989563%)" offset="0.046875"/><stop stop-opacity="1" stop-color="rgb(3.485107%, 22.180176%, 68.994141%)" offset="0.0507812"/><stop stop-opacity="1" stop-color="rgb(3.871155%, 22.370911%, 68.998718%)" offset="0.0546875"/><stop stop-opacity="1" stop-color="rgb(4.06189%, 22.517395%, 69.17572%)" offset="0.0625"/><stop stop-opacity="1" stop-color="rgb(4.492188%, 22.898865%, 69.37561%)" offset="0.0664062"/><stop stop-opacity="1" stop-color="rgb(4.733276%, 23.13385%, 69.398499%)" offset="0.0703125"/><stop stop-opacity="1" stop-color="rgb(5.116272%, 23.324585%, 69.406128%)" offset="0.0742188"/><stop stop-opacity="1" stop-color="rgb(5.499268%, 23.51532%, 69.415283%)" offset="0.078125"/><stop stop-opacity="1" stop-color="rgb(5.697632%, 23.707581%, 69.607544%)" offset="0.0820312"/><stop stop-opacity="1" stop-color="rgb(5.895996%, 23.899841%, 69.799805%)" offset="0.0859375"/><stop stop-opacity="1" stop-color="rgb(6.097412%, 24.099731%, 69.799805%)" offset="0.0898438"/><stop stop-opacity="1" stop-color="rgb(6.298828%, 24.299622%, 69.799805%)" offset="0.09375"/><stop stop-opacity="1" stop-color="rgb(6.678772%, 24.499512%, 69.999695%)" offset="0.0976562"/><stop stop-opacity="1" stop-color="rgb(7.058716%, 24.699402%, 70.199585%)" offset="0.101562"/><stop stop-opacity="1" stop-color="rgb(7.293701%, 25.099182%, 70.199585%)" offset="0.105469"/><stop stop-opacity="1" stop-color="rgb(7.530212%, 25.498962%, 70.199585%)" offset="0.109375"/><stop stop-opacity="1" stop-color="rgb(7.86438%, 25.698853%, 70.399475%)" offset="0.113281"/><stop stop-opacity="1" stop-color="rgb(8.198547%, 25.898743%, 70.599365%)" offset="0.117188"/><stop stop-opacity="1" stop-color="rgb(8.399963%, 26.098633%, 70.599365%)" offset="0.121094"/><stop stop-opacity="1" stop-color="rgb(8.601379%, 26.298523%, 70.599365%)" offset="0.125"/><stop stop-opacity="1" stop-color="rgb(8.799744%, 26.490784%, 70.791626%)" offset="0.128906"/><stop stop-opacity="1" stop-color="rgb(8.999634%, 26.683044%, 70.983887%)" offset="0.132812"/><stop stop-opacity="1" stop-color="rgb(9.381104%, 26.873779%, 70.991516%)" offset="0.136719"/><stop stop-opacity="1" stop-color="rgb(9.764099%, 27.064514%, 70.999146%)" offset="0.140625"/><stop stop-opacity="1" stop-color="rgb(10.005188%, 27.2995%, 71.022034%)" offset="0.144531"/><stop stop-opacity="1" stop-color="rgb(10.246277%, 27.534485%, 71.044922%)" offset="0.148438"/><stop stop-opacity="1" stop-color="rgb(10.435486%, 27.680969%, 71.221924%)" offset="0.15625"/><stop stop-opacity="1" stop-color="rgb(11.016846%, 28.016663%, 71.403503%)" offset="0.160156"/><stop stop-opacity="1" stop-color="rgb(11.407471%, 28.207397%, 71.408081%)" offset="0.164062"/><stop stop-opacity="1" stop-color="rgb(11.602783%, 28.40271%, 71.603394%)" offset="0.167969"/><stop stop-opacity="1" stop-color="rgb(11.799622%, 28.599548%, 71.798706%)" offset="0.171875"/><stop stop-opacity="1" stop-color="rgb(12.138367%, 28.98407%, 71.798706%)" offset="0.175781"/><stop stop-opacity="1" stop-color="rgb(12.477112%, 29.370117%, 71.798706%)" offset="0.179688"/><stop stop-opacity="1" stop-color="rgb(12.663269%, 29.560852%, 71.974182%)" offset="0.1875"/><stop stop-opacity="1" stop-color="rgb(13.092041%, 29.974365%, 72.174072%)" offset="0.191406"/><stop stop-opacity="1" stop-color="rgb(13.33313%, 30.198669%, 72.198486%)" offset="0.195312"/><stop stop-opacity="1" stop-color="rgb(13.716125%, 30.39856%, 72.348022%)" offset="0.199219"/><stop stop-opacity="1" stop-color="rgb(14.099121%, 30.599976%, 72.499084%)" offset="0.203125"/><stop stop-opacity="1" stop-color="rgb(14.297485%, 30.796814%, 72.499084%)" offset="0.207031"/><stop stop-opacity="1" stop-color="rgb(14.49585%, 30.995178%, 72.499084%)" offset="0.210938"/><stop stop-opacity="1" stop-color="rgb(14.697266%, 31.196594%, 72.499084%)" offset="0.214844"/><stop stop-opacity="1" stop-color="rgb(14.898682%, 31.399536%, 72.499084%)" offset="0.21875"/><stop stop-opacity="1" stop-color="rgb(15.2771%, 31.599426%, 72.698975%)" offset="0.222656"/><stop stop-opacity="1" stop-color="rgb(15.657043%, 31.799316%, 72.898865%)" offset="0.226562"/><stop stop-opacity="1" stop-color="rgb(15.898132%, 32.012939%, 72.918701%)" offset="0.230469"/><stop stop-opacity="1" stop-color="rgb(16.139221%, 32.228088%, 72.938538%)" offset="0.234375"/><stop stop-opacity="1" stop-color="rgb(16.519165%, 32.373047%, 73.118591%)" offset="0.238281"/><stop stop-opacity="1" stop-color="rgb(16.899109%, 32.519531%, 73.298645%)" offset="0.242188"/><stop stop-opacity="1" stop-color="rgb(17.098999%, 32.710266%, 73.298645%)" offset="0.246094"/><stop stop-opacity="1" stop-color="rgb(17.300415%, 32.901001%, 73.298645%)" offset="0.25"/><stop stop-opacity="1" stop-color="rgb(17.449951%, 33.291626%, 73.48938%)" offset="0.253906"/><stop stop-opacity="1" stop-color="rgb(17.599487%, 33.682251%, 73.681641%)" offset="0.257812"/><stop stop-opacity="1" stop-color="rgb(17.980957%, 33.872986%, 73.690796%)" offset="0.261719"/><stop stop-opacity="1" stop-color="rgb(18.363953%, 34.063721%, 73.699951%)" offset="0.265625"/><stop stop-opacity="1" stop-color="rgb(18.603516%, 34.280396%, 73.899841%)" offset="0.269531"/><stop stop-opacity="1" stop-color="rgb(18.844604%, 34.498596%, 74.099731%)" offset="0.273438"/><stop stop-opacity="1" stop-color="rgb(19.035339%, 34.698486%, 74.099731%)" offset="0.277344"/><stop stop-opacity="1" stop-color="rgb(19.226074%, 34.899902%, 74.099731%)" offset="0.28125"/><stop stop-opacity="1" stop-color="rgb(19.616699%, 35.102844%, 74.102783%)" offset="0.285156"/><stop stop-opacity="1" stop-color="rgb(20.007324%, 35.307312%, 74.107361%)" offset="0.289062"/><stop stop-opacity="1" stop-color="rgb(20.202637%, 35.502625%, 74.302673%)" offset="0.292969"/><stop stop-opacity="1" stop-color="rgb(20.399475%, 35.699463%, 74.499512%)" offset="0.296875"/><stop stop-opacity="1" stop-color="rgb(20.783997%, 35.899353%, 74.499512%)" offset="0.300781"/><stop stop-opacity="1" stop-color="rgb(21.170044%, 36.099243%, 74.499512%)" offset="0.304688"/><stop stop-opacity="1" stop-color="rgb(21.359253%, 36.299133%, 74.699402%)" offset="0.308594"/><stop stop-opacity="1" stop-color="rgb(21.549988%, 36.499023%, 74.899292%)" offset="0.3125"/><stop stop-opacity="1" stop-color="rgb(21.791077%, 36.715698%, 74.899292%)" offset="0.316406"/><stop stop-opacity="1" stop-color="rgb(22.032166%, 36.932373%, 74.899292%)" offset="0.320312"/><stop stop-opacity="1" stop-color="rgb(22.364807%, 37.265015%, 75.099182%)" offset="0.324219"/><stop stop-opacity="1" stop-color="rgb(22.698975%, 37.599182%, 75.299072%)" offset="0.328125"/><stop stop-opacity="1" stop-color="rgb(22.895813%, 37.796021%, 75.299072%)" offset="0.332031"/><stop stop-opacity="1" stop-color="rgb(23.094177%, 37.994385%, 75.299072%)" offset="0.335938"/><stop stop-opacity="1" stop-color="rgb(23.295593%, 38.18512%, 75.486755%)" offset="0.339844"/><stop stop-opacity="1" stop-color="rgb(23.498535%, 38.375854%, 75.675964%)" offset="0.34375"/><stop stop-opacity="1" stop-color="rgb(23.876953%, 38.565063%, 75.686646%)" offset="0.347656"/><stop stop-opacity="1" stop-color="rgb(24.256897%, 38.755798%, 75.698853%)" offset="0.351562"/><stop stop-opacity="1" stop-color="rgb(24.49646%, 38.996887%, 75.717163%)" offset="0.355469"/><stop stop-opacity="1" stop-color="rgb(24.737549%, 39.237976%, 75.737%)" offset="0.359375"/><stop stop-opacity="1" stop-color="rgb(25.117493%, 39.428711%, 75.917053%)" offset="0.363281"/><stop stop-opacity="1" stop-color="rgb(25.498962%, 39.619446%, 76.098633%)" offset="0.367188"/><stop stop-opacity="1" stop-color="rgb(25.698853%, 39.808655%, 76.098633%)" offset="0.371094"/><stop stop-opacity="1" stop-color="rgb(25.900269%, 39.99939%, 76.100159%)" offset="0.375"/><stop stop-opacity="1" stop-color="rgb(26.098633%, 40.19928%, 76.300049%)" offset="0.378906"/><stop stop-opacity="1" stop-color="rgb(26.298523%, 40.39917%, 76.499939%)" offset="0.382812"/><stop stop-opacity="1" stop-color="rgb(26.679993%, 40.59906%, 76.499939%)" offset="0.386719"/><stop stop-opacity="1" stop-color="rgb(27.062988%, 40.79895%, 76.499939%)" offset="0.390625"/><stop stop-opacity="1" stop-color="rgb(27.297974%, 41.19873%, 76.699829%)" offset="0.394531"/><stop stop-opacity="1" stop-color="rgb(27.532959%, 41.598511%, 76.899719%)" offset="0.398438"/><stop stop-opacity="1" stop-color="rgb(27.677917%, 41.798401%, 76.899719%)" offset="0.402344"/><stop stop-opacity="1" stop-color="rgb(27.824402%, 41.999817%, 76.899719%)" offset="0.40625"/><stop stop-opacity="1" stop-color="rgb(28.215027%, 42.199707%, 77.099609%)" offset="0.410156"/><stop stop-opacity="1" stop-color="rgb(28.605652%, 42.399597%, 77.2995%)" offset="0.414062"/><stop stop-opacity="1" stop-color="rgb(28.80249%, 42.544556%, 77.2995%)" offset="0.417969"/><stop stop-opacity="1" stop-color="rgb(28.999329%, 42.689514%, 77.2995%)" offset="0.421875"/><stop stop-opacity="1" stop-color="rgb(29.38385%, 42.878723%, 77.2995%)" offset="0.425781"/><stop stop-opacity="1" stop-color="rgb(29.768372%, 43.067932%, 77.2995%)" offset="0.429688"/><stop stop-opacity="1" stop-color="rgb(29.959106%, 43.283081%, 77.449036%)" offset="0.433594"/><stop stop-opacity="1" stop-color="rgb(30.149841%, 43.499756%, 77.598572%)" offset="0.4375"/><stop stop-opacity="1" stop-color="rgb(30.389404%, 43.714905%, 77.613831%)" offset="0.441406"/><stop stop-opacity="1" stop-color="rgb(30.630493%, 43.930054%, 77.630615%)" offset="0.445312"/><stop stop-opacity="1" stop-color="rgb(31.015015%, 44.120789%, 77.815247%)" offset="0.449219"/><stop stop-opacity="1" stop-color="rgb(31.399536%, 44.311523%, 77.999878%)" offset="0.453125"/><stop stop-opacity="1" stop-color="rgb(31.596375%, 44.50531%, 77.999878%)" offset="0.457031"/><stop stop-opacity="1" stop-color="rgb(31.793213%, 44.699097%, 77.999878%)" offset="0.460938"/><stop stop-opacity="1" stop-color="rgb(31.996155%, 45.08667%, 78.186035%)" offset="0.464844"/><stop stop-opacity="1" stop-color="rgb(32.199097%, 45.474243%, 78.373718%)" offset="0.46875"/><stop stop-opacity="1" stop-color="rgb(32.527161%, 45.664978%, 78.385925%)" offset="0.472656"/><stop stop-opacity="1" stop-color="rgb(32.855225%, 45.855713%, 78.399658%)" offset="0.476562"/><stop stop-opacity="1" stop-color="rgb(33.096313%, 46.076965%, 78.599548%)" offset="0.480469"/><stop stop-opacity="1" stop-color="rgb(33.337402%, 46.299744%, 78.799438%)" offset="0.484375"/><stop stop-opacity="1" stop-color="rgb(33.717346%, 46.499634%, 78.799438%)" offset="0.488281"/><stop stop-opacity="1" stop-color="rgb(34.098816%, 46.699524%, 78.799438%)" offset="0.492188"/><stop stop-opacity="1" stop-color="rgb(34.298706%, 46.899414%, 78.799438%)" offset="0.496094"/><stop stop-opacity="1" stop-color="rgb(34.498596%, 47.099304%, 78.799438%)" offset="0.5"/><stop stop-opacity="1" stop-color="rgb(34.698486%, 47.299194%, 78.999329%)" offset="0.503906"/><stop stop-opacity="1" stop-color="rgb(34.899902%, 47.499084%, 79.199219%)" offset="0.507812"/><stop stop-opacity="1" stop-color="rgb(35.279846%, 47.648621%, 79.199219%)" offset="0.511719"/><stop stop-opacity="1" stop-color="rgb(35.661316%, 47.799683%, 79.199219%)" offset="0.515625"/><stop stop-opacity="1" stop-color="rgb(35.900879%, 48.020935%, 79.399109%)" offset="0.519531"/><stop stop-opacity="1" stop-color="rgb(36.141968%, 48.242188%, 79.598999%)" offset="0.523437"/><stop stop-opacity="1" stop-color="rgb(36.332703%, 48.432922%, 79.598999%)" offset="0.53125"/><stop stop-opacity="1" stop-color="rgb(36.912537%, 49.01123%, 79.798889%)" offset="0.535156"/><stop stop-opacity="1" stop-color="rgb(37.303162%, 49.398804%, 79.998779%)" offset="0.539063"/><stop stop-opacity="1" stop-color="rgb(37.451172%, 49.59259%, 79.998779%)" offset="0.546875"/><stop stop-opacity="1" stop-color="rgb(37.982178%, 49.977112%, 80.183411%)" offset="0.550781"/><stop stop-opacity="1" stop-color="rgb(38.366699%, 50.167847%, 80.368042%)" offset="0.554688"/><stop stop-opacity="1" stop-color="rgb(38.557434%, 50.357056%, 80.383301%)" offset="0.5625"/><stop stop-opacity="1" stop-color="rgb(38.989258%, 50.788879%, 80.59845%)" offset="0.566406"/><stop stop-opacity="1" stop-color="rgb(39.230347%, 51.029968%, 80.799866%)" offset="0.570312"/><stop stop-opacity="1" stop-color="rgb(39.614868%, 51.220703%, 80.799866%)" offset="0.574219"/><stop stop-opacity="1" stop-color="rgb(39.99939%, 51.411438%, 80.799866%)" offset="0.578125"/><stop stop-opacity="1" stop-color="rgb(40.194702%, 51.605225%, 80.799866%)" offset="0.582031"/><stop stop-opacity="1" stop-color="rgb(40.391541%, 51.799011%, 80.799866%)" offset="0.585937"/><stop stop-opacity="1" stop-color="rgb(40.594482%, 51.998901%, 80.999756%)" offset="0.589844"/><stop stop-opacity="1" stop-color="rgb(40.79895%, 52.198792%, 81.199646%)" offset="0.59375"/><stop stop-opacity="1" stop-color="rgb(41.175842%, 52.348328%, 81.199646%)" offset="0.597656"/><stop stop-opacity="1" stop-color="rgb(41.55426%, 52.49939%, 81.199646%)" offset="0.601563"/><stop stop-opacity="1" stop-color="rgb(41.793823%, 52.89917%, 81.399536%)" offset="0.605469"/><stop stop-opacity="1" stop-color="rgb(42.034912%, 53.29895%, 81.599426%)" offset="0.609375"/><stop stop-opacity="1" stop-color="rgb(42.366028%, 53.49884%, 81.599426%)" offset="0.613281"/><stop stop-opacity="1" stop-color="rgb(42.698669%, 53.69873%, 81.599426%)" offset="0.617188"/><stop stop-opacity="1" stop-color="rgb(42.89856%, 53.898621%, 81.797791%)" offset="0.621094"/><stop stop-opacity="1" stop-color="rgb(43.09845%, 54.098511%, 81.997681%)" offset="0.625"/><stop stop-opacity="1" stop-color="rgb(43.29834%, 54.28772%, 81.997681%)" offset="0.628906"/><stop stop-opacity="1" stop-color="rgb(43.499756%, 54.478455%, 81.999207%)" offset="0.632812"/><stop stop-opacity="1" stop-color="rgb(43.8797%, 54.669189%, 82.17926%)" offset="0.636719"/><stop stop-opacity="1" stop-color="rgb(44.259644%, 54.859924%, 82.36084%)" offset="0.640625"/><stop stop-opacity="1" stop-color="rgb(44.500732%, 55.101013%, 82.37915%)" offset="0.644531"/><stop stop-opacity="1" stop-color="rgb(44.741821%, 55.342102%, 82.398987%)" offset="0.648437"/><stop stop-opacity="1" stop-color="rgb(44.932556%, 55.531311%, 82.408142%)" offset="0.65625"/><stop stop-opacity="1" stop-color="rgb(45.513916%, 55.912781%, 82.557678%)" offset="0.660156"/><stop stop-opacity="1" stop-color="rgb(45.904541%, 56.103516%, 82.699585%)" offset="0.664063"/><stop stop-opacity="1" stop-color="rgb(46.101379%, 56.300354%, 82.699585%)" offset="0.667969"/><stop stop-opacity="1" stop-color="rgb(46.299744%, 56.498718%, 82.699585%)" offset="0.671875"/><stop stop-opacity="1" stop-color="rgb(46.682739%, 56.881714%, 82.899475%)" offset="0.675781"/><stop stop-opacity="1" stop-color="rgb(47.065735%, 57.266235%, 83.099365%)" offset="0.679688"/><stop stop-opacity="1" stop-color="rgb(47.25647%, 57.41272%, 83.099365%)" offset="0.6875"/><stop stop-opacity="1" stop-color="rgb(47.637939%, 57.778931%, 83.299255%)" offset="0.691406"/><stop stop-opacity="1" stop-color="rgb(47.828674%, 57.998657%, 83.499146%)" offset="0.695312"/><stop stop-opacity="1" stop-color="rgb(48.213196%, 58.198547%, 83.499146%)" offset="0.699219"/><stop stop-opacity="1" stop-color="rgb(48.599243%, 58.399963%, 83.499146%)" offset="0.703125"/><stop stop-opacity="1" stop-color="rgb(48.794556%, 58.595276%, 83.694458%)" offset="0.707031"/><stop stop-opacity="1" stop-color="rgb(48.991394%, 58.790588%, 83.891296%)" offset="0.710937"/><stop stop-opacity="1" stop-color="rgb(49.194336%, 58.995056%, 83.894348%)" offset="0.714844"/><stop stop-opacity="1" stop-color="rgb(49.398804%, 59.199524%, 83.898926%)" offset="0.71875"/><stop stop-opacity="1" stop-color="rgb(49.775696%, 59.399414%, 83.898926%)" offset="0.722656"/><stop stop-opacity="1" stop-color="rgb(50.154114%, 59.599304%, 83.898926%)" offset="0.726563"/><stop stop-opacity="1" stop-color="rgb(50.393677%, 59.815979%, 84.098816%)" offset="0.730469"/><stop stop-opacity="1" stop-color="rgb(50.634766%, 60.03418%, 84.298706%)" offset="0.734375"/><stop stop-opacity="1" stop-color="rgb(51.016235%, 60.224915%, 84.306335%)" offset="0.738281"/><stop stop-opacity="1" stop-color="rgb(51.399231%, 60.415649%, 84.315491%)" offset="0.742188"/><stop stop-opacity="1" stop-color="rgb(51.597595%, 60.606384%, 84.506226%)" offset="0.746094"/><stop stop-opacity="1" stop-color="rgb(51.797485%, 60.798645%, 84.698486%)" offset="0.75"/><stop stop-opacity="1" stop-color="rgb(51.997375%, 61.187744%, 84.698486%)" offset="0.753906"/><stop stop-opacity="1" stop-color="rgb(52.198792%, 61.578369%, 84.698486%)" offset="0.757812"/><stop stop-opacity="1" stop-color="rgb(52.528381%, 61.769104%, 84.87854%)" offset="0.761719"/><stop stop-opacity="1" stop-color="rgb(52.859497%, 61.959839%, 85.06012%)" offset="0.765625"/><stop stop-opacity="1" stop-color="rgb(53.09906%, 62.179565%, 85.079956%)" offset="0.769531"/><stop stop-opacity="1" stop-color="rgb(53.340149%, 62.399292%, 85.099792%)" offset="0.773437"/><stop stop-opacity="1" stop-color="rgb(53.530884%, 62.548828%, 85.299683%)" offset="0.777344"/><stop stop-opacity="1" stop-color="rgb(53.721619%, 62.69989%, 85.499573%)" offset="0.78125"/><stop stop-opacity="1" stop-color="rgb(54.112244%, 62.901306%, 85.499573%)" offset="0.785156"/><stop stop-opacity="1" stop-color="rgb(54.502869%, 63.102722%, 85.499573%)" offset="0.789063"/><stop stop-opacity="1" stop-color="rgb(54.701233%, 63.301086%, 85.499573%)" offset="0.792969"/><stop stop-opacity="1" stop-color="rgb(54.899597%, 63.499451%, 85.499573%)" offset="0.796875"/><stop stop-opacity="1" stop-color="rgb(55.282593%, 63.699341%, 85.699463%)" offset="0.800781"/><stop stop-opacity="1" stop-color="rgb(55.665588%, 63.899231%, 85.899353%)" offset="0.804688"/><stop stop-opacity="1" stop-color="rgb(55.856323%, 64.099121%, 85.899353%)" offset="0.808594"/><stop stop-opacity="1" stop-color="rgb(56.047058%, 64.299011%, 85.899353%)" offset="0.8125"/><stop stop-opacity="1" stop-color="rgb(56.286621%, 64.512634%, 86.099243%)" offset="0.816406"/><stop stop-opacity="1" stop-color="rgb(56.52771%, 64.727783%, 86.299133%)" offset="0.820312"/><stop stop-opacity="1" stop-color="rgb(56.913757%, 65.113831%, 86.299133%)" offset="0.824219"/><stop stop-opacity="1" stop-color="rgb(57.299805%, 65.499878%, 86.299133%)" offset="0.828125"/><stop stop-opacity="1" stop-color="rgb(57.446289%, 65.69519%, 86.494446%)" offset="0.835937"/><stop stop-opacity="1" stop-color="rgb(57.795715%, 66.081238%, 86.694336%)" offset="0.839844"/><stop stop-opacity="1" stop-color="rgb(57.998657%, 66.271973%, 86.698914%)" offset="0.84375"/><stop stop-opacity="1" stop-color="rgb(58.375549%, 66.461182%, 86.875916%)" offset="0.847656"/><stop stop-opacity="1" stop-color="rgb(58.752441%, 66.651917%, 87.052917%)" offset="0.851563"/><stop stop-opacity="1" stop-color="rgb(58.992004%, 66.893005%, 87.075806%)" offset="0.855469"/><stop stop-opacity="1" stop-color="rgb(59.233093%, 67.134094%, 87.098694%)" offset="0.859375"/><stop stop-opacity="1" stop-color="rgb(59.616089%, 67.321777%, 87.106323%)" offset="0.863281"/><stop stop-opacity="1" stop-color="rgb(59.999084%, 67.510986%, 87.115479%)" offset="0.867188"/><stop stop-opacity="1" stop-color="rgb(60.197449%, 67.654419%, 87.307739%)" offset="0.871094"/><stop stop-opacity="1" stop-color="rgb(60.395813%, 67.799377%, 87.5%)" offset="0.875"/><stop stop-opacity="1" stop-color="rgb(60.597229%, 67.999268%, 87.5%)" offset="0.878906"/><stop stop-opacity="1" stop-color="rgb(60.798645%, 68.199158%, 87.5%)" offset="0.882812"/><stop stop-opacity="1" stop-color="rgb(61.178589%, 68.399048%, 87.649536%)" offset="0.886719"/><stop stop-opacity="1" stop-color="rgb(61.558533%, 68.598938%, 87.799072%)" offset="0.890625"/><stop stop-opacity="1" stop-color="rgb(61.798096%, 68.998718%, 87.799072%)" offset="0.894531"/><stop stop-opacity="1" stop-color="rgb(62.039185%, 69.398499%, 87.799072%)" offset="0.898437"/><stop stop-opacity="1" stop-color="rgb(62.226868%, 69.598389%, 87.998962%)" offset="0.902344"/><stop stop-opacity="1" stop-color="rgb(62.416077%, 69.799805%, 88.198853%)" offset="0.90625"/><stop stop-opacity="1" stop-color="rgb(62.757874%, 69.999695%, 88.198853%)" offset="0.910156"/><stop stop-opacity="1" stop-color="rgb(63.101196%, 70.199585%, 88.198853%)" offset="0.914063"/><stop stop-opacity="1" stop-color="rgb(63.299561%, 70.39032%, 88.391113%)" offset="0.917969"/><stop stop-opacity="1" stop-color="rgb(63.499451%, 70.582581%, 88.583374%)" offset="0.921875"/><stop stop-opacity="1" stop-color="rgb(63.88092%, 70.773315%, 88.591003%)" offset="0.925781"/><stop stop-opacity="1" stop-color="rgb(64.263916%, 70.96405%, 88.598633%)" offset="0.929688"/><stop stop-opacity="1" stop-color="rgb(64.454651%, 71.180725%, 88.598633%)" offset="0.933594"/><stop stop-opacity="1" stop-color="rgb(64.645386%, 71.398926%, 88.598633%)" offset="0.9375"/><stop stop-opacity="1" stop-color="rgb(64.884949%, 71.612549%, 88.798523%)" offset="0.941406"/><stop stop-opacity="1" stop-color="rgb(65.126038%, 71.826172%, 88.999939%)" offset="0.945312"/><stop stop-opacity="1" stop-color="rgb(65.512085%, 72.015381%, 89.002991%)" offset="0.949219"/><stop stop-opacity="1" stop-color="rgb(65.899658%, 72.206116%, 89.007568%)" offset="0.953125"/><stop stop-opacity="1" stop-color="rgb(66.093445%, 72.3526%, 89.202881%)" offset="0.957031"/><stop stop-opacity="1" stop-color="rgb(66.288757%, 72.499084%, 89.399719%)" offset="0.960937"/><stop stop-opacity="1" stop-color="rgb(66.493225%, 72.883606%, 89.399719%)" offset="0.964844"/><stop stop-opacity="1" stop-color="rgb(66.699219%, 73.269653%, 89.399719%)" offset="0.96875"/><stop stop-opacity="1" stop-color="rgb(67.074585%, 73.460388%, 89.575195%)" offset="0.972656"/><stop stop-opacity="1" stop-color="rgb(67.451477%, 73.651123%, 89.750671%)" offset="0.976563"/><stop stop-opacity="1" stop-color="rgb(67.642212%, 73.875427%, 89.775085%)" offset="0.980469"/><stop stop-opacity="1" stop-color="rgb(67.832947%, 74.099731%, 89.7995%)" offset="0.984375"/><stop stop-opacity="1" stop-color="rgb(68.215942%, 74.299622%, 89.99939%)" offset="0.988281"/><stop stop-opacity="1" stop-color="rgb(68.598938%, 74.499512%, 90.19928%)" offset="0.992188"/><stop stop-opacity="1" stop-color="rgb(68.797302%, 74.69635%, 90.19928%)" offset="0.996094"/><stop stop-opacity="1" stop-color="rgb(68.995667%, 74.894714%, 90.19928%)" offset="1"/></linearGradient></defs><g clip-path="url(#c909c523d8)"><path fill="#edf1f9" d="M 352.75 238.246094 C 352.75 238.246094 228.84375 219.5625 187.539062 219.5625 C 146.234375 219.5625 22.328125 238.246094 22.328125 238.246094 C 12.710938 238.246094 4.917969 229.691406 4.917969 219.144531 L 4.917969 27.332031 C 4.917969 16.78125 12.710938 8.230469 22.328125 8.230469 C 22.328125 8.230469 146.234375 14.265625 187.539062 14.265625 C 228.84375 14.265625 352.75 8.230469 352.75 8.230469 C 362.367188 8.230469 370.164062 16.78125 370.164062 27.332031 L 370.164062 219.144531 C 370.164062 229.691406 362.367188 238.246094 352.75 238.246094 " fill-opacity="1" fill-rule="nonzero"/></g><path fill="#7590d3" d="M 97.269531 30.667969 L 26.628906 30.667969 L 26.628906 40.503906 L 97.269531 40.503906 L 97.269531 30.667969 " fill-opacity="1" fill-rule="nonzero"/><path fill="#cfd8ef" d="M 57.609375 77.523438 L 26.628906 77.523438 L 26.628906 46.574219 L 57.609375 46.574219 L 57.609375 77.523438 " fill-opacity="1" fill-rule="nonzero"/><path fill="#cfd8ef" d="M 51.164062 100.695312 C 51.164062 105.425781 47.324219 109.265625 42.589844 109.265625 C 37.851562 109.265625 34.011719 105.425781 34.011719 100.695312 C 34.011719 95.964844 37.851562 92.128906 42.589844 92.128906 C 47.324219 92.128906 51.164062 95.964844 51.164062 100.695312 " fill-opacity="1" fill-rule="nonzero"/><path fill="#cfd8ef" d="M 34.011719 100.695312 C 34.011719 105.425781 37.851562 109.265625 42.589844 109.265625 L 42.589844 100.695312 L 34.011719 100.695312 " fill-opacity="1" fill-rule="nonzero"/><path fill="#cfd8ef" d="M 60.355469 132.652344 C 60.355469 141.039062 53.550781 147.835938 45.15625 147.835938 C 36.761719 147.835938 29.960938 141.039062 29.960938 132.652344 C 29.960938 124.265625 36.761719 117.46875 45.15625 117.46875 C 53.550781 117.46875 60.355469 124.265625 60.355469 132.652344 " fill-opacity="1" fill-rule="nonzero"/><path fill="#7590d3" d="M 59.898438 136.363281 C 60.195312 135.175781 60.355469 133.933594 60.355469 132.652344 C 60.355469 124.265625 53.550781 117.46875 45.15625 117.46875 L 45.15625 132.652344 L 59.898438 136.363281 " fill-opacity="1" fill-rule="nonzero"/><path fill="#1f4ab7" d="M 90.179688 98.636719 L 66.582031 98.636719 L 66.582031 92.128906 L 90.179688 92.128906 L 90.179688 98.636719 " fill-opacity="1" fill-rule="nonzero"/><path fill="#cfd8ef" d="M 90.179688 129.746094 L 66.582031 129.746094 L 66.582031 123.238281 L 90.179688 123.238281 L 90.179688 129.746094 " fill-opacity="1" fill-rule="nonzero"/><path fill="#cfd8ef" d="M 66.582031 166.023438 L 30.972656 166.023438 L 30.972656 159.71875 L 66.582031 159.71875 L 66.582031 166.023438 " fill-opacity="1" fill-rule="nonzero"/><path fill="#cfd8ef" d="M 105.378906 185.113281 L 30.972656 185.113281 L 30.972656 173.800781 L 105.378906 173.800781 L 105.378906 185.113281 " fill-opacity="1" fill-rule="nonzero"/><path fill="#7590d3" d="M 133.460938 204.199219 L 30.972656 204.199219 L 30.972656 192.890625 L 133.460938 192.890625 L 133.460938 204.199219 " fill-opacity="1" fill-rule="nonzero"/><path fill="#cfd8ef" d="M 321.0625 140.136719 L 119.128906 140.136719 L 119.128906 49.46875 L 121.734375 49.46875 L 121.734375 137.535156 L 321.0625 137.535156 L 321.0625 140.136719 " fill-opacity="1" fill-rule="nonzero"/><path fill="#7590d3" d="M 115.820312 41.710938 C 115.820312 44.386719 117.992188 46.554688 120.671875 46.554688 C 123.347656 46.554688 125.519531 44.386719 125.519531 41.710938 C 125.519531 39.035156 123.347656 36.867188 120.671875 36.867188 C 117.992188 36.867188 115.820312 39.035156 115.820312 41.710938 " fill-opacity="1" fill-rule="nonzero"/><path fill="#7590d3" d="M 323.753906 138.535156 C 323.753906 141.210938 325.929688 143.378906 328.605469 143.378906 C 331.285156 143.378906 333.453125 141.210938 333.453125 138.535156 C 333.453125 135.859375 331.285156 133.691406 328.605469 133.691406 C 325.929688 133.691406 323.753906 135.859375 323.753906 138.535156 " fill-opacity="1" fill-rule="nonzero"/><path fill="#cfd8ef" d="M 126.898438 138.917969 L 124.136719 136.152344 C 126.824219 133.472656 129.796875 130.328125 132.945312 127 C 151.867188 106.992188 177.785156 79.585938 202.851562 86.042969 C 230.921875 93.269531 257.15625 77.609375 286.089844 57.976562 C 297.144531 50.472656 306.34375 48.210938 313.433594 51.25 C 322.460938 55.121094 324.359375 66.039062 324.4375 66.503906 L 320.582031 67.140625 C 320.566406 67.050781 318.929688 57.839844 311.867188 54.828125 C 306.085938 52.367188 298.15625 54.511719 288.285156 61.207031 C 274.167969 70.789062 259.089844 80.433594 244.507812 86.101562 C 229.199219 92.050781 215.253906 93.269531 201.875 89.824219 C 179.039062 83.945312 154.039062 110.378906 135.789062 129.679688 C 132.617188 133.03125 129.625 136.195312 126.898438 138.917969 " fill-opacity="1" fill-rule="nonzero"/><path fill="#cfd8ef" d="M 160.960938 158.792969 L 302.242188 158.792969 L 302.242188 149.25 L 160.960938 149.25 Z M 160.960938 158.792969 " fill-opacity="1" fill-rule="nonzero"/><path fill="#7590d3" d="M 160.960938 177.449219 L 323.753906 177.449219 L 323.753906 167.902344 L 160.960938 167.902344 Z M 160.960938 177.449219 " fill-opacity="1" fill-rule="nonzero"/><path fill="#cfd8ef" d="M 323.753906 194.800781 L 294.863281 194.800781 L 294.863281 190.605469 L 323.753906 190.605469 L 323.753906 194.800781 " fill-opacity="1" fill-rule="nonzero"/><path fill="#7590d3" d="M 323.753906 208.84375 L 294.863281 208.84375 L 294.863281 204.648438 L 323.753906 204.648438 L 323.753906 208.84375 " fill-opacity="1" fill-rule="nonzero"/><path fill="#e8d9ff" d="M 153.769531 102.996094 C 147.417969 96.027344 131.457031 94.335938 144.09375 88.132812 C 152.582031 83.96875 159.703125 86.878906 161.835938 93.574219 L 153.769531 102.996094 " fill-opacity="1" fill-rule="nonzero"/><path fill="#5273c7" d="M 198.546875 351.195312 C 196.351562 351.835938 190.839844 354.871094 187.292969 356.890625 C 185.507812 357.90625 184.828125 360.238281 185.753906 362.136719 C 186.4375 363.542969 187.859375 364.378906 189.355469 364.257812 L 210.769531 362.523438 L 212.714844 349.703125 L 198.546875 351.195312 " fill-opacity="1" fill-rule="nonzero"/><g clip-path="url(#c43f350b29)"><path fill="#5273c7" d="M 242.46875 353.328125 L 231.964844 360.15625 C 230.5625 361.066406 230.027344 362.933594 230.71875 364.503906 C 231.3125 365.859375 232.671875 366.652344 234.078125 366.46875 L 256.558594 363.476562 L 257.285156 347.996094 L 242.46875 353.328125 " fill-opacity="1" fill-rule="nonzero"/></g><path fill="#6800ff" d="M 206.09375 184.828125 C 195.207031 190.753906 202.796875 311.453125 197.132812 349.0625 C 198.628906 355.628906 208.0625 354.265625 213.726562 352.898438 L 234.777344 195.867188 L 229.636719 190.449219 L 206.09375 184.828125 " fill-opacity="1" fill-rule="nonzero"/><path fill="#1800d4" d="M 213.726562 352.898438 L 229.097656 238.257812 C 229.101562 238.324219 229.109375 238.398438 229.117188 238.460938 L 213.726562 352.898438 " fill-opacity="1" fill-rule="nonzero"/><path fill="#0a00d4" d="M 208.285156 353.878906 L 227.46875 223.960938 C 228.023438 228.523438 228.566406 233.3125 229.097656 238.257812 L 213.726562 352.898438 C 212.128906 353.285156 210.226562 353.671875 208.285156 353.878906 " fill-opacity="1" fill-rule="nonzero"/><path fill="#6800ff" d="M 221.183594 187.351562 C 229.265625 213.675781 235.75 319.210938 239.148438 350.8125 C 244.574219 356.652344 251.457031 353.667969 258.296875 351.195312 L 260.257812 215.828125 L 257.382812 176.640625 L 221.183594 187.351562 " fill-opacity="1" fill-rule="nonzero"/><path fill="#5e8dff" d="M 226.292969 100.523438 C 216.660156 94.980469 207.59375 113.699219 195.734375 116.683594 C 187.109375 116.34375 173.78125 97.160156 160.3125 90.757812 L 150.355469 102.144531 C 159.058594 111.269531 172.214844 142.570312 184.195312 143.679688 C 197.351562 144.914062 196.054688 139.328125 206.054688 137.410156 L 226.292969 100.523438 " fill-opacity="1" fill-rule="nonzero"/><path fill="#1600cf" d="M 187.671875 143.855469 C 186.636719 143.855469 185.484375 143.796875 184.195312 143.679688 C 184.121094 143.671875 184.042969 143.660156 183.96875 143.652344 C 184.042969 143.660156 184.121094 143.671875 184.195312 143.679688 C 185.484375 143.796875 186.636719 143.855469 187.671875 143.855469 M 183.96875 143.652344 C 183.960938 143.652344 183.957031 143.652344 183.949219 143.652344 C 183.957031 143.652344 183.960938 143.652344 183.96875 143.652344 M 183.949219 143.652344 C 183.945312 143.648438 183.941406 143.648438 183.933594 143.648438 C 183.941406 143.648438 183.941406 143.648438 183.949219 143.652344 M 183.933594 143.648438 C 183.925781 143.648438 183.921875 143.648438 183.917969 143.648438 C 183.921875 143.648438 183.925781 143.648438 183.933594 143.648438 M 183.90625 143.644531 C 183.90625 143.644531 183.902344 143.644531 183.898438 143.644531 C 183.902344 143.644531 183.902344 143.644531 183.90625 143.644531 M 183.886719 143.644531 L 183.886719 143.644531 M 183.871094 143.640625 L 183.871094 143.640625 " fill-opacity="1" fill-rule="nonzero"/><path fill="#1300c7" d="M 200.402344 139.304688 C 201.171875 138.910156 202.023438 138.539062 203.007812 138.203125 C 202.023438 138.539062 201.171875 138.910156 200.402344 139.304688 " fill-opacity="1" fill-rule="nonzero"/><path fill="#0900d4" d="M 187.671875 143.855469 C 186.636719 143.855469 185.484375 143.796875 184.195312 143.679688 C 184.121094 143.671875 184.042969 143.660156 183.96875 143.652344 C 183.960938 143.652344 183.957031 143.652344 183.949219 143.652344 C 183.941406 143.648438 183.941406 143.648438 183.933594 143.648438 C 183.925781 143.648438 183.921875 143.648438 183.917969 143.648438 C 183.914062 143.644531 183.910156 143.644531 183.90625 143.644531 C 183.902344 143.644531 183.902344 143.644531 183.898438 143.644531 C 183.894531 143.644531 183.890625 143.644531 183.886719 143.644531 C 183.878906 143.640625 183.875 143.640625 183.871094 143.640625 C 181.460938 143.308594 179.003906 141.777344 176.550781 139.472656 C 180.125 140.914062 183.53125 141.949219 185.933594 141.949219 C 186.625 141.949219 187.238281 141.863281 187.742188 141.675781 C 193.992188 139.351562 205.382812 131.222656 205.382812 131.222656 L 205.441406 131.632812 L 202.9375 136.792969 C 202.964844 137.273438 202.984375 137.742188 203.007812 138.203125 C 202.023438 138.539062 201.171875 138.910156 200.402344 139.304688 C 196.425781 141.335938 194.644531 143.855469 187.671875 143.855469 " fill-opacity="1" fill-rule="nonzero"/><path fill="#0a00d4" d="M 216.882812 198.964844 C 213.0625 198.964844 206.277344 196.945312 202.9375 191.496094 C 203.140625 190.597656 203.359375 189.78125 203.589844 189.046875 C 206.917969 192.890625 211.960938 194.363281 214.992188 194.363281 C 215.382812 194.363281 215.738281 194.339844 216.054688 194.292969 L 222.777344 193.625 C 223.097656 195.09375 223.414062 196.683594 223.726562 198.371094 L 218.027344 198.894531 C 217.6875 198.941406 217.304688 198.964844 216.882812 198.964844 " fill-opacity="1" fill-rule="nonzero"/><path fill="#0a00d4" d="M 259.398438 205.160156 L 256.070312 200.902344 C 256.203125 200.707031 256.335938 200.515625 256.464844 200.328125 L 255.074219 199.625 L 252.050781 195.757812 L 248.117188 196.121094 L 244.792969 194.445312 C 244.679688 194.503906 244.570312 194.566406 244.464844 194.628906 L 244.378906 194.582031 C 243.59375 195.015625 242.980469 195.539062 242.523438 196.121094 C 242.550781 196.171875 242.578125 196.21875 242.601562 196.265625 C 242.507812 196.390625 242.425781 196.523438 242.34375 196.652344 L 223.726562 198.371094 C 223.414062 196.683594 223.097656 195.09375 222.777344 193.625 L 254.628906 190.457031 C 255.949219 187.027344 256.941406 183.699219 257.652344 180.457031 L 259.398438 205.160156 " fill-opacity="1" fill-rule="nonzero"/><path fill="#cfddff" d="M 248.964844 119.839844 C 254.671875 142.058594 265.195312 162.996094 254.628906 190.457031 L 216.054688 194.292969 C 211.761719 194.933594 199.820312 191.394531 200.265625 178.898438 C 200.914062 160.050781 203.828125 153.253906 202.9375 136.792969 L 220.449219 100.644531 L 236.25 100.644531 L 248.964844 119.839844 " fill-opacity="1" fill-rule="nonzero"/><path fill="#e8d9ff" d="M 252.46875 205.628906 C 254.027344 204.230469 255.269531 202.035156 256.464844 200.328125 L 244.792969 194.445312 C 242.824219 195.492188 241.859375 196.984375 241.707031 198.617188 L 252.46875 205.628906 " fill-opacity="1" fill-rule="nonzero"/><path fill="#1600cf" d="M 260.289062 149.25 L 257.125 149.25 C 256.457031 146.175781 255.667969 143.148438 254.824219 140.136719 L 257.808594 140.136719 L 261.234375 145.933594 L 260.289062 149.25 M 256.269531 137.535156 L 254.078125 137.535156 C 253.355469 135.042969 252.601562 132.558594 251.859375 130.078125 L 256.269531 137.535156 " fill-opacity="1" fill-rule="nonzero"/><path fill="#1300c7" d="M 257.808594 140.136719 L 254.824219 140.136719 C 254.582031 139.269531 254.332031 138.402344 254.078125 137.535156 L 256.269531 137.535156 L 257.808594 140.136719 " fill-opacity="1" fill-rule="nonzero"/><path fill="#1300c7" d="M 258.355469 156.011719 C 258.027344 153.730469 257.605469 151.480469 257.125 149.25 L 260.289062 149.25 L 258.355469 156.011719 " fill-opacity="1" fill-rule="nonzero"/><path fill="#1300d4" d="M 245.652344 189.773438 C 251.628906 167.226562 249.109375 144 249.109375 144 L 247.273438 122.320312 L 251.859375 130.078125 C 252.601562 132.558594 253.355469 135.042969 254.078125 137.535156 C 254.332031 138.402344 254.582031 139.269531 254.824219 140.136719 C 255.667969 143.148438 256.457031 146.175781 257.125 149.25 C 257.605469 151.480469 258.027344 153.730469 258.355469 156.011719 L 252.050781 178.0625 L 245.652344 189.773438 " fill-opacity="1" fill-rule="nonzero"/><path fill="#0100b0" d="M 242.601562 196.265625 C 242.578125 196.21875 242.550781 196.171875 242.523438 196.121094 C 242.980469 195.539062 243.59375 195.015625 244.378906 194.582031 L 244.464844 194.628906 C 243.664062 195.101562 243.050781 195.65625 242.601562 196.265625 " fill-opacity="1" fill-rule="nonzero"/><path fill="#1600d4" d="M 254.738281 202.871094 C 253.246094 202.082031 252.046875 201.917969 250.992188 201.917969 C 250.625 201.917969 250.269531 201.941406 249.929688 201.960938 C 249.589844 201.980469 249.261719 202 248.9375 202 C 247.078125 202 245.378906 201.34375 242.601562 196.265625 C 243.050781 195.65625 243.664062 195.101562 244.464844 194.628906 L 255.839844 201.046875 C 255.480469 201.617188 255.117188 202.238281 254.738281 202.871094 " fill-opacity="1" fill-rule="nonzero"/><g clip-path="url(#8df56361f1)"><g clip-path="url(#1137c6762f)"><g clip-path="url(#3c51759673)"><path fill="url(#1c486d339c)" d="M 239.59375 197.589844 L 239.59375 207.152344 L 254.371094 207.152344 L 254.371094 197.589844 Z M 239.59375 197.589844 " fill-rule="nonzero"/></g></g></g><path fill="#5273c7" d="M 210.226562 60.773438 C 215.617188 72.773438 223.289062 67.777344 229.828125 70.632812 L 229.992188 75.164062 C 230.078125 77.585938 230.496094 77.703125 231.800781 79.742188 L 239.695312 76.074219 C 239.351562 71.808594 244.640625 71.742188 237.765625 65.261719 C 236.066406 63.683594 234.582031 64.40625 232.671875 62.191406 C 239.671875 50.378906 198.453125 34.582031 210.226562 60.773438 " fill-opacity="1" fill-rule="nonzero"/><path fill="#5e8dff" d="M 231.140625 99.277344 C 237.898438 98.527344 242.40625 99.277344 246.910156 100.777344 C 253.667969 103.027344 274.019531 110.460938 271.308594 146.835938 C 268.59375 183.164062 266.890625 190.148438 255.597656 201.707031 C 250.617188 196.375 245.769531 204.105469 243.664062 192.421875 C 243.664062 192.421875 255.722656 170.320312 253.152344 145.160156 C 252.078125 134.664062 245.605469 120.351562 245.605469 120.351562 L 231.140625 99.277344 " fill-opacity="1" fill-rule="nonzero"/><path fill="#e8d9ff" d="M 222.328125 89.652344 L 222.925781 104.746094 C 224.070312 109.4375 227.742188 108.328125 232.789062 104.0625 L 232.054688 90.589844 L 222.328125 89.652344 " fill-opacity="1" fill-rule="nonzero"/><path fill="#1600cf" d="M 222.6875 98.769531 L 222.625 97.140625 L 222.6875 98.769531 M 232.359375 96.148438 L 232.246094 94.042969 L 232.359375 96.148438 " fill-opacity="1" fill-rule="nonzero"/><path fill="#1600d4" d="M 223.5 98.8125 C 223.226562 98.8125 222.953125 98.796875 222.6875 98.769531 L 222.625 97.140625 C 222.804688 97.152344 222.988281 97.160156 223.171875 97.160156 C 225.578125 97.160156 228.257812 95.988281 231.011719 94.671875 C 231.167969 94.59375 231.328125 94.519531 231.484375 94.441406 C 231.589844 94.390625 231.691406 94.339844 231.796875 94.289062 C 231.945312 94.207031 232.097656 94.128906 232.246094 94.042969 L 232.359375 96.148438 C 229.246094 97.535156 226.210938 98.8125 223.5 98.8125 " fill-opacity="1" fill-rule="nonzero"/><path fill="#e8d9ff" d="M 216.816406 64.929688 C 213.78125 78.476562 213.617188 82.710938 215.902344 89.859375 C 219.15625 100.089844 225.152344 97.496094 231.484375 94.441406 C 235.410156 92.546875 239.308594 88.050781 236.453125 83.058594 C 240.476562 82.070312 243.25 79.847656 239.171875 75.515625 C 236.082031 76.417969 232.535156 77.96875 233.949219 75.121094 L 232.925781 67.015625 L 216.816406 64.929688 " fill-opacity="1" fill-rule="nonzero"/><path fill="#796fe3" d="M 237.0625 88.695312 C 237.070312 88.679688 237.074219 88.664062 237.078125 88.648438 C 237.074219 88.664062 237.070312 88.679688 237.0625 88.695312 M 237.128906 84.582031 C 236.96875 84.082031 236.75 83.574219 236.453125 83.058594 C 240.296875 82.113281 243 80.046875 239.675781 76.082031 C 243.003906 80.046875 240.296875 82.113281 236.453125 83.058594 C 236.75 83.574219 236.96875 84.082031 237.128906 84.582031 " fill-opacity="1" fill-rule="nonzero"/><path fill="#6a63d9" d="M 237.078125 88.648438 C 237.507812 87.390625 237.582031 86.015625 237.128906 84.582031 C 237.582031 86.015625 237.507812 87.390625 237.078125 88.648438 " fill-opacity="1" fill-rule="nonzero"/><path fill="#2a35b5" d="M 239.675781 76.082031 C 239.523438 75.898438 239.351562 75.710938 239.171875 75.515625 C 238.636719 75.671875 238.09375 75.847656 237.558594 76.015625 C 238.09375 75.847656 238.636719 75.671875 239.171875 75.515625 C 239.351562 75.707031 239.523438 75.898438 239.675781 76.082031 " fill-opacity="1" fill-rule="nonzero"/><path fill="#0b00c1" d="M 231.011719 94.671875 C 231.167969 94.59375 231.328125 94.519531 231.484375 94.441406 C 231.589844 94.390625 231.691406 94.339844 231.796875 94.289062 C 231.691406 94.339844 231.589844 94.390625 231.484375 94.441406 C 231.328125 94.519531 231.167969 94.59375 231.011719 94.671875 " fill-opacity="1" fill-rule="nonzero"/><path fill="#7664e8" d="M 223.175781 97.15625 C 222.84375 97.15625 222.511719 97.136719 222.1875 97.085938 C 224.449219 96.792969 226.910156 95.65625 229.429688 94.441406 C 233.355469 92.546875 237.253906 88.050781 234.394531 83.058594 C 238.261719 82.109375 240.972656 80.019531 237.558594 76.015625 C 238.09375 75.847656 238.636719 75.671875 239.171875 75.515625 C 239.351562 75.710938 239.523438 75.898438 239.675781 76.082031 C 243 80.046875 240.296875 82.113281 236.453125 83.058594 C 236.75 83.574219 236.96875 84.082031 237.128906 84.582031 C 237.582031 86.015625 237.507812 87.390625 237.078125 88.648438 C 237.074219 88.664062 237.070312 88.679688 237.0625 88.695312 C 236.214844 91.128906 234.039062 93.125 231.796875 94.289062 C 231.691406 94.339844 231.589844 94.390625 231.484375 94.441406 C 231.328125 94.519531 231.167969 94.59375 231.011719 94.671875 C 228.257812 95.988281 225.582031 97.15625 223.175781 97.15625 " fill-opacity="1" fill-rule="nonzero"/></svg>