<svg xmlns="http://www.w3.org/2000/svg" xmlns:xlink="http://www.w3.org/1999/xlink" width="500" zoomAndPan="magnify" viewBox="0 0 375 374.999991" height="500" preserveAspectRatio="xMidYMid meet" version="1.0"><defs><clipPath id="41983fe810"><path d="M 7.339844 53 L 265 53 L 265 350 L 7.339844 350 Z M 7.339844 53 " clip-rule="nonzero"/></clipPath><clipPath id="27d1f99936"><path d="M 7.339844 5.058594 L 265 5.058594 L 265 64 L 7.339844 64 Z M 7.339844 5.058594 " clip-rule="nonzero"/></clipPath><clipPath id="60ea350ead"><path d="M 288.398438 294.625 L 367.265625 294.625 L 367.265625 370.292969 L 288.398438 370.292969 Z M 288.398438 294.625 " clip-rule="nonzero"/></clipPath></defs><g clip-path="url(#41983fe810)"><path fill="#71d3fc" d="M 7.417969 53.167969 L 264.042969 53.167969 L 264.042969 349.21875 L 7.417969 349.21875 L 7.417969 53.167969 " fill-opacity="1" fill-rule="nonzero"/></g><path fill="#018ff9" d="M 119.4375 96.410156 L 29.46875 96.410156 L 29.46875 76.96875 L 119.4375 76.96875 L 119.4375 96.410156 " fill-opacity="1" fill-rule="nonzero"/><path fill="#0c22ad" d="M 227.046875 126.445312 L 29.46875 126.445312 L 29.46875 107 L 227.046875 107 L 227.046875 126.445312 " fill-opacity="1" fill-rule="nonzero"/><path fill="#a2ebf9" d="M 46.457031 238.40625 L 29.46875 238.40625 L 29.46875 164.757812 L 46.457031 164.757812 L 46.457031 238.40625 " fill-opacity="1" fill-rule="nonzero"/><path fill="#018ff9" d="M 71.15625 238.40625 L 54.167969 238.40625 L 54.167969 189.503906 L 71.15625 189.503906 L 71.15625 238.40625 " fill-opacity="1" fill-rule="nonzero"/><path fill="#a2ebf9" d="M 103.558594 238.40625 L 86.570312 238.40625 L 86.570312 164.757812 L 103.558594 164.757812 L 103.558594 238.40625 " fill-opacity="1" fill-rule="nonzero"/><path fill="#018ff9" d="M 128.257812 238.40625 L 111.269531 238.40625 L 111.269531 189.503906 L 128.257812 189.503906 L 128.257812 238.40625 " fill-opacity="1" fill-rule="nonzero"/><path fill="#a2ebf9" d="M 160.660156 238.40625 L 143.671875 238.40625 L 143.671875 164.757812 L 160.660156 164.757812 L 160.660156 238.40625 " fill-opacity="1" fill-rule="nonzero"/><path fill="#018ff9" d="M 185.359375 238.40625 L 168.371094 238.40625 L 168.371094 189.503906 L 185.359375 189.503906 L 185.359375 238.40625 " fill-opacity="1" fill-rule="nonzero"/><path fill="#a2ebf9" d="M 217.761719 238.40625 L 200.773438 238.40625 L 200.773438 164.757812 L 217.761719 164.757812 L 217.761719 238.40625 " fill-opacity="1" fill-rule="nonzero"/><path fill="#018ff9" d="M 242.460938 238.40625 L 225.472656 238.40625 L 225.472656 189.503906 L 242.460938 189.503906 L 242.460938 238.40625 " fill-opacity="1" fill-rule="nonzero"/><path fill="#018ff9" d="M 99.96875 276.113281 L 29.46875 276.113281 L 29.46875 265.507812 L 99.96875 265.507812 L 99.96875 276.113281 " fill-opacity="1" fill-rule="nonzero"/><path fill="#0c22ad" d="M 152.167969 297.914062 L 29.46875 297.914062 L 29.46875 287.308594 L 152.167969 287.308594 L 152.167969 297.914062 " fill-opacity="1" fill-rule="nonzero"/><path fill="#018ff9" d="M 46.636719 328.3125 C 46.636719 333.0625 42.792969 336.914062 38.050781 336.914062 C 33.3125 336.914062 29.46875 333.0625 29.46875 328.3125 C 29.46875 323.5625 33.3125 319.710938 38.050781 319.710938 C 42.792969 319.710938 46.636719 323.5625 46.636719 328.3125 " fill-opacity="1" fill-rule="nonzero"/><path fill="#0c22ad" d="M 69.738281 328.3125 C 69.738281 333.0625 65.894531 336.914062 61.15625 336.914062 C 56.414062 336.914062 52.570312 333.0625 52.570312 328.3125 C 52.570312 323.5625 56.414062 319.710938 61.15625 319.710938 C 65.894531 319.710938 69.738281 323.5625 69.738281 328.3125 " fill-opacity="1" fill-rule="nonzero"/><g clip-path="url(#27d1f99936)"><path fill="#ffe401" d="M 264.042969 63.386719 L 7.417969 63.386719 L 7.417969 5.058594 L 264.042969 5.058594 L 264.042969 63.386719 " fill-opacity="1" fill-rule="nonzero"/></g><path fill="#ffbe00" d="M 238.027344 43.015625 L 104.402344 43.015625 C 101.957031 43.015625 99.96875 41.027344 99.96875 38.574219 L 99.96875 28.601562 C 99.96875 26.152344 101.957031 24.160156 104.402344 24.160156 L 238.027344 24.160156 C 240.476562 24.160156 242.460938 26.152344 242.460938 28.601562 L 242.460938 38.574219 C 242.460938 41.027344 240.476562 43.015625 238.027344 43.015625 " fill-opacity="1" fill-rule="nonzero"/><path fill="#ff3e01" d="M 59.425781 33.519531 C 59.425781 41.804688 52.71875 48.523438 44.445312 48.523438 C 36.175781 48.523438 29.46875 41.804688 29.46875 33.519531 C 29.46875 25.226562 36.175781 18.507812 44.445312 18.507812 C 52.71875 18.507812 59.425781 25.226562 59.425781 33.519531 " fill-opacity="1" fill-rule="nonzero"/><path fill="#ffbe00" d="M 259.777344 281.601562 L 271.582031 268.75 L 314.261719 308.117188 L 302.453125 320.96875 L 259.777344 281.601562 " fill-opacity="1" fill-rule="nonzero"/><path fill="#ffe401" d="M 204.796875 291.933594 C 225.539062 311.066406 257.832031 309.726562 276.929688 288.949219 C 296.027344 268.167969 294.691406 235.808594 273.949219 216.679688 C 253.207031 197.546875 220.914062 198.882812 201.816406 219.664062 C 182.722656 240.445312 184.054688 272.800781 204.796875 291.933594 " fill-opacity="1" fill-rule="nonzero"/><g clip-path="url(#60ea350ead)"><path fill="#ff3e01" d="M 289.753906 309.066406 L 301.316406 296.480469 C 303.203125 294.429688 306.390625 294.296875 308.4375 296.1875 L 365.640625 348.945312 C 367.6875 350.835938 367.816406 354.03125 365.933594 356.082031 L 354.367188 368.664062 C 352.484375 370.714844 349.296875 370.847656 347.246094 368.960938 L 290.050781 316.199219 C 288 314.308594 287.871094 311.117188 289.753906 309.066406 " fill-opacity="1" fill-rule="nonzero"/></g><path fill="#ffe401" d="M 217.765625 207.957031 L 217.765625 238.402344 L 200.777344 238.402344 L 200.777344 220.839844 C 201.113281 220.441406 201.460938 220.054688 201.820312 219.664062 C 206.46875 214.601562 211.902344 210.691406 217.765625 207.957031 " fill-opacity="1" fill-rule="nonzero"/><path fill="#ffe401" d="M 242.464844 203.253906 L 242.464844 238.402344 L 225.476562 238.402344 L 225.476562 205.085938 C 231.003906 203.523438 236.75 202.90625 242.464844 203.253906 " fill-opacity="1" fill-rule="nonzero"/><path fill="#ff3e01" d="M 217.765625 207.957031 L 217.765625 238.402344 L 200.777344 238.402344 L 200.777344 220.839844 C 201.113281 220.441406 201.460938 220.054688 201.820312 219.664062 C 206.46875 214.601562 211.902344 210.691406 217.765625 207.957031 " fill-opacity="1" fill-rule="nonzero"/><path fill="#ffbe00" d="M 242.464844 203.253906 L 242.464844 238.402344 L 225.476562 238.402344 L 225.476562 205.085938 C 231.003906 203.523438 236.75 202.90625 242.464844 203.253906 " fill-opacity="1" fill-rule="nonzero"/></svg>