<svg xmlns="http://www.w3.org/2000/svg" xmlns:xlink="http://www.w3.org/1999/xlink" width="500" zoomAndPan="magnify" viewBox="0 0 375 374.999991" height="500" preserveAspectRatio="xMidYMid meet" version="1.0"><defs><clipPath id="02ad9e1556"><path d="M 10 300 L 39 300 L 39 356.035156 L 10 356.035156 Z M 10 300 " clip-rule="nonzero"/></clipPath><clipPath id="0a680d0716"><path d="M 40 300 L 69 300 L 69 356.035156 L 40 356.035156 Z M 40 300 " clip-rule="nonzero"/></clipPath><clipPath id="04bba5c13d"><path d="M 71 314 L 365.742188 314 L 365.742188 342 L 71 342 Z M 71 314 " clip-rule="nonzero"/></clipPath><clipPath id="479f080d87"><path d="M 10 19.285156 L 365.742188 19.285156 L 365.742188 290 L 10 290 Z M 10 19.285156 " clip-rule="nonzero"/></clipPath></defs><g clip-path="url(#02ad9e1556)"><path fill="#000000" d="M 10.246094 313.917969 L 10.246094 342.21875 C 10.246094 349.886719 16.464844 356.109375 24.128906 356.109375 C 31.792969 356.109375 38.015625 349.886719 38.015625 342.21875 L 38.015625 313.921875 C 38.015625 306.253906 31.792969 300.03125 24.128906 300.03125 C 16.464844 300.03125 10.246094 306.253906 10.246094 313.917969 Z M 10.246094 313.917969 " fill-opacity="1" fill-rule="evenodd"/></g><g clip-path="url(#0a680d0716)"><path fill="#000000" d="M 40.90625 313.921875 L 40.90625 342.21875 C 40.90625 349.886719 47.125 356.109375 54.789062 356.109375 C 62.453125 356.109375 68.675781 349.886719 68.675781 342.21875 L 68.675781 313.921875 C 68.675781 306.253906 62.453125 300.03125 54.789062 300.03125 C 47.125 300.03125 40.90625 306.253906 40.90625 313.921875 Z M 40.90625 313.921875 " fill-opacity="1" fill-rule="evenodd"/></g><g clip-path="url(#04bba5c13d)"><path fill="#000000" d="M 85.644531 341.960938 L 351.207031 341.960938 C 358.871094 341.960938 365.089844 335.734375 365.089844 328.070312 C 365.089844 320.40625 358.871094 314.179688 351.207031 314.179688 L 85.644531 314.179688 C 77.984375 314.179688 71.761719 320.40625 71.761719 328.070312 C 71.761719 335.734375 77.984375 341.960938 85.644531 341.960938 Z M 85.644531 341.960938 " fill-opacity="1" fill-rule="evenodd"/></g><g clip-path="url(#479f080d87)"><path fill="#000000" d="M 365.089844 48.65625 C 365.089844 32.464844 351.96875 19.335938 335.777344 19.335938 C 272.164062 19.335938 103.171875 19.335938 39.558594 19.335938 C 23.367188 19.335938 10.246094 32.464844 10.246094 48.65625 C 10.246094 98.375 10.246094 210.03125 10.246094 259.75 C 10.246094 275.945312 23.367188 289.070312 39.558594 289.070312 C 103.171875 289.070312 272.164062 289.070312 335.777344 289.070312 C 351.96875 289.070312 365.089844 275.945312 365.089844 259.75 Z M 115.453125 241.648438 C 112.996094 241.648438 110.644531 240.671875 108.90625 238.9375 C 107.167969 237.199219 106.195312 234.84375 106.195312 232.390625 C 106.195312 212.203125 106.195312 166.027344 106.195312 166.027344 C 106.195312 155.808594 97.898438 147.507812 87.679688 147.507812 C 77.464844 147.507812 69.167969 155.808594 69.167969 166.027344 L 69.167969 232.390625 C 69.167969 234.84375 68.191406 237.199219 66.457031 238.9375 C 64.71875 240.671875 62.367188 241.648438 59.910156 241.648438 C 57.171875 241.648438 54.886719 241.648438 54.886719 241.648438 C 47.226562 241.648438 41.003906 247.871094 41.003906 255.539062 C 41.003906 263.203125 47.226562 269.425781 54.886719 269.425781 L 320.449219 269.425781 C 328.109375 269.425781 334.332031 263.203125 334.332031 255.539062 C 334.332031 247.871094 328.109375 241.648438 320.449219 241.648438 L 315.425781 241.648438 C 312.96875 241.648438 310.613281 240.671875 308.878906 238.9375 C 307.144531 237.199219 306.167969 234.84375 306.167969 232.390625 C 306.167969 224.835938 306.167969 215.414062 306.167969 215.414062 C 306.167969 205.191406 297.875 196.894531 287.65625 196.894531 C 277.4375 196.894531 269.140625 205.191406 269.140625 215.414062 L 269.140625 232.390625 C 269.140625 234.84375 268.164062 237.199219 266.429688 238.9375 C 264.695312 240.671875 262.339844 241.648438 259.882812 241.648438 C 256.34375 241.648438 252.308594 241.648438 248.765625 241.648438 C 246.3125 241.648438 243.957031 240.671875 242.222656 238.9375 C 240.488281 237.199219 239.511719 234.84375 239.511719 232.390625 C 239.511719 219.28125 239.511719 196.894531 239.511719 196.894531 C 239.511719 186.671875 231.214844 178.375 220.996094 178.375 C 210.777344 178.375 202.484375 186.671875 202.484375 196.894531 L 202.484375 232.390625 C 202.484375 234.84375 201.507812 237.199219 199.773438 238.9375 C 198.035156 240.671875 195.679688 241.648438 193.226562 241.648438 C 189.6875 241.648438 185.648438 241.648438 182.109375 241.648438 C 176.996094 241.648438 172.851562 237.5 172.851562 232.390625 C 172.851562 216.222656 172.851562 184.546875 172.851562 184.546875 C 172.851562 174.328125 164.554688 166.027344 154.339844 166.027344 C 144.121094 166.027344 135.824219 174.328125 135.824219 184.546875 L 135.824219 232.390625 C 135.824219 237.5 131.679688 241.648438 126.570312 241.648438 C 123.027344 241.648438 118.992188 241.648438 115.453125 241.648438 Z M 187.328125 39.722656 C 153.929688 39.828125 124.988281 55.046875 110.585938 69.429688 C 103.535156 76.46875 99.945312 83.574219 99.945312 88.867188 C 99.945312 94.160156 103.535156 101.261719 110.585938 108.300781 C 124.988281 122.683594 153.929688 137.90625 187.328125 138.007812 L 188.003906 138.007812 C 221.402344 137.90625 250.347656 122.683594 264.75 108.300781 C 271.804688 101.261719 275.390625 94.160156 275.390625 88.867188 C 275.390625 83.574219 271.804688 76.46875 264.75 69.429688 C 250.347656 55.046875 221.402344 39.828125 188.003906 39.722656 C 187.894531 39.722656 187.441406 39.722656 187.328125 39.722656 Z M 187.394531 48.984375 L 187.941406 48.984375 C 209.820312 49.128906 227.539062 66.945312 227.539062 88.867188 C 227.539062 110.789062 209.820312 128.601562 187.941406 128.75 L 187.394531 128.75 C 165.515625 128.601562 147.796875 110.789062 147.796875 88.867188 C 147.796875 66.945312 165.515625 49.128906 187.394531 48.984375 Z M 187.667969 65.160156 C 174.585938 65.160156 163.96875 75.78125 163.96875 88.867188 C 163.96875 101.949219 174.585938 112.574219 187.667969 112.574219 C 200.75 112.574219 211.367188 101.949219 211.367188 88.867188 C 211.367188 75.78125 200.75 65.160156 187.667969 65.160156 Z M 187.667969 65.160156 " fill-opacity="1" fill-rule="evenodd"/></g></svg>