<svg xmlns="http://www.w3.org/2000/svg" xmlns:xlink="http://www.w3.org/1999/xlink" width="500" zoomAndPan="magnify" viewBox="0 0 375 374.999991" height="500" preserveAspectRatio="xMidYMid meet" version="1.0"><defs><clipPath id="4cfa39a869"><path d="M 232.300781 84.664062 L 374.976562 84.664062 L 374.976562 267.308594 L 232.300781 267.308594 Z M 232.300781 84.664062 " clip-rule="nonzero"/></clipPath><clipPath id="0c7ca52a4b"><path d="M 232.300781 84.664062 L 374.976562 84.664062 L 374.976562 102.726562 L 232.300781 102.726562 Z M 232.300781 84.664062 " clip-rule="nonzero"/></clipPath><clipPath id="e26cf8ed59"><path d="M 113 102 L 281 102 L 281 290.109375 L 113 290.109375 Z M 113 102 " clip-rule="nonzero"/></clipPath></defs><g clip-path="url(#4cfa39a869)"><path fill="#e0dbfe" d="M 232.613281 84.664062 L 374.976562 84.664062 L 374.976562 267.308594 L 232.613281 267.308594 L 232.613281 84.664062 " fill-opacity="1" fill-rule="nonzero"/></g><g clip-path="url(#0c7ca52a4b)"><path fill="#b2a6fd" d="M 374.976562 84.664062 L 232.613281 84.664062 L 232.613281 102.429688 L 374.976562 102.429688 L 374.976562 84.664062 " fill-opacity="1" fill-rule="nonzero"/></g><path fill="#2400f9" d="M 238.308594 93.304688 C 238.308594 95.675781 240.234375 97.597656 242.605469 97.597656 C 244.980469 97.597656 246.90625 95.675781 246.90625 93.304688 C 246.90625 90.933594 244.980469 89.011719 242.605469 89.011719 C 240.234375 89.011719 238.308594 90.933594 238.308594 93.304688 " fill-opacity="1" fill-rule="nonzero"/><path fill="#2400f9" d="M 250.542969 93.304688 C 250.542969 95.675781 252.46875 97.597656 254.84375 97.597656 C 257.21875 97.597656 259.140625 95.675781 259.140625 93.304688 C 259.140625 90.933594 257.21875 89.011719 254.84375 89.011719 C 252.46875 89.011719 250.542969 90.933594 250.542969 93.304688 " fill-opacity="1" fill-rule="nonzero"/><path fill="#b2a6fd" d="M 266.335938 189.144531 C 266.335938 211.25 284.28125 229.171875 306.417969 229.171875 C 328.558594 229.171875 346.503906 211.25 346.503906 189.144531 C 346.503906 167.035156 328.558594 149.113281 306.417969 149.113281 C 284.28125 149.113281 266.335938 167.035156 266.335938 189.144531 " fill-opacity="1" fill-rule="nonzero"/><path fill="#2400f9" d="M 306.417969 149.113281 L 306.417969 189.144531 L 346.503906 189.144531 C 346.503906 167.035156 328.558594 149.113281 306.417969 149.113281 " fill-opacity="1" fill-rule="nonzero"/><g clip-path="url(#e26cf8ed59)"><path fill="#c8d7ff" d="M 113.363281 290.054688 L 280.179688 290.054688 L 280.179688 102.429688 L 113.363281 102.429688 L 113.363281 290.054688 " fill-opacity="1" fill-rule="nonzero"/></g><path fill="#92afff" d="M 113.363281 102.429688 L 280.179688 102.429688 L 280.179688 119.453125 L 113.363281 119.453125 L 113.363281 102.429688 " fill-opacity="1" fill-rule="nonzero"/><path fill="#497aff" d="M 118.949219 110.976562 C 118.949219 113.074219 120.648438 114.769531 122.742188 114.769531 C 124.839844 114.769531 126.539062 113.074219 126.539062 110.976562 C 126.539062 108.882812 124.839844 107.1875 122.742188 107.1875 C 120.648438 107.1875 118.949219 108.882812 118.949219 110.976562 " fill-opacity="1" fill-rule="nonzero"/><path fill="#497aff" d="M 130.53125 110.976562 C 130.53125 113.074219 132.230469 114.769531 134.328125 114.769531 C 136.425781 114.769531 138.125 113.074219 138.125 110.976562 C 138.125 108.882812 136.425781 107.1875 134.328125 107.1875 C 132.230469 107.1875 130.53125 108.882812 130.53125 110.976562 " fill-opacity="1" fill-rule="nonzero"/><path fill="#497aff" d="M 167.128906 162.773438 L 132.121094 162.773438 L 132.121094 127.816406 L 167.128906 127.816406 L 167.128906 162.773438 " fill-opacity="1" fill-rule="nonzero"/><path fill="#497aff" d="M 251.039062 153.574219 L 187.726562 153.574219 L 187.726562 145.292969 L 251.039062 145.292969 L 251.039062 153.574219 " fill-opacity="1" fill-rule="nonzero"/><path fill="#497aff" d="M 251.039062 178.558594 L 167.128906 178.558594 L 167.128906 170.277344 L 251.039062 170.277344 L 251.039062 178.558594 " fill-opacity="1" fill-rule="nonzero"/><path fill="#92afff" d="M 161.265625 249.578125 L 147.53125 249.578125 L 147.53125 274 L 161.265625 274 L 161.265625 249.578125 " fill-opacity="1" fill-rule="nonzero"/><path fill="#497aff" d="M 182.703125 229.171875 L 168.96875 229.171875 L 168.96875 274 L 182.703125 274 L 182.703125 229.171875 " fill-opacity="1" fill-rule="nonzero"/><path fill="#497aff" d="M 204.140625 220.8125 L 190.40625 220.8125 L 190.40625 274 L 204.140625 274 L 204.140625 220.8125 " fill-opacity="1" fill-rule="nonzero"/><path fill="#5c47ff" d="M 225.578125 214.121094 L 211.84375 214.121094 L 211.84375 274 L 225.578125 274 L 225.578125 214.121094 " fill-opacity="1" fill-rule="nonzero"/><path fill="#5c47ff" d="M 148.515625 224.457031 L 146.546875 219.839844 L 203.15625 195.757812 L 205.125 200.371094 L 148.515625 224.457031 " fill-opacity="1" fill-rule="nonzero"/><path fill="#5c47ff" d="M 199.34375 192.25 L 204.160156 204.738281 L 208.9375 195.730469 Z M 199.34375 192.25 " fill-opacity="1" fill-rule="nonzero"/><path fill="#2400f9" d="M 72.917969 196.035156 L 81.4375 207.835938 L 49.972656 230.492188 L 41.453125 218.691406 L 72.917969 196.035156 " fill-opacity="1" fill-rule="nonzero"/><path fill="#b2a6fd" d="M 81.949219 139.425781 C 60.453125 154.902344 55.589844 184.851562 71.089844 206.320312 C 86.589844 227.785156 116.578125 232.640625 138.074219 217.164062 C 159.570312 201.683594 164.433594 171.734375 148.933594 150.269531 C 133.433594 128.800781 103.441406 123.945312 81.949219 139.425781 " fill-opacity="1" fill-rule="nonzero"/><path fill="#e0dbfe" d="M 85.890625 144.886719 C 67.414062 158.1875 63.234375 183.933594 76.558594 202.382812 C 89.878906 220.832031 115.65625 225.003906 134.132812 211.703125 C 152.609375 198.398438 156.789062 172.65625 143.464844 154.207031 C 130.144531 135.753906 104.367188 131.582031 85.890625 144.886719 " fill-opacity="1" fill-rule="nonzero"/><path fill="#b2a6fd" d="M 140.039062 193.707031 C 135.96875 202.679688 127.363281 208.875 117.550781 209.898438 C 113.441406 210.328125 110.363281 207.699219 110.886719 205.324219 C 111.394531 202.929688 114.027344 201.417969 116.628906 201.109375 C 123.328125 200.414062 129.199219 196.183594 131.980469 190.054688 C 133.09375 187.691406 135.363281 185.671875 137.796875 185.949219 C 140.21875 186.203125 141.742188 189.953125 140.039062 193.707031 " fill-opacity="1" fill-rule="nonzero"/><path fill="#92afff" d="M 143.464844 154.207031 C 140.300781 149.820312 136.429688 146.246094 132.121094 143.515625 L 132.121094 162.773438 L 148.222656 162.773438 C 147.007812 159.800781 145.429688 156.925781 143.464844 154.207031 " fill-opacity="1" fill-rule="nonzero"/><path fill="#0030ad" d="M 54.1875 212.941406 L 59.460938 220.242188 C 62.304688 224.183594 61.414062 229.679688 57.46875 232.519531 L 20.402344 259.207031 C 16.457031 262.046875 10.953125 261.15625 8.109375 257.21875 L 2.835938 249.914062 C -0.0078125 245.976562 0.882812 240.480469 4.828125 237.636719 L 41.894531 210.949219 C 45.839844 208.109375 51.34375 209 54.1875 212.941406 " fill-opacity="1" fill-rule="nonzero"/></svg>