<svg xmlns="http://www.w3.org/2000/svg" xmlns:xlink="http://www.w3.org/1999/xlink" width="500" zoomAndPan="magnify" viewBox="0 0 375 374.999991" height="500" preserveAspectRatio="xMidYMid meet" version="1.0"><defs><clipPath id="8101b89202"><path d="M 169 81.5625 L 374.886719 81.5625 L 374.886719 229.222656 L 169 229.222656 Z M 169 81.5625 " clip-rule="nonzero"/></clipPath><clipPath id="c26ab1a406"><path d="M 49 301 L 200.925781 301 L 200.925781 337.3125 L 49 337.3125 Z M 49 301 " clip-rule="nonzero"/></clipPath></defs><g clip-path="url(#8101b89202)"><path fill="#3948ad" d="M 169.175781 81.5625 L 169.175781 108.148438 L 171.570312 108.148438 L 171.570312 83.957031 L 372.492188 83.957031 L 372.492188 226.753906 L 209.535156 226.753906 L 209.535156 229.148438 L 374.886719 229.148438 L 374.886719 81.5625 L 169.175781 81.5625 " fill-opacity="1" fill-rule="nonzero"/></g><path fill="#3948ad" d="M 279.789062 197.308594 L 287.921875 197.308594 L 287.921875 215.953125 L 279.789062 215.953125 Z M 290.316406 218.34375 L 290.316406 194.914062 L 277.394531 194.914062 L 277.394531 218.34375 L 290.316406 218.34375 " fill-opacity="1" fill-rule="nonzero"/><path fill="#3948ad" d="M 262.527344 211.984375 L 270.65625 211.984375 L 270.65625 215.953125 L 262.527344 215.953125 Z M 273.054688 218.34375 L 273.054688 209.589844 L 260.128906 209.589844 L 260.128906 218.34375 L 273.054688 218.34375 " fill-opacity="1" fill-rule="nonzero"/><path fill="#3948ad" d="M 245.261719 201.375 L 253.394531 201.375 L 253.394531 215.953125 L 245.261719 215.953125 Z M 255.789062 218.34375 L 255.789062 198.980469 L 242.867188 198.980469 L 242.867188 218.34375 L 255.789062 218.34375 " fill-opacity="1" fill-rule="nonzero"/><path fill="#3948ad" d="M 227.996094 197.308594 L 236.128906 197.308594 L 236.128906 215.953125 L 227.996094 215.953125 Z M 238.523438 218.34375 L 238.523438 194.914062 L 225.601562 194.914062 L 225.601562 218.34375 L 238.523438 218.34375 " fill-opacity="1" fill-rule="nonzero"/><path fill="#3948ad" d="M 218.863281 215.953125 L 210.734375 215.953125 L 210.734375 207.828125 L 218.863281 207.828125 Z M 221.261719 205.433594 L 208.335938 205.433594 L 208.335938 218.34375 L 221.261719 218.34375 L 221.261719 205.433594 " fill-opacity="1" fill-rule="nonzero"/><path fill="#3948ad" d="M 369.902344 184.996094 L 204.558594 184.996094 L 204.558594 189.101562 L 369.902344 189.101562 L 369.902344 184.996094 " fill-opacity="1" fill-rule="nonzero"/><path fill="#3948ad" d="M 295.660156 145.457031 C 300.796875 142.988281 304.929688 142.597656 307.9375 144.304688 C 310.40625 145.699219 312.335938 148.59375 313.671875 152.90625 L 315.332031 152.394531 C 315.347656 152.449219 315.367188 152.503906 315.382812 152.558594 L 317.675781 151.859375 C 316.019531 146.4375 313.425781 142.691406 309.96875 140.730469 C 305.710938 138.324219 300.300781 138.667969 293.875 141.757812 L 294.917969 143.917969 L 295.660156 145.457031 " fill-opacity="1" fill-rule="nonzero"/><path fill="#3948ad" d="M 327.453125 178.027344 C 327.855469 178.078125 328.265625 178.101562 328.675781 178.101562 C 333.582031 178.101562 340.628906 174.667969 346.339844 158.308594 L 344.078125 157.519531 L 342.460938 156.957031 C 336.996094 172.621094 331.03125 174.332031 327.957031 173.953125 C 323.558594 173.414062 320.164062 168.164062 319.746094 163.601562 L 315.65625 163.976562 C 316.214844 170.105469 320.882812 177.21875 327.453125 178.027344 " fill-opacity="1" fill-rule="nonzero"/><path fill="#3948ad" d="M 350.003906 149.457031 C 354.171875 141 358.453125 137.175781 361.304688 135.453125 C 365.277344 133.0625 368.132812 133.613281 368.238281 133.636719 L 369.394531 133.902344 L 370.351562 129.929688 L 369.195312 129.644531 C 368.753906 129.535156 364.726562 128.675781 359.363281 131.835938 C 354.351562 134.785156 349.921875 140.1875 346.183594 147.894531 L 348.339844 148.9375 C 348.378906 148.855469 348.417969 148.777344 348.457031 148.695312 L 350.003906 149.457031 " fill-opacity="1" fill-rule="nonzero"/><path fill="#3948ad" d="M 239.597656 137.480469 C 246.730469 141.9375 252.246094 145.070312 256.957031 147.335938 L 257.699219 145.800781 C 257.734375 145.816406 257.773438 145.835938 257.8125 145.855469 L 258.851562 143.699219 C 254.277344 141.5 248.851562 138.421875 241.773438 134 C 233.683594 128.949219 225.445312 127.511719 217.289062 129.734375 C 211.972656 131.179688 206.746094 134.15625 201.757812 138.582031 L 202.925781 139.898438 C 202.503906 140.273438 202.082031 140.65625 201.664062 141.054688 L 203.3125 142.789062 C 208.21875 138.136719 213.285156 135.074219 218.375 133.691406 C 225.378906 131.789062 232.519531 133.0625 239.597656 137.480469 " fill-opacity="1" fill-rule="nonzero"/><path fill="#3948ad" d="M 271.890625 152.109375 C 272.769531 152.191406 273.636719 152.238281 274.5 152.238281 C 278.523438 152.238281 282.507812 151.285156 287.59375 149.160156 L 286.667969 146.953125 L 286.652344 146.960938 L 285.992188 145.378906 C 280.417969 147.699219 276.574219 148.441406 272.289062 148.023438 C 270.140625 147.8125 267.871094 147.285156 265.347656 146.417969 L 264.566406 148.679688 C 264.601562 148.695312 264.640625 148.707031 264.675781 148.71875 L 264.121094 150.332031 C 266.914062 151.289062 269.453125 151.867188 271.890625 152.109375 " fill-opacity="1" fill-rule="nonzero"/><path fill="#3948ad" d="M 203.785156 161.734375 L 205.519531 163.390625 C 208.980469 159.773438 214.292969 155.464844 219.945312 155.464844 L 220.042969 155.464844 C 223.996094 155.5 227.367188 158.675781 230.628906 161.746094 C 233.976562 164.898438 237.746094 168.449219 242.453125 168.449219 C 242.710938 168.449219 242.972656 168.4375 243.238281 168.417969 C 247.382812 168.070312 251.632812 164.945312 256.230469 158.871094 C 264.4375 148.019531 268.566406 139.058594 271.585938 132.511719 C 274.390625 126.429688 276.082031 122.757812 278.867188 122.382812 C 278.886719 122.382812 279.984375 122.382812 282.390625 127.757812 C 284 131.351562 285.601562 136 287.015625 140.109375 C 291.332031 152.648438 295.0625 163.480469 301.171875 163.480469 C 301.417969 163.480469 301.671875 163.460938 301.914062 163.425781 C 305.617188 162.875 308.1875 161.226562 310.253906 159.902344 C 313.636719 157.730469 315.035156 156.832031 319.621094 161.765625 C 322.964844 165.363281 326.425781 166.949219 329.902344 166.480469 C 335.128906 165.777344 338.867188 160.558594 341.089844 156.304688 C 341.46875 155.574219 342.050781 155.148438 342.964844 154.917969 C 347.257812 153.851562 356.214844 157.699219 367.539062 165.480469 L 368.527344 166.160156 L 370.855469 162.777344 L 369.867188 162.097656 C 357.03125 153.28125 347.648438 149.523438 341.972656 150.9375 C 339.902344 151.453125 338.378906 152.621094 337.445312 154.40625 C 336.28125 156.644531 333.15625 161.902344 329.351562 162.414062 C 327.273438 162.695312 325.015625 161.535156 322.632812 158.972656 C 315.707031 151.519531 311.804688 154.023438 308.03125 156.449219 C 306.117188 157.675781 304.140625 158.945312 301.3125 159.363281 C 300.757812 159.445312 299.15625 159.019531 296.421875 153.246094 C 294.457031 149.101562 292.566406 143.613281 290.898438 138.769531 L 290.882812 138.726562 C 286.816406 126.925781 283.613281 117.609375 278.316406 118.316406 C 273.296875 118.992188 271.132812 123.6875 267.855469 130.796875 C 264.914062 137.171875 260.890625 145.902344 252.953125 156.394531 C 249.152344 161.417969 245.769531 164.085938 242.894531 164.328125 C 239.644531 164.597656 236.632812 161.761719 233.445312 158.757812 C 229.609375 155.144531 225.644531 151.410156 220.074219 151.359375 L 219.941406 151.359375 C 214.621094 151.359375 209.164062 154.039062 203.722656 159.328125 L 204.9375 160.574219 C 204.554688 160.949219 204.171875 161.335938 203.785156 161.734375 " fill-opacity="1" fill-rule="nonzero"/><path fill="#3948ad" d="M 57.148438 251.011719 C 58.023438 251.011719 58.898438 250.964844 59.769531 250.875 C 60.476562 250.800781 61.179688 250.695312 61.871094 250.5625 L 61.871094 258.367188 L 135.6875 258.367188 L 135.6875 249.816406 L 64.808594 249.816406 C 67.625 248.917969 70.269531 247.523438 72.609375 245.710938 L 105.304688 245.710938 L 105.304688 237.160156 L 79.679688 237.160156 C 81.441406 233.675781 82.375 229.800781 82.375 225.785156 C 82.375 225.125 82.351562 224.46875 82.300781 223.820312 L 88.53125 223.820312 L 88.53125 193.035156 L 76.246094 193.035156 L 76.246094 209.300781 C 75.84375 208.835938 75.421875 208.386719 74.984375 207.945312 C 74.710938 207.675781 74.4375 207.410156 74.15625 207.160156 L 74.15625 178.667969 L 61.871094 178.667969 L 61.871094 201 C 60.324219 200.707031 58.738281 200.554688 57.125 200.554688 C 55.183594 200.554688 53.277344 200.773438 51.429688 201.199219 L 51.429688 116.28125 L 198.410156 116.28125 L 198.410156 285.753906 L 51.429688 285.753906 L 51.429688 250.359375 C 53.296875 250.792969 55.21875 251.011719 57.148438 251.011719 Z M 64.265625 252.210938 L 133.289062 252.210938 L 133.289062 255.972656 L 64.265625 255.972656 Z M 78.292969 239.550781 L 102.910156 239.550781 L 102.910156 243.316406 L 75.28125 243.316406 C 76.417969 242.148438 77.421875 240.882812 78.292969 239.550781 Z M 78.640625 212.566406 L 78.640625 195.429688 L 86.136719 195.429688 L 86.136719 221.425781 L 82 221.425781 C 81.457031 218.273438 80.316406 215.273438 78.640625 212.566406 Z M 71.757812 205.21875 C 69.472656 203.582031 66.941406 202.359375 64.265625 201.574219 L 64.265625 181.0625 L 71.757812 181.0625 Z M 44.910156 245.085938 C 43.492188 244.191406 42.167969 243.132812 40.964844 241.929688 C 40.308594 241.277344 39.6875 240.574219 39.113281 239.84375 C 32.007812 230.777344 32.804688 217.792969 40.964844 209.636719 C 43.296875 207.308594 46.042969 205.542969 49.035156 204.414062 C 49.816406 204.117188 50.617188 203.867188 51.429688 203.660156 C 53.269531 203.1875 55.179688 202.949219 57.125 202.949219 C 58.738281 202.949219 60.328125 203.113281 61.871094 203.4375 C 62.683594 203.609375 63.480469 203.820312 64.265625 204.078125 C 66.988281 204.96875 69.523438 206.375 71.757812 208.246094 C 72.285156 208.679688 72.796875 209.148438 73.285156 209.636719 C 73.585938 209.9375 73.878906 210.242188 74.15625 210.558594 C 74.925781 211.410156 75.625 212.320312 76.246094 213.261719 C 77.234375 214.761719 78.039062 216.371094 78.640625 218.054688 C 79.035156 219.148438 79.34375 220.273438 79.566406 221.425781 C 79.71875 222.210938 79.832031 223.011719 79.894531 223.820312 C 79.953125 224.46875 79.980469 225.125 79.980469 225.785156 C 79.980469 228.835938 79.386719 231.789062 78.253906 234.527344 C 77.875 235.429688 77.445312 236.308594 76.949219 237.160156 C 76.476562 237.988281 75.945312 238.785156 75.363281 239.550781 C 74.730469 240.382812 74.039062 241.179688 73.285156 241.929688 C 72.800781 242.417969 72.292969 242.882812 71.765625 243.316406 C 70.667969 244.230469 69.492188 245.03125 68.261719 245.710938 C 63.144531 248.539062 57.078125 249.316406 51.429688 247.890625 C 50.621094 247.683594 49.824219 247.433594 49.035156 247.136719 C 47.609375 246.605469 46.226562 245.921875 44.910156 245.085938 Z M 35.804688 252.863281 L 35.785156 252.816406 C 35.746094 252.726562 35.703125 252.640625 35.660156 252.550781 C 35.597656 252.417969 35.53125 252.292969 35.460938 252.164062 C 35.421875 252.09375 35.382812 252.023438 35.335938 251.953125 L 35.300781 251.886719 C 35.253906 251.816406 35.207031 251.746094 35.160156 251.675781 C 35.113281 251.601562 35.0625 251.53125 35.011719 251.457031 C 34.964844 251.390625 34.914062 251.324219 34.863281 251.257812 C 34.667969 251.003906 34.453125 250.761719 34.222656 250.53125 L 33.984375 250.296875 C 33.714844 250.027344 33.425781 249.78125 33.121094 249.558594 C 33.066406 249.515625 33.011719 249.480469 32.960938 249.445312 C 32.925781 249.417969 32.886719 249.390625 32.851562 249.367188 C 32.785156 249.328125 32.726562 249.285156 32.660156 249.246094 C 32.585938 249.199219 32.511719 249.15625 32.433594 249.113281 C 32.371094 249.074219 32.304688 249.035156 32.238281 249.003906 L 32.167969 248.964844 C 32.089844 248.925781 32.011719 248.886719 31.933594 248.847656 C 31.855469 248.8125 31.78125 248.777344 31.699219 248.742188 L 38.085938 242.355469 C 38.132812 242.40625 38.171875 242.453125 38.21875 242.503906 C 38.386719 242.691406 38.558594 242.882812 38.726562 243.0625 C 38.90625 243.253906 39.089844 243.441406 39.269531 243.625 C 39.757812 244.109375 40.261719 244.574219 40.785156 245.015625 C 40.890625 245.109375 41 245.199219 41.113281 245.289062 C 41.140625 245.316406 41.171875 245.339844 41.203125 245.363281 C 41.304688 245.449219 41.410156 245.53125 41.515625 245.613281 C 41.804688 245.84375 42.097656 246.0625 42.394531 246.277344 Z M 32.535156 259.335938 L 12.078125 279.777344 C 10.121094 281.734375 6.929688 281.734375 4.96875 279.777344 L 4.730469 279.535156 C 2.769531 277.578125 2.769531 274.386719 4.730469 272.429688 L 25.183594 251.992188 C 26.136719 251.039062 27.402344 250.515625 28.730469 250.515625 C 28.90625 250.515625 29.085938 250.523438 29.265625 250.546875 C 30.421875 250.664062 31.46875 251.164062 32.300781 251.996094 L 32.535156 252.226562 C 33.359375 253.050781 33.875 254.140625 33.988281 255.292969 L 33.992188 255.316406 C 34.128906 256.808594 33.59375 258.273438 32.535156 259.335938 Z M 49.035156 288.152344 L 200.804688 288.152344 L 200.804688 113.886719 L 49.035156 113.886719 L 49.035156 201.875 C 45.398438 203.097656 42.066406 205.152344 39.269531 207.945312 C 30.507812 216.703125 29.433594 230.503906 36.589844 240.46875 L 28.925781 248.128906 C 26.898438 248.070312 24.945312 248.84375 23.488281 250.296875 L 3.035156 270.734375 C 0.140625 273.628906 0.140625 278.335938 3.035156 281.226562 L 3.273438 281.46875 C 4.722656 282.914062 6.625 283.636719 8.523438 283.636719 C 10.425781 283.636719 12.324219 282.914062 13.773438 281.46875 L 34.230469 261.027344 C 35.667969 259.59375 36.441406 257.664062 36.402344 255.648438 L 44.453125 247.609375 C 45.910156 248.453125 47.445312 249.144531 49.035156 249.683594 L 49.035156 288.152344 " fill-opacity="1" fill-rule="nonzero"/><path fill="#3948ad" d="M 114.238281 138.992188 L 64.265625 138.992188 L 64.265625 130.097656 L 114.238281 130.097656 Z M 116.636719 127.703125 L 61.871094 127.703125 L 61.871094 141.386719 L 116.636719 141.386719 L 116.636719 127.703125 " fill-opacity="1" fill-rule="nonzero"/><path fill="#3948ad" d="M 176.878906 156.425781 L 64.265625 156.425781 L 64.265625 147.53125 L 176.878906 147.53125 Z M 179.273438 145.136719 L 61.871094 145.136719 L 61.871094 158.820312 L 179.273438 158.820312 L 179.273438 145.136719 " fill-opacity="1" fill-rule="nonzero"/><path fill="#3948ad" d="M 97.503906 181.0625 L 104.996094 181.0625 L 104.996094 221.425781 L 97.503906 221.425781 Z M 95.109375 223.820312 L 107.394531 223.820312 L 107.394531 178.667969 L 95.109375 178.667969 L 95.109375 223.820312 " fill-opacity="1" fill-rule="nonzero"/><path fill="#3948ad" d="M 111.878906 195.429688 L 119.375 195.429688 L 119.375 221.425781 L 111.878906 221.425781 Z M 109.488281 223.820312 L 121.769531 223.820312 L 121.769531 193.035156 L 109.488281 193.035156 L 109.488281 223.820312 " fill-opacity="1" fill-rule="nonzero"/><path fill="#3948ad" d="M 138.234375 221.425781 L 130.742188 221.425781 L 130.742188 181.0625 L 138.234375 181.0625 Z M 140.632812 178.667969 L 128.347656 178.667969 L 128.347656 223.820312 L 140.632812 223.820312 L 140.632812 178.667969 " fill-opacity="1" fill-rule="nonzero"/><path fill="#3948ad" d="M 145.117188 195.429688 L 152.613281 195.429688 L 152.613281 221.425781 L 145.117188 221.425781 Z M 142.726562 223.820312 L 155.007812 223.820312 L 155.007812 193.035156 L 142.726562 193.035156 L 142.726562 223.820312 " fill-opacity="1" fill-rule="nonzero"/><path fill="#3948ad" d="M 163.980469 181.0625 L 171.472656 181.0625 L 171.472656 221.425781 L 163.980469 221.425781 Z M 161.585938 223.820312 L 173.871094 223.820312 L 173.871094 178.667969 L 161.585938 178.667969 L 161.585938 223.820312 " fill-opacity="1" fill-rule="nonzero"/><path fill="#3948ad" d="M 178.355469 195.429688 L 185.851562 195.429688 L 185.851562 221.425781 L 178.355469 221.425781 Z M 175.960938 223.820312 L 188.246094 223.820312 L 188.246094 193.035156 L 175.960938 193.035156 L 175.960938 223.820312 " fill-opacity="1" fill-rule="nonzero"/><path fill="#3948ad" d="M 68.0625 271.019531 C 70.160156 271.019531 71.863281 272.722656 71.863281 274.816406 C 71.863281 276.910156 70.160156 278.613281 68.0625 278.613281 C 65.96875 278.613281 64.265625 276.910156 64.265625 274.816406 C 64.265625 272.722656 65.96875 271.019531 68.0625 271.019531 Z M 68.0625 281.007812 C 71.480469 281.007812 74.261719 278.230469 74.261719 274.816406 C 74.261719 271.402344 71.480469 268.625 68.0625 268.625 C 64.648438 268.625 61.871094 271.402344 61.871094 274.816406 C 61.871094 278.230469 64.648438 281.007812 68.0625 281.007812 " fill-opacity="1" fill-rule="nonzero"/><path fill="#3948ad" d="M 81.511719 271.019531 C 83.609375 271.019531 85.3125 272.722656 85.3125 274.816406 C 85.3125 276.910156 83.609375 278.613281 81.511719 278.613281 C 79.417969 278.613281 77.714844 276.910156 77.714844 274.816406 C 77.714844 272.722656 79.417969 271.019531 81.511719 271.019531 Z M 81.511719 281.007812 C 84.929688 281.007812 87.707031 278.230469 87.707031 274.816406 C 87.707031 271.402344 84.929688 268.625 81.511719 268.625 C 78.097656 268.625 75.316406 271.402344 75.316406 274.816406 C 75.316406 278.230469 78.097656 281.007812 81.511719 281.007812 " fill-opacity="1" fill-rule="nonzero"/><g clip-path="url(#c26ab1a406)"><path fill="#3948ad" d="M 51.429688 303.457031 L 198.410156 303.457031 L 198.410156 334.921875 L 51.429688 334.921875 Z M 49.035156 337.316406 L 200.804688 337.316406 L 200.804688 301.0625 L 49.035156 301.0625 L 49.035156 337.316406 " fill-opacity="1" fill-rule="nonzero"/></g><path fill="#3948ad" d="M 181.570312 323.101562 L 109.582031 323.101562 C 107.222656 323.101562 105.304688 321.179688 105.304688 318.824219 C 105.304688 316.464844 107.222656 314.546875 109.582031 314.546875 L 181.570312 314.546875 C 183.929688 314.546875 185.851562 316.464844 185.851562 318.824219 C 185.851562 321.179688 183.929688 323.101562 181.570312 323.101562 Z M 181.570312 312.15625 L 109.582031 312.15625 C 105.902344 312.15625 102.910156 315.144531 102.910156 318.824219 C 102.910156 322.503906 105.902344 325.496094 109.582031 325.496094 L 181.570312 325.496094 C 185.25 325.496094 188.246094 322.503906 188.246094 318.824219 C 188.246094 315.144531 185.25 312.15625 181.570312 312.15625 " fill-opacity="1" fill-rule="nonzero"/><path fill="#3948ad" d="M 71.789062 326.296875 C 67.640625 326.296875 64.265625 322.925781 64.265625 318.78125 C 64.265625 314.636719 67.640625 311.265625 71.789062 311.265625 C 75.933594 311.265625 79.308594 314.636719 79.308594 318.78125 C 79.308594 322.925781 75.933594 326.296875 71.789062 326.296875 Z M 71.789062 308.871094 C 66.320312 308.871094 61.871094 313.316406 61.871094 318.78125 C 61.871094 324.246094 66.320312 328.691406 71.789062 328.691406 C 77.257812 328.691406 81.707031 324.246094 81.707031 318.78125 C 81.707031 313.316406 77.257812 308.871094 71.789062 308.871094 " fill-opacity="1" fill-rule="nonzero"/><path fill="#3948ad" d="M 218.683594 244.746094 L 365.664062 244.746094 L 365.664062 276.210938 L 218.683594 276.210938 Z M 216.285156 278.605469 L 368.058594 278.605469 L 368.058594 242.351562 L 216.285156 242.351562 L 216.285156 278.605469 " fill-opacity="1" fill-rule="nonzero"/><path fill="#3948ad" d="M 348.824219 264.386719 L 276.835938 264.386719 C 274.476562 264.386719 272.554688 262.46875 272.554688 260.113281 C 272.554688 257.753906 274.476562 255.835938 276.835938 255.835938 L 348.824219 255.835938 C 351.183594 255.835938 353.101562 257.753906 353.101562 260.113281 C 353.101562 262.46875 351.183594 264.386719 348.824219 264.386719 Z M 348.824219 253.441406 L 276.835938 253.441406 C 273.152344 253.441406 270.160156 256.433594 270.160156 260.113281 C 270.160156 263.789062 273.152344 266.78125 276.835938 266.78125 L 348.824219 266.78125 C 352.503906 266.78125 355.5 263.789062 355.5 260.113281 C 355.5 256.433594 352.503906 253.441406 348.824219 253.441406 " fill-opacity="1" fill-rule="nonzero"/><path fill="#3948ad" d="M 239.039062 267.585938 C 234.890625 267.585938 231.519531 264.214844 231.519531 260.070312 C 231.519531 255.925781 234.890625 252.554688 239.039062 252.554688 C 243.1875 252.554688 246.5625 255.925781 246.5625 260.070312 C 246.5625 264.214844 243.1875 267.585938 239.039062 267.585938 Z M 239.039062 250.160156 C 233.570312 250.160156 229.121094 254.605469 229.121094 260.070312 C 229.121094 265.535156 233.570312 269.980469 239.039062 269.980469 C 244.507812 269.980469 248.957031 265.535156 248.957031 260.070312 C 248.957031 254.605469 244.507812 250.160156 239.039062 250.160156 " fill-opacity="1" fill-rule="nonzero"/></svg>