<svg xmlns="http://www.w3.org/2000/svg" xmlns:xlink="http://www.w3.org/1999/xlink" width="500" zoomAndPan="magnify" viewBox="0 0 375 374.999991" height="500" preserveAspectRatio="xMidYMid meet" version="1.0"><defs><clipPath id="9db5fe1bf4"><path d="M 266 37.5 L 330 37.5 L 330 70 L 266 70 Z M 266 37.5 " clip-rule="nonzero"/></clipPath><clipPath id="7f92fde525"><path d="M 63 37.5 L 299 37.5 L 299 356.25 L 63 356.25 Z M 63 37.5 " clip-rule="nonzero"/></clipPath><clipPath id="82b900f0ad"><path d="M 0 324 L 236 324 L 236 356.25 L 0 356.25 Z M 0 324 " clip-rule="nonzero"/></clipPath><clipPath id="7d0d125a77"><path d="M 233 352 L 272 352 L 272 356.25 L 233 356.25 Z M 233 352 " clip-rule="nonzero"/></clipPath><clipPath id="3147de6ab5"><path d="M 337 352 L 375 352 L 375 356.25 L 337 356.25 Z M 337 352 " clip-rule="nonzero"/></clipPath></defs><g clip-path="url(#9db5fe1bf4)"><path fill="#cccbca" d="M 298.203125 37.566406 L 266.675781 37.566406 L 266.675781 69.09375 L 329.734375 69.09375 C 329.734375 51.679688 315.613281 37.566406 298.203125 37.566406 Z M 298.203125 37.566406 " fill-opacity="1" fill-rule="nonzero"/></g><g clip-path="url(#7f92fde525)"><path fill="#ffffff" d="M 298.207031 37.566406 C 280.796875 37.566406 266.675781 51.679688 266.675781 69.09375 L 266.675781 324.65625 C 266.675781 342.070312 252.558594 356.183594 235.144531 356.183594 L 63.679688 356.183594 L 63.679688 69.09375 C 63.679688 51.683594 77.800781 37.566406 95.210938 37.566406 Z M 298.207031 37.566406 " fill-opacity="1" fill-rule="nonzero"/></g><g clip-path="url(#82b900f0ad)"><path fill="#cccbca" d="M 203.632812 324.65625 L 0.628906 324.65625 C 0.628906 342.070312 14.742188 356.183594 32.152344 356.183594 L 235.148438 356.183594 C 217.734375 356.179688 203.632812 342.078125 203.632812 324.65625 Z M 203.632812 324.65625 " fill-opacity="1" fill-rule="nonzero"/></g><path fill="#ff6d3b" d="M 83.671875 149.574219 L 90.039062 149.574219 L 90.039062 200.617188 L 83.671875 200.617188 Z M 83.671875 149.574219 " fill-opacity="1" fill-rule="nonzero"/><path fill="#242d3c" d="M 93.183594 129.890625 L 99.535156 129.890625 L 99.535156 200.617188 L 93.183594 200.617188 Z M 93.183594 129.890625 " fill-opacity="1" fill-rule="nonzero"/><path fill="#ffd55c" d="M 102.671875 156.285156 L 109.054688 156.285156 L 109.054688 200.617188 L 102.671875 200.617188 Z M 102.671875 156.285156 " fill-opacity="1" fill-rule="nonzero"/><path fill="#cccbca" d="M 112.175781 141.679688 L 118.539062 141.679688 L 118.539062 200.617188 L 112.175781 200.617188 Z M 112.175781 141.679688 " fill-opacity="1" fill-rule="nonzero"/><path fill="#ff6d3b" d="M 126.386719 186.101562 L 132.75 186.101562 L 132.75 200.617188 L 126.386719 200.617188 Z M 126.386719 186.101562 " fill-opacity="1" fill-rule="nonzero"/><path fill="#242d3c" d="M 135.898438 167.613281 L 142.261719 167.613281 L 142.261719 200.617188 L 135.898438 200.617188 Z M 135.898438 167.613281 " fill-opacity="1" fill-rule="nonzero"/><path fill="#ffd55c" d="M 145.386719 173.738281 L 151.765625 173.738281 L 151.765625 200.617188 L 145.386719 200.617188 Z M 145.386719 173.738281 " fill-opacity="1" fill-rule="nonzero"/><path fill="#cccbca" d="M 154.894531 151.933594 L 161.257812 151.933594 L 161.257812 200.617188 L 154.894531 200.617188 Z M 154.894531 151.933594 " fill-opacity="1" fill-rule="nonzero"/><path fill="#ff6d3b" d="M 169.097656 183.253906 L 175.464844 183.253906 L 175.464844 200.617188 L 169.097656 200.617188 Z M 169.097656 183.253906 " fill-opacity="1" fill-rule="nonzero"/><path fill="#242d3c" d="M 178.609375 186.363281 L 184.96875 186.363281 L 184.96875 200.617188 L 178.609375 200.617188 Z M 178.609375 186.363281 " fill-opacity="1" fill-rule="nonzero"/><path fill="#ffd55c" d="M 188.101562 160.105469 L 194.476562 160.105469 L 194.476562 200.617188 L 188.101562 200.617188 Z M 188.101562 160.105469 " fill-opacity="1" fill-rule="nonzero"/><path fill="#cccbca" d="M 197.613281 172.457031 L 203.964844 172.457031 L 203.964844 200.617188 L 197.613281 200.617188 Z M 197.613281 172.457031 " fill-opacity="1" fill-rule="nonzero"/><path fill="#ff6d3b" d="M 211.8125 135.609375 L 218.191406 135.609375 L 218.191406 200.621094 L 211.8125 200.621094 Z M 211.8125 135.609375 " fill-opacity="1" fill-rule="nonzero"/><path fill="#242d3c" d="M 221.3125 156.027344 L 227.695312 156.027344 L 227.695312 200.617188 L 221.3125 200.617188 Z M 221.3125 156.027344 " fill-opacity="1" fill-rule="nonzero"/><path fill="#ffd55c" d="M 230.824219 175.738281 L 237.179688 175.738281 L 237.179688 200.617188 L 230.824219 200.617188 Z M 230.824219 175.738281 " fill-opacity="1" fill-rule="nonzero"/><path fill="#cccbca" d="M 240.324219 145.683594 L 246.683594 145.683594 L 246.683594 200.617188 L 240.324219 200.617188 Z M 240.324219 145.683594 " fill-opacity="1" fill-rule="nonzero"/><path fill="#e6e5e5" d="M 83.671875 279.054688 L 246.683594 279.054688 L 246.683594 283.726562 L 83.671875 283.726562 Z M 83.671875 279.054688 " fill-opacity="1" fill-rule="nonzero"/><path fill="#e6e5e5" d="M 83.671875 290.746094 L 246.683594 290.746094 L 246.683594 295.429688 L 83.671875 295.429688 Z M 83.671875 290.746094 " fill-opacity="1" fill-rule="nonzero"/><path fill="#e6e5e5" d="M 83.671875 302.429688 L 165.175781 302.429688 L 165.175781 307.117188 L 83.671875 307.117188 Z M 83.671875 302.429688 " fill-opacity="1" fill-rule="nonzero"/><path fill="#242d3c" d="M 83.671875 90.136719 L 246.683594 90.136719 L 246.683594 94.8125 L 83.671875 94.8125 Z M 83.671875 90.136719 " fill-opacity="1" fill-rule="nonzero"/><path fill="#ff6d3b" d="M 83.671875 69.09375 L 246.683594 69.09375 L 246.683594 83.113281 L 83.671875 83.113281 Z M 83.671875 69.09375 " fill-opacity="1" fill-rule="nonzero"/><path fill="#e6e5e5" d="M 83.671875 101.828125 L 246.683594 101.828125 L 246.683594 106.507812 L 83.671875 106.507812 Z M 83.671875 101.828125 " fill-opacity="1" fill-rule="nonzero"/><path fill="#e6e5e5" d="M 83.671875 113.515625 L 165.175781 113.515625 L 165.175781 118.199219 L 83.671875 118.199219 Z M 83.671875 113.515625 " fill-opacity="1" fill-rule="nonzero"/><path fill="#e6e5e5" d="M 83.671875 233.375 L 160.945312 233.375 L 160.945312 267.359375 L 83.671875 267.359375 Z M 83.671875 233.375 " fill-opacity="1" fill-rule="nonzero"/><path fill="#e6e5e5" d="M 169.40625 233.375 L 246.683594 233.375 L 246.683594 267.359375 L 169.40625 267.359375 Z M 169.40625 233.375 " fill-opacity="1" fill-rule="nonzero"/><path fill="#cccbca" d="M 83.671875 212.3125 L 93.042969 212.3125 L 93.042969 221.679688 L 83.671875 221.679688 Z M 83.671875 212.3125 " fill-opacity="1" fill-rule="nonzero"/><path fill="#e6e5e5" d="M 97.726562 217 L 118.820312 217 L 118.820312 221.683594 L 97.726562 221.683594 Z M 97.726562 217 " fill-opacity="1" fill-rule="nonzero"/><path fill="#ff6d3b" d="M 126.285156 212.3125 L 135.660156 212.3125 L 135.660156 221.679688 L 126.285156 221.679688 Z M 126.285156 212.3125 " fill-opacity="1" fill-rule="nonzero"/><path fill="#e6e5e5" d="M 140.34375 216.996094 L 161.441406 216.996094 L 161.441406 221.679688 L 140.34375 221.679688 Z M 140.34375 216.996094 " fill-opacity="1" fill-rule="nonzero"/><path fill="#ffd55c" d="M 168.910156 212.3125 L 178.28125 212.3125 L 178.28125 221.679688 L 168.910156 221.679688 Z M 168.910156 212.3125 " fill-opacity="1" fill-rule="nonzero"/><path fill="#e6e5e5" d="M 182.964844 217 L 204.066406 217 L 204.066406 221.683594 L 182.964844 221.683594 Z M 182.964844 217 " fill-opacity="1" fill-rule="nonzero"/><path fill="#242d3c" d="M 211.527344 212.3125 L 220.902344 212.3125 L 220.902344 221.679688 L 211.527344 221.679688 Z M 211.527344 212.3125 " fill-opacity="1" fill-rule="nonzero"/><path fill="#e6e5e5" d="M 225.585938 217 L 246.683594 217 L 246.683594 221.683594 L 225.585938 221.683594 Z M 225.585938 217 " fill-opacity="1" fill-rule="nonzero"/><path fill="#3e4959" d="M 298.726562 285.148438 L 298.726562 292.769531 C 298.726562 297.050781 297.058594 301.074219 294.03125 304.097656 C 291.007812 307.128906 286.976562 308.796875 282.703125 308.796875 C 278.417969 308.796875 274.394531 307.128906 271.363281 304.097656 C 268.34375 301.074219 266.675781 297.050781 266.675781 292.769531 L 266.675781 217.761719 C 266.675781 213.480469 268.34375 209.453125 271.363281 206.429688 C 274.394531 203.402344 278.417969 201.726562 282.703125 201.726562 L 308.539062 201.726562 L 308.539062 181.609375 L 282.703125 181.609375 C 273.042969 181.609375 263.960938 185.375 257.136719 192.195312 C 250.308594 199.03125 246.542969 208.109375 246.542969 217.761719 L 246.542969 292.773438 C 246.542969 302.429688 250.308594 311.511719 257.136719 318.339844 C 263.964844 325.164062 273.042969 328.925781 282.703125 328.925781 C 292.355469 328.925781 301.433594 325.167969 308.261719 318.339844 C 315.089844 311.511719 318.851562 302.429688 318.851562 292.773438 L 318.851562 285.15625 L 298.726562 285.15625 Z M 298.726562 285.148438 " fill-opacity="1" fill-rule="nonzero"/><path fill="#3e4959" d="M 308.539062 162.976562 L 345.8125 162.976562 L 345.8125 220.371094 L 308.539062 220.371094 Z M 308.539062 162.976562 " fill-opacity="1" fill-rule="nonzero"/><path fill="#131a26" d="M 340.21875 157.757812 L 314.128906 157.757812 L 308.539062 162.976562 L 345.8125 162.976562 Z M 340.21875 157.757812 " fill-opacity="1" fill-rule="nonzero"/><path fill="#3e4959" d="M 314.128906 139.117188 L 340.21875 139.117188 L 340.21875 157.753906 L 314.128906 157.753906 Z M 314.128906 139.117188 " fill-opacity="1" fill-rule="nonzero"/><path fill="#131a26" d="M 308.539062 130.179688 L 345.8125 130.179688 L 345.8125 139.121094 L 308.539062 139.121094 Z M 308.539062 130.179688 " fill-opacity="1" fill-rule="nonzero"/><path fill="#3e4959" d="M 361.585938 253.148438 L 349.46875 265.269531 L 333.3125 249.113281 C 331.761719 247.558594 330.804688 245.421875 330.796875 243.050781 C 330.804688 240.6875 331.761719 238.542969 333.3125 236.992188 C 334.863281 235.441406 337.007812 234.480469 339.375 234.480469 C 341.734375 234.480469 343.878906 235.441406 345.4375 236.992188 Z M 361.585938 253.148438 " fill-opacity="1" fill-rule="nonzero"/><path fill="#131a26" d="M 361.589844 259.210938 L 355.523438 265.269531 L 349.46875 265.269531 L 361.589844 253.148438 Z M 361.589844 259.210938 " fill-opacity="1" fill-rule="nonzero"/><path fill="#3e4959" d="M 292.761719 220.371094 L 361.589844 220.371094 L 361.589844 227.65625 L 292.761719 227.65625 Z M 292.761719 220.371094 " fill-opacity="1" fill-rule="nonzero"/><path fill="#131a26" d="M 299.050781 227.652344 C 299.050781 243.183594 311.648438 255.777344 327.179688 255.777344 C 342.707031 255.777344 355.296875 243.183594 355.296875 227.652344 Z M 299.050781 227.652344 " fill-opacity="1" fill-rule="nonzero"/><path fill="#3e4959" d="M 335.992188 265.785156 L 318.851562 265.785156 L 318.851562 242.9375 C 318.851562 240.746094 319.6875 238.542969 321.359375 236.875 C 323.039062 235.203125 325.222656 234.363281 327.417969 234.363281 C 329.613281 234.363281 331.808594 235.203125 333.488281 236.875 C 335.15625 238.550781 335.992188 240.746094 335.992188 242.9375 Z M 335.992188 265.785156 " fill-opacity="1" fill-rule="nonzero"/><path fill="#131a26" d="M 331.714844 271.5625 L 323.140625 271.5625 L 318.851562 265.785156 L 335.992188 265.785156 Z M 331.714844 271.5625 " fill-opacity="1" fill-rule="nonzero"/><path fill="#131a26" d="M 324.320312 191.675781 C 324.320312 192.710938 324.222656 193.738281 324.019531 194.753906 C 323.816406 195.769531 323.515625 196.757812 323.121094 197.714844 C 322.722656 198.671875 322.238281 199.578125 321.664062 200.441406 C 321.085938 201.304688 320.433594 202.101562 319.699219 202.832031 C 318.96875 203.566406 318.171875 204.21875 317.308594 204.796875 C 316.449219 205.371094 315.539062 205.855469 314.582031 206.253906 C 313.625 206.648438 312.636719 206.949219 311.621094 207.152344 C 310.605469 207.355469 309.578125 207.453125 308.542969 207.453125 C 307.507812 207.453125 306.480469 207.355469 305.464844 207.152344 C 304.449219 206.949219 303.460938 206.648438 302.503906 206.253906 C 301.546875 205.855469 300.636719 205.371094 299.773438 204.796875 C 298.914062 204.21875 298.117188 203.566406 297.382812 202.832031 C 296.652344 202.101562 295.996094 201.304688 295.421875 200.441406 C 294.847656 199.578125 294.359375 198.671875 293.964844 197.714844 C 293.566406 196.757812 293.265625 195.769531 293.066406 194.753906 C 292.863281 193.738281 292.761719 192.710938 292.761719 191.675781 C 292.761719 190.636719 292.863281 189.613281 293.066406 188.597656 C 293.265625 187.578125 293.566406 186.59375 293.964844 185.636719 C 294.359375 184.679688 294.847656 183.769531 295.421875 182.90625 C 295.996094 182.046875 296.652344 181.25 297.382812 180.515625 C 298.117188 179.785156 298.914062 179.128906 299.773438 178.554688 C 300.636719 177.976562 301.546875 177.492188 302.503906 177.097656 C 303.460938 176.699219 304.449219 176.398438 305.464844 176.199219 C 306.480469 175.996094 307.507812 175.894531 308.542969 175.894531 C 309.578125 175.894531 310.605469 175.996094 311.621094 176.199219 C 312.636719 176.398438 313.625 176.699219 314.582031 177.097656 C 315.539062 177.492188 316.449219 177.976562 317.308594 178.554688 C 318.171875 179.128906 318.96875 179.785156 319.699219 180.515625 C 320.433594 181.25 321.085938 182.046875 321.664062 182.90625 C 322.238281 183.769531 322.722656 184.679688 323.121094 185.636719 C 323.515625 186.59375 323.816406 187.578125 324.019531 188.597656 C 324.222656 189.613281 324.320312 190.636719 324.320312 191.675781 Z M 324.320312 191.675781 " fill-opacity="1" fill-rule="nonzero"/><path fill="#3e4959" d="M 314.933594 191.675781 C 314.933594 192.09375 314.890625 192.511719 314.808594 192.921875 C 314.730469 193.332031 314.605469 193.734375 314.445312 194.121094 C 314.285156 194.507812 314.089844 194.875 313.855469 195.226562 C 313.621094 195.574219 313.359375 195.898438 313.0625 196.195312 C 312.765625 196.492188 312.441406 196.753906 312.09375 196.988281 C 311.742188 197.222656 311.375 197.417969 310.988281 197.578125 C 310.601562 197.738281 310.199219 197.859375 309.789062 197.941406 C 309.378906 198.023438 308.960938 198.066406 308.542969 198.066406 C 308.121094 198.066406 307.707031 198.023438 307.296875 197.941406 C 306.882812 197.859375 306.484375 197.738281 306.097656 197.578125 C 305.707031 197.417969 305.339844 197.222656 304.992188 196.988281 C 304.644531 196.753906 304.320312 196.492188 304.023438 196.195312 C 303.726562 195.898438 303.460938 195.574219 303.226562 195.226562 C 302.996094 194.875 302.796875 194.507812 302.636719 194.121094 C 302.476562 193.734375 302.355469 193.332031 302.273438 192.921875 C 302.191406 192.511719 302.152344 192.09375 302.152344 191.675781 C 302.152344 191.253906 302.191406 190.839844 302.273438 190.429688 C 302.355469 190.015625 302.476562 189.617188 302.636719 189.230469 C 302.796875 188.839844 302.996094 188.472656 303.226562 188.125 C 303.460938 187.773438 303.726562 187.453125 304.023438 187.15625 C 304.320312 186.859375 304.644531 186.59375 304.992188 186.359375 C 305.339844 186.128906 305.707031 185.929688 306.097656 185.769531 C 306.484375 185.609375 306.882812 185.488281 307.296875 185.40625 C 307.707031 185.324219 308.121094 185.285156 308.542969 185.285156 C 308.960938 185.285156 309.378906 185.324219 309.789062 185.40625 C 310.199219 185.488281 310.601562 185.609375 310.988281 185.769531 C 311.375 185.929688 311.742188 186.128906 312.09375 186.359375 C 312.441406 186.59375 312.765625 186.859375 313.0625 187.15625 C 313.359375 187.453125 313.621094 187.773438 313.855469 188.125 C 314.089844 188.472656 314.285156 188.839844 314.445312 189.230469 C 314.605469 189.617188 314.730469 190.015625 314.808594 190.429688 C 314.890625 190.839844 314.933594 191.253906 314.933594 191.675781 Z M 314.933594 191.675781 " fill-opacity="1" fill-rule="nonzero"/><path fill="#131a26" d="M 292.761719 277.867188 L 361.589844 277.867188 L 361.589844 285.152344 L 292.761719 285.152344 Z M 292.761719 277.867188 " fill-opacity="1" fill-rule="nonzero"/><path fill="#131a26" d="M 314.007812 285.152344 C 314.007812 285.492188 313.972656 285.832031 313.90625 286.167969 C 313.839844 286.503906 313.742188 286.832031 313.609375 287.148438 C 313.480469 287.464844 313.316406 287.765625 313.128906 288.046875 C 312.9375 288.332031 312.722656 288.597656 312.480469 288.839844 C 312.238281 289.082031 311.972656 289.296875 311.6875 289.488281 C 311.402344 289.679688 311.101562 289.839844 310.785156 289.96875 C 310.46875 290.101562 310.144531 290.199219 309.808594 290.265625 C 309.472656 290.332031 309.132812 290.367188 308.789062 290.367188 C 308.449219 290.367188 308.109375 290.332031 307.773438 290.265625 C 307.4375 290.199219 307.109375 290.101562 306.792969 289.96875 C 306.476562 289.839844 306.175781 289.679688 305.890625 289.488281 C 305.609375 289.296875 305.34375 289.082031 305.101562 288.839844 C 304.859375 288.597656 304.644531 288.332031 304.453125 288.046875 C 304.261719 287.765625 304.101562 287.464844 303.972656 287.148438 C 303.839844 286.832031 303.742188 286.503906 303.675781 286.167969 C 303.609375 285.832031 303.574219 285.492188 303.574219 285.152344 C 303.574219 284.808594 303.609375 284.46875 303.675781 284.132812 C 303.742188 283.796875 303.839844 283.472656 303.972656 283.15625 C 304.101562 282.835938 304.261719 282.539062 304.453125 282.253906 C 304.644531 281.96875 304.859375 281.703125 305.101562 281.460938 C 305.34375 281.21875 305.609375 281.003906 305.890625 280.8125 C 306.175781 280.621094 306.476562 280.460938 306.792969 280.332031 C 307.109375 280.199219 307.4375 280.101562 307.773438 280.035156 C 308.109375 279.96875 308.449219 279.933594 308.789062 279.933594 C 309.132812 279.933594 309.472656 279.96875 309.808594 280.035156 C 310.144531 280.101562 310.46875 280.199219 310.785156 280.332031 C 311.101562 280.460938 311.402344 280.621094 311.6875 280.8125 C 311.972656 281.003906 312.238281 281.21875 312.480469 281.460938 C 312.722656 281.703125 312.9375 281.96875 313.128906 282.253906 C 313.316406 282.539062 313.480469 282.835938 313.609375 283.15625 C 313.742188 283.472656 313.839844 283.796875 313.90625 284.132812 C 313.972656 284.46875 314.007812 284.808594 314.007812 285.152344 Z M 314.007812 285.152344 " fill-opacity="1" fill-rule="nonzero"/><path fill="#131a26" d="M 292.761719 333.402344 L 272.640625 333.402344 L 272.640625 318.863281 C 272.640625 316.292969 273.621094 313.71875 275.589844 311.746094 C 277.554688 309.789062 280.125 308.804688 282.707031 308.804688 C 285.28125 308.804688 287.855469 309.78125 289.816406 311.746094 C 291.789062 313.71875 292.765625 316.292969 292.765625 318.863281 L 292.765625 333.402344 Z M 292.761719 333.402344 " fill-opacity="1" fill-rule="nonzero"/><path fill="#3e4959" d="M 287.171875 318.859375 C 287.171875 319.152344 287.144531 319.445312 287.085938 319.734375 C 287.027344 320.019531 286.945312 320.300781 286.832031 320.570312 C 286.71875 320.84375 286.582031 321.101562 286.417969 321.34375 C 286.253906 321.589844 286.070312 321.816406 285.863281 322.023438 C 285.652344 322.230469 285.429688 322.417969 285.183594 322.578125 C 284.9375 322.742188 284.679688 322.878906 284.410156 322.992188 C 284.136719 323.105469 283.859375 323.191406 283.570312 323.246094 C 283.28125 323.304688 282.992188 323.332031 282.699219 323.332031 C 282.402344 323.332031 282.113281 323.304688 281.824219 323.246094 C 281.535156 323.191406 281.257812 323.105469 280.984375 322.992188 C 280.714844 322.878906 280.457031 322.742188 280.210938 322.578125 C 279.96875 322.417969 279.742188 322.230469 279.535156 322.023438 C 279.328125 321.816406 279.140625 321.589844 278.976562 321.34375 C 278.8125 321.101562 278.675781 320.84375 278.5625 320.570312 C 278.453125 320.300781 278.367188 320.019531 278.308594 319.734375 C 278.253906 319.445312 278.222656 319.152344 278.222656 318.859375 C 278.222656 318.566406 278.253906 318.273438 278.308594 317.988281 C 278.367188 317.699219 278.453125 317.417969 278.5625 317.148438 C 278.675781 316.875 278.8125 316.617188 278.976562 316.375 C 279.140625 316.128906 279.328125 315.902344 279.535156 315.695312 C 279.742188 315.488281 279.96875 315.300781 280.210938 315.140625 C 280.457031 314.976562 280.714844 314.839844 280.984375 314.726562 C 281.257812 314.613281 281.535156 314.527344 281.824219 314.472656 C 282.113281 314.414062 282.402344 314.386719 282.699219 314.386719 C 282.992188 314.386719 283.28125 314.414062 283.570312 314.472656 C 283.859375 314.527344 284.136719 314.613281 284.410156 314.726562 C 284.679688 314.839844 284.9375 314.976562 285.183594 315.140625 C 285.429688 315.300781 285.652344 315.488281 285.863281 315.695312 C 286.070312 315.902344 286.253906 316.128906 286.417969 316.375 C 286.582031 316.617188 286.71875 316.875 286.832031 317.148438 C 286.945312 317.417969 287.027344 317.699219 287.085938 317.988281 C 287.144531 318.273438 287.171875 318.566406 287.171875 318.859375 Z M 287.171875 318.859375 " fill-opacity="1" fill-rule="nonzero"/><path fill="#131a26" d="M 266.675781 333.402344 L 298.726562 333.402344 L 298.726562 337.128906 L 266.675781 337.128906 Z M 266.675781 333.402344 " fill-opacity="1" fill-rule="nonzero"/><path fill="#3e4959" d="M 240.542969 337.121094 C 238.808594 337.121094 237.070312 337.785156 235.75 339.109375 C 234.425781 340.433594 233.761719 342.167969 233.761719 343.902344 L 233.761719 352.457031 L 374.371094 352.457031 L 374.371094 343.902344 C 374.371094 342.167969 373.714844 340.433594 372.386719 339.109375 C 371.066406 337.785156 369.328125 337.121094 367.59375 337.121094 Z M 240.542969 337.121094 " fill-opacity="1" fill-rule="nonzero"/><g clip-path="url(#7d0d125a77)"><path fill="#131a26" d="M 233.761719 352.457031 L 271.035156 352.457031 L 271.035156 356.183594 L 233.761719 356.183594 Z M 233.761719 352.457031 " fill-opacity="1" fill-rule="nonzero"/></g><g clip-path="url(#3147de6ab5)"><path fill="#131a26" d="M 337.101562 352.457031 L 374.371094 352.457031 L 374.371094 356.183594 L 337.101562 356.183594 Z M 337.101562 352.457031 " fill-opacity="1" fill-rule="nonzero"/></g></svg>