<svg xmlns="http://www.w3.org/2000/svg" xmlns:xlink="http://www.w3.org/1999/xlink" width="500" zoomAndPan="magnify" viewBox="0 0 375 374.999991" height="500" preserveAspectRatio="xMidYMid meet" version="1.0"><defs><clipPath id="b6462dbd33"><path d="M 345 308 L 375 308 L 375 337.5625 L 345 337.5625 Z M 345 308 " clip-rule="nonzero"/></clipPath><clipPath id="6c36644607"><path d="M 302 39.8125 L 332 39.8125 L 332 69 L 302 69 Z M 302 39.8125 " clip-rule="nonzero"/></clipPath><clipPath id="f6bbaa1d64"><path d="M 259 39.8125 L 289 39.8125 L 289 69 L 259 69 Z M 259 39.8125 " clip-rule="nonzero"/></clipPath><clipPath id="418d487266"><path d="M 216 39.8125 L 246 39.8125 L 246 69 L 216 69 Z M 216 39.8125 " clip-rule="nonzero"/></clipPath><clipPath id="11c54603f8"><path d="M 172 39.8125 L 203 39.8125 L 203 69 L 172 69 Z M 172 39.8125 " clip-rule="nonzero"/></clipPath><clipPath id="d067764b24"><path d="M 129 39.8125 L 159 39.8125 L 159 69 L 129 69 Z M 129 39.8125 " clip-rule="nonzero"/></clipPath><clipPath id="74ee5113fa"><path d="M 86 39.8125 L 116 39.8125 L 116 69 L 86 69 Z M 86 39.8125 " clip-rule="nonzero"/></clipPath><clipPath id="41e33ee641"><path d="M 43 39.8125 L 73 39.8125 L 73 69 L 43 69 Z M 43 39.8125 " clip-rule="nonzero"/></clipPath><clipPath id="e984de0330"><path d="M 0 39.8125 L 30 39.8125 L 30 69 L 0 69 Z M 0 39.8125 " clip-rule="nonzero"/></clipPath><clipPath id="4484f3f5e7"><path d="M 345 39.8125 L 375 39.8125 L 375 69 L 345 69 Z M 345 39.8125 " clip-rule="nonzero"/></clipPath></defs><path fill="#e2e2e2" d="M 331.78125 92.773438 C 331.78125 100.820312 325.246094 107.355469 317.203125 107.355469 C 309.109375 107.355469 302.621094 100.820312 302.621094 92.773438 C 302.621094 84.722656 309.109375 78.1875 317.203125 78.1875 C 325.246094 78.1875 331.78125 84.722656 331.78125 92.773438 Z M 331.78125 92.773438 " fill-opacity="1" fill-rule="nonzero"/><path fill="#e2e2e2" d="M 288.527344 92.773438 C 288.527344 100.820312 282.035156 107.355469 273.945312 107.355469 C 265.898438 107.355469 259.363281 100.820312 259.363281 92.773438 C 259.363281 84.722656 265.898438 78.1875 273.945312 78.1875 C 282.035156 78.1875 288.527344 84.722656 288.527344 92.773438 Z M 288.527344 92.773438 " fill-opacity="1" fill-rule="nonzero"/><path fill="#e2e2e2" d="M 245.316406 92.773438 C 245.316406 100.820312 238.78125 107.355469 230.734375 107.355469 C 222.6875 107.355469 216.152344 100.820312 216.152344 92.773438 C 216.152344 84.722656 222.6875 78.1875 230.734375 78.1875 C 238.78125 78.1875 245.316406 84.722656 245.316406 92.773438 Z M 245.316406 92.773438 " fill-opacity="1" fill-rule="nonzero"/><path fill="#e2e2e2" d="M 202.105469 92.773438 C 202.105469 100.820312 195.570312 107.355469 187.523438 107.355469 C 179.429688 107.355469 172.894531 100.820312 172.894531 92.773438 C 172.894531 84.722656 179.429688 78.1875 187.523438 78.1875 C 195.570312 78.1875 202.105469 84.722656 202.105469 92.773438 Z M 202.105469 92.773438 " fill-opacity="1" fill-rule="nonzero"/><path fill="#e2e2e2" d="M 158.847656 92.773438 C 158.847656 100.820312 152.3125 107.355469 144.265625 107.355469 C 136.21875 107.355469 129.683594 100.820312 129.683594 92.773438 C 129.683594 84.722656 136.21875 78.1875 144.265625 78.1875 C 152.3125 78.1875 158.847656 84.722656 158.847656 92.773438 Z M 158.847656 92.773438 " fill-opacity="1" fill-rule="nonzero"/><path fill="#e2e2e2" d="M 115.636719 92.773438 C 115.636719 100.820312 109.101562 107.355469 101.054688 107.355469 C 93.007812 107.355469 86.472656 100.820312 86.472656 92.773438 C 86.472656 84.722656 93.007812 78.1875 101.054688 78.1875 C 109.101562 78.1875 115.636719 84.722656 115.636719 92.773438 Z M 115.636719 92.773438 " fill-opacity="1" fill-rule="nonzero"/><path fill="#e2e2e2" d="M 72.425781 92.773438 C 72.425781 100.820312 65.890625 107.355469 57.796875 107.355469 C 49.753906 107.355469 43.21875 100.820312 43.21875 92.773438 C 43.21875 84.722656 49.753906 78.1875 57.796875 78.1875 C 65.890625 78.1875 72.425781 84.722656 72.425781 92.773438 Z M 72.425781 92.773438 " fill-opacity="1" fill-rule="nonzero"/><path fill="#e2e2e2" d="M 374.996094 92.773438 C 374.996094 100.820312 368.460938 107.355469 360.414062 107.355469 C 352.367188 107.355469 345.832031 100.820312 345.832031 92.773438 C 345.832031 84.722656 352.367188 78.1875 360.414062 78.1875 C 368.460938 78.1875 374.996094 84.722656 374.996094 92.773438 Z M 374.996094 92.773438 " fill-opacity="1" fill-rule="nonzero"/><path fill="#e2e2e2" d="M 331.78125 131.148438 C 331.78125 139.195312 325.246094 145.730469 317.203125 145.730469 C 309.109375 145.730469 302.621094 139.195312 302.621094 131.148438 C 302.621094 123.097656 309.109375 116.5625 317.203125 116.5625 C 325.246094 116.5625 331.78125 123.097656 331.78125 131.148438 Z M 331.78125 131.148438 " fill-opacity="1" fill-rule="nonzero"/><path fill="#e2e2e2" d="M 288.527344 131.148438 C 288.527344 139.195312 282.035156 145.730469 273.945312 145.730469 C 265.898438 145.730469 259.363281 139.195312 259.363281 131.148438 C 259.363281 123.097656 265.898438 116.5625 273.945312 116.5625 C 282.035156 116.5625 288.527344 123.097656 288.527344 131.148438 Z M 288.527344 131.148438 " fill-opacity="1" fill-rule="nonzero"/><path fill="#e2e2e2" d="M 245.316406 131.148438 C 245.316406 139.195312 238.78125 145.730469 230.734375 145.730469 C 222.6875 145.730469 216.152344 139.195312 216.152344 131.148438 C 216.152344 123.097656 222.6875 116.5625 230.734375 116.5625 C 238.78125 116.5625 245.316406 123.097656 245.316406 131.148438 Z M 245.316406 131.148438 " fill-opacity="1" fill-rule="nonzero"/><path fill="#e2e2e2" d="M 202.105469 131.148438 C 202.105469 139.195312 195.570312 145.730469 187.523438 145.730469 C 179.429688 145.730469 172.894531 139.195312 172.894531 131.148438 C 172.894531 123.097656 179.429688 116.5625 187.523438 116.5625 C 195.570312 116.5625 202.105469 123.097656 202.105469 131.148438 Z M 202.105469 131.148438 " fill-opacity="1" fill-rule="nonzero"/><path fill="#e2e2e2" d="M 158.847656 131.148438 C 158.847656 139.195312 152.3125 145.730469 144.265625 145.730469 C 136.21875 145.730469 129.683594 139.195312 129.683594 131.148438 C 129.683594 123.097656 136.21875 116.5625 144.265625 116.5625 C 152.3125 116.5625 158.847656 123.097656 158.847656 131.148438 Z M 158.847656 131.148438 " fill-opacity="1" fill-rule="nonzero"/><path fill="#e2e2e2" d="M 72.425781 131.148438 C 72.425781 139.195312 65.890625 145.730469 57.796875 145.730469 C 49.753906 145.730469 43.21875 139.195312 43.21875 131.148438 C 43.21875 123.097656 49.753906 116.5625 57.796875 116.5625 C 65.890625 116.5625 72.425781 123.097656 72.425781 131.148438 Z M 72.425781 131.148438 " fill-opacity="1" fill-rule="nonzero"/><path fill="#e2e2e2" d="M 374.996094 131.148438 C 374.996094 139.195312 368.460938 145.730469 360.414062 145.730469 C 352.367188 145.730469 345.832031 139.195312 345.832031 131.148438 C 345.832031 123.097656 352.367188 116.5625 360.414062 116.5625 C 368.460938 116.5625 374.996094 123.097656 374.996094 131.148438 Z M 374.996094 131.148438 " fill-opacity="1" fill-rule="nonzero"/><path fill="#e2e2e2" d="M 331.78125 169.523438 C 331.78125 177.570312 325.246094 184.105469 317.203125 184.105469 C 309.109375 184.105469 302.621094 177.570312 302.621094 169.523438 C 302.621094 161.472656 309.109375 154.9375 317.203125 154.9375 C 325.246094 154.9375 331.78125 161.472656 331.78125 169.523438 Z M 331.78125 169.523438 " fill-opacity="1" fill-rule="nonzero"/><path fill="#e2e2e2" d="M 288.527344 169.523438 C 288.527344 177.570312 282.035156 184.105469 273.945312 184.105469 C 265.898438 184.105469 259.363281 177.570312 259.363281 169.523438 C 259.363281 161.472656 265.898438 154.9375 273.945312 154.9375 C 282.035156 154.9375 288.527344 161.472656 288.527344 169.523438 Z M 288.527344 169.523438 " fill-opacity="1" fill-rule="nonzero"/><path fill="#e2e2e2" d="M 245.316406 169.523438 C 245.316406 177.570312 238.78125 184.105469 230.734375 184.105469 C 222.6875 184.105469 216.152344 177.570312 216.152344 169.523438 C 216.152344 161.472656 222.6875 154.9375 230.734375 154.9375 C 238.78125 154.9375 245.316406 161.472656 245.316406 169.523438 Z M 245.316406 169.523438 " fill-opacity="1" fill-rule="nonzero"/><path fill="#e2e2e2" d="M 202.105469 169.523438 C 202.105469 177.570312 195.570312 184.105469 187.523438 184.105469 C 179.429688 184.105469 172.894531 177.570312 172.894531 169.523438 C 172.894531 161.472656 179.429688 154.9375 187.523438 154.9375 C 195.570312 154.9375 202.105469 161.472656 202.105469 169.523438 Z M 202.105469 169.523438 " fill-opacity="1" fill-rule="nonzero"/><path fill="#e2e2e2" d="M 158.847656 169.523438 C 158.847656 177.570312 152.3125 184.105469 144.265625 184.105469 C 136.21875 184.105469 129.683594 177.570312 129.683594 169.523438 C 129.683594 161.472656 136.21875 154.9375 144.265625 154.9375 C 152.3125 154.9375 158.847656 161.472656 158.847656 169.523438 Z M 158.847656 169.523438 " fill-opacity="1" fill-rule="nonzero"/><path fill="#e2e2e2" d="M 374.996094 169.523438 C 374.996094 177.570312 368.460938 184.105469 360.414062 184.105469 C 352.367188 184.105469 345.832031 177.570312 345.832031 169.523438 C 345.832031 161.472656 352.367188 154.9375 360.414062 154.9375 C 368.460938 154.9375 374.996094 161.472656 374.996094 169.523438 Z M 374.996094 169.523438 " fill-opacity="1" fill-rule="nonzero"/><path fill="#e2e2e2" d="M 331.78125 207.898438 C 331.78125 215.945312 325.246094 222.480469 317.203125 222.480469 C 309.109375 222.480469 302.621094 215.945312 302.621094 207.898438 C 302.621094 199.804688 309.109375 193.265625 317.203125 193.265625 C 325.246094 193.265625 331.78125 199.804688 331.78125 207.898438 Z M 331.78125 207.898438 " fill-opacity="1" fill-rule="nonzero"/><path fill="#e2e2e2" d="M 288.527344 207.898438 C 288.527344 215.945312 282.035156 222.480469 273.945312 222.480469 C 265.898438 222.480469 259.363281 215.945312 259.363281 207.898438 C 259.363281 199.804688 265.898438 193.265625 273.945312 193.265625 C 282.035156 193.265625 288.527344 199.804688 288.527344 207.898438 Z M 288.527344 207.898438 " fill-opacity="1" fill-rule="nonzero"/><path fill="#e2e2e2" d="M 245.316406 207.898438 C 245.316406 215.945312 238.78125 222.480469 230.734375 222.480469 C 222.6875 222.480469 216.152344 215.945312 216.152344 207.898438 C 216.152344 199.804688 222.6875 193.265625 230.734375 193.265625 C 238.78125 193.265625 245.316406 199.804688 245.316406 207.898438 Z M 245.316406 207.898438 " fill-opacity="1" fill-rule="nonzero"/><path fill="#e2e2e2" d="M 202.105469 207.898438 C 202.105469 215.945312 195.570312 222.480469 187.523438 222.480469 C 179.429688 222.480469 172.894531 215.945312 172.894531 207.898438 C 172.894531 199.804688 179.429688 193.265625 187.523438 193.265625 C 195.570312 193.265625 202.105469 199.804688 202.105469 207.898438 Z M 202.105469 207.898438 " fill-opacity="1" fill-rule="nonzero"/><path fill="#e2e2e2" d="M 374.996094 207.898438 C 374.996094 215.945312 368.460938 222.480469 360.414062 222.480469 C 352.367188 222.480469 345.832031 215.945312 345.832031 207.898438 C 345.832031 199.804688 352.367188 193.265625 360.414062 193.265625 C 368.460938 193.265625 374.996094 199.804688 374.996094 207.898438 Z M 374.996094 207.898438 " fill-opacity="1" fill-rule="nonzero"/><path fill="#e2e2e2" d="M 331.78125 246.226562 C 331.78125 254.320312 325.246094 260.855469 317.203125 260.855469 C 309.109375 260.855469 302.621094 254.320312 302.621094 246.226562 C 302.621094 238.179688 309.109375 231.640625 317.203125 231.640625 C 325.246094 231.640625 331.78125 238.179688 331.78125 246.226562 Z M 331.78125 246.226562 " fill-opacity="1" fill-rule="nonzero"/><path fill="#e2e2e2" d="M 245.316406 246.226562 C 245.316406 254.320312 238.78125 260.855469 230.734375 260.855469 C 222.6875 260.855469 216.152344 254.320312 216.152344 246.226562 C 216.152344 238.179688 222.6875 231.640625 230.734375 231.640625 C 238.78125 231.640625 245.316406 238.179688 245.316406 246.226562 Z M 245.316406 246.226562 " fill-opacity="1" fill-rule="nonzero"/><path fill="#e2e2e2" d="M 374.996094 246.226562 C 374.996094 254.320312 368.460938 260.855469 360.414062 260.855469 C 352.367188 260.855469 345.832031 254.320312 345.832031 246.226562 C 345.832031 238.179688 352.367188 231.640625 360.414062 231.640625 C 368.460938 231.640625 374.996094 238.179688 374.996094 246.226562 Z M 374.996094 246.226562 " fill-opacity="1" fill-rule="nonzero"/><path fill="#e2e2e2" d="M 331.78125 284.601562 C 331.78125 292.695312 325.246094 299.1875 317.203125 299.1875 C 309.109375 299.1875 302.621094 292.695312 302.621094 284.601562 C 302.621094 276.554688 309.109375 270.015625 317.203125 270.015625 C 325.246094 270.015625 331.78125 276.554688 331.78125 284.601562 Z M 331.78125 284.601562 " fill-opacity="1" fill-rule="nonzero"/><path fill="#e2e2e2" d="M 374.996094 284.601562 C 374.996094 292.695312 368.460938 299.1875 360.414062 299.1875 C 352.367188 299.1875 345.832031 292.695312 345.832031 284.601562 C 345.832031 276.554688 352.367188 270.015625 360.414062 270.015625 C 368.460938 270.015625 374.996094 276.554688 374.996094 284.601562 Z M 374.996094 284.601562 " fill-opacity="1" fill-rule="nonzero"/><g clip-path="url(#b6462dbd33)"><path fill="#e2e2e2" d="M 374.996094 322.976562 C 374.996094 331.070312 368.460938 337.5625 360.414062 337.5625 C 352.367188 337.5625 345.832031 331.070312 345.832031 322.976562 C 345.832031 314.929688 352.367188 308.390625 360.414062 308.390625 C 368.460938 308.390625 374.996094 314.929688 374.996094 322.976562 Z M 374.996094 322.976562 " fill-opacity="1" fill-rule="nonzero"/></g><g clip-path="url(#6c36644607)"><path fill="#e2e2e2" d="M 331.78125 54.398438 C 331.78125 62.445312 325.246094 68.980469 317.203125 68.980469 C 309.109375 68.980469 302.621094 62.445312 302.621094 54.398438 C 302.621094 46.347656 309.109375 39.8125 317.203125 39.8125 C 325.246094 39.8125 331.78125 46.347656 331.78125 54.398438 Z M 331.78125 54.398438 " fill-opacity="1" fill-rule="nonzero"/></g><g clip-path="url(#f6bbaa1d64)"><path fill="#e2e2e2" d="M 288.527344 54.398438 C 288.527344 62.445312 282.035156 68.980469 273.945312 68.980469 C 265.898438 68.980469 259.363281 62.445312 259.363281 54.398438 C 259.363281 46.347656 265.898438 39.8125 273.945312 39.8125 C 282.035156 39.8125 288.527344 46.347656 288.527344 54.398438 Z M 288.527344 54.398438 " fill-opacity="1" fill-rule="nonzero"/></g><g clip-path="url(#418d487266)"><path fill="#e2e2e2" d="M 245.316406 54.398438 C 245.316406 62.445312 238.78125 68.980469 230.734375 68.980469 C 222.6875 68.980469 216.152344 62.445312 216.152344 54.398438 C 216.152344 46.347656 222.6875 39.8125 230.734375 39.8125 C 238.78125 39.8125 245.316406 46.347656 245.316406 54.398438 Z M 245.316406 54.398438 " fill-opacity="1" fill-rule="nonzero"/></g><g clip-path="url(#11c54603f8)"><path fill="#e2e2e2" d="M 202.105469 54.398438 C 202.105469 62.445312 195.570312 68.980469 187.523438 68.980469 C 179.429688 68.980469 172.894531 62.445312 172.894531 54.398438 C 172.894531 46.347656 179.429688 39.8125 187.523438 39.8125 C 195.570312 39.8125 202.105469 46.347656 202.105469 54.398438 Z M 202.105469 54.398438 " fill-opacity="1" fill-rule="nonzero"/></g><g clip-path="url(#d067764b24)"><path fill="#e2e2e2" d="M 158.847656 54.398438 C 158.847656 62.445312 152.3125 68.980469 144.265625 68.980469 C 136.21875 68.980469 129.683594 62.445312 129.683594 54.398438 C 129.683594 46.347656 136.21875 39.8125 144.265625 39.8125 C 152.3125 39.8125 158.847656 46.347656 158.847656 54.398438 Z M 158.847656 54.398438 " fill-opacity="1" fill-rule="nonzero"/></g><g clip-path="url(#74ee5113fa)"><path fill="#e2e2e2" d="M 115.636719 54.398438 C 115.636719 62.445312 109.101562 68.980469 101.054688 68.980469 C 93.007812 68.980469 86.472656 62.445312 86.472656 54.398438 C 86.472656 46.347656 93.007812 39.8125 101.054688 39.8125 C 109.101562 39.8125 115.636719 46.347656 115.636719 54.398438 Z M 115.636719 54.398438 " fill-opacity="1" fill-rule="nonzero"/></g><g clip-path="url(#41e33ee641)"><path fill="#e2e2e2" d="M 72.425781 54.398438 C 72.425781 62.445312 65.890625 68.980469 57.796875 68.980469 C 49.753906 68.980469 43.21875 62.445312 43.21875 54.398438 C 43.21875 46.347656 49.753906 39.8125 57.796875 39.8125 C 65.890625 39.8125 72.425781 46.347656 72.425781 54.398438 Z M 72.425781 54.398438 " fill-opacity="1" fill-rule="nonzero"/></g><g clip-path="url(#e984de0330)"><path fill="#e2e2e2" d="M 29.167969 54.398438 C 29.167969 62.445312 22.632812 68.980469 14.585938 68.980469 C 6.539062 68.980469 0.00390625 62.445312 0.00390625 54.398438 C 0.00390625 46.347656 6.539062 39.8125 14.585938 39.8125 C 22.632812 39.8125 29.167969 46.347656 29.167969 54.398438 Z M 29.167969 54.398438 " fill-opacity="1" fill-rule="nonzero"/></g><g clip-path="url(#4484f3f5e7)"><path fill="#e2e2e2" d="M 374.996094 54.398438 C 374.996094 62.445312 368.460938 68.980469 360.414062 68.980469 C 352.367188 68.980469 345.832031 62.445312 345.832031 54.398438 C 345.832031 46.347656 352.367188 39.8125 360.414062 39.8125 C 368.460938 39.8125 374.996094 46.347656 374.996094 54.398438 Z M 374.996094 54.398438 " fill-opacity="1" fill-rule="nonzero"/></g></svg>