<svg xmlns="http://www.w3.org/2000/svg" xmlns:xlink="http://www.w3.org/1999/xlink" width="500" zoomAndPan="magnify" viewBox="0 0 375 374.999991" height="500" preserveAspectRatio="xMidYMid meet" version="1.0"><path fill="#eef24e" d="M 272.585938 190.5 L 253.078125 190.5 L 253.078125 186.863281 L 272.480469 186.863281 Z M 271.027344 269.292969 L 257.226562 255.484375 L 254.632812 258.082031 L 268.433594 271.785156 Z M 197.566406 40.28125 L 178.058594 40.28125 L 178.058594 36.644531 L 197.566406 36.644531 Z M 197.253906 336.355469 L 177.851562 336.355469 L 177.851562 339.992188 L 197.355469 339.992188 Z M 40.988281 123.433594 L 40.988281 103.917969 L 37.355469 103.917969 L 37.355469 123.433594 Z M 345.945312 194.339844 L 332.25 180.53125 L 329.652344 183.128906 L 343.453125 196.933594 Z M 193.414062 255.589844 L 179.613281 269.398438 L 182.207031 271.992188 L 196.007812 258.183594 Z M 122.855469 261.921875 L 103.453125 261.921875 L 103.453125 265.554688 L 122.960938 265.554688 Z M 47.421875 332.621094 L 33.621094 346.425781 L 31.027344 343.832031 L 44.828125 330.023438 Z M 347.085938 111.910156 L 327.683594 111.910156 L 327.683594 115.542969 L 347.191406 115.542969 Z M 196.214844 119.488281 L 182.519531 105.683594 L 179.925781 108.277344 L 193.726562 122.085938 Z M 196.214844 119.488281 " fill-opacity="1" fill-rule="nonzero"/><path fill="#303030" d="M 29.46875 186.863281 L 48.976562 186.863281 L 48.976562 190.5 L 29.46875 190.5 Z M 119.640625 31.039062 L 105.839844 44.847656 L 108.433594 47.441406 L 122.234375 33.636719 Z M 115.28125 347.878906 L 115.28125 328.363281 L 111.648438 328.363281 L 111.648438 347.878906 Z M 264.59375 124.160156 L 264.59375 104.746094 L 260.964844 104.746094 L 260.964844 124.265625 Z M 118.808594 113.988281 C 118.808594 117.101562 116.320312 119.59375 113.207031 119.59375 C 110.09375 119.59375 107.601562 117.101562 107.601562 113.988281 C 107.601562 110.875 110.09375 108.382812 113.207031 108.382812 C 116.320312 108.382812 118.808594 110.875 118.808594 113.988281 Z M 187.8125 184.683594 C 184.699219 184.683594 182.207031 187.175781 182.207031 190.289062 C 182.207031 193.40625 184.699219 195.898438 187.8125 195.898438 C 190.925781 195.898438 193.414062 193.40625 193.414062 190.289062 C 193.414062 187.175781 190.925781 184.683594 187.8125 184.683594 Z M 337.332031 332.515625 C 334.21875 332.515625 331.730469 335.007812 331.730469 338.121094 C 331.730469 341.238281 334.21875 343.726562 337.332031 343.726562 C 340.445312 343.726562 342.9375 341.238281 342.9375 338.121094 C 342.9375 335.007812 340.445312 332.515625 337.332031 332.515625 Z M 39.222656 258.496094 C 36.109375 258.496094 33.621094 260.988281 33.621094 264.101562 C 33.621094 267.21875 36.109375 269.707031 39.222656 269.707031 C 42.335938 269.707031 44.828125 267.21875 44.828125 264.101562 C 44.722656 260.882812 42.234375 258.496094 39.222656 258.496094 Z M 39.222656 258.496094 " fill-opacity="1" fill-rule="nonzero"/></svg>