<svg xmlns="http://www.w3.org/2000/svg" xmlns:xlink="http://www.w3.org/1999/xlink" width="500" zoomAndPan="magnify" viewBox="0 0 375 374.999991" height="500" preserveAspectRatio="xMidYMid meet" version="1.0"><path fill="#8ee23d" d="M 254.945312 331.21875 L 268.640625 344.921875 L 254.945312 344.921875 Z M 194.347656 31.921875 L 180.652344 45.625 L 194.347656 45.625 Z M 44.101562 330.386719 L 30.402344 344.089844 L 44.101562 344.089844 Z M 330.378906 256.058594 L 344.078125 269.761719 L 330.378906 269.761719 Z M 329.964844 33.167969 L 341.066406 33.167969 L 341.066406 44.277344 L 329.964844 44.277344 Z M 43.996094 196.261719 L 30.300781 182.558594 L 43.996094 182.558594 Z M 118.082031 270.382812 L 104.386719 256.679688 L 118.082031 256.679688 Z M 256.292969 108.433594 L 267.398438 108.433594 L 267.398438 119.542969 L 256.292969 119.542969 Z M 105.839844 330.386719 L 119.535156 344.089844 L 105.839844 344.089844 Z M 107.085938 33.167969 L 118.289062 33.167969 L 118.289062 44.277344 L 107.1875 44.277344 L 107.1875 33.167969 Z M 180.652344 107.1875 L 194.347656 120.890625 L 180.652344 120.890625 Z M 180.964844 257.71875 L 192.066406 257.71875 L 192.066406 268.828125 L 180.964844 268.828125 Z M 180.964844 257.71875 " fill-opacity="1" fill-rule="nonzero"/><path fill="#383838" d="M 180.964844 182.660156 L 192.066406 182.660156 L 192.066406 193.769531 L 180.964844 193.769531 Z M 254.945312 270.382812 L 268.640625 256.679688 L 254.945312 256.679688 Z M 107.085938 108.433594 L 118.289062 108.433594 L 118.289062 119.542969 L 107.1875 119.542969 L 107.1875 108.433594 Z M 31.339844 31.402344 L 45.035156 45.105469 L 31.339844 45.105469 Z M 268.640625 45.625 L 254.945312 31.921875 L 268.640625 31.921875 Z M 331.625 332.464844 L 342.726562 332.464844 L 342.726562 343.574219 L 331.625 343.574219 Z M 105.839844 180.6875 L 119.535156 194.390625 L 105.839844 194.390625 Z M 31.648438 257.925781 L 42.75 257.925781 L 42.75 269.035156 L 31.648438 269.035156 Z M 343.972656 180.6875 L 330.277344 194.390625 L 343.972656 194.390625 Z M 256.292969 182.660156 L 267.398438 182.660156 L 267.398438 193.769531 L 256.292969 193.769531 Z M 342.3125 122.65625 L 328.617188 108.953125 L 342.3125 108.953125 Z M 31.339844 120.0625 L 45.035156 106.355469 L 31.339844 106.355469 Z M 193.414062 346.375 L 179.71875 332.671875 L 193.414062 332.671875 Z M 193.414062 346.375 " fill-opacity="1" fill-rule="nonzero"/></svg>