<svg xmlns="http://www.w3.org/2000/svg" xmlns:xlink="http://www.w3.org/1999/xlink" width="500" zoomAndPan="magnify" viewBox="0 0 375 374.999991" height="500" preserveAspectRatio="xMidYMid meet" version="1.0"><rect x="-37.5" width="450" fill="#ffffff" y="-37.499999" height="449.999989" fill-opacity="1"/><rect x="-37.5" width="450" fill="#ffffff" y="-37.499999" height="449.999989" fill-opacity="1"/><path fill="#383838" d="M 18.3125 18.25 L 0 18.25 L 0 0.0625 L 18.3125 0.0625 Z M 104.667969 2.785156 L 92.542969 2.785156 L 92.542969 14.910156 L 104.667969 14.910156 Z M 196.71875 0.0625 L 178.40625 0.0625 L 178.40625 18.371094 L 196.71875 18.371094 Z M 282.949219 2.785156 L 270.828125 2.785156 L 270.828125 14.910156 L 282.949219 14.910156 Z M 375 0.0625 L 356.6875 0.0625 L 356.6875 18.371094 L 375 18.371094 Z M 15.464844 91.738281 L 3.339844 91.738281 L 3.339844 103.863281 L 15.464844 103.863281 Z M 107.636719 89.019531 L 89.328125 89.019531 L 89.328125 107.328125 L 107.636719 107.328125 Z M 193.625 91.738281 L 181.5 91.738281 L 181.5 103.863281 L 193.625 103.863281 Z M 285.671875 89.019531 L 267.363281 89.019531 L 267.363281 107.328125 L 285.671875 107.328125 Z M 371.785156 91.738281 L 359.660156 91.738281 L 359.660156 103.863281 L 371.785156 103.863281 Z M 18.3125 177.851562 L 0 177.851562 L 0 196.160156 L 18.3125 196.160156 Z M 104.667969 180.570312 L 92.542969 180.570312 L 92.542969 192.695312 L 104.667969 192.695312 Z M 196.71875 177.851562 L 178.40625 177.851562 L 178.40625 196.160156 L 196.71875 196.160156 Z M 282.949219 180.570312 L 270.828125 180.570312 L 270.828125 192.695312 L 282.949219 192.695312 Z M 375 177.851562 L 356.6875 177.851562 L 356.6875 196.160156 L 375 196.160156 Z M 15.464844 269.527344 L 3.339844 269.527344 L 3.339844 281.652344 L 15.464844 281.652344 Z M 107.636719 266.804688 L 89.328125 266.804688 L 89.328125 285.117188 L 107.636719 285.117188 Z M 193.625 269.527344 L 181.5 269.527344 L 181.5 281.652344 L 193.625 281.652344 Z M 285.671875 266.804688 L 267.363281 266.804688 L 267.363281 285.117188 L 285.671875 285.117188 Z M 371.785156 269.527344 L 359.660156 269.527344 L 359.660156 281.652344 L 371.785156 281.652344 Z M 18.3125 356.628906 L 0 356.628906 L 0 374.9375 L 18.3125 374.9375 Z M 104.667969 359.347656 L 92.542969 359.347656 L 92.542969 371.472656 L 104.667969 371.472656 Z M 196.71875 356.628906 L 178.40625 356.628906 L 178.40625 374.9375 L 196.71875 374.9375 Z M 282.949219 359.347656 L 270.828125 359.347656 L 270.828125 371.472656 L 282.949219 371.472656 Z M 375 356.628906 L 356.6875 356.628906 L 356.6875 374.9375 L 375 374.9375 Z M 375 356.628906 " fill-opacity="1" fill-rule="nonzero"/></svg>