<svg xmlns="http://www.w3.org/2000/svg" xmlns:xlink="http://www.w3.org/1999/xlink" width="500" zoomAndPan="magnify" viewBox="0 0 375 374.999991" height="500" preserveAspectRatio="xMidYMid meet" version="1.0"><defs><clipPath id="67a158a6a6"><path d="M 1 118.296875 L 374 118.296875 L 374 257.046875 L 1 257.046875 Z M 1 118.296875 " clip-rule="nonzero"/></clipPath></defs><rect x="-37.5" width="450" fill="#ffffff" y="-37.499999" height="449.999989" fill-opacity="1"/><rect x="-37.5" width="450" fill="#ffffff" y="-37.499999" height="449.999989" fill-opacity="1"/><rect x="-37.5" width="450" fill="#ffffff" y="-37.499999" height="449.999989" fill-opacity="1"/><g clip-path="url(#67a158a6a6)"><path fill="#383838" d="M 250.433594 248.019531 C 250.433594 243.0625 246.371094 238.992188 241.429688 238.992188 L 145.925781 238.992188 C 140.984375 238.992188 136.925781 243.0625 136.925781 248.019531 C 136.925781 252.976562 140.984375 257.046875 145.925781 257.046875 L 241.429688 257.046875 C 246.371094 257.046875 250.433594 252.976562 250.433594 248.019531 Z M 79.375 248.019531 C 79.375 243.0625 75.316406 238.992188 70.375 238.992188 L 10.175781 238.992188 C 5.234375 238.992188 1.175781 243.0625 1.175781 248.019531 C 1.175781 252.976562 5.234375 257.046875 10.175781 257.046875 L 70.375 257.046875 C 75.316406 257.046875 79.375 252.976562 79.375 248.019531 Z M 308.15625 248.019531 C 308.15625 243.0625 304.097656 238.992188 299.15625 238.992188 L 291.917969 238.992188 C 286.972656 238.992188 282.914062 243.0625 282.914062 248.019531 C 282.914062 252.976562 286.972656 257.046875 291.917969 257.046875 L 299.15625 257.046875 C 304.097656 257.046875 308.15625 252.976562 308.15625 248.019531 Z M 364.824219 248.019531 C 364.824219 243.0625 360.761719 238.992188 355.820312 238.992188 L 335.871094 238.992188 C 330.929688 238.992188 326.871094 243.0625 326.871094 248.019531 C 326.871094 252.976562 330.929688 257.046875 335.871094 257.046875 L 355.820312 257.046875 C 360.761719 257.046875 364.824219 252.976562 364.824219 248.019531 Z M 94.203125 167.496094 C 94.203125 162.539062 90.144531 158.46875 85.203125 158.46875 L 65.253906 158.46875 C 60.3125 158.46875 56.25 162.539062 56.25 167.496094 C 56.25 172.449219 60.3125 176.519531 65.253906 176.519531 L 85.203125 176.519531 C 90.144531 176.519531 94.027344 172.449219 94.203125 167.496094 Z M 225.894531 167.496094 C 225.894531 162.539062 221.835938 158.46875 216.890625 158.46875 L 111.152344 158.46875 C 106.207031 158.46875 102.148438 162.539062 102.148438 167.496094 C 102.148438 172.449219 106.207031 176.519531 111.152344 176.519531 L 216.890625 176.519531 C 221.835938 176.519531 225.894531 172.628906 225.894531 167.496094 C 225.894531 167.671875 225.894531 167.496094 225.894531 167.496094 Z M 19.179688 167.496094 C 19.179688 162.539062 15.121094 158.46875 10.175781 158.46875 C 5.234375 158.46875 1.175781 162.539062 1.175781 167.496094 C 1.175781 172.449219 5.234375 176.519531 10.175781 176.519531 C 15.121094 176.519531 19.179688 172.449219 19.179688 167.496094 Z M 312.570312 167.496094 C 312.570312 162.539062 308.511719 158.46875 303.566406 158.46875 L 243.019531 158.46875 C 238.074219 158.46875 234.015625 162.539062 234.015625 167.496094 C 234.015625 172.449219 238.074219 176.519531 243.019531 176.519531 L 303.566406 176.519531 C 308.511719 176.519531 312.394531 172.449219 312.570312 167.496094 Z M 285.386719 207.847656 C 285.386719 202.890625 281.324219 198.820312 276.382812 198.820312 L 64.902344 198.820312 C 59.957031 198.820312 55.898438 202.890625 55.898438 207.847656 C 55.898438 212.800781 59.957031 216.871094 64.902344 216.871094 L 276.558594 216.871094 C 281.5 216.695312 285.386719 212.625 285.386719 207.847656 Z M 47.425781 207.847656 C 47.425781 202.890625 43.363281 198.820312 38.421875 198.820312 L 25.003906 198.820312 C 20.0625 198.820312 16.003906 202.890625 16.003906 207.847656 C 16.003906 212.800781 20.0625 216.871094 25.003906 216.871094 L 38.421875 216.871094 C 43.363281 216.695312 47.246094 212.625 47.425781 207.847656 Z M 335.695312 167.671875 C 335.695312 162.714844 331.636719 158.644531 326.691406 158.644531 C 321.75 158.644531 317.691406 162.714844 317.691406 167.671875 C 317.691406 172.628906 321.75 176.699219 326.691406 176.699219 C 331.636719 176.699219 335.695312 172.804688 335.695312 167.671875 Z M 326.691406 207.847656 C 326.691406 202.890625 322.632812 198.820312 317.691406 198.820312 L 304.273438 198.820312 C 299.332031 198.820312 295.269531 202.890625 295.269531 207.847656 C 295.269531 212.800781 299.332031 216.871094 304.273438 216.871094 L 317.691406 216.871094 C 322.632812 216.871094 326.691406 212.800781 326.691406 207.847656 Z M 358.46875 207.847656 C 358.46875 202.890625 354.40625 198.820312 349.464844 198.820312 C 344.523438 198.820312 340.460938 202.890625 340.460938 207.847656 C 340.460938 212.800781 344.523438 216.871094 349.464844 216.871094 C 354.40625 216.871094 358.46875 212.800781 358.46875 207.847656 Z M 86.4375 127.320312 C 86.4375 122.367188 82.378906 118.296875 77.433594 118.296875 L 17.238281 118.296875 C 12.296875 118.296875 8.234375 122.367188 8.234375 127.320312 C 8.234375 132.277344 12.296875 136.347656 17.238281 136.347656 L 77.433594 136.347656 C 82.378906 136.347656 86.4375 132.277344 86.4375 127.320312 Z M 133.21875 127.320312 C 133.21875 122.367188 129.15625 118.296875 124.214844 118.296875 L 110.796875 118.296875 C 105.855469 118.296875 101.796875 122.367188 101.796875 127.320312 C 101.796875 132.277344 105.855469 136.347656 110.796875 136.347656 L 124.214844 136.347656 C 129.15625 136.347656 133.21875 132.277344 133.21875 127.320312 Z M 303.390625 127.320312 C 303.390625 122.367188 299.332031 118.296875 294.386719 118.296875 L 163.582031 118.296875 C 158.636719 118.296875 154.578125 122.367188 154.578125 127.320312 C 154.578125 132.277344 158.636719 136.347656 163.582031 136.347656 L 294.386719 136.347656 C 299.332031 136.347656 303.390625 132.277344 303.390625 127.320312 Z M 373.824219 127.320312 C 373.824219 122.367188 369.765625 118.296875 364.824219 118.296875 C 359.878906 118.296875 355.820312 122.367188 355.820312 127.320312 C 355.820312 132.277344 359.878906 136.347656 364.824219 136.347656 C 369.765625 136.347656 373.824219 132.277344 373.824219 127.320312 Z M 103.207031 248.019531 C 103.207031 243.0625 99.148438 238.992188 94.203125 238.992188 C 89.261719 238.992188 85.203125 243.0625 85.203125 248.019531 C 85.203125 252.976562 89.261719 257.046875 94.203125 257.046875 C 99.148438 257.046875 103.03125 252.976562 103.207031 248.019531 Z M 103.207031 248.019531 " fill-opacity="1" fill-rule="nonzero"/></g></svg>