<svg xmlns="http://www.w3.org/2000/svg" xmlns:xlink="http://www.w3.org/1999/xlink" width="500" zoomAndPan="magnify" viewBox="0 0 375 374.999991" height="500" preserveAspectRatio="xMidYMid meet" version="1.0"><defs><clipPath id="582cd85817"><path d="M 338.628906 79.894531 L 374.886719 79.894531 L 374.886719 116 L 338.628906 116 Z M 338.628906 79.894531 " clip-rule="nonzero"/></clipPath><clipPath id="4053523034"><path d="M 318 61.941406 L 355 61.941406 L 355 98 L 318 98 Z M 318 61.941406 " clip-rule="nonzero"/></clipPath><clipPath id="9de2b01ea8"><path d="M 172.371094 257 L 283.664062 257 L 283.664062 307.941406 L 172.371094 307.941406 Z M 172.371094 257 " clip-rule="nonzero"/></clipPath></defs><rect x="-37.5" width="450" fill="#ffffff" y="-37.499999" height="449.999989" fill-opacity="1"/><rect x="-37.5" width="450" fill="#ffffff" y="-37.499999" height="449.999989" fill-opacity="1"/><path fill="#3968ad" d="M 282.6875 203.550781 L 328.949219 203.550781 L 328.949219 249.789062 L 282.6875 249.789062 L 282.6875 203.550781 " fill-opacity="1" fill-rule="nonzero"/><path fill="#e3f5f9" d="M 190.171875 72.714844 L 305.816406 72.714844 L 305.816406 221.230469 L 190.171875 221.230469 L 190.171875 72.714844 " fill-opacity="1" fill-rule="nonzero"/><path fill="#b3e5fc" d="M 305.816406 72.714844 L 190.171875 72.714844 L 190.171875 87.160156 L 305.816406 87.160156 L 305.816406 72.714844 " fill-opacity="1" fill-rule="nonzero"/><path fill="#42a7f9" d="M 194.796875 79.742188 C 194.796875 81.671875 196.359375 83.234375 198.289062 83.234375 C 200.21875 83.234375 201.78125 81.671875 201.78125 79.742188 C 201.78125 77.816406 200.21875 76.253906 198.289062 76.253906 C 196.359375 76.253906 194.796875 77.816406 194.796875 79.742188 " fill-opacity="1" fill-rule="nonzero"/><path fill="#42a7f9" d="M 204.734375 79.742188 C 204.734375 81.671875 206.300781 83.234375 208.226562 83.234375 C 210.15625 83.234375 211.71875 81.671875 211.71875 79.742188 C 211.71875 77.816406 210.15625 76.253906 208.226562 76.253906 C 206.300781 76.253906 204.734375 77.816406 204.734375 79.742188 " fill-opacity="1" fill-rule="nonzero"/><path fill="#b3e5fc" d="M 217.5625 157.671875 C 217.5625 175.648438 232.140625 190.222656 250.125 190.222656 C 268.109375 190.222656 282.6875 175.648438 282.6875 157.671875 C 282.6875 139.695312 268.109375 125.121094 250.125 125.121094 C 232.140625 125.121094 217.5625 139.695312 217.5625 157.671875 " fill-opacity="1" fill-rule="nonzero"/><path fill="#42a7f9" d="M 250.125 125.121094 L 250.125 157.671875 L 282.6875 157.671875 C 282.6875 139.695312 268.109375 125.121094 250.125 125.121094 " fill-opacity="1" fill-rule="nonzero"/><path fill="#3948ad" d="M 329.898438 250.742188 L 281.738281 250.742188 L 281.738281 229.664062 L 283.640625 229.664062 L 283.640625 248.839844 L 327.996094 248.839844 L 327.996094 204.503906 L 313.710938 204.503906 L 313.710938 202.597656 L 329.898438 202.597656 L 329.898438 250.742188 " fill-opacity="1" fill-rule="nonzero"/><path fill="#3948ad" d="M 306.769531 222.183594 L 242.6875 222.183594 L 242.6875 220.277344 L 304.867188 220.277344 L 304.867188 73.667969 L 190.171875 73.667969 L 190.171875 71.765625 L 306.769531 71.765625 L 306.769531 222.183594 " fill-opacity="1" fill-rule="nonzero"/><path fill="#3948ad" d="M 306.769531 88.113281 L 239.421875 88.113281 L 239.421875 86.210938 L 304.867188 86.210938 L 304.867188 73.667969 L 190.171875 73.667969 L 190.171875 71.765625 L 306.769531 71.765625 L 306.769531 88.113281 " fill-opacity="1" fill-rule="nonzero"/><path fill="#3948ad" d="M 198.289062 77.203125 C 196.890625 77.203125 195.75 78.34375 195.75 79.742188 C 195.75 81.144531 196.890625 82.28125 198.289062 82.28125 C 199.691406 82.28125 200.828125 81.144531 200.828125 79.742188 C 200.828125 78.34375 199.691406 77.203125 198.289062 77.203125 Z M 198.289062 84.1875 C 195.839844 84.1875 193.84375 82.191406 193.84375 79.742188 C 193.84375 77.292969 195.839844 75.300781 198.289062 75.300781 C 200.738281 75.300781 202.734375 77.292969 202.734375 79.742188 C 202.734375 82.191406 200.738281 84.1875 198.289062 84.1875 " fill-opacity="1" fill-rule="nonzero"/><path fill="#3948ad" d="M 208.226562 77.203125 C 206.828125 77.203125 205.6875 78.34375 205.6875 79.742188 C 205.6875 81.144531 206.828125 82.28125 208.226562 82.28125 C 209.628906 82.28125 210.769531 81.144531 210.769531 79.742188 C 210.769531 78.34375 209.628906 77.203125 208.226562 77.203125 Z M 208.226562 84.1875 C 205.777344 84.1875 203.785156 82.191406 203.785156 79.742188 C 203.785156 77.292969 205.777344 75.300781 208.226562 75.300781 C 210.679688 75.300781 212.671875 77.292969 212.671875 79.742188 C 212.671875 82.191406 210.679688 84.1875 208.226562 84.1875 " fill-opacity="1" fill-rule="nonzero"/><path fill="#3948ad" d="M 250.125 191.175781 C 245.601562 191.175781 241.214844 190.289062 237.082031 188.539062 L 237.820312 186.785156 C 241.71875 188.433594 245.859375 189.269531 250.125 189.269531 C 267.554688 189.269531 281.738281 175.09375 281.738281 157.671875 C 281.738281 140.25 267.554688 126.074219 250.125 126.074219 C 245.675781 126.074219 241.375 126.980469 237.339844 128.765625 L 236.570312 127.023438 C 240.847656 125.128906 245.410156 124.171875 250.125 124.171875 C 268.605469 124.171875 283.640625 139.199219 283.640625 157.671875 C 283.640625 176.144531 268.605469 191.175781 250.125 191.175781 " fill-opacity="1" fill-rule="nonzero"/><path fill="#3948ad" d="M 251.078125 156.71875 L 281.71875 156.71875 C 281.226562 140.050781 267.753906 126.582031 251.078125 126.089844 Z M 283.640625 158.625 L 249.171875 158.625 L 249.171875 124.171875 L 250.125 124.171875 C 268.605469 124.171875 283.640625 139.199219 283.640625 157.671875 L 283.640625 158.625 " fill-opacity="1" fill-rule="nonzero"/><path fill="#fff59c" d="M 93.300781 239.726562 L 228.8125 239.726562 L 228.8125 87.160156 L 93.300781 87.160156 L 93.300781 239.726562 " fill-opacity="1" fill-rule="nonzero"/><path fill="#ffeb3c" d="M 93.300781 87.160156 L 228.8125 87.160156 L 228.8125 101.003906 L 93.300781 101.003906 L 93.300781 87.160156 " fill-opacity="1" fill-rule="nonzero"/><path fill="#ffc928" d="M 97.835938 94.113281 C 97.835938 95.816406 99.214844 97.195312 100.921875 97.195312 C 102.625 97.195312 104.003906 95.816406 104.003906 94.113281 C 104.003906 92.410156 102.625 91.03125 100.921875 91.03125 C 99.214844 91.03125 97.835938 92.410156 97.835938 94.113281 " fill-opacity="1" fill-rule="nonzero"/><path fill="#ffc928" d="M 107.246094 94.113281 C 107.246094 95.816406 108.628906 97.195312 110.332031 97.195312 C 112.035156 97.195312 113.414062 95.816406 113.414062 94.113281 C 113.414062 92.410156 112.035156 91.03125 110.332031 91.03125 C 108.628906 91.03125 107.246094 92.410156 107.246094 94.113281 " fill-opacity="1" fill-rule="nonzero"/><path fill="#ffc928" d="M 136.972656 136.230469 L 108.539062 136.230469 L 108.539062 107.804688 L 136.972656 107.804688 L 136.972656 136.230469 " fill-opacity="1" fill-rule="nonzero"/><path fill="#ffc928" d="M 205.136719 128.75 L 153.710938 128.75 L 153.710938 122.015625 L 205.136719 122.015625 L 205.136719 128.75 " fill-opacity="1" fill-rule="nonzero"/><path fill="#ffc928" d="M 205.136719 149.0625 L 136.972656 149.0625 L 136.972656 142.332031 L 205.136719 142.332031 L 205.136719 149.0625 " fill-opacity="1" fill-rule="nonzero"/><path fill="#ffeb3c" d="M 132.210938 206.8125 L 121.054688 206.8125 L 121.054688 226.671875 L 132.210938 226.671875 L 132.210938 206.8125 " fill-opacity="1" fill-rule="nonzero"/><path fill="#ffc928" d="M 149.628906 190.222656 L 138.472656 190.222656 L 138.472656 226.671875 L 149.628906 226.671875 L 149.628906 190.222656 " fill-opacity="1" fill-rule="nonzero"/><path fill="#ffc928" d="M 167.042969 183.421875 L 155.886719 183.421875 L 155.886719 226.671875 L 167.042969 226.671875 L 167.042969 183.421875 " fill-opacity="1" fill-rule="nonzero"/><path fill="#ff7244" d="M 184.457031 177.980469 L 173.300781 177.980469 L 173.300781 226.671875 L 184.457031 226.671875 L 184.457031 177.980469 " fill-opacity="1" fill-rule="nonzero"/><path fill="#ff7244" d="M 121.855469 186.386719 L 120.257812 182.632812 L 166.242188 163.050781 L 167.839844 166.800781 L 121.855469 186.386719 " fill-opacity="1" fill-rule="nonzero"/><path fill="#ff7244" d="M 163.144531 160.199219 L 167.054688 170.351562 L 170.941406 163.027344 Z M 163.144531 160.199219 " fill-opacity="1" fill-rule="nonzero"/><path fill="#3948ad" d="M 229.761719 240.679688 L 92.347656 240.679688 L 92.347656 201.101562 L 94.253906 201.101562 L 94.253906 238.773438 L 227.859375 238.773438 L 227.859375 88.113281 L 94.253906 88.113281 L 94.253906 104.269531 L 92.347656 104.269531 L 92.347656 86.210938 L 229.761719 86.210938 L 229.761719 240.679688 " fill-opacity="1" fill-rule="nonzero"/><path fill="#3948ad" d="M 94.253906 100.054688 L 227.859375 100.054688 L 227.859375 88.113281 L 94.253906 88.113281 Z M 229.761719 101.957031 L 92.347656 101.957031 L 92.347656 86.210938 L 229.761719 86.210938 L 229.761719 101.957031 " fill-opacity="1" fill-rule="nonzero"/><path fill="#3948ad" d="M 100.921875 91.984375 C 99.746094 91.984375 98.789062 92.9375 98.789062 94.113281 C 98.789062 95.289062 99.746094 96.246094 100.921875 96.246094 C 102.09375 96.246094 103.050781 95.289062 103.050781 94.113281 C 103.050781 92.9375 102.09375 91.984375 100.921875 91.984375 Z M 100.921875 98.148438 C 98.695312 98.148438 96.882812 96.339844 96.882812 94.113281 C 96.882812 91.890625 98.695312 90.078125 100.921875 90.078125 C 103.144531 90.078125 104.957031 91.890625 104.957031 94.113281 C 104.957031 96.339844 103.144531 98.148438 100.921875 98.148438 " fill-opacity="1" fill-rule="nonzero"/><path fill="#3948ad" d="M 110.332031 91.984375 C 109.15625 91.984375 108.199219 92.9375 108.199219 94.113281 C 108.199219 95.289062 109.15625 96.246094 110.332031 96.246094 C 111.507812 96.246094 112.460938 95.289062 112.460938 94.113281 C 112.460938 92.9375 111.507812 91.984375 110.332031 91.984375 Z M 110.332031 98.148438 C 108.105469 98.148438 106.296875 96.339844 106.296875 94.113281 C 106.296875 91.890625 108.105469 90.078125 110.332031 90.078125 C 112.558594 90.078125 114.367188 91.890625 114.367188 94.113281 C 114.367188 96.339844 112.558594 98.148438 110.332031 98.148438 " fill-opacity="1" fill-rule="nonzero"/><path fill="#3948ad" d="M 137.925781 136.230469 L 136.023438 136.230469 L 136.023438 108.757812 L 108.539062 108.757812 L 108.539062 106.851562 L 137.925781 106.851562 L 137.925781 136.230469 " fill-opacity="1" fill-rule="nonzero"/><path fill="#3948ad" d="M 154.660156 127.796875 L 204.183594 127.796875 L 204.183594 122.96875 L 154.660156 122.96875 Z M 206.089844 129.699219 L 152.757812 129.699219 L 152.757812 121.066406 L 206.089844 121.066406 L 206.089844 129.699219 " fill-opacity="1" fill-rule="nonzero"/><path fill="#3948ad" d="M 137.925781 148.113281 L 204.183594 148.113281 L 204.183594 143.285156 L 137.925781 143.285156 Z M 206.089844 150.015625 L 136.023438 150.015625 L 136.023438 141.378906 L 206.089844 141.378906 L 206.089844 150.015625 " fill-opacity="1" fill-rule="nonzero"/><path fill="#3948ad" d="M 122.007812 225.71875 L 131.261719 225.71875 L 131.261719 207.765625 L 122.007812 207.765625 Z M 133.164062 227.621094 L 120.105469 227.621094 L 120.105469 205.863281 L 133.164062 205.863281 L 133.164062 227.621094 " fill-opacity="1" fill-rule="nonzero"/><path fill="#3948ad" d="M 139.421875 225.71875 L 148.675781 225.71875 L 148.675781 191.175781 L 139.421875 191.175781 Z M 150.578125 227.621094 L 137.519531 227.621094 L 137.519531 189.269531 L 150.578125 189.269531 L 150.578125 227.621094 " fill-opacity="1" fill-rule="nonzero"/><path fill="#3948ad" d="M 156.839844 225.71875 L 166.089844 225.71875 L 166.089844 184.375 L 156.839844 184.375 Z M 167.996094 227.621094 L 154.933594 227.621094 L 154.933594 182.46875 L 167.996094 182.46875 L 167.996094 227.621094 " fill-opacity="1" fill-rule="nonzero"/><path fill="#3948ad" d="M 174.253906 225.71875 L 183.503906 225.71875 L 183.503906 178.933594 L 174.253906 178.933594 Z M 185.410156 227.621094 L 172.347656 227.621094 L 172.347656 177.03125 L 185.410156 177.03125 L 185.410156 227.621094 " fill-opacity="1" fill-rule="nonzero"/><path fill="#3948ad" d="M 121.507812 183.136719 L 122.359375 185.136719 L 166.527344 166.328125 L 167.195312 168.0625 L 169.585938 163.550781 L 164.785156 161.808594 L 165.742188 164.296875 Z M 121.351562 187.636719 L 119.007812 182.128906 L 163.304688 163.265625 L 161.503906 158.589844 L 172.292969 162.507812 L 166.917969 172.644531 L 165.457031 168.851562 L 121.351562 187.636719 " fill-opacity="1" fill-rule="nonzero"/><path fill="#b3e5fc" d="M 339.832031 80.875 L 373.933594 80.875 L 373.933594 114.96875 L 339.832031 114.96875 L 339.832031 80.875 " fill-opacity="1" fill-rule="nonzero"/><path fill="#ffeb3c" d="M 319.875 62.894531 L 353.980469 62.894531 L 353.980469 96.984375 L 319.875 96.984375 L 319.875 62.894531 " fill-opacity="1" fill-rule="nonzero"/><g clip-path="url(#582cd85817)"><path fill="#3948ad" d="M 374.886719 115.917969 L 338.878906 115.917969 L 338.878906 102.09375 L 340.785156 102.09375 L 340.785156 114.015625 L 372.980469 114.015625 L 372.980469 81.828125 L 361.960938 81.828125 L 361.960938 79.925781 L 374.886719 79.925781 L 374.886719 115.917969 " fill-opacity="1" fill-rule="nonzero"/></g><g clip-path="url(#4053523034)"><path fill="#3948ad" d="M 320.828125 96.03125 L 353.027344 96.03125 L 353.027344 63.84375 L 320.828125 63.84375 Z M 354.933594 97.9375 L 318.921875 97.9375 L 318.921875 61.941406 L 354.933594 61.941406 L 354.933594 97.9375 " fill-opacity="1" fill-rule="nonzero"/></g><path fill="#3968ad" d="M 62.351562 257.953125 L 110.332031 257.953125 L 110.332031 305.914062 L 62.351562 305.914062 L 62.351562 257.953125 " fill-opacity="1" fill-rule="nonzero"/><path fill="#b3e5fc" d="M 34.28125 232.65625 L 82.257812 232.65625 L 82.257812 280.617188 L 34.28125 280.617188 L 34.28125 232.65625 " fill-opacity="1" fill-rule="nonzero"/><path fill="#3948ad" d="M 111.285156 306.867188 L 61.398438 306.867188 L 61.398438 288.6875 L 63.304688 288.6875 L 63.304688 304.960938 L 109.378906 304.960938 L 109.378906 258.90625 L 91.242188 258.90625 L 91.242188 257.003906 L 111.285156 257.003906 L 111.285156 306.867188 " fill-opacity="1" fill-rule="nonzero"/><path fill="#3948ad" d="M 35.230469 279.664062 L 81.304688 279.664062 L 81.304688 233.605469 L 35.230469 233.605469 Z M 83.210938 281.566406 L 33.328125 281.566406 L 33.328125 231.703125 L 83.210938 231.703125 L 83.210938 281.566406 " fill-opacity="1" fill-rule="nonzero"/><path fill="#ffc928" d="M 282.6875 307 L 173.574219 307 L 173.574219 257.953125 L 175.75 257.953125 L 175.75 304.828125 L 282.6875 304.828125 L 282.6875 307 " fill-opacity="1" fill-rule="nonzero"/><path fill="#fff59c" d="M 282.6875 304.828125 C 282.6875 304.828125 283.777344 286.238281 274.796875 278.351562 C 265.816406 270.464844 275.886719 250.605469 265.546875 251.964844 C 255.207031 253.328125 252.757812 267.742188 247.996094 265.839844 C 243.234375 263.933594 240.785156 250.605469 228.128906 268.558594 C 215.476562 286.511719 203.503906 281.09375 199.96875 278.363281 C 196.429688 275.632812 183.097656 283.429688 175.75 304.828125 L 282.6875 304.828125 " fill-opacity="1" fill-rule="nonzero"/><g clip-path="url(#9de2b01ea8)"><path fill="#3948ad" d="M 174.523438 306.050781 L 281.738281 306.050781 L 281.738281 305.777344 L 174.796875 305.777344 L 174.796875 258.90625 L 174.523438 258.90625 Z M 283.640625 307.953125 L 172.621094 307.953125 L 172.621094 257.003906 L 176.703125 257.003906 L 176.703125 303.875 L 283.640625 303.875 L 283.640625 307.953125 " fill-opacity="1" fill-rule="nonzero"/></g><path fill="#3948ad" d="M 180.925781 295.246094 L 179.25 294.34375 C 184.921875 283.765625 192.125 278.035156 196.75 277.046875 C 198.324219 276.710938 199.636719 276.90625 200.550781 277.609375 C 202.738281 279.300781 206.664062 280.867188 211.121094 280.195312 C 216.796875 279.339844 222.253906 275.238281 227.351562 268.011719 C 231.867188 261.601562 235.488281 258.53125 238.746094 258.351562 C 241.722656 258.1875 243.683594 260.398438 245.414062 262.347656 C 246.425781 263.492188 247.382812 264.566406 248.347656 264.953125 C 249.699219 265.496094 251.035156 263.695312 253.105469 260.714844 C 255.710938 256.964844 259.273438 251.832031 265.421875 251.023438 C 267.222656 250.785156 268.652344 251.125 269.667969 252.03125 C 271.777344 253.917969 271.707031 257.777344 271.625 262.242188 C 271.519531 267.800781 271.40625 274.105469 275.425781 277.636719 C 280.394531 282 282.355469 289.445312 283.128906 294.921875 L 281.242188 295.1875 C 280.515625 290.03125 278.699219 283.046875 274.167969 279.066406 C 269.484375 274.949219 269.613281 267.886719 269.71875 262.207031 C 269.789062 258.375 269.855469 254.753906 268.398438 253.453125 C 267.804688 252.925781 266.914062 252.746094 265.667969 252.910156 C 260.355469 253.609375 257.203125 258.152344 254.671875 261.800781 C 252.414062 265.046875 250.46875 267.851562 247.640625 266.722656 C 246.253906 266.167969 245.152344 264.925781 243.988281 263.613281 C 242.402344 261.824219 240.90625 260.136719 238.855469 260.253906 C 236.296875 260.394531 232.949219 263.375 228.910156 269.105469 C 223.503906 276.777344 217.613281 281.140625 211.40625 282.078125 C 205.046875 283.035156 200.597656 280.054688 199.386719 279.117188 C 198.9375 278.769531 198.140625 278.695312 197.144531 278.910156 C 192.953125 279.804688 186.3125 285.203125 180.925781 295.246094 " fill-opacity="1" fill-rule="nonzero"/><path fill="#ff7244" d="M 352.164062 140.71875 C 352.164062 143.421875 354.359375 145.613281 357.0625 145.613281 C 359.769531 145.613281 361.960938 143.421875 361.960938 140.71875 C 361.960938 138.011719 359.769531 135.820312 357.0625 135.820312 C 354.359375 135.820312 352.164062 138.011719 352.164062 140.71875 " fill-opacity="1" fill-rule="nonzero"/><path fill="#ff7244" d="M 324.050781 158.777344 C 324.050781 161.480469 326.242188 163.675781 328.949219 163.675781 C 331.652344 163.675781 333.84375 161.480469 333.84375 158.777344 C 333.84375 156.074219 331.652344 153.882812 328.949219 153.882812 C 326.242188 153.882812 324.050781 156.074219 324.050781 158.777344 " fill-opacity="1" fill-rule="nonzero"/><path fill="#ff7244" d="M 352.164062 176.839844 C 352.164062 179.542969 354.359375 181.734375 357.0625 181.734375 C 359.769531 181.734375 361.960938 179.542969 361.960938 176.839844 C 361.960938 174.132812 359.769531 171.941406 357.0625 171.941406 C 354.359375 171.941406 352.164062 174.132812 352.164062 176.839844 " fill-opacity="1" fill-rule="nonzero"/><path fill="#ff7244" d="M 356.476562 177.753906 L 326.933594 158.777344 L 356.476562 139.800781 L 357.652344 141.632812 L 330.960938 158.777344 L 357.652344 175.921875 L 356.476562 177.753906 " fill-opacity="1" fill-rule="nonzero"/><path fill="#ff7244" d="M 357.0625 171.941406 C 355.726562 171.941406 354.519531 172.476562 353.632812 173.34375 L 333.546875 160.441406 C 333.734375 159.921875 333.84375 159.363281 333.84375 158.777344 C 333.84375 158.195312 333.734375 157.632812 333.546875 157.113281 L 353.632812 144.210938 C 354.519531 145.078125 355.726562 145.613281 357.0625 145.613281 C 359.769531 145.613281 361.960938 143.421875 361.960938 140.71875 C 361.960938 138.011719 359.769531 135.820312 357.0625 135.820312 C 354.359375 135.820312 352.164062 138.011719 352.164062 140.71875 C 352.164062 141.300781 352.273438 141.859375 352.460938 142.378906 L 332.375 155.285156 C 331.492188 154.417969 330.28125 153.882812 328.949219 153.882812 C 326.242188 153.882812 324.050781 156.074219 324.050781 158.777344 C 324.050781 161.480469 326.242188 163.675781 328.949219 163.675781 C 330.28125 163.675781 331.492188 163.136719 332.375 162.273438 L 352.460938 175.175781 C 352.273438 175.695312 352.164062 176.253906 352.164062 176.839844 C 352.164062 179.542969 354.359375 181.734375 357.0625 181.734375 C 359.769531 181.734375 361.960938 179.542969 361.960938 176.839844 C 361.960938 174.132812 359.769531 171.941406 357.0625 171.941406 " fill-opacity="1" fill-rule="nonzero"/><path fill="#42a7f9" d="M 60.445312 163.277344 L 67.367188 172.875 L 41.804688 191.296875 L 34.882812 181.699219 L 60.445312 163.277344 " fill-opacity="1" fill-rule="nonzero"/><path fill="#b3e5fc" d="M 67.78125 117.246094 C 50.316406 129.832031 46.371094 154.183594 58.960938 171.636719 C 71.550781 189.09375 95.914062 193.042969 113.375 180.457031 C 130.835938 167.871094 134.785156 143.515625 122.195312 126.0625 C 109.605469 108.605469 85.242188 104.660156 67.78125 117.246094 " fill-opacity="1" fill-rule="nonzero"/><path fill="#e3f5f9" d="M 70.984375 121.683594 C 55.976562 132.5 52.582031 153.433594 63.402344 168.4375 C 74.222656 183.441406 95.164062 186.832031 110.171875 176.015625 C 125.179688 165.199219 128.574219 144.265625 117.753906 129.261719 C 106.929688 114.257812 85.992188 110.867188 70.984375 121.683594 " fill-opacity="1" fill-rule="nonzero"/><path fill="#b3e5fc" d="M 114.96875 161.382812 C 111.660156 168.679688 104.671875 173.71875 96.703125 174.546875 C 93.363281 174.898438 90.863281 172.761719 91.289062 170.828125 C 91.699219 168.882812 93.839844 167.652344 95.953125 167.402344 C 101.394531 166.835938 106.164062 163.398438 108.421875 158.414062 C 109.328125 156.492188 111.171875 154.851562 113.148438 155.074219 C 115.117188 155.28125 116.355469 158.328125 114.96875 161.382812 " fill-opacity="1" fill-rule="nonzero"/><path fill="#ffeb3c" d="M 117.753906 129.261719 C 115.179688 125.699219 112.039062 122.789062 108.539062 120.570312 L 108.539062 136.230469 L 121.617188 136.230469 C 120.632812 133.8125 119.347656 131.472656 117.753906 129.261719 " fill-opacity="1" fill-rule="nonzero"/><path fill="#3948ad" d="M 45.230469 177.023438 L 49.511719 182.957031 C 51.824219 186.164062 51.101562 190.632812 47.894531 192.941406 L 17.785156 214.644531 C 14.582031 216.953125 10.109375 216.230469 7.796875 213.027344 L 3.515625 207.089844 C 1.203125 203.886719 1.929688 199.414062 5.136719 197.105469 L 35.242188 175.402344 C 38.449219 173.09375 42.921875 173.816406 45.230469 177.023438 " fill-opacity="1" fill-rule="nonzero"/><path fill="#3948ad" d="M 45.152344 175.46875 C 45.460938 175.773438 45.746094 176.109375 46.003906 176.464844 L 50.285156 182.402344 C 50.542969 182.761719 50.769531 183.136719 50.964844 183.523438 L 61.339844 176.042969 C 60.210938 174.824219 59.152344 173.535156 58.1875 172.195312 C 57.21875 170.851562 56.328125 169.441406 55.53125 167.988281 Z M 50.027344 186.546875 L 49.628906 185.285156 C 49.433594 184.660156 49.136719 184.0625 48.742188 183.515625 L 44.457031 177.578125 C 44.066406 177.035156 43.59375 176.5625 43.058594 176.175781 L 41.988281 175.402344 L 56.203125 165.15625 L 56.710938 166.144531 C 57.585938 167.855469 58.601562 169.515625 59.734375 171.082031 C 60.855469 172.640625 62.109375 174.128906 63.464844 175.507812 L 64.238281 176.300781 L 50.027344 186.546875 " fill-opacity="1" fill-rule="nonzero"/><path fill="#3948ad" d="M 90.507812 116.304688 C 83.734375 116.304688 77.144531 118.417969 71.539062 122.457031 C 58.726562 131.691406 54.382812 148.710938 61.21875 162.917969 C 62.054688 164.648438 63.046875 166.316406 64.175781 167.878906 C 65.304688 169.449219 66.578125 170.917969 67.949219 172.246094 C 79.273438 183.21875 96.796875 184.480469 109.613281 175.242188 L 110.171875 176.015625 L 109.613281 175.242188 C 116.667969 170.160156 121.316406 162.636719 122.710938 154.054688 C 124.097656 145.476562 122.066406 136.871094 116.980469 129.820312 C 111.894531 122.769531 104.367188 118.121094 95.785156 116.730469 C 94.023438 116.445312 92.257812 116.304688 90.507812 116.304688 Z M 90.558594 183.3125 C 81.875 183.3125 73.25 180.035156 66.625 173.613281 C 65.171875 172.210938 63.828125 170.65625 62.628906 168.992188 C 61.4375 167.339844 60.386719 165.574219 59.503906 163.746094 C 52.265625 148.703125 56.859375 130.691406 70.425781 120.914062 C 77.890625 115.53125 87.003906 113.378906 96.089844 114.851562 C 105.175781 116.324219 113.144531 121.242188 118.527344 128.707031 C 123.90625 136.167969 126.0625 145.28125 124.589844 154.359375 C 123.117188 163.441406 118.195312 171.40625 110.730469 176.789062 C 104.660156 181.160156 97.589844 183.3125 90.558594 183.3125 Z M 90.527344 110.851562 C 82.820312 110.851562 75.050781 113.175781 68.335938 118.015625 C 53.226562 128.90625 48.226562 149.59375 56.710938 166.144531 C 57.585938 167.855469 58.601562 169.515625 59.734375 171.082031 C 60.855469 172.640625 62.109375 174.128906 63.464844 175.507812 C 76.488281 188.78125 97.707031 190.574219 112.816406 179.683594 C 121.058594 173.742188 126.488281 164.953125 128.113281 154.929688 C 129.742188 144.910156 127.363281 134.855469 121.425781 126.617188 C 114 116.328125 102.339844 110.851562 90.527344 110.851562 Z M 90.585938 188.765625 C 89.402344 188.765625 88.21875 188.714844 87.03125 188.609375 C 77.574219 187.761719 68.71875 183.582031 62.105469 176.84375 C 60.683594 175.394531 59.367188 173.832031 58.1875 172.195312 C 57.003906 170.550781 55.933594 168.808594 55.015625 167.011719 C 50.707031 158.605469 49.539062 148.890625 51.722656 139.652344 C 53.925781 130.320312 59.433594 122.085938 67.222656 116.472656 C 85.082031 103.597656 110.089844 107.652344 122.96875 125.503906 C 129.207031 134.152344 131.703125 144.710938 129.996094 155.238281 C 128.289062 165.761719 122.582031 174.992188 113.929688 181.226562 C 107.109375 186.144531 98.933594 188.765625 90.585938 188.765625 " fill-opacity="1" fill-rule="nonzero"/><path fill="#3948ad" d="M 90.535156 116.324219 C 83.9375 116.324219 77.285156 118.316406 71.539062 122.457031 C 58.726562 131.691406 54.382812 148.710938 61.21875 162.917969 C 62.054688 164.648438 63.046875 166.316406 64.175781 167.878906 C 65.304688 169.449219 66.578125 170.917969 67.949219 172.246094 C 79.273438 183.21875 96.796875 184.480469 109.613281 175.242188 L 110.171875 176.015625 L 109.613281 175.242188 C 116.667969 170.160156 121.316406 162.636719 122.710938 154.054688 C 124.097656 145.476562 122.066406 136.871094 116.980469 129.820312 C 110.628906 121.011719 100.648438 116.324219 90.535156 116.324219 Z M 90.558594 183.3125 C 81.875 183.3125 73.25 180.035156 66.625 173.613281 C 65.171875 172.210938 63.828125 170.65625 62.628906 168.992188 C 61.4375 167.339844 60.386719 165.574219 59.503906 163.746094 C 52.265625 148.703125 56.859375 130.691406 70.425781 120.914062 C 77.890625 115.53125 87.003906 113.378906 96.089844 114.851562 C 105.175781 116.324219 113.144531 121.242188 118.527344 128.707031 C 123.90625 136.167969 126.0625 145.28125 124.589844 154.359375 C 123.117188 163.441406 118.195312 171.40625 110.730469 176.789062 C 104.660156 181.160156 97.589844 183.3125 90.558594 183.3125 " fill-opacity="1" fill-rule="nonzero"/><path fill="#3948ad" d="M 39.429688 175.003906 C 38.160156 175.003906 36.886719 175.394531 35.800781 176.175781 L 5.691406 197.875 C 2.917969 199.878906 2.289062 203.761719 4.289062 206.53125 L 8.570312 212.46875 C 10.574219 215.242188 14.457031 215.871094 17.230469 213.871094 L 47.339844 192.167969 C 49.507812 190.605469 50.429688 187.839844 49.628906 185.285156 C 49.433594 184.660156 49.136719 184.0625 48.742188 183.515625 L 44.457031 177.578125 C 44.066406 177.035156 43.59375 176.5625 43.058594 176.175781 C 41.972656 175.394531 40.703125 175.003906 39.429688 175.003906 Z M 13.613281 216.945312 C 11.09375 216.945312 8.609375 215.777344 7.027344 213.582031 L 2.742188 207.644531 C 0.128906 204.023438 0.953125 198.949219 4.578125 196.332031 L 34.6875 174.632812 C 37.527344 172.585938 41.339844 172.585938 44.171875 174.632812 C 44.871094 175.136719 45.488281 175.753906 46.003906 176.464844 L 50.285156 182.402344 C 50.800781 183.117188 51.191406 183.894531 51.449219 184.71875 C 52.492188 188.054688 51.289062 191.671875 48.453125 193.714844 L 18.34375 215.417969 C 16.914062 216.449219 15.253906 216.945312 13.613281 216.945312 " fill-opacity="1" fill-rule="nonzero"/><path fill="#3948ad" d="M 112.785156 156.003906 C 111.289062 156.003906 109.941406 157.425781 109.285156 158.820312 C 106.894531 164.09375 101.824219 167.75 96.050781 168.351562 C 94.445312 168.539062 92.550781 169.460938 92.21875 171.027344 C 92.09375 171.59375 92.457031 172.105469 92.683594 172.359375 C 93.339844 173.089844 94.710938 173.800781 96.601562 173.601562 C 104.230469 172.808594 110.9375 167.972656 114.101562 160.988281 C 114.886719 159.257812 114.644531 157.730469 114.15625 156.882812 C 113.988281 156.585938 113.621094 156.082031 113.050781 156.023438 C 112.960938 156.011719 112.871094 156.003906 112.785156 156.003906 Z M 95.996094 175.539062 C 94.113281 175.539062 92.347656 174.839844 91.265625 173.628906 C 90.464844 172.734375 90.136719 171.640625 90.359375 170.625 C 90.886719 168.132812 93.492188 166.734375 95.839844 166.457031 C 100.957031 165.925781 105.441406 162.691406 107.554688 158.023438 C 108.566406 155.871094 110.71875 153.84375 113.257812 154.128906 C 114.28125 154.234375 115.214844 154.894531 115.8125 155.933594 C 116.730469 157.542969 116.742188 159.78125 115.835938 161.777344 C 112.394531 169.375 105.101562 174.628906 96.800781 175.496094 C 96.53125 175.523438 96.265625 175.539062 95.996094 175.539062 " fill-opacity="1" fill-rule="nonzero"/><path fill="#3948ad" d="M 109.492188 135.277344 L 120.164062 135.277344 C 119.285156 133.363281 118.21875 131.535156 116.980469 129.820312 C 114.886719 126.917969 112.371094 124.410156 109.492188 122.359375 Z M 123.035156 137.179688 L 107.585938 137.179688 L 107.585938 118.839844 L 109.050781 119.765625 C 112.753906 122.117188 115.941406 125.125 118.527344 128.707031 C 120.128906 130.929688 121.464844 133.339844 122.5 135.871094 L 123.035156 137.179688 " fill-opacity="1" fill-rule="nonzero"/><path fill="#ffeb3c" d="M 11.421875 102.171875 C 11.421875 113.132812 20.308594 122.015625 31.273438 122.015625 C 42.238281 122.015625 51.125 113.132812 51.125 102.171875 C 51.125 91.210938 42.238281 82.328125 31.273438 82.328125 C 20.308594 82.328125 11.421875 91.210938 11.421875 102.171875 " fill-opacity="1" fill-rule="nonzero"/><path fill="#ffc928" d="M 31.273438 82.328125 C 27.761719 82.328125 24.464844 83.242188 21.601562 84.84375 L 31.273438 102.171875 L 51.125 102.171875 C 51.125 91.210938 42.238281 82.328125 31.273438 82.328125 " fill-opacity="1" fill-rule="nonzero"/><path fill="#ffffff" d="M 17.90625 102.171875 C 17.90625 109.550781 23.890625 115.535156 31.273438 115.535156 C 38.65625 115.535156 44.640625 109.550781 44.640625 102.171875 C 44.640625 94.792969 38.65625 88.808594 31.273438 88.808594 C 23.890625 88.808594 17.90625 94.792969 17.90625 102.171875 " fill-opacity="1" fill-rule="nonzero"/><path fill="#3948ad" d="M 31.273438 89.761719 C 29.152344 89.761719 27.0625 90.304688 25.226562 91.332031 C 21.296875 93.523438 18.859375 97.679688 18.859375 102.171875 C 18.859375 109.015625 24.425781 114.582031 31.273438 114.582031 C 38.117188 114.582031 43.6875 109.015625 43.6875 102.171875 C 43.6875 95.328125 38.117188 89.761719 31.273438 89.761719 Z M 31.273438 116.488281 C 23.375 116.488281 16.953125 110.066406 16.953125 102.171875 C 16.953125 96.988281 19.765625 92.199219 24.296875 89.671875 C 26.417969 88.484375 28.828125 87.859375 31.273438 87.859375 C 39.167969 87.859375 45.59375 94.28125 45.59375 102.171875 C 45.59375 110.066406 39.167969 116.488281 31.273438 116.488281 Z M 22.09375 85.65625 L 22.066406 85.671875 C 16.085938 89.011719 12.375 95.335938 12.375 102.171875 C 12.375 112.589844 20.851562 121.066406 31.273438 121.066406 C 41.695312 121.066406 50.171875 112.589844 50.171875 102.171875 C 50.171875 91.753906 41.695312 83.277344 31.273438 83.277344 C 31.0625 83.277344 30.855469 83.28125 30.652344 83.289062 C 30.4375 83.296875 30.238281 83.304688 30.039062 83.320312 C 29.847656 83.332031 29.667969 83.347656 29.496094 83.363281 C 29.253906 83.386719 29.023438 83.410156 28.792969 83.4375 C 28.605469 83.464844 28.417969 83.492188 28.222656 83.523438 L 28.171875 83.53125 C 27.835938 83.585938 27.492188 83.652344 27.125 83.734375 L 27.027344 83.785156 L 26.910156 83.785156 C 26.75 83.824219 26.59375 83.863281 26.433594 83.90625 C 25.289062 84.207031 24.167969 84.617188 23.109375 85.128906 C 22.8125 85.273438 22.5 85.433594 22.15625 85.625 Z M 31.273438 122.96875 C 19.800781 122.96875 10.46875 113.640625 10.46875 102.171875 C 10.46875 94.949219 14.234375 88.25 20.351562 84.472656 L 20.34375 84.453125 L 21.234375 83.957031 C 21.613281 83.75 21.957031 83.570312 22.285156 83.414062 C 23.449219 82.847656 24.6875 82.394531 25.953125 82.0625 C 26.15625 82.011719 26.359375 81.960938 26.566406 81.910156 L 26.6875 81.882812 C 27.101562 81.789062 27.488281 81.714844 27.875 81.652344 L 27.917969 81.644531 C 28.128906 81.609375 28.335938 81.578125 28.550781 81.550781 C 28.808594 81.519531 29.0625 81.492188 29.3125 81.46875 C 29.503906 81.449219 29.710938 81.429688 29.910156 81.417969 C 30.117188 81.402344 30.34375 81.394531 30.570312 81.386719 C 30.808594 81.378906 31.039062 81.375 31.273438 81.375 C 42.742188 81.375 52.078125 90.703125 52.078125 102.171875 C 52.078125 113.640625 42.742188 122.96875 31.273438 122.96875 " fill-opacity="1" fill-rule="nonzero"/><path fill="#3948ad" d="M 45.5625 101.21875 L 50.148438 101.21875 C 49.652344 91.242188 41.375 83.277344 31.273438 83.277344 C 31.0625 83.277344 30.855469 83.28125 30.652344 83.289062 C 30.4375 83.296875 30.238281 83.304688 30.039062 83.320312 C 29.847656 83.332031 29.667969 83.347656 29.496094 83.363281 C 29.253906 83.386719 29.023438 83.410156 28.792969 83.4375 C 28.605469 83.464844 28.417969 83.492188 28.222656 83.523438 L 28.023438 82.59375 L 28.179688 83.53125 C 27.808594 83.59375 27.453125 83.664062 27.125 83.734375 L 27.027344 83.785156 L 26.910156 83.785156 C 26.75 83.824219 26.59375 83.863281 26.433594 83.90625 C 25.289062 84.210938 24.167969 84.625 23.105469 85.132812 C 23.039062 85.164062 22.972656 85.199219 22.90625 85.230469 L 25.144531 89.234375 C 27.046875 88.332031 29.148438 87.859375 31.273438 87.859375 C 38.847656 87.859375 45.070312 93.769531 45.5625 101.21875 Z M 52.078125 103.125 L 43.6875 103.125 L 43.6875 102.171875 C 43.6875 95.328125 38.117188 89.761719 31.273438 89.761719 C 29.152344 89.761719 27.0625 90.304688 25.226562 91.332031 L 24.390625 91.800781 L 20.304688 84.476562 L 21.136719 84.011719 C 21.492188 83.8125 21.863281 83.617188 22.277344 83.417969 C 23.453125 82.855469 24.6875 82.402344 25.949219 82.0625 C 26.15625 82.011719 26.359375 81.960938 26.566406 81.910156 L 26.6875 81.882812 C 27.054688 81.800781 27.453125 81.722656 27.867188 81.652344 L 27.917969 81.644531 C 28.128906 81.609375 28.335938 81.578125 28.550781 81.550781 C 28.808594 81.519531 29.0625 81.492188 29.3125 81.46875 C 29.503906 81.449219 29.710938 81.429688 29.910156 81.417969 C 30.117188 81.402344 30.34375 81.394531 30.570312 81.386719 C 30.808594 81.378906 31.039062 81.375 31.273438 81.375 C 42.742188 81.375 52.078125 90.703125 52.078125 102.171875 L 52.078125 103.125 " fill-opacity="1" fill-rule="nonzero"/></svg>