<svg xmlns="http://www.w3.org/2000/svg" xmlns:xlink="http://www.w3.org/1999/xlink" width="500" zoomAndPan="magnify" viewBox="0 0 375 374.999991" height="500" preserveAspectRatio="xMidYMid meet" version="1.0"><defs><clipPath id="fe8fc840fd"><path d="M 85 76.171875 L 210 76.171875 L 210 226 L 85 226 Z M 85 76.171875 " clip-rule="nonzero"/></clipPath><clipPath id="109c2f72bb"><path d="M 336.007812 265.429688 L 374.855469 265.429688 L 374.855469 298.921875 L 336.007812 298.921875 Z M 336.007812 265.429688 " clip-rule="nonzero"/></clipPath></defs><rect x="-37.5" width="450" fill="#ffffff" y="-37.499999" height="449.999989" fill-opacity="1"/><rect x="-37.5" width="450" fill="#ffffff" y="-37.499999" height="449.999989" fill-opacity="1"/><rect x="-37.5" width="450" fill="#ffffff" y="-37.499999" height="449.999989" fill-opacity="1"/><path fill="#fff59c" d="M 180.050781 150.144531 L 344.902344 150.144531 L 344.902344 83.046875 L 180.050781 83.046875 L 180.050781 150.144531 " fill-opacity="1" fill-rule="nonzero"/><path fill="#ffeb3c" d="M 344.902344 150.144531 L 180.050781 150.144531 L 180.050781 134.074219 L 344.902344 134.074219 L 344.902344 150.144531 " fill-opacity="1" fill-rule="nonzero"/><path fill="#ffc928" d="M 331.375 141.96875 C 331.375 144.09375 333.097656 145.820312 335.226562 145.820312 C 337.355469 145.820312 339.078125 144.09375 339.078125 141.96875 C 339.078125 139.839844 337.355469 138.113281 335.226562 138.113281 C 333.097656 138.113281 331.375 139.839844 331.375 141.96875 " fill-opacity="1" fill-rule="nonzero"/><path fill="#ffc928" d="M 222.742188 132.289062 L 221.332031 132.289062 L 221.332031 97.519531 L 222.742188 97.519531 L 222.742188 132.289062 " fill-opacity="1" fill-rule="nonzero"/><path fill="#ff7244" d="M 219.828125 94.699219 C 219.828125 95.945312 220.839844 96.953125 222.085938 96.953125 C 223.328125 96.953125 224.339844 95.945312 224.339844 94.699219 C 224.339844 93.453125 223.328125 92.445312 222.085938 92.445312 C 220.839844 92.445312 219.828125 93.453125 219.828125 94.699219 " fill-opacity="1" fill-rule="nonzero"/><path fill="#ffc928" d="M 227.261719 129.558594 L 226.203125 128.625 C 226.972656 127.757812 245.089844 107.355469 253.722656 106.589844 C 258.46875 106.167969 261.867188 111.617188 264.863281 116.425781 C 267.972656 121.410156 270.019531 124.339844 272.210938 123.035156 C 273.859375 122.058594 275.558594 120.347656 277.359375 118.539062 C 281.75 114.121094 287.214844 108.625 293.34375 114.390625 C 294.160156 115.160156 294.898438 115.875 295.617188 116.574219 C 301.714844 122.496094 303.769531 124.492188 312.722656 117.621094 C 316.785156 114.507812 321.066406 113.46875 325.105469 114.628906 C 330.121094 116.0625 333.804688 120.539062 335.226562 124.335938 L 333.910156 124.828125 C 332.648438 121.476562 329.238281 117.277344 324.714844 115.980469 C 321.074219 114.9375 317.324219 115.867188 313.578125 118.742188 C 309.308594 122.019531 306.351562 123.375 303.871094 123.375 C 300.597656 123.378906 298.164062 121.011719 294.636719 117.582031 C 293.921875 116.894531 293.1875 116.175781 292.378906 115.417969 C 287.25 110.589844 282.929688 114.933594 278.359375 119.53125 C 276.492188 121.40625 274.730469 123.179688 272.929688 124.25 C 269.394531 126.351562 266.613281 121.894531 263.667969 117.171875 C 260.882812 112.707031 257.726562 107.644531 253.847656 107.992188 C 245.765625 108.710938 227.445312 129.351562 227.261719 129.558594 " fill-opacity="1" fill-rule="nonzero"/><path fill="#fff59c" d="M 180.050781 150.144531 L 344.902344 150.144531 L 344.902344 83.046875 L 180.050781 83.046875 L 180.050781 150.144531 " fill-opacity="1" fill-rule="nonzero"/><path fill="#ffeb3c" d="M 344.902344 150.144531 L 180.050781 150.144531 L 180.050781 134.074219 L 344.902344 134.074219 L 344.902344 150.144531 " fill-opacity="1" fill-rule="nonzero"/><path fill="#ffc928" d="M 331.375 141.96875 C 331.375 144.09375 333.097656 145.820312 335.226562 145.820312 C 337.355469 145.820312 339.078125 144.09375 339.078125 141.96875 C 339.078125 139.839844 337.355469 138.113281 335.226562 138.113281 C 333.097656 138.113281 331.375 139.839844 331.375 141.96875 " fill-opacity="1" fill-rule="nonzero"/><path fill="#ffc928" d="M 222.742188 132.289062 L 221.332031 132.289062 L 221.332031 97.519531 L 222.742188 97.519531 L 222.742188 132.289062 " fill-opacity="1" fill-rule="nonzero"/><path fill="#ff7244" d="M 219.828125 94.699219 C 219.828125 95.945312 220.839844 96.953125 222.085938 96.953125 C 223.328125 96.953125 224.339844 95.945312 224.339844 94.699219 C 224.339844 93.453125 223.328125 92.445312 222.085938 92.445312 C 220.839844 92.445312 219.828125 93.453125 219.828125 94.699219 " fill-opacity="1" fill-rule="nonzero"/><path fill="#ffc928" d="M 227.261719 129.558594 L 226.203125 128.625 C 226.972656 127.757812 245.089844 107.355469 253.722656 106.589844 C 258.46875 106.167969 261.867188 111.617188 264.863281 116.425781 C 267.972656 121.410156 270.019531 124.339844 272.210938 123.035156 C 273.859375 122.058594 275.558594 120.347656 277.359375 118.539062 C 281.75 114.121094 287.214844 108.625 293.34375 114.390625 C 294.160156 115.160156 294.898438 115.875 295.617188 116.574219 C 301.714844 122.496094 303.769531 124.492188 312.722656 117.621094 C 316.785156 114.507812 321.066406 113.46875 325.105469 114.628906 C 330.121094 116.0625 333.804688 120.539062 335.226562 124.335938 L 333.910156 124.828125 C 332.648438 121.476562 329.238281 117.277344 324.714844 115.980469 C 321.074219 114.9375 317.324219 115.867188 313.578125 118.742188 C 309.308594 122.019531 306.351562 123.375 303.871094 123.375 C 300.597656 123.378906 298.164062 121.011719 294.636719 117.582031 C 293.921875 116.894531 293.1875 116.175781 292.378906 115.417969 C 287.25 110.589844 282.929688 114.933594 278.359375 119.53125 C 276.492188 121.40625 274.730469 123.179688 272.929688 124.25 C 269.394531 126.351562 266.613281 121.894531 263.667969 117.171875 C 260.882812 112.707031 257.726562 107.644531 253.847656 107.992188 C 245.765625 108.710938 227.445312 129.351562 227.261719 129.558594 " fill-opacity="1" fill-rule="nonzero"/><path fill="#fff59c" d="M 180.050781 150.144531 L 344.902344 150.144531 L 344.902344 83.046875 L 180.050781 83.046875 L 180.050781 150.144531 " fill-opacity="1" fill-rule="nonzero"/><path fill="#ffeb3c" d="M 344.902344 150.144531 L 180.050781 150.144531 L 180.050781 134.074219 L 344.902344 134.074219 L 344.902344 150.144531 " fill-opacity="1" fill-rule="nonzero"/><path fill="#ffc928" d="M 331.375 141.96875 C 331.375 144.09375 333.097656 145.820312 335.226562 145.820312 C 337.355469 145.820312 339.078125 144.09375 339.078125 141.96875 C 339.078125 139.839844 337.355469 138.113281 335.226562 138.113281 C 333.097656 138.113281 331.375 139.839844 331.375 141.96875 " fill-opacity="1" fill-rule="nonzero"/><path fill="#ffc928" d="M 222.742188 132.289062 L 221.332031 132.289062 L 221.332031 97.519531 L 222.742188 97.519531 L 222.742188 132.289062 " fill-opacity="1" fill-rule="nonzero"/><path fill="#ff7244" d="M 219.828125 94.699219 C 219.828125 95.945312 220.839844 96.953125 222.085938 96.953125 C 223.328125 96.953125 224.339844 95.945312 224.339844 94.699219 C 224.339844 93.453125 223.328125 92.445312 222.085938 92.445312 C 220.839844 92.445312 219.828125 93.453125 219.828125 94.699219 " fill-opacity="1" fill-rule="nonzero"/><path fill="#ffc928" d="M 227.261719 129.558594 L 226.203125 128.625 C 226.972656 127.757812 245.089844 107.355469 253.722656 106.589844 C 258.46875 106.167969 261.867188 111.617188 264.863281 116.425781 C 267.972656 121.410156 270.019531 124.339844 272.210938 123.035156 C 273.859375 122.058594 275.558594 120.347656 277.359375 118.539062 C 281.75 114.121094 287.214844 108.625 293.34375 114.390625 C 294.160156 115.160156 294.898438 115.875 295.617188 116.574219 C 301.714844 122.496094 303.769531 124.492188 312.722656 117.621094 C 316.785156 114.507812 321.066406 113.46875 325.105469 114.628906 C 330.121094 116.0625 333.804688 120.539062 335.226562 124.335938 L 333.910156 124.828125 C 332.648438 121.476562 329.238281 117.277344 324.714844 115.980469 C 321.074219 114.9375 317.324219 115.867188 313.578125 118.742188 C 309.308594 122.019531 306.351562 123.375 303.871094 123.375 C 300.597656 123.378906 298.164062 121.011719 294.636719 117.582031 C 293.921875 116.894531 293.1875 116.175781 292.378906 115.417969 C 287.25 110.589844 282.929688 114.933594 278.359375 119.53125 C 276.492188 121.40625 274.730469 123.179688 272.929688 124.25 C 269.394531 126.351562 266.613281 121.894531 263.667969 117.171875 C 260.882812 112.707031 257.726562 107.644531 253.847656 107.992188 C 245.765625 108.710938 227.445312 129.351562 227.261719 129.558594 " fill-opacity="1" fill-rule="nonzero"/><path fill="#3948ad" d="M 345.746094 150.988281 L 295.492188 150.988281 L 295.492188 149.296875 L 344.058594 149.296875 L 344.058594 83.890625 L 215.003906 83.890625 L 215.003906 82.199219 L 345.746094 82.199219 L 345.746094 150.988281 " fill-opacity="1" fill-rule="nonzero"/><path fill="#3948ad" d="M 345.746094 150.988281 L 296.808594 150.988281 L 296.808594 149.296875 L 344.058594 149.296875 L 344.058594 134.917969 L 296.246094 134.917969 L 296.246094 133.226562 L 345.746094 133.226562 L 345.746094 150.988281 " fill-opacity="1" fill-rule="nonzero"/><path fill="#3948ad" d="M 335.226562 138.960938 C 333.570312 138.960938 332.222656 140.308594 332.222656 141.96875 C 332.222656 143.625 333.570312 144.972656 335.226562 144.972656 C 336.886719 144.972656 338.230469 143.625 338.230469 141.96875 C 338.230469 140.308594 336.886719 138.960938 335.226562 138.960938 Z M 335.226562 146.664062 C 332.636719 146.664062 330.53125 144.558594 330.53125 141.96875 C 330.53125 139.375 332.636719 137.269531 335.226562 137.269531 C 337.816406 137.269531 339.921875 139.375 339.921875 141.96875 C 339.921875 144.558594 337.816406 146.664062 335.226562 146.664062 " fill-opacity="1" fill-rule="nonzero"/><path fill="#3948ad" d="M 223.589844 120.273438 L 221.898438 120.273438 L 221.898438 119.695312 L 220.488281 119.695312 L 220.488281 96.671875 L 223.589844 96.671875 L 223.589844 120.273438 " fill-opacity="1" fill-rule="nonzero"/><path fill="#3948ad" d="M 222.085938 93.289062 C 221.308594 93.289062 220.675781 93.921875 220.675781 94.699219 C 220.675781 95.476562 221.308594 96.109375 222.085938 96.109375 C 222.859375 96.109375 223.492188 95.476562 223.492188 94.699219 C 223.492188 93.921875 222.859375 93.289062 222.085938 93.289062 Z M 222.085938 97.800781 C 220.375 97.800781 218.984375 96.410156 218.984375 94.699219 C 218.984375 92.988281 220.375 91.597656 222.085938 91.597656 C 223.792969 91.597656 225.183594 92.988281 225.183594 94.699219 C 225.183594 96.410156 223.792969 97.800781 222.085938 97.800781 " fill-opacity="1" fill-rule="nonzero"/><path fill="#3948ad" d="M 333.414062 125.917969 L 333.117188 125.128906 C 331.929688 121.964844 328.722656 118.011719 324.484375 116.796875 C 321.113281 115.828125 317.617188 116.710938 314.09375 119.414062 C 309.757812 122.738281 306.605469 124.222656 303.871094 124.222656 C 300.253906 124.222656 297.652344 121.695312 294.046875 118.191406 L 294.011719 118.15625 C 293.3125 117.476562 292.59375 116.777344 291.800781 116.03125 C 287.484375 111.976562 284.109375 114.945312 278.957031 120.128906 C 277.054688 122.042969 275.253906 123.851562 273.363281 124.976562 C 272.578125 125.441406 271.832031 125.652344 271.117188 125.652344 C 267.960938 125.652344 265.421875 121.582031 262.953125 117.621094 C 260.296875 113.363281 257.292969 108.542969 253.921875 108.835938 C 251.855469 109.019531 247.609375 110.878906 239.136719 118.683594 L 238.179688 117.644531 C 237.8125 117.980469 237.441406 118.328125 237.066406 118.679688 L 235.90625 117.445312 C 243.800781 110.027344 249.769531 106.09375 253.648438 105.746094 C 258.902344 105.28125 262.449219 110.960938 265.578125 115.972656 C 268.667969 120.929688 270.382812 123.140625 271.78125 122.308594 C 273.332031 121.386719 274.996094 119.714844 276.753906 117.945312 C 281.164062 113.511719 287.195312 107.445312 293.921875 113.773438 C 294.753906 114.554688 295.523438 115.304688 296.203125 115.964844 C 302.21875 121.808594 303.835938 123.375 312.207031 116.953125 C 316.492188 113.667969 321.03125 112.582031 325.339844 113.8125 C 330.636719 115.332031 334.519531 120.042969 336.019531 124.039062 L 336.316406 124.828125 L 333.414062 125.917969 " fill-opacity="1" fill-rule="nonzero"/><path fill="#3948ad" d="M 184.550781 123.953125 L 280.992188 123.953125 C 285.640625 123.953125 289.410156 127.722656 289.410156 132.371094 L 289.410156 261.417969 C 289.410156 266.066406 285.640625 269.835938 280.992188 269.835938 L 184.550781 269.835938 C 179.902344 269.835938 176.132812 266.066406 176.132812 261.417969 L 176.132812 132.371094 C 176.132812 127.722656 179.902344 123.953125 184.550781 123.953125 " fill-opacity="1" fill-rule="nonzero"/><path fill="#e3f5f9" d="M 182.605469 132.289062 L 282.9375 132.289062 L 282.9375 261.5 L 182.605469 261.5 L 182.605469 132.289062 " fill-opacity="1" fill-rule="nonzero"/><path fill="#b3e5fc" d="M 208.78125 184.253906 L 194.128906 184.253906 L 194.128906 231.054688 L 208.78125 231.054688 L 208.78125 184.253906 " fill-opacity="1" fill-rule="nonzero"/><path fill="#42a7f9" d="M 229.660156 170.722656 L 215.003906 170.722656 L 215.003906 231.054688 L 229.660156 231.054688 L 229.660156 170.722656 " fill-opacity="1" fill-rule="nonzero"/><path fill="#b3e5fc" d="M 250.535156 193.558594 L 235.882812 193.558594 L 235.882812 231.054688 L 250.535156 231.054688 L 250.535156 193.558594 " fill-opacity="1" fill-rule="nonzero"/><path fill="#b3e5fc" d="M 271.414062 207.371094 L 256.761719 207.371094 L 256.761719 231.054688 L 271.414062 231.054688 L 271.414062 207.371094 " fill-opacity="1" fill-rule="nonzero"/><path fill="#3948ad" d="M 280.53125 270.683594 L 185.007812 270.683594 C 179.648438 270.683594 175.285156 266.320312 175.285156 260.957031 L 175.285156 230.394531 L 176.976562 230.394531 L 176.976562 260.957031 C 176.976562 265.386719 180.582031 268.992188 185.007812 268.992188 L 280.53125 268.992188 C 284.964844 268.992188 288.566406 265.386719 288.566406 260.957031 L 288.566406 132.832031 C 288.566406 128.402344 284.964844 124.796875 280.53125 124.796875 L 216.589844 124.796875 L 216.589844 123.109375 L 280.53125 123.109375 C 285.894531 123.109375 290.257812 127.46875 290.257812 132.832031 L 290.257812 260.957031 C 290.257812 266.320312 285.894531 270.683594 280.53125 270.683594 " fill-opacity="1" fill-rule="nonzero"/><path fill="#3948ad" d="M 283.78125 262.347656 L 181.757812 262.347656 L 181.757812 230.019531 L 183.449219 230.019531 L 183.449219 260.65625 L 282.089844 260.65625 L 282.089844 133.132812 L 216.964844 133.132812 L 216.964844 131.441406 L 283.78125 131.441406 L 283.78125 262.347656 " fill-opacity="1" fill-rule="nonzero"/><path fill="#3948ad" d="M 209.628906 231.898438 L 193.28125 231.898438 L 193.28125 227.386719 L 194.972656 227.386719 L 194.972656 230.207031 L 207.9375 230.207031 L 207.9375 227.199219 L 209.628906 227.199219 L 209.628906 231.898438 " fill-opacity="1" fill-rule="nonzero"/><path fill="#3948ad" d="M 215.851562 230.207031 L 228.8125 230.207031 L 228.8125 171.570312 L 215.851562 171.570312 Z M 230.503906 231.898438 L 214.160156 231.898438 L 214.160156 169.875 L 230.503906 169.875 L 230.503906 231.898438 " fill-opacity="1" fill-rule="nonzero"/><path fill="#3948ad" d="M 236.730469 230.207031 L 249.691406 230.207031 L 249.691406 194.402344 L 236.730469 194.402344 Z M 251.382812 231.898438 L 235.039062 231.898438 L 235.039062 192.710938 L 251.382812 192.710938 L 251.382812 231.898438 " fill-opacity="1" fill-rule="nonzero"/><path fill="#3948ad" d="M 257.605469 230.207031 L 270.570312 230.207031 L 270.570312 208.21875 L 257.605469 208.21875 Z M 272.261719 231.898438 L 255.914062 231.898438 L 255.914062 206.527344 L 272.261719 206.527344 L 272.261719 231.898438 " fill-opacity="1" fill-rule="nonzero"/><path fill="#42a7f9" d="M 208.78125 224.167969 L 86.527344 224.167969 L 86.527344 77.015625 L 208.78125 77.015625 L 208.78125 224.167969 " fill-opacity="1" fill-rule="nonzero"/><path fill="#e3f5f9" d="M 203.183594 217.433594 L 92.125 217.433594 L 92.125 83.753906 L 203.183594 83.753906 L 203.183594 217.433594 " fill-opacity="1" fill-rule="nonzero"/><path fill="#b3e5fc" d="M 187.941406 107.273438 L 108.753906 107.273438 L 108.753906 96.953125 L 187.941406 96.953125 L 187.941406 107.273438 " fill-opacity="1" fill-rule="nonzero"/><path fill="#b3e5fc" d="M 156.941406 123.953125 L 187.941406 123.953125 L 187.941406 116.59375 L 156.941406 116.59375 L 156.941406 123.953125 " fill-opacity="1" fill-rule="nonzero"/><path fill="#b3e5fc" d="M 184.558594 160.902344 L 156.941406 160.902344 L 137.414062 180.441406 C 132.417969 175.441406 129.328125 168.535156 129.328125 160.902344 C 129.328125 145.648438 141.691406 133.277344 156.941406 133.277344 C 172.195312 133.277344 184.558594 145.648438 184.558594 160.902344 " fill-opacity="1" fill-rule="nonzero"/><path fill="#3948ad" d="M 185.890625 163.484375 C 185.890625 178.746094 173.523438 191.113281 158.273438 191.113281 C 156.128906 191.113281 154.042969 190.867188 152.039062 190.40625 C 151.59375 190.304688 151.152344 190.1875 150.714844 190.066406 C 150.277344 189.941406 149.84375 189.804688 149.417969 189.660156 C 147.277344 188.9375 145.257812 187.957031 143.390625 186.761719 C 143.015625 186.519531 142.648438 186.273438 142.285156 186.015625 C 141.925781 185.761719 141.570312 185.496094 141.222656 185.222656 C 140.527344 184.675781 139.859375 184.097656 139.21875 183.484375 C 139.0625 183.332031 138.898438 183.175781 138.746094 183.023438 L 158.273438 163.484375 L 185.890625 163.484375 " fill-opacity="1" fill-rule="nonzero"/><path fill="#42a7f9" d="M 184.558594 160.902344 L 156.941406 160.902344 L 137.414062 141.371094 C 142.414062 136.367188 149.316406 133.277344 156.941406 133.277344 C 172.195312 133.277344 184.558594 145.648438 184.558594 160.902344 " fill-opacity="1" fill-rule="nonzero"/><g clip-path="url(#fe8fc840fd)"><path fill="#3948ad" d="M 87.371094 223.324219 L 207.9375 223.324219 L 207.9375 77.863281 L 87.371094 77.863281 Z M 209.628906 225.015625 L 85.679688 225.015625 L 85.679688 76.171875 L 209.628906 76.171875 L 209.628906 225.015625 " fill-opacity="1" fill-rule="nonzero"/></g><path fill="#3948ad" d="M 92.96875 216.585938 L 202.339844 216.585938 L 202.339844 84.597656 L 92.96875 84.597656 Z M 204.03125 218.277344 L 91.277344 218.277344 L 91.277344 82.90625 L 204.03125 82.90625 L 204.03125 218.277344 " fill-opacity="1" fill-rule="nonzero"/><path fill="#3948ad" d="M 188.785156 108.117188 L 145.109375 108.117188 L 145.109375 106.425781 L 187.097656 106.425781 L 187.097656 97.800781 L 143.132812 97.800781 L 143.132812 96.109375 L 188.785156 96.109375 L 188.785156 108.117188 " fill-opacity="1" fill-rule="nonzero"/><path fill="#3948ad" d="M 157.789062 123.109375 L 187.097656 123.109375 L 187.097656 117.441406 L 157.789062 117.441406 Z M 188.785156 124.796875 L 156.097656 124.796875 L 156.097656 115.75 L 188.785156 115.75 L 188.785156 124.796875 " fill-opacity="1" fill-rule="nonzero"/><path fill="#3948ad" d="M 156.941406 134.121094 C 142.179688 134.121094 130.171875 146.136719 130.171875 160.902344 C 130.171875 167.777344 132.742188 174.25 137.421875 179.234375 L 156.59375 160.058594 L 183.699219 160.058594 C 183.253906 145.679688 171.421875 134.121094 156.941406 134.121094 Z M 137.414062 181.636719 L 136.816406 181.039062 C 131.441406 175.660156 128.480469 168.511719 128.480469 160.902344 C 128.480469 145.203125 141.25 132.429688 156.941406 132.429688 C 172.636719 132.429688 185.40625 145.203125 185.40625 160.902344 L 185.40625 161.75 L 157.292969 161.75 L 137.414062 181.636719 " fill-opacity="1" fill-rule="nonzero"/><path fill="#3948ad" d="M 139.949219 183.011719 C 140.507812 183.539062 141.113281 184.058594 141.746094 184.558594 C 142.082031 184.820312 142.429688 185.082031 142.777344 185.328125 C 143.132812 185.582031 143.492188 185.824219 143.84375 186.046875 C 145.671875 187.21875 147.636719 188.167969 149.6875 188.859375 C 150.132812 189.007812 150.546875 189.136719 150.945312 189.25 C 151.402344 189.382812 151.820312 189.488281 152.226562 189.582031 C 154.199219 190.035156 156.234375 190.269531 158.273438 190.269531 C 172.753906 190.269531 184.582031 178.710938 185.03125 164.332031 L 158.625 164.332031 Z M 158.273438 191.960938 C 156.105469 191.960938 153.945312 191.714844 151.847656 191.230469 C 151.414062 191.132812 150.96875 191.015625 150.480469 190.878906 C 150.058594 190.757812 149.621094 190.621094 149.148438 190.464844 C 146.964844 189.726562 144.875 188.71875 142.933594 187.472656 C 142.558594 187.234375 142.175781 186.976562 141.796875 186.707031 C 141.429688 186.445312 141.0625 186.167969 140.703125 185.886719 C 139.96875 185.308594 139.273438 184.707031 138.636719 184.09375 C 138.472656 183.9375 138.308594 183.78125 138.148438 183.621094 L 137.550781 183.023438 L 157.925781 162.640625 L 186.734375 162.640625 L 186.734375 163.484375 C 186.734375 179.1875 173.96875 191.960938 158.273438 191.960938 " fill-opacity="1" fill-rule="nonzero"/><path fill="#3948ad" d="M 157.292969 160.058594 L 183.699219 160.058594 C 183.253906 145.679688 171.421875 134.121094 156.941406 134.121094 C 150.074219 134.121094 143.601562 136.691406 138.621094 141.378906 Z M 185.40625 161.75 L 156.59375 161.75 L 136.21875 141.371094 L 136.816406 140.769531 C 142.195312 135.394531 149.339844 132.429688 156.941406 132.429688 C 172.636719 132.429688 185.40625 145.203125 185.40625 160.902344 L 185.40625 161.75 " fill-opacity="1" fill-rule="nonzero"/><path fill="#ff7244" d="M 106.332031 135.324219 L 106.707031 135.699219 C 108.613281 137.601562 108.613281 140.6875 106.707031 142.59375 L 84.78125 164.53125 C 82.878906 166.433594 79.792969 166.433594 77.890625 164.53125 L 77.515625 164.152344 C 75.613281 162.25 75.613281 159.164062 77.515625 157.261719 L 99.445312 135.324219 C 101.347656 133.421875 104.429688 133.421875 106.332031 135.324219 " fill-opacity="1" fill-rule="nonzero"/><path fill="#ffeb3c" d="M 101.550781 107.53125 C 92.453125 116.628906 92.453125 131.386719 101.550781 140.484375 C 110.644531 149.585938 125.394531 149.585938 134.492188 140.484375 C 143.585938 131.386719 143.585938 116.628906 134.492188 107.53125 C 125.394531 98.429688 110.644531 98.429688 101.550781 107.53125 " fill-opacity="1" fill-rule="nonzero"/><path fill="#fff59c" d="M 106.363281 108.917969 C 101.558594 111.445312 99.019531 116.980469 100.238281 122.269531 C 100.667969 124.148438 102.285156 125.128906 103.183594 124.546875 C 104.089844 123.972656 104.273438 122.589844 104.019531 121.40625 C 103.195312 117.816406 104.914062 114.0625 108.175781 112.347656 C 109.234375 111.765625 110.160156 110.726562 110.007812 109.664062 C 109.859375 108.605469 108.0625 108.019531 106.363281 108.917969 " fill-opacity="1" fill-rule="nonzero"/><path fill="#3948ad" d="M 98.1875 137.777344 L 78.300781 157.671875 C 77.488281 158.480469 77.042969 159.5625 77.042969 160.707031 C 77.042969 161.855469 77.488281 162.933594 78.300781 163.746094 C 79.972656 165.417969 82.695312 165.417969 84.371094 163.746094 L 104.257812 143.847656 C 103.082031 143.03125 101.972656 142.101562 100.953125 141.082031 C 99.933594 140.0625 99.007812 138.953125 98.1875 137.777344 Z M 81.335938 166.691406 C 79.804688 166.691406 78.269531 166.109375 77.105469 164.941406 C 75.972656 163.808594 75.351562 162.308594 75.351562 160.707031 C 75.351562 159.109375 75.972656 157.605469 77.101562 156.476562 L 98.46875 135.101562 L 99.035156 135.996094 C 99.921875 137.394531 100.96875 138.703125 102.148438 139.886719 C 103.328125 141.066406 104.636719 142.113281 106.035156 143 L 106.929688 143.566406 L 85.566406 164.941406 C 84.402344 166.109375 82.867188 166.691406 81.335938 166.691406 " fill-opacity="1" fill-rule="nonzero"/><path fill="#3948ad" d="M 118.019531 101.546875 C 112.023438 101.546875 106.386719 103.886719 102.148438 108.125 C 94.789062 115.488281 93.476562 127.210938 99.035156 135.996094 C 99.921875 137.394531 100.96875 138.703125 102.148438 139.886719 C 103.328125 141.066406 104.636719 142.113281 106.035156 143 C 114.820312 148.558594 126.535156 147.25 133.894531 139.886719 C 138.132812 135.644531 140.46875 130.003906 140.46875 124.007812 C 140.46875 118.007812 138.132812 112.367188 133.894531 108.128906 C 129.65625 103.886719 124.015625 101.546875 118.019531 101.546875 Z M 118.046875 148.152344 C 113.488281 148.152344 108.980469 146.863281 105.132812 144.429688 C 103.628906 143.480469 102.222656 142.351562 100.953125 141.082031 C 99.683594 139.8125 98.558594 138.40625 97.605469 136.898438 C 94.722656 132.34375 93.449219 126.863281 94.015625 121.46875 C 94.589844 115.992188 97.054688 110.828125 100.953125 106.929688 C 105.511719 102.371094 111.574219 99.855469 118.019531 99.855469 C 124.46875 99.855469 130.53125 102.371094 135.089844 106.929688 C 139.648438 111.492188 142.160156 117.554688 142.160156 124.007812 C 142.160156 130.457031 139.648438 136.519531 135.089844 141.082031 C 131.191406 144.980469 126.03125 147.445312 120.558594 148.023438 C 119.722656 148.109375 118.882812 148.152344 118.046875 148.152344 " fill-opacity="1" fill-rule="nonzero"/><path fill="#3948ad" d="M 108.074219 109.324219 C 107.679688 109.324219 107.21875 109.421875 106.757812 109.664062 L 106.753906 109.667969 C 102.265625 112.027344 99.921875 117.132812 101.0625 122.082031 C 101.277344 123.007812 101.847656 123.613281 102.316406 123.804688 C 102.488281 123.875 102.644531 123.886719 102.722656 123.835938 C 103.210938 123.527344 103.40625 122.582031 103.195312 121.585938 C 102.277344 117.613281 104.164062 113.5 107.78125 111.597656 C 108.664062 111.117188 109.253906 110.351562 109.171875 109.785156 C 109.15625 109.6875 109.042969 109.578125 108.878906 109.492188 C 108.675781 109.386719 108.398438 109.324219 108.074219 109.324219 Z M 102.59375 125.558594 C 102.296875 125.558594 101.988281 125.496094 101.683594 125.371094 C 100.59375 124.929688 99.726562 123.816406 99.417969 122.460938 C 98.105469 116.765625 100.796875 110.890625 105.96875 108.167969 C 107.199219 107.519531 108.609375 107.453125 109.652344 107.988281 C 110.320312 108.332031 110.753906 108.898438 110.84375 109.546875 C 111.074219 111.121094 109.769531 112.441406 108.578125 113.089844 C 105.628906 114.640625 104.097656 117.980469 104.84375 121.21875 C 105.128906 122.554688 104.984375 124.40625 103.636719 125.261719 C 103.332031 125.457031 102.972656 125.558594 102.59375 125.558594 " fill-opacity="1" fill-rule="nonzero"/><path fill="#fce9ed" d="M 19.585938 219.042969 C 19.585938 219.042969 27.851562 203.253906 30.671875 202.691406 C 33.488281 202.125 46.640625 204.757812 49.269531 206.824219 C 49.269531 206.824219 65.238281 192.917969 68.242188 192.355469 C 71.25 191.789062 75.007812 195.359375 69.933594 200.996094 C 64.863281 206.636719 57.722656 212.839844 57.722656 212.839844 C 57.722656 212.839844 60.164062 219.605469 58.101562 223.550781 C 56.03125 227.5 43.820312 237.648438 38.1875 238.964844 C 32.550781 240.28125 26.914062 243.097656 26.914062 243.097656 L 19.585938 219.042969 " fill-opacity="1" fill-rule="nonzero"/><path fill="#ffccd3" d="M 57.722656 212.839844 L 51.007812 217.695312 C 51.007812 217.695312 49.683594 221.585938 50.019531 226.558594 C 50.019531 226.558594 52.128906 217.957031 57.722656 212.839844 " fill-opacity="1" fill-rule="nonzero"/><path fill="#3948ad" d="M 1.175781 229.941406 L 13.761719 260.578125 L 31.421875 242.910156 L 21.652344 215.28125 L 1.175781 229.941406 " fill-opacity="1" fill-rule="nonzero"/><path fill="#3948ad" d="M 22.570312 215.347656 L 31.375 240.238281 C 33.164062 239.542969 35.5625 238.710938 37.992188 238.140625 C 43.484375 236.855469 55.441406 226.800781 57.351562 223.160156 C 59.222656 219.582031 56.949219 213.191406 56.925781 213.125 L 56.730469 212.582031 L 57.167969 212.199219 C 57.238281 212.136719 64.328125 205.964844 69.308594 200.433594 C 71.371094 198.136719 72.078125 195.972656 71.242188 194.488281 C 70.703125 193.527344 69.511719 192.976562 68.398438 193.1875 C 66.375 193.566406 55.929688 202.144531 49.824219 207.464844 L 49.296875 207.921875 L 48.746094 207.492188 C 46.335938 205.59375 33.53125 202.980469 30.835938 203.519531 C 30.648438 203.554688 28.832031 204.207031 22.570312 215.347656 Z M 30.367188 242.464844 L 21.253906 216.691406 L 18.761719 218.695312 L 20.886719 214.890625 C 27.882812 202.382812 29.855469 201.988281 30.503906 201.859375 C 33.433594 201.273438 45.480469 203.679688 49.195312 205.769531 C 52.214844 203.152344 65.152344 192.074219 68.089844 191.523438 C 69.917969 191.179688 71.820312 192.058594 72.71875 193.660156 C 73.289062 194.679688 74.226562 197.488281 70.5625 201.5625 C 66.222656 206.386719 60.320312 211.675781 58.703125 213.105469 C 59.253906 214.863281 60.726562 220.355469 58.847656 223.945312 C 56.722656 228.003906 44.476562 238.363281 38.378906 239.785156 C 35.65625 240.425781 32.964844 241.414062 31.1875 242.132812 L 30.367188 242.464844 " fill-opacity="1" fill-rule="nonzero"/><path fill="#3948ad" d="M 51.730469 218.21875 C 51.601562 218.652344 51.339844 219.632812 51.125 220.976562 C 51.660156 219.792969 52.3125 218.507812 53.101562 217.226562 Z M 49.546875 232.03125 L 49.179688 226.617188 C 48.832031 221.53125 50.152344 217.589844 50.207031 217.425781 L 50.292969 217.167969 L 57.226562 212.152344 L 58.292969 213.464844 C 52.960938 218.34375 50.863281 226.675781 50.84375 226.761719 L 49.546875 232.03125 " fill-opacity="1" fill-rule="nonzero"/><path fill="#3948ad" d="M 2.214844 230.242188 L 14.0625 259.082031 L 30.449219 242.691406 L 21.230469 216.625 Z M 13.460938 262.074219 L 0.140625 229.644531 L 21.121094 214.625 L 22.050781 213.875 L 32.398438 243.132812 L 13.460938 262.074219 " fill-opacity="1" fill-rule="nonzero"/><path fill="#fce9ed" d="M 350.085938 259.074219 C 350.085938 259.074219 346.988281 238.496094 347.128906 232.574219 C 347.269531 226.652344 336.5625 226.09375 334.027344 225.953125 C 334.027344 225.953125 331.628906 222.847656 329.375 223.132812 C 327.121094 223.410156 320.921875 225.105469 320.921875 225.105469 C 320.921875 225.105469 306.972656 209.175781 303.59375 209.035156 C 300.210938 208.894531 298.238281 213.40625 301.617188 218.902344 C 305 224.398438 311.621094 233.28125 311.621094 233.28125 C 311.621094 233.28125 311.058594 242.582031 308.523438 245.402344 C 305.988281 248.222656 307.820312 258.792969 314.019531 260.484375 C 320.21875 262.175781 333.039062 268.378906 334.589844 271.339844 L 350.085938 259.074219 " fill-opacity="1" fill-rule="nonzero"/><path fill="#ffccd3" d="M 311.621094 233.28125 C 311.621094 233.28125 325.289062 247.09375 322.191406 249.488281 C 319.089844 251.886719 314.71875 247.65625 314.71875 246.246094 C 314.71875 244.839844 315.710938 242.722656 311.621094 233.28125 " fill-opacity="1" fill-rule="nonzero"/><path fill="#42a7f9" d="M 350.371094 257.242188 L 331.769531 269.363281 L 338.816406 283.882812 L 358.398438 269.929688 L 350.371094 257.242188 " fill-opacity="1" fill-rule="nonzero"/><path fill="#3948ad" d="M 342.761719 297.839844 L 373.476562 286.5625 L 358.121094 266.828125 L 337.125 282.332031 L 342.761719 297.839844 " fill-opacity="1" fill-rule="nonzero"/><path fill="#3948ad" d="M 303.441406 209.878906 C 302.519531 209.878906 301.75 210.332031 301.257812 211.171875 C 300.457031 212.542969 300.320312 215.175781 302.339844 218.457031 C 305.660156 223.859375 312.234375 232.683594 312.300781 232.773438 L 312.484375 233.023438 L 312.464844 233.332031 C 312.441406 233.722656 311.855469 242.964844 309.148438 245.96875 C 308.097656 247.136719 307.964844 250.265625 308.835938 253.238281 C 309.3125 254.859375 310.792969 258.726562 314.242188 259.667969 C 318.820312 260.917969 327.480469 264.78125 332.238281 268.046875 L 348.953125 257.160156 C 348.199219 251.980469 346.167969 237.421875 346.285156 232.554688 C 346.363281 229.246094 342.128906 227.257812 334.039062 226.800781 L 333.59375 226.773438 L 333.355469 226.46875 C 332.8125 225.765625 330.921875 223.792969 329.480469 223.96875 C 327.3125 224.242188 321.207031 225.902344 321.144531 225.921875 L 320.632812 226.058594 L 320.285156 225.660156 C 314.59375 219.160156 305.640625 209.96875 303.554688 209.878906 C 303.515625 209.878906 303.476562 209.878906 303.441406 209.878906 Z M 332.199219 270.09375 L 331.726562 269.757812 C 327.304688 266.578125 318.304688 262.53125 313.796875 261.300781 C 310.789062 260.480469 308.390625 257.714844 307.214844 253.714844 C 306.15625 250.109375 306.433594 246.457031 307.894531 244.835938 C 309.742188 242.785156 310.5625 236.257812 310.757812 233.535156 C 309.65625 232.046875 303.941406 224.292969 300.898438 219.34375 C 298.847656 216.015625 298.4375 212.636719 299.800781 210.316406 C 300.632812 208.898438 302.023438 208.121094 303.625 208.191406 C 304.292969 208.21875 306.074219 208.292969 314.128906 216.53125 C 317.300781 219.773438 320.226562 223.042969 321.207031 224.152344 C 322.753906 223.738281 327.339844 222.53125 329.269531 222.292969 C 331.550781 222.007812 333.699219 224.253906 334.445312 225.128906 C 345.746094 225.835938 348.046875 229.570312 347.972656 232.59375 C 347.855469 237.511719 350.03125 252.863281 350.703125 257.449219 L 350.78125 257.984375 L 332.199219 270.09375 " fill-opacity="1" fill-rule="nonzero"/><path fill="#3948ad" d="M 314.046875 237.082031 C 315.910156 242.304688 315.71875 244.429688 315.605469 245.679688 C 315.582031 245.902344 315.566406 246.089844 315.566406 246.246094 C 315.609375 246.683594 316.84375 248.269531 318.554688 249.011719 C 319.773438 249.542969 320.824219 249.476562 321.675781 248.820312 C 321.707031 248.792969 321.785156 248.734375 321.800781 248.507812 C 321.933594 246.511719 317.859375 241.308594 314.046875 237.082031 Z M 320.085938 251.054688 C 319.285156 251.054688 318.4375 250.847656 317.578125 250.421875 C 315.605469 249.453125 313.878906 247.503906 313.878906 246.246094 C 313.878906 246.015625 313.898438 245.777344 313.921875 245.527344 C 314.046875 244.140625 314.28125 241.554688 310.847656 233.617188 L 309.0625 229.488281 L 312.222656 232.683594 C 313.40625 233.878906 323.761719 244.472656 323.488281 248.621094 C 323.433594 249.433594 323.035156 249.90625 322.707031 250.160156 C 321.933594 250.757812 321.042969 251.054688 320.085938 251.054688 " fill-opacity="1" fill-rule="nonzero"/><path fill="#3948ad" d="M 332.855469 269.664062 L 338.132812 280.539062 L 355.835938 267.460938 L 350.113281 258.417969 Z M 337.5 283.109375 L 330.6875 269.066406 L 331.757812 268.363281 L 350.625 256.066406 L 358.109375 267.886719 L 337.5 283.109375 " fill-opacity="1" fill-rule="nonzero"/><g clip-path="url(#109c2f72bb)"><path fill="#3948ad" d="M 338.136719 282.636719 L 343.265625 296.753906 L 372.097656 286.167969 L 357.957031 267.996094 L 357.472656 268.355469 Z M 342.253906 298.925781 L 336.113281 282.027344 L 358.28125 265.65625 L 374.855469 286.957031 L 342.253906 298.925781 " fill-opacity="1" fill-rule="nonzero"/></g><path fill="#ffeb3c" d="M 113.90625 253.074219 L 144.84375 253.074219 L 144.84375 293.667969 L 113.90625 293.667969 L 113.90625 253.074219 " fill-opacity="1" fill-rule="nonzero"/><path fill="#ffc928" d="M 67.160156 262.71875 L 98.09375 262.71875 L 98.09375 293.667969 L 67.160156 293.667969 L 67.160156 262.71875 " fill-opacity="1" fill-rule="nonzero"/><path fill="#ff7244" d="M 38.113281 278.164062 L 51.347656 278.164062 L 51.347656 293.667969 L 38.113281 293.667969 L 38.113281 278.164062 " fill-opacity="1" fill-rule="nonzero"/><path fill="#3948ad" d="M 143.996094 292.824219 L 114.75 292.824219 L 114.75 253.917969 L 143.996094 253.917969 Z M 113.0625 294.515625 L 145.6875 294.515625 L 145.6875 252.226562 L 113.0625 252.226562 L 113.0625 294.515625 " fill-opacity="1" fill-rule="nonzero"/><path fill="#3948ad" d="M 97.25 292.824219 L 68.003906 292.824219 L 68.003906 263.566406 L 97.25 263.566406 Z M 66.3125 294.515625 L 98.941406 294.515625 L 98.941406 261.875 L 66.3125 261.875 L 66.3125 294.515625 " fill-opacity="1" fill-rule="nonzero"/><path fill="#3948ad" d="M 50.503906 292.824219 L 38.960938 292.824219 L 38.960938 279.011719 L 50.503906 279.011719 Z M 37.269531 294.515625 L 52.191406 294.515625 L 52.191406 277.320312 L 37.269531 277.320312 L 37.269531 294.515625 " fill-opacity="1" fill-rule="nonzero"/></svg>