<svg xmlns="http://www.w3.org/2000/svg" xmlns:xlink="http://www.w3.org/1999/xlink" width="500" zoomAndPan="magnify" viewBox="0 0 375 374.999991" height="500" preserveAspectRatio="xMidYMid meet" version="1.0"><defs><clipPath id="f4d0123f76"><path d="M 129 38.65625 L 159 38.65625 L 159 68 L 129 68 Z M 129 38.65625 " clip-rule="nonzero"/></clipPath><clipPath id="19346326d9"><path d="M 302 307 L 332 307 L 332 336.40625 L 302 336.40625 Z M 302 307 " clip-rule="nonzero"/></clipPath><clipPath id="e6992fa0d8"><path d="M 259 307 L 289 307 L 289 336.40625 L 259 336.40625 Z M 259 307 " clip-rule="nonzero"/></clipPath><clipPath id="d524a5db1a"><path d="M 216 307 L 246 307 L 246 336.40625 L 216 336.40625 Z M 216 307 " clip-rule="nonzero"/></clipPath><clipPath id="371b89fab3"><path d="M 172 307 L 203 307 L 203 336.40625 L 172 336.40625 Z M 172 307 " clip-rule="nonzero"/></clipPath><clipPath id="716adc9384"><path d="M 129 307 L 159 307 L 159 336.40625 L 129 336.40625 Z M 129 307 " clip-rule="nonzero"/></clipPath><clipPath id="e36e848b3f"><path d="M 86 307 L 116 307 L 116 336.40625 L 86 336.40625 Z M 86 307 " clip-rule="nonzero"/></clipPath><clipPath id="825512f1a4"><path d="M 43 307 L 73 307 L 73 336.40625 L 43 336.40625 Z M 43 307 " clip-rule="nonzero"/></clipPath><clipPath id="606b33eada"><path d="M 0 307 L 30 307 L 30 336.40625 L 0 336.40625 Z M 0 307 " clip-rule="nonzero"/></clipPath><clipPath id="18a50dd19a"><path d="M 345 307 L 375 307 L 375 336.40625 L 345 336.40625 Z M 345 307 " clip-rule="nonzero"/></clipPath></defs><rect x="-37.5" width="450" fill="#ffffff" y="-37.499999" height="449.999989" fill-opacity="1"/><rect x="-37.5" width="450" fill="#ffffff" y="-37.499999" height="449.999989" fill-opacity="1"/><g clip-path="url(#f4d0123f76)"><path fill="#2c496b" d="M 158.847656 53.242188 C 158.847656 61.289062 152.3125 67.824219 144.265625 67.824219 C 136.21875 67.824219 129.683594 61.289062 129.683594 53.242188 C 129.683594 45.191406 136.21875 38.65625 144.265625 38.65625 C 152.3125 38.65625 158.847656 45.191406 158.847656 53.242188 Z M 158.847656 53.242188 " fill-opacity="1" fill-rule="nonzero"/></g><path fill="#2c496b" d="M 202.105469 91.617188 C 202.105469 99.664062 195.570312 106.199219 187.523438 106.199219 C 179.429688 106.199219 172.894531 99.664062 172.894531 91.617188 C 172.894531 83.566406 179.429688 77.03125 187.523438 77.03125 C 195.570312 77.03125 202.105469 83.566406 202.105469 91.617188 Z M 202.105469 91.617188 " fill-opacity="1" fill-rule="nonzero"/><path fill="#2c496b" d="M 158.847656 91.617188 C 158.847656 99.664062 152.3125 106.199219 144.265625 106.199219 C 136.21875 106.199219 129.683594 99.664062 129.683594 91.617188 C 129.683594 83.566406 136.21875 77.03125 144.265625 77.03125 C 152.3125 77.03125 158.847656 83.566406 158.847656 91.617188 Z M 158.847656 91.617188 " fill-opacity="1" fill-rule="nonzero"/><path fill="#2c496b" d="M 331.78125 129.992188 C 331.78125 138.039062 325.246094 144.574219 317.203125 144.574219 C 309.109375 144.574219 302.621094 138.039062 302.621094 129.992188 C 302.621094 121.941406 309.109375 115.40625 317.203125 115.40625 C 325.246094 115.40625 331.78125 121.941406 331.78125 129.992188 Z M 331.78125 129.992188 " fill-opacity="1" fill-rule="nonzero"/><path fill="#2c496b" d="M 202.105469 129.992188 C 202.105469 138.039062 195.570312 144.574219 187.523438 144.574219 C 179.429688 144.574219 172.894531 138.039062 172.894531 129.992188 C 172.894531 121.941406 179.429688 115.40625 187.523438 115.40625 C 195.570312 115.40625 202.105469 121.941406 202.105469 129.992188 Z M 202.105469 129.992188 " fill-opacity="1" fill-rule="nonzero"/><path fill="#2c496b" d="M 158.847656 129.992188 C 158.847656 138.039062 152.3125 144.574219 144.265625 144.574219 C 136.21875 144.574219 129.683594 138.039062 129.683594 129.992188 C 129.683594 121.941406 136.21875 115.40625 144.265625 115.40625 C 152.3125 115.40625 158.847656 121.941406 158.847656 129.992188 Z M 158.847656 129.992188 " fill-opacity="1" fill-rule="nonzero"/><path fill="#2c496b" d="M 115.636719 129.992188 C 115.636719 138.039062 109.101562 144.574219 101.054688 144.574219 C 93.007812 144.574219 86.472656 138.039062 86.472656 129.992188 C 86.472656 121.941406 93.007812 115.40625 101.054688 115.40625 C 109.101562 115.40625 115.636719 121.941406 115.636719 129.992188 Z M 115.636719 129.992188 " fill-opacity="1" fill-rule="nonzero"/><path fill="#2c496b" d="M 331.78125 168.367188 C 331.78125 176.414062 325.246094 182.949219 317.203125 182.949219 C 309.109375 182.949219 302.621094 176.414062 302.621094 168.367188 C 302.621094 160.316406 309.109375 153.78125 317.203125 153.78125 C 325.246094 153.78125 331.78125 160.316406 331.78125 168.367188 Z M 331.78125 168.367188 " fill-opacity="1" fill-rule="nonzero"/><path fill="#2c496b" d="M 245.316406 168.367188 C 245.316406 176.414062 238.78125 182.949219 230.734375 182.949219 C 222.6875 182.949219 216.152344 176.414062 216.152344 168.367188 C 216.152344 160.316406 222.6875 153.78125 230.734375 153.78125 C 238.78125 153.78125 245.316406 160.316406 245.316406 168.367188 Z M 245.316406 168.367188 " fill-opacity="1" fill-rule="nonzero"/><path fill="#2c496b" d="M 202.105469 168.367188 C 202.105469 176.414062 195.570312 182.949219 187.523438 182.949219 C 179.429688 182.949219 172.894531 176.414062 172.894531 168.367188 C 172.894531 160.316406 179.429688 153.78125 187.523438 153.78125 C 195.570312 153.78125 202.105469 160.316406 202.105469 168.367188 Z M 202.105469 168.367188 " fill-opacity="1" fill-rule="nonzero"/><path fill="#2c496b" d="M 158.847656 168.367188 C 158.847656 176.414062 152.3125 182.949219 144.265625 182.949219 C 136.21875 182.949219 129.683594 176.414062 129.683594 168.367188 C 129.683594 160.316406 136.21875 153.78125 144.265625 153.78125 C 152.3125 153.78125 158.847656 160.316406 158.847656 168.367188 Z M 158.847656 168.367188 " fill-opacity="1" fill-rule="nonzero"/><path fill="#2c496b" d="M 115.636719 168.367188 C 115.636719 176.414062 109.101562 182.949219 101.054688 182.949219 C 93.007812 182.949219 86.472656 176.414062 86.472656 168.367188 C 86.472656 160.316406 93.007812 153.78125 101.054688 153.78125 C 109.101562 153.78125 115.636719 160.316406 115.636719 168.367188 Z M 115.636719 168.367188 " fill-opacity="1" fill-rule="nonzero"/><path fill="#2c496b" d="M 331.78125 206.742188 C 331.78125 214.789062 325.246094 221.324219 317.203125 221.324219 C 309.109375 221.324219 302.621094 214.789062 302.621094 206.742188 C 302.621094 198.648438 309.109375 192.109375 317.203125 192.109375 C 325.246094 192.109375 331.78125 198.648438 331.78125 206.742188 Z M 331.78125 206.742188 " fill-opacity="1" fill-rule="nonzero"/><path fill="#2c496b" d="M 288.527344 206.742188 C 288.527344 214.789062 282.035156 221.324219 273.945312 221.324219 C 265.898438 221.324219 259.363281 214.789062 259.363281 206.742188 C 259.363281 198.648438 265.898438 192.109375 273.945312 192.109375 C 282.035156 192.109375 288.527344 198.648438 288.527344 206.742188 Z M 288.527344 206.742188 " fill-opacity="1" fill-rule="nonzero"/><path fill="#2c496b" d="M 245.316406 206.742188 C 245.316406 214.789062 238.78125 221.324219 230.734375 221.324219 C 222.6875 221.324219 216.152344 214.789062 216.152344 206.742188 C 216.152344 198.648438 222.6875 192.109375 230.734375 192.109375 C 238.78125 192.109375 245.316406 198.648438 245.316406 206.742188 Z M 245.316406 206.742188 " fill-opacity="1" fill-rule="nonzero"/><path fill="#2c496b" d="M 202.105469 206.742188 C 202.105469 214.789062 195.570312 221.324219 187.523438 221.324219 C 179.429688 221.324219 172.894531 214.789062 172.894531 206.742188 C 172.894531 198.648438 179.429688 192.109375 187.523438 192.109375 C 195.570312 192.109375 202.105469 198.648438 202.105469 206.742188 Z M 202.105469 206.742188 " fill-opacity="1" fill-rule="nonzero"/><path fill="#2c496b" d="M 158.847656 206.742188 C 158.847656 214.789062 152.3125 221.324219 144.265625 221.324219 C 136.21875 221.324219 129.683594 214.789062 129.683594 206.742188 C 129.683594 198.648438 136.21875 192.109375 144.265625 192.109375 C 152.3125 192.109375 158.847656 198.648438 158.847656 206.742188 Z M 158.847656 206.742188 " fill-opacity="1" fill-rule="nonzero"/><path fill="#2c496b" d="M 115.636719 206.742188 C 115.636719 214.789062 109.101562 221.324219 101.054688 221.324219 C 93.007812 221.324219 86.472656 214.789062 86.472656 206.742188 C 86.472656 198.648438 93.007812 192.109375 101.054688 192.109375 C 109.101562 192.109375 115.636719 198.648438 115.636719 206.742188 Z M 115.636719 206.742188 " fill-opacity="1" fill-rule="nonzero"/><path fill="#2c496b" d="M 331.78125 245.070312 C 331.78125 253.164062 325.246094 259.699219 317.203125 259.699219 C 309.109375 259.699219 302.621094 253.164062 302.621094 245.070312 C 302.621094 237.023438 309.109375 230.484375 317.203125 230.484375 C 325.246094 230.484375 331.78125 237.023438 331.78125 245.070312 Z M 331.78125 245.070312 " fill-opacity="1" fill-rule="nonzero"/><path fill="#2c496b" d="M 288.527344 245.070312 C 288.527344 253.164062 282.035156 259.699219 273.945312 259.699219 C 265.898438 259.699219 259.363281 253.164062 259.363281 245.070312 C 259.363281 237.023438 265.898438 230.484375 273.945312 230.484375 C 282.035156 230.484375 288.527344 237.023438 288.527344 245.070312 Z M 288.527344 245.070312 " fill-opacity="1" fill-rule="nonzero"/><path fill="#2c496b" d="M 245.316406 245.070312 C 245.316406 253.164062 238.78125 259.699219 230.734375 259.699219 C 222.6875 259.699219 216.152344 253.164062 216.152344 245.070312 C 216.152344 237.023438 222.6875 230.484375 230.734375 230.484375 C 238.78125 230.484375 245.316406 237.023438 245.316406 245.070312 Z M 245.316406 245.070312 " fill-opacity="1" fill-rule="nonzero"/><path fill="#2c496b" d="M 202.105469 245.070312 C 202.105469 253.164062 195.570312 259.699219 187.523438 259.699219 C 179.429688 259.699219 172.894531 253.164062 172.894531 245.070312 C 172.894531 237.023438 179.429688 230.484375 187.523438 230.484375 C 195.570312 230.484375 202.105469 237.023438 202.105469 245.070312 Z M 202.105469 245.070312 " fill-opacity="1" fill-rule="nonzero"/><path fill="#2c496b" d="M 158.847656 245.070312 C 158.847656 253.164062 152.3125 259.699219 144.265625 259.699219 C 136.21875 259.699219 129.683594 253.164062 129.683594 245.070312 C 129.683594 237.023438 136.21875 230.484375 144.265625 230.484375 C 152.3125 230.484375 158.847656 237.023438 158.847656 245.070312 Z M 158.847656 245.070312 " fill-opacity="1" fill-rule="nonzero"/><path fill="#2c496b" d="M 115.636719 245.070312 C 115.636719 253.164062 109.101562 259.699219 101.054688 259.699219 C 93.007812 259.699219 86.472656 253.164062 86.472656 245.070312 C 86.472656 237.023438 93.007812 230.484375 101.054688 230.484375 C 109.101562 230.484375 115.636719 237.023438 115.636719 245.070312 Z M 115.636719 245.070312 " fill-opacity="1" fill-rule="nonzero"/><path fill="#2c496b" d="M 72.425781 245.070312 C 72.425781 253.164062 65.890625 259.699219 57.796875 259.699219 C 49.753906 259.699219 43.21875 253.164062 43.21875 245.070312 C 43.21875 237.023438 49.753906 230.484375 57.796875 230.484375 C 65.890625 230.484375 72.425781 237.023438 72.425781 245.070312 Z M 72.425781 245.070312 " fill-opacity="1" fill-rule="nonzero"/><path fill="#2c496b" d="M 374.996094 245.070312 C 374.996094 253.164062 368.460938 259.699219 360.414062 259.699219 C 352.367188 259.699219 345.832031 253.164062 345.832031 245.070312 C 345.832031 237.023438 352.367188 230.484375 360.414062 230.484375 C 368.460938 230.484375 374.996094 237.023438 374.996094 245.070312 Z M 374.996094 245.070312 " fill-opacity="1" fill-rule="nonzero"/><path fill="#2c496b" d="M 331.78125 283.445312 C 331.78125 291.539062 325.246094 298.03125 317.203125 298.03125 C 309.109375 298.03125 302.621094 291.539062 302.621094 283.445312 C 302.621094 275.398438 309.109375 268.859375 317.203125 268.859375 C 325.246094 268.859375 331.78125 275.398438 331.78125 283.445312 Z M 331.78125 283.445312 " fill-opacity="1" fill-rule="nonzero"/><path fill="#2c496b" d="M 288.527344 283.445312 C 288.527344 291.539062 282.035156 298.03125 273.945312 298.03125 C 265.898438 298.03125 259.363281 291.539062 259.363281 283.445312 C 259.363281 275.398438 265.898438 268.859375 273.945312 268.859375 C 282.035156 268.859375 288.527344 275.398438 288.527344 283.445312 Z M 288.527344 283.445312 " fill-opacity="1" fill-rule="nonzero"/><path fill="#2c496b" d="M 245.316406 283.445312 C 245.316406 291.539062 238.78125 298.03125 230.734375 298.03125 C 222.6875 298.03125 216.152344 291.539062 216.152344 283.445312 C 216.152344 275.398438 222.6875 268.859375 230.734375 268.859375 C 238.78125 268.859375 245.316406 275.398438 245.316406 283.445312 Z M 245.316406 283.445312 " fill-opacity="1" fill-rule="nonzero"/><path fill="#2c496b" d="M 202.105469 283.445312 C 202.105469 291.539062 195.570312 298.03125 187.523438 298.03125 C 179.429688 298.03125 172.894531 291.539062 172.894531 283.445312 C 172.894531 275.398438 179.429688 268.859375 187.523438 268.859375 C 195.570312 268.859375 202.105469 275.398438 202.105469 283.445312 Z M 202.105469 283.445312 " fill-opacity="1" fill-rule="nonzero"/><path fill="#2c496b" d="M 158.847656 283.445312 C 158.847656 291.539062 152.3125 298.03125 144.265625 298.03125 C 136.21875 298.03125 129.683594 291.539062 129.683594 283.445312 C 129.683594 275.398438 136.21875 268.859375 144.265625 268.859375 C 152.3125 268.859375 158.847656 275.398438 158.847656 283.445312 Z M 158.847656 283.445312 " fill-opacity="1" fill-rule="nonzero"/><path fill="#2c496b" d="M 115.636719 283.445312 C 115.636719 291.539062 109.101562 298.03125 101.054688 298.03125 C 93.007812 298.03125 86.472656 291.539062 86.472656 283.445312 C 86.472656 275.398438 93.007812 268.859375 101.054688 268.859375 C 109.101562 268.859375 115.636719 275.398438 115.636719 283.445312 Z M 115.636719 283.445312 " fill-opacity="1" fill-rule="nonzero"/><path fill="#2c496b" d="M 72.425781 283.445312 C 72.425781 291.539062 65.890625 298.03125 57.796875 298.03125 C 49.753906 298.03125 43.21875 291.539062 43.21875 283.445312 C 43.21875 275.398438 49.753906 268.859375 57.796875 268.859375 C 65.890625 268.859375 72.425781 275.398438 72.425781 283.445312 Z M 72.425781 283.445312 " fill-opacity="1" fill-rule="nonzero"/><path fill="#2c496b" d="M 29.167969 283.445312 C 29.167969 291.539062 22.632812 298.03125 14.585938 298.03125 C 6.539062 298.03125 0.00390625 291.539062 0.00390625 283.445312 C 0.00390625 275.398438 6.539062 268.859375 14.585938 268.859375 C 22.632812 268.859375 29.167969 275.398438 29.167969 283.445312 Z M 29.167969 283.445312 " fill-opacity="1" fill-rule="nonzero"/><path fill="#2c496b" d="M 374.996094 283.445312 C 374.996094 291.539062 368.460938 298.03125 360.414062 298.03125 C 352.367188 298.03125 345.832031 291.539062 345.832031 283.445312 C 345.832031 275.398438 352.367188 268.859375 360.414062 268.859375 C 368.460938 268.859375 374.996094 275.398438 374.996094 283.445312 Z M 374.996094 283.445312 " fill-opacity="1" fill-rule="nonzero"/><g clip-path="url(#19346326d9)"><path fill="#2c496b" d="M 331.78125 321.820312 C 331.78125 329.871094 325.246094 336.40625 317.203125 336.40625 C 309.109375 336.40625 302.621094 329.871094 302.621094 321.820312 C 302.621094 313.773438 309.109375 307.234375 317.203125 307.234375 C 325.246094 307.234375 331.78125 313.773438 331.78125 321.820312 Z M 331.78125 321.820312 " fill-opacity="1" fill-rule="nonzero"/></g><g clip-path="url(#e6992fa0d8)"><path fill="#2c496b" d="M 288.527344 321.820312 C 288.527344 329.871094 282.035156 336.40625 273.945312 336.40625 C 265.898438 336.40625 259.363281 329.871094 259.363281 321.820312 C 259.363281 313.773438 265.898438 307.234375 273.945312 307.234375 C 282.035156 307.234375 288.527344 313.773438 288.527344 321.820312 Z M 288.527344 321.820312 " fill-opacity="1" fill-rule="nonzero"/></g><g clip-path="url(#d524a5db1a)"><path fill="#2c496b" d="M 245.316406 321.820312 C 245.316406 329.871094 238.78125 336.40625 230.734375 336.40625 C 222.6875 336.40625 216.152344 329.871094 216.152344 321.820312 C 216.152344 313.773438 222.6875 307.234375 230.734375 307.234375 C 238.78125 307.234375 245.316406 313.773438 245.316406 321.820312 Z M 245.316406 321.820312 " fill-opacity="1" fill-rule="nonzero"/></g><g clip-path="url(#371b89fab3)"><path fill="#2c496b" d="M 202.105469 321.820312 C 202.105469 329.871094 195.570312 336.40625 187.523438 336.40625 C 179.429688 336.40625 172.894531 329.871094 172.894531 321.820312 C 172.894531 313.773438 179.429688 307.234375 187.523438 307.234375 C 195.570312 307.234375 202.105469 313.773438 202.105469 321.820312 Z M 202.105469 321.820312 " fill-opacity="1" fill-rule="nonzero"/></g><g clip-path="url(#716adc9384)"><path fill="#2c496b" d="M 158.847656 321.820312 C 158.847656 329.871094 152.3125 336.40625 144.265625 336.40625 C 136.21875 336.40625 129.683594 329.871094 129.683594 321.820312 C 129.683594 313.773438 136.21875 307.234375 144.265625 307.234375 C 152.3125 307.234375 158.847656 313.773438 158.847656 321.820312 Z M 158.847656 321.820312 " fill-opacity="1" fill-rule="nonzero"/></g><g clip-path="url(#e36e848b3f)"><path fill="#2c496b" d="M 115.636719 321.820312 C 115.636719 329.871094 109.101562 336.40625 101.054688 336.40625 C 93.007812 336.40625 86.472656 329.871094 86.472656 321.820312 C 86.472656 313.773438 93.007812 307.234375 101.054688 307.234375 C 109.101562 307.234375 115.636719 313.773438 115.636719 321.820312 Z M 115.636719 321.820312 " fill-opacity="1" fill-rule="nonzero"/></g><g clip-path="url(#825512f1a4)"><path fill="#2c496b" d="M 72.425781 321.820312 C 72.425781 329.871094 65.890625 336.40625 57.796875 336.40625 C 49.753906 336.40625 43.21875 329.871094 43.21875 321.820312 C 43.21875 313.773438 49.753906 307.234375 57.796875 307.234375 C 65.890625 307.234375 72.425781 313.773438 72.425781 321.820312 Z M 72.425781 321.820312 " fill-opacity="1" fill-rule="nonzero"/></g><g clip-path="url(#606b33eada)"><path fill="#2c496b" d="M 29.167969 321.820312 C 29.167969 329.871094 22.632812 336.40625 14.585938 336.40625 C 6.539062 336.40625 0.00390625 329.871094 0.00390625 321.820312 C 0.00390625 313.773438 6.539062 307.234375 14.585938 307.234375 C 22.632812 307.234375 29.167969 313.773438 29.167969 321.820312 Z M 29.167969 321.820312 " fill-opacity="1" fill-rule="nonzero"/></g><g clip-path="url(#18a50dd19a)"><path fill="#2c496b" d="M 374.996094 321.820312 C 374.996094 329.871094 368.460938 336.40625 360.414062 336.40625 C 352.367188 336.40625 345.832031 329.871094 345.832031 321.820312 C 345.832031 313.773438 352.367188 307.234375 360.414062 307.234375 C 368.460938 307.234375 374.996094 313.773438 374.996094 321.820312 Z M 374.996094 321.820312 " fill-opacity="1" fill-rule="nonzero"/></g></svg>