<svg xmlns="http://www.w3.org/2000/svg" xmlns:xlink="http://www.w3.org/1999/xlink" width="500" zoomAndPan="magnify" viewBox="0 0 375 374.999991" height="500" preserveAspectRatio="xMidYMid meet" version="1.0"><defs><clipPath id="5fc622fd0e"><path d="M 17.8125 12 L 357.5625 12 L 357.5625 362.882812 L 17.8125 362.882812 Z M 17.8125 12 " clip-rule="nonzero"/></clipPath></defs><rect x="-37.5" width="450" fill="#ffffff" y="-37.499999" height="449.999989" fill-opacity="1"/><rect x="-37.5" width="450" fill="#ffffff" y="-37.499999" height="449.999989" fill-opacity="1"/><path fill="#aeb4b7" d="M 65.941406 358.386719 L 33.5 358.386719 C 27.191406 358.386719 22.046875 353.320312 22.046875 346.953125 L 22.046875 124.726562 C 22.046875 118.429688 27.125 113.292969 33.5 113.292969 L 65.941406 113.292969 Z M 65.941406 358.386719 " fill-opacity="1" fill-rule="nonzero"/><path fill="#edf0f1" d="M 344.105469 16.421875 C 349.179688 16.421875 353.226562 20.460938 353.226562 25.527344 L 353.226562 320.734375 L 315.507812 358.386719 L 65.941406 358.386719 L 65.941406 25.527344 C 65.941406 20.460938 69.984375 16.421875 75.0625 16.421875 C 164.765625 16.421875 254.46875 16.421875 344.105469 16.421875 Z M 344.105469 16.421875 " fill-opacity="1" fill-rule="nonzero"/><path fill="#aeb4b7" d="M 315.574219 358.386719 L 315.574219 320.734375 L 353.292969 320.734375 Z M 315.574219 358.386719 " fill-opacity="1" fill-rule="nonzero"/><path fill="#f37676" d="M 237.871094 265.828125 L 237.871094 176.074219 C 237.871094 171.007812 241.917969 166.96875 246.992188 166.96875 L 262.425781 166.96875 C 267.5 166.96875 271.546875 171.007812 271.546875 176.074219 L 271.546875 265.828125 Z M 237.871094 265.828125 " fill-opacity="1" fill-rule="nonzero"/><path fill="#fdcb70" d="M 271.613281 265.828125 L 271.613281 209.6875 L 296.167969 209.6875 C 301.242188 209.6875 305.289062 213.726562 305.289062 218.792969 L 305.289062 265.828125 Z M 271.613281 265.828125 " fill-opacity="1" fill-rule="nonzero"/><path fill="#78cab4" d="M 113.945312 265.828125 L 113.945312 176.074219 C 113.945312 171.007812 117.992188 166.96875 123.066406 166.96875 L 138.5 166.96875 C 143.574219 166.96875 147.621094 171.007812 147.621094 176.074219 L 147.621094 265.828125 Z M 113.945312 265.828125 " fill-opacity="1" fill-rule="nonzero"/><path fill="#82b5e2" d="M 147.621094 265.828125 L 147.621094 209.6875 L 172.171875 209.6875 C 177.246094 209.6875 181.292969 213.726562 181.292969 218.792969 L 181.292969 265.828125 Z M 147.621094 265.828125 " fill-opacity="1" fill-rule="nonzero"/><g clip-path="url(#5fc622fd0e)"><path fill="#010101" d="M 256.222656 12.152344 L 75.101562 12.152344 C 67.761719 12.152344 61.660156 18.175781 61.660156 25.570312 L 61.660156 109.09375 L 33.539062 109.09375 C 24.898438 109.09375 17.835938 116.144531 17.835938 124.773438 L 17.835938 180.363281 C 17.835938 182.691406 19.753906 184.609375 22.085938 184.609375 C 24.417969 184.609375 26.339844 182.691406 26.339844 180.363281 L 26.339844 124.773438 C 26.339844 120.734375 29.425781 117.652344 33.472656 117.652344 L 61.660156 117.652344 L 61.660156 354.121094 L 33.539062 354.121094 C 29.492188 354.121094 26.40625 351.039062 26.40625 347 L 26.40625 204.53125 C 26.40625 202.132812 24.488281 200.148438 22.085938 200.21875 C 19.753906 200.285156 17.835938 202.203125 17.902344 204.53125 L 17.902344 347 C 17.902344 355.625 24.96875 362.675781 33.609375 362.675781 L 314.585938 362.675781 C 316.367188 362.675781 317.808594 362.265625 319.25 360.828125 L 356.351562 323.789062 C 357.171875 322.96875 357.585938 321.738281 357.585938 320.777344 L 357.585938 25.570312 C 357.585938 18.246094 351.550781 12.152344 344.144531 12.152344 L 276.867188 12.152344 C 274.464844 12.085938 272.40625 14 272.40625 16.398438 C 272.40625 18.792969 274.398438 20.777344 276.867188 20.640625 L 344.144531 20.640625 C 346.886719 20.640625 349.011719 22.765625 349.011719 25.503906 L 349.011719 316.464844 L 315.613281 316.464844 C 313.28125 316.464844 311.363281 318.382812 311.363281 320.710938 L 311.363281 354.121094 L 70.230469 354.121094 L 70.230469 25.570312 C 70.230469 22.832031 72.355469 20.710938 75.101562 20.710938 L 256.152344 20.710938 C 258.554688 20.777344 260.542969 18.863281 260.542969 16.464844 C 260.613281 14 258.621094 12.085938 256.222656 12.152344 Z M 123.382812 47.753906 C 121.117188 47.820312 119.265625 49.808594 119.335938 52.269531 L 119.335938 59.390625 L 113.847656 59.390625 C 111.585938 59.390625 109.734375 61.375 109.734375 63.839844 L 109.734375 84.449219 C 109.734375 86.914062 111.585938 88.898438 113.847656 88.898438 L 128.867188 88.898438 L 128.867188 100.675781 C 123.792969 100.605469 118.921875 100.675781 113.847656 100.675781 C 111.585938 100.675781 109.664062 102.660156 109.664062 105.125 C 109.664062 107.589844 111.515625 109.574219 113.847656 109.574219 L 119.335938 109.574219 L 119.335938 116.695312 C 119.335938 119.089844 121.1875 121.074219 123.449219 121.074219 C 125.714844 121.074219 127.566406 119.089844 127.566406 116.695312 L 127.566406 109.574219 L 133.050781 109.574219 C 135.3125 109.574219 137.167969 107.589844 137.167969 105.125 L 137.167969 84.515625 C 137.167969 82.050781 135.3125 80.066406 133.050781 80.066406 L 118.03125 80.066406 L 118.03125 68.292969 C 123.039062 68.292969 128.042969 68.292969 133.050781 68.292969 C 135.3125 68.292969 137.234375 66.304688 137.234375 63.839844 C 137.234375 61.375 135.382812 59.390625 133.050781 59.390625 L 127.566406 59.390625 L 127.566406 52.269531 C 127.566406 49.738281 125.714844 47.683594 123.382812 47.753906 Z M 283.3125 65.964844 L 157.671875 65.964844 C 155.269531 65.894531 153.214844 67.8125 153.214844 70.207031 C 153.214844 72.605469 155.203125 74.589844 157.671875 74.453125 L 283.3125 74.453125 C 285.710938 74.523438 287.703125 72.605469 287.703125 70.207031 C 287.703125 67.8125 285.710938 65.894531 283.3125 65.964844 Z M 157.671875 94.445312 C 155.339844 94.445312 153.417969 96.359375 153.417969 98.6875 C 153.417969 101.015625 155.339844 102.933594 157.671875 102.933594 L 254.714844 102.933594 C 257.046875 102.933594 258.964844 101.015625 258.964844 98.6875 C 258.964844 96.359375 257.046875 94.445312 254.714844 94.445312 Z M 273.300781 94.445312 C 270.96875 94.445312 269.046875 96.359375 269.046875 98.6875 C 269.046875 101.015625 270.96875 102.933594 273.300781 102.933594 L 311.839844 102.933594 C 314.171875 102.933594 316.09375 101.015625 316.09375 98.6875 C 316.09375 96.359375 314.171875 94.445312 311.839844 94.445312 Z M 123.039062 162.632812 C 115.699219 162.632812 109.597656 168.65625 109.597656 176.050781 L 109.597656 238.691406 C 109.597656 241.019531 111.515625 242.9375 113.847656 242.9375 C 116.179688 242.9375 118.101562 241.019531 118.101562 238.691406 L 118.101562 176.050781 C 118.101562 173.3125 120.226562 171.191406 122.96875 171.191406 L 138.46875 171.191406 C 141.210938 171.191406 143.339844 173.3125 143.339844 176.050781 L 143.339844 261.558594 L 107.402344 261.558594 C 105.070312 261.558594 103.148438 263.476562 103.148438 265.804688 C 103.148438 268.132812 105.070312 270.046875 107.402344 270.046875 C 137.234375 270.183594 161.167969 270.046875 187.847656 270.046875 C 190.179688 270.046875 192.097656 268.132812 192.097656 265.804688 C 192.097656 263.476562 190.179688 261.558594 187.847656 261.558594 L 185.585938 261.558594 L 185.585938 218.839844 C 185.585938 211.511719 179.550781 205.421875 172.140625 205.421875 L 151.84375 205.421875 L 151.84375 176.050781 C 151.84375 168.726562 145.808594 162.632812 138.402344 162.632812 Z M 247.03125 162.632812 C 239.695312 162.632812 233.589844 168.65625 233.589844 176.050781 L 233.589844 261.558594 L 231.328125 261.558594 C 228.996094 261.558594 227.074219 263.476562 227.074219 265.804688 C 227.074219 268.132812 228.996094 270.046875 231.328125 270.046875 L 311.773438 270.046875 C 314.105469 270.046875 316.023438 268.132812 316.023438 265.804688 C 316.023438 263.476562 314.105469 261.558594 311.773438 261.558594 L 275.835938 261.558594 L 275.835938 213.976562 L 296.136719 213.976562 C 298.878906 213.976562 301.007812 216.101562 301.007812 218.839844 L 301.007812 238.761719 C 301.007812 241.089844 302.925781 243.007812 305.257812 243.007812 C 307.589844 243.007812 309.511719 241.089844 309.511719 238.761719 L 309.511719 218.839844 C 309.511719 211.511719 303.476562 205.421875 296.066406 205.421875 L 275.769531 205.421875 L 275.769531 176.050781 C 275.769531 168.726562 269.734375 162.632812 262.328125 162.632812 Z M 247.03125 171.191406 L 262.464844 171.191406 C 265.207031 171.191406 267.332031 173.3125 267.332031 176.050781 C 267.265625 204.667969 267.332031 232.941406 267.332031 261.558594 L 242.230469 261.558594 L 242.230469 176.050781 C 242.164062 173.3125 244.289062 171.191406 247.03125 171.191406 Z M 151.910156 213.976562 L 172.210938 213.976562 C 174.953125 213.976562 177.082031 216.101562 177.082031 218.839844 L 177.082031 261.558594 L 151.980469 261.558594 Z M 285.710938 290.039062 L 113.164062 290.039062 C 110.761719 289.972656 108.703125 291.886719 108.703125 294.285156 C 108.703125 296.679688 110.695312 298.664062 113.164062 298.527344 L 285.710938 298.527344 C 288.113281 298.597656 290.101562 296.679688 290.101562 294.285156 C 290.171875 291.886719 288.179688 289.972656 285.710938 290.039062 Z M 111.585938 318.519531 C 109.183594 318.449219 107.195312 320.367188 107.195312 322.765625 C 107.195312 325.160156 109.183594 327.078125 111.585938 327.007812 L 222.480469 327.007812 C 224.882812 327.078125 226.871094 325.160156 226.871094 322.765625 C 226.871094 320.367188 224.882812 318.449219 222.480469 318.519531 Z M 319.867188 325.089844 L 342.910156 325.089844 L 319.867188 348.09375 Z M 319.867188 325.089844 " fill-opacity="1" fill-rule="nonzero"/></g></svg>