<svg xmlns="http://www.w3.org/2000/svg" xmlns:xlink="http://www.w3.org/1999/xlink" width="500" zoomAndPan="magnify" viewBox="0 0 375 374.999991" height="500" preserveAspectRatio="xMidYMid meet" version="1.0"><defs><clipPath id="719db1999d"><path d="M 8.160156 53.304688 L 375 53.304688 L 375 321.59375 L 8.160156 321.59375 Z M 8.160156 53.304688 " clip-rule="nonzero"/></clipPath><clipPath id="b9d5e00f4e"><path d="M 0 283.34375 L 367 283.34375 L 367 321.59375 L 0 321.59375 Z M 0 283.34375 " clip-rule="nonzero"/></clipPath><clipPath id="4974fdfd4f"><path d="M 0 311.484375 L 367 311.484375 L 367 321.59375 L 0 321.59375 Z M 0 311.484375 " clip-rule="nonzero"/></clipPath><clipPath id="4a564563e4"><path d="M 60 53.203125 L 306 53.203125 L 306 83 L 60 83 Z M 60 53.203125 " clip-rule="nonzero"/></clipPath></defs><rect x="-37.5" width="450" fill="#ffffff" y="-37.499999" height="449.999989" fill-opacity="1"/><rect x="-37.5" width="450" fill="#ffffff" y="-37.499999" height="449.999989" fill-opacity="1"/><g clip-path="url(#719db1999d)"><path fill="#eed1cc" d="M 364.71875 321.59375 L 18.453125 321.59375 C 12.792969 321.59375 8.160156 317.214844 8.160156 311.859375 L 44.902344 283.457031 L 330.398438 283.457031 L 330.398438 104.4375 C 330.398438 99.570312 326.460938 95.621094 321.597656 95.601562 L 329.71875 95.601562 C 334.601562 95.601562 338.554688 99.554688 338.554688 104.4375 L 338.554688 283.457031 L 338.269531 283.457031 L 375.011719 311.859375 C 375.011719 317.214844 370.378906 321.59375 364.71875 321.59375 M 314.128906 95.601562 L 69 95.601562 L 69 53.308594 L 314.128906 53.308594 L 314.128906 71.894531 L 314.734375 71.894531 L 314.734375 82.667969 L 314.128906 82.667969 L 314.128906 95.601562 " fill-opacity="1" fill-rule="nonzero"/></g><path fill="#f2f2f2" d="M 321.558594 95.601562 L 45.582031 95.601562 C 40.699219 95.601562 36.742188 99.554688 36.742188 104.4375 L 36.742188 283.457031 L 330.398438 283.457031 L 330.398438 104.4375 C 330.398438 99.554688 326.441406 95.601562 321.558594 95.601562 " fill-opacity="1" fill-rule="nonzero"/><path fill="#d1eef9" d="M 50.179688 274.054688 L 50.167969 273.027344 L 50.167969 263.988281 L 50.179688 263.988281 L 50.179688 259.75 L 50.167969 258.734375 L 50.167969 256.269531 L 50.179688 256.269531 L 50.179688 251.738281 L 50.167969 250.722656 L 50.167969 248.261719 L 50.179688 248.261719 L 50.179688 243.726562 L 50.167969 242.714844 L 50.167969 240.25 L 50.179688 240.25 L 50.179688 235.71875 L 50.167969 234.703125 L 50.167969 232.242188 L 50.179688 232.242188 L 50.179688 227.707031 L 50.167969 226.695312 L 50.167969 224.230469 L 50.179688 224.230469 L 50.179688 219.699219 L 50.167969 218.6875 L 50.167969 216.222656 L 50.179688 216.222656 L 50.179688 211.691406 L 50.167969 210.675781 L 50.167969 208.210938 L 50.179688 208.210938 L 50.179688 203.679688 L 50.167969 202.664062 L 50.167969 200.203125 L 50.179688 200.203125 L 50.179688 195.671875 L 50.167969 194.65625 L 50.167969 192.191406 L 50.179688 192.191406 L 50.179688 187.660156 L 50.167969 186.644531 L 50.167969 184.183594 L 50.179688 184.183594 L 50.179688 179.652344 L 50.167969 178.636719 L 50.167969 176.171875 L 50.179688 176.171875 L 50.179688 171.640625 L 50.167969 170.625 L 50.167969 168.164062 L 50.179688 168.164062 L 50.179688 163.640625 L 50.167969 162.625 L 50.167969 125.617188 L 50.179688 125.617188 L 50.179688 110.101562 L 51.195312 110.097656 L 316.660156 110.097656 L 316.6875 111.113281 L 316.6875 127.675781 L 316.660156 127.675781 L 316.660156 274.054688 L 50.179688 274.054688 " fill-opacity="1" fill-rule="nonzero"/><g clip-path="url(#b9d5e00f4e)"><path fill="#f2f2f2" d="M 10.292969 321.59375 L 356.558594 321.59375 C 362.222656 321.59375 366.851562 317.214844 366.851562 311.859375 L 330.109375 283.457031 L 36.742188 283.457031 L 0 311.859375 C 0 317.214844 4.632812 321.59375 10.292969 321.59375 " fill-opacity="1" fill-rule="nonzero"/></g><path fill="#d1d1d2" d="M 242.902344 304.65625 L 224.992188 290.933594 L 141.859375 290.933594 L 123.953125 304.65625 L 242.902344 304.65625 " fill-opacity="1" fill-rule="nonzero"/><g clip-path="url(#4974fdfd4f)"><path fill="#d1d1d2" d="M 10.292969 321.59375 L 356.558594 321.59375 C 362.222656 321.59375 366.851562 317.214844 366.851562 311.859375 L 0 311.859375 C 0 317.214844 4.632812 321.59375 10.292969 321.59375 " fill-opacity="1" fill-rule="nonzero"/></g><path fill="#828383" d="M 330.113281 283.828125 L 36.742188 283.828125 L 36.742188 283.089844 L 330.113281 283.089844 L 330.113281 283.828125 " fill-opacity="1" fill-rule="nonzero"/><path fill="#dab3ad" d="M 310.519531 110.097656 L 56.292969 110.097656 L 55.875 95.601562 L 310.933594 95.601562 L 310.519531 110.097656 " fill-opacity="1" fill-rule="nonzero"/><path fill="#bdb0b2" d="M 306.082031 265.003906 L 300.332031 264.996094 L 60.769531 264.996094 L 56.292969 110.097656 L 310.519531 110.097656 L 306.082031 265.003906 " fill-opacity="1" fill-rule="nonzero"/><path fill="#f2f2f2" d="M 305.96875 264.996094 L 60.839844 264.996094 L 60.839844 59.761719 L 305.96875 59.761719 L 305.96875 264.996094 " fill-opacity="1" fill-rule="nonzero"/><path fill="#c1ba9c" d="M 194.117188 105.234375 L 177.542969 105.234375 L 177.542969 102.34375 L 194.117188 102.34375 L 194.117188 105.234375 " fill-opacity="1" fill-rule="nonzero"/><path fill="#c1ba9c" d="M 190.675781 106.886719 L 177.542969 106.886719 L 177.542969 106.601562 L 190.675781 106.601562 L 190.675781 106.886719 " fill-opacity="1" fill-rule="nonzero"/><path fill="#c1ba9c" d="M 185.832031 107.800781 L 177.542969 107.800781 L 177.542969 107.511719 L 185.832031 107.511719 L 185.832031 107.800781 " fill-opacity="1" fill-rule="nonzero"/><path fill="#c1ba9c" d="M 185.832031 108.714844 L 177.542969 108.714844 L 177.542969 108.425781 L 185.832031 108.425781 L 185.832031 108.714844 " fill-opacity="1" fill-rule="nonzero"/><path fill="#c1ba9c" d="M 174.066406 105.695312 L 153.964844 105.695312 L 153.964844 105.363281 L 174.066406 105.363281 L 174.066406 105.695312 " fill-opacity="1" fill-rule="nonzero"/><path fill="#c1ba9c" d="M 93.261719 120.359375 L 76.6875 120.359375 L 76.6875 117.472656 L 93.261719 117.472656 L 93.261719 120.359375 " fill-opacity="1" fill-rule="nonzero"/><path fill="#c1ba9c" d="M 89.820312 122.015625 L 76.6875 122.015625 L 76.6875 121.730469 L 89.820312 121.730469 L 89.820312 122.015625 " fill-opacity="1" fill-rule="nonzero"/><path fill="#c1ba9c" d="M 84.972656 122.929688 L 76.6875 122.929688 L 76.6875 122.640625 L 84.972656 122.640625 L 84.972656 122.929688 " fill-opacity="1" fill-rule="nonzero"/><path fill="#c1ba9c" d="M 84.972656 123.839844 L 76.6875 123.839844 L 76.6875 123.554688 L 84.972656 123.554688 L 84.972656 123.839844 " fill-opacity="1" fill-rule="nonzero"/><path fill="#c1ba9c" d="M 109.46875 120.820312 L 96.433594 120.820312 L 96.433594 120.492188 L 109.46875 120.492188 L 109.46875 120.820312 " fill-opacity="1" fill-rule="nonzero"/><path fill="#c1ba9c" d="M 88.21875 143.675781 L 71.648438 143.675781 L 71.648438 140.789062 L 88.21875 140.789062 L 88.21875 143.675781 " fill-opacity="1" fill-rule="nonzero"/><path fill="#c1ba9c" d="M 84.777344 145.332031 L 71.648438 145.332031 L 71.648438 145.046875 L 84.777344 145.046875 L 84.777344 145.332031 " fill-opacity="1" fill-rule="nonzero"/><path fill="#c1ba9c" d="M 79.933594 146.246094 L 71.648438 146.246094 L 71.648438 145.957031 L 79.933594 145.957031 L 79.933594 146.246094 " fill-opacity="1" fill-rule="nonzero"/><path fill="#c1ba9c" d="M 79.933594 147.15625 L 71.648438 147.15625 L 71.648438 146.867188 L 79.933594 146.867188 L 79.933594 147.15625 " fill-opacity="1" fill-rule="nonzero"/><path fill="#c1ba9c" d="M 109.46875 144.140625 L 91.390625 144.140625 L 91.390625 143.808594 L 109.46875 143.808594 L 109.46875 144.140625 " fill-opacity="1" fill-rule="nonzero"/><path fill="#c1ba9c" d="M 104.582031 163.976562 L 88.007812 163.976562 L 88.007812 161.085938 L 104.582031 161.085938 L 104.582031 163.976562 " fill-opacity="1" fill-rule="nonzero"/><path fill="#c1ba9c" d="M 101.140625 165.632812 L 88.007812 165.632812 L 88.007812 165.34375 L 101.140625 165.34375 L 101.140625 165.632812 " fill-opacity="1" fill-rule="nonzero"/><path fill="#c1ba9c" d="M 96.296875 166.542969 L 88.007812 166.542969 L 88.007812 166.253906 L 96.296875 166.253906 L 96.296875 166.542969 " fill-opacity="1" fill-rule="nonzero"/><path fill="#c1ba9c" d="M 96.296875 167.453125 L 88.007812 167.453125 L 88.007812 167.167969 L 96.296875 167.167969 L 96.296875 167.453125 " fill-opacity="1" fill-rule="nonzero"/><path fill="#c1ba9c" d="M 130.664062 164.4375 L 107.753906 164.4375 L 107.753906 164.105469 L 130.664062 164.105469 L 130.664062 164.4375 " fill-opacity="1" fill-rule="nonzero"/><path fill="#c1ba9c" d="M 194.117188 158.25 L 177.542969 158.25 L 177.542969 155.363281 L 194.117188 155.363281 L 194.117188 158.25 " fill-opacity="1" fill-rule="nonzero"/><path fill="#c1ba9c" d="M 190.675781 159.90625 L 177.542969 159.90625 L 177.542969 159.621094 L 190.675781 159.621094 L 190.675781 159.90625 " fill-opacity="1" fill-rule="nonzero"/><path fill="#c1ba9c" d="M 185.832031 160.820312 L 177.542969 160.820312 L 177.542969 160.53125 L 185.832031 160.53125 L 185.832031 160.820312 " fill-opacity="1" fill-rule="nonzero"/><path fill="#c1ba9c" d="M 185.832031 161.730469 L 177.542969 161.730469 L 177.542969 161.445312 L 185.832031 161.445312 L 185.832031 161.730469 " fill-opacity="1" fill-rule="nonzero"/><path fill="#c1ba9c" d="M 174.066406 158.714844 L 153.964844 158.714844 L 153.964844 158.382812 L 174.066406 158.382812 L 174.066406 158.714844 " fill-opacity="1" fill-rule="nonzero"/><path fill="#d3ca9f" d="M 139.148438 114.296875 L 139.148438 98.503906 C 128.976562 98.542969 119.8125 102.925781 113.410156 109.882812 L 124.59375 121.0625 C 128.121094 116.957031 133.332031 114.335938 139.148438 114.296875 " fill-opacity="1" fill-rule="nonzero"/><path fill="#243e40" d="M 124.589844 121.0625 L 113.40625 109.882812 C 107.648438 116.144531 104.125 124.488281 104.125 133.640625 C 104.125 133.683594 104.128906 133.726562 104.128906 133.773438 L 119.925781 133.773438 C 119.925781 133.726562 119.925781 133.683594 119.925781 133.640625 C 119.925781 128.839844 121.683594 124.449219 124.589844 121.0625 " fill-opacity="1" fill-rule="nonzero"/><path fill="#478a8d" d="M 119.925781 133.773438 L 104.128906 133.773438 C 104.167969 143.941406 108.550781 153.101562 115.511719 159.5 L 126.695312 148.320312 C 122.585938 144.796875 119.964844 139.585938 119.925781 133.773438 " fill-opacity="1" fill-rule="nonzero"/><path fill="#85babd" d="M 115.511719 159.5 C 121.742188 165.226562 130.039062 168.742188 139.144531 168.773438 L 139.144531 152.984375 C 134.394531 152.953125 130.050781 151.195312 126.695312 148.320312 L 115.511719 159.5 " fill-opacity="1" fill-rule="nonzero"/><path fill="#c5cca7" d="M 153.964844 121.0625 L 165.148438 109.882812 C 158.71875 102.890625 149.503906 98.5 139.277344 98.5 C 139.230469 98.5 139.1875 98.503906 139.144531 98.503906 L 139.144531 114.296875 C 139.1875 114.296875 139.230469 114.292969 139.277344 114.292969 C 145.148438 114.292969 150.410156 116.921875 153.964844 121.0625 " fill-opacity="1" fill-rule="nonzero"/><path fill="#344457" d="M 165.148438 109.882812 L 153.964844 121.0625 C 156.867188 124.449219 158.628906 128.839844 158.628906 133.640625 C 158.628906 133.683594 158.625 133.726562 158.625 133.773438 L 174.421875 133.773438 C 174.425781 133.726562 174.429688 133.683594 174.429688 133.640625 C 174.429688 124.488281 170.90625 116.144531 165.148438 109.882812 " fill-opacity="1" fill-rule="nonzero"/><path fill="#344457" d="M 174.335938 133.695312 L 158.539062 133.800781 C 158.539062 139.617188 155.953125 144.84375 151.867188 148.394531 L 163.125 159.5 C 170.046875 153.054688 174.367188 143.867188 174.335938 133.695312 " fill-opacity="1" fill-rule="nonzero"/><path fill="#344457" d="M 139.277344 152.984375 C 139.230469 152.984375 139.1875 152.984375 139.144531 152.984375 L 139.144531 168.773438 C 139.1875 168.773438 139.230469 168.777344 139.277344 168.777344 C 148.433594 168.777344 156.777344 165.257812 163.039062 159.5 L 151.855469 148.320312 C 148.46875 151.226562 144.074219 152.984375 139.277344 152.984375 " fill-opacity="1" fill-rule="nonzero"/><path fill="#d3ca9f" d="M 197.695312 235.964844 L 86.164062 235.964844 L 86.164062 235.3125 L 197.695312 235.3125 L 197.695312 235.964844 " fill-opacity="1" fill-rule="nonzero"/><path fill="#d3ca9f" d="M 197.695312 237.5 L 197.046875 237.5 L 197.046875 235.3125 L 197.695312 235.3125 L 197.695312 237.5 " fill-opacity="1" fill-rule="nonzero"/><path fill="#d3ca9f" d="M 86.816406 237.5 L 86.164062 237.5 L 86.164062 235.3125 L 86.816406 235.3125 L 86.816406 237.5 " fill-opacity="1" fill-rule="nonzero"/><path fill="#d3ca9f" d="M 142.257812 237.5 L 141.605469 237.5 L 141.605469 235.3125 L 142.257812 235.3125 L 142.257812 237.5 " fill-opacity="1" fill-rule="nonzero"/><path fill="#d3ca9f" d="M 114.535156 237.5 L 113.882812 237.5 L 113.882812 235.3125 L 114.535156 235.3125 L 114.535156 237.5 " fill-opacity="1" fill-rule="nonzero"/><path fill="#d3ca9f" d="M 169.976562 237.5 L 169.324219 237.5 L 169.324219 235.3125 L 169.976562 235.3125 L 169.976562 237.5 " fill-opacity="1" fill-rule="nonzero"/><path fill="#d3ca9f" d="M 86.164062 181.460938 L 86.164062 235.964844 L 86.816406 235.964844 L 86.816406 181.460938 L 86.164062 181.460938 " fill-opacity="1" fill-rule="nonzero"/><path fill="#d3ca9f" d="M 84.625 235.3125 L 84.625 235.964844 L 86.816406 235.964844 L 86.816406 235.3125 L 84.625 235.3125 " fill-opacity="1" fill-rule="nonzero"/><path fill="#d3ca9f" d="M 84.625 224.726562 L 84.625 225.378906 L 86.816406 225.378906 L 86.816406 224.726562 L 84.625 224.726562 " fill-opacity="1" fill-rule="nonzero"/><path fill="#d1d1cf" d="M 86.816406 224.726562 L 86.816406 225.378906 L 197.695312 225.378906 L 197.695312 224.726562 L 86.816406 224.726562 " fill-opacity="1" fill-rule="nonzero"/><path fill="#d3ca9f" d="M 84.625 213.910156 L 84.625 214.558594 L 86.816406 214.558594 L 86.816406 213.910156 L 84.625 213.910156 " fill-opacity="1" fill-rule="nonzero"/><path fill="#d1d1cf" d="M 86.816406 213.910156 L 86.816406 214.558594 L 197.695312 214.558594 L 197.695312 213.910156 L 86.816406 213.910156 " fill-opacity="1" fill-rule="nonzero"/><path fill="#d3ca9f" d="M 84.625 203.09375 L 84.625 203.746094 L 86.816406 203.746094 L 86.816406 203.09375 L 84.625 203.09375 " fill-opacity="1" fill-rule="nonzero"/><path fill="#d1d1cf" d="M 86.816406 203.09375 L 86.816406 203.746094 L 197.695312 203.746094 L 197.695312 203.09375 L 86.816406 203.09375 " fill-opacity="1" fill-rule="nonzero"/><path fill="#d3ca9f" d="M 84.625 192.277344 L 84.625 192.929688 L 86.816406 192.929688 L 86.816406 192.277344 L 84.625 192.277344 " fill-opacity="1" fill-rule="nonzero"/><path fill="#d1d1cf" d="M 86.816406 192.277344 L 86.816406 192.929688 L 197.695312 192.929688 L 197.695312 192.277344 L 86.816406 192.277344 " fill-opacity="1" fill-rule="nonzero"/><path fill="#d3ca9f" d="M 84.625 181.460938 L 84.625 182.113281 L 86.816406 182.113281 L 86.816406 181.460938 L 84.625 181.460938 " fill-opacity="1" fill-rule="nonzero"/><path fill="#c1ba9c" d="M 73.070312 194.003906 L 83.15625 194.003906 L 83.15625 191.566406 L 73.070312 191.566406 L 73.070312 194.003906 " fill-opacity="1" fill-rule="nonzero"/><path fill="#c1ba9c" d="M 75.164062 195.402344 L 83.15625 195.402344 L 83.15625 195.160156 L 75.164062 195.160156 L 75.164062 195.402344 " fill-opacity="1" fill-rule="nonzero"/><path fill="#c1ba9c" d="M 78.113281 196.175781 L 83.15625 196.175781 L 83.15625 195.929688 L 78.113281 195.929688 L 78.113281 196.175781 " fill-opacity="1" fill-rule="nonzero"/><path fill="#c1ba9c" d="M 78.113281 196.945312 L 83.15625 196.945312 L 83.15625 196.703125 L 78.113281 196.703125 L 78.113281 196.945312 " fill-opacity="1" fill-rule="nonzero"/><path fill="#c1ba9c" d="M 73.070312 204.585938 L 83.15625 204.585938 L 83.15625 202.148438 L 73.070312 202.148438 L 73.070312 204.585938 " fill-opacity="1" fill-rule="nonzero"/><path fill="#c1ba9c" d="M 75.164062 205.984375 L 83.15625 205.984375 L 83.15625 205.742188 L 75.164062 205.742188 L 75.164062 205.984375 " fill-opacity="1" fill-rule="nonzero"/><path fill="#c1ba9c" d="M 78.113281 206.757812 L 83.15625 206.757812 L 83.15625 206.511719 L 78.113281 206.511719 L 78.113281 206.757812 " fill-opacity="1" fill-rule="nonzero"/><path fill="#c1ba9c" d="M 78.113281 207.527344 L 83.15625 207.527344 L 83.15625 207.285156 L 78.113281 207.285156 L 78.113281 207.527344 " fill-opacity="1" fill-rule="nonzero"/><path fill="#c1ba9c" d="M 73.070312 215.230469 L 83.15625 215.230469 L 83.15625 212.789062 L 73.070312 212.789062 L 73.070312 215.230469 " fill-opacity="1" fill-rule="nonzero"/><path fill="#c1ba9c" d="M 75.164062 216.628906 L 83.15625 216.628906 L 83.15625 216.386719 L 75.164062 216.386719 L 75.164062 216.628906 " fill-opacity="1" fill-rule="nonzero"/><path fill="#c1ba9c" d="M 78.113281 217.398438 L 83.15625 217.398438 L 83.15625 217.15625 L 78.113281 217.15625 L 78.113281 217.398438 " fill-opacity="1" fill-rule="nonzero"/><path fill="#c1ba9c" d="M 78.113281 218.167969 L 83.15625 218.167969 L 83.15625 217.925781 L 78.113281 217.925781 L 78.113281 218.167969 " fill-opacity="1" fill-rule="nonzero"/><path fill="#c1ba9c" d="M 73.070312 226.453125 L 83.15625 226.453125 L 83.15625 224.011719 L 73.070312 224.011719 L 73.070312 226.453125 " fill-opacity="1" fill-rule="nonzero"/><path fill="#c1ba9c" d="M 75.164062 227.851562 L 83.15625 227.851562 L 83.15625 227.605469 L 75.164062 227.605469 L 75.164062 227.851562 " fill-opacity="1" fill-rule="nonzero"/><path fill="#c1ba9c" d="M 78.113281 228.621094 L 83.15625 228.621094 L 83.15625 228.378906 L 78.113281 228.378906 L 78.113281 228.621094 " fill-opacity="1" fill-rule="nonzero"/><path fill="#c1ba9c" d="M 78.113281 229.390625 L 83.15625 229.390625 L 83.15625 229.148438 L 78.113281 229.148438 L 78.113281 229.390625 " fill-opacity="1" fill-rule="nonzero"/><path fill="#344457" d="M 87.203125 235.664062 L 86.425781 234.960938 L 102.445312 217.339844 C 109.394531 209.722656 120.828125 208.09375 129.628906 213.464844 C 137.152344 218.058594 146.746094 217.339844 153.503906 211.679688 L 158.492188 207.5 C 161.867188 204.671875 165.964844 202.964844 170.347656 202.554688 C 174.730469 202.148438 179.074219 203.070312 182.914062 205.226562 L 197.628906 213.488281 L 197.113281 214.40625 L 182.398438 206.144531 C 175.003906 201.988281 165.667969 202.859375 159.167969 208.304688 L 154.179688 212.484375 C 150.195312 215.820312 145.273438 217.523438 140.320312 217.527344 C 136.445312 217.527344 132.554688 216.484375 129.082031 214.363281 C 120.707031 209.25 109.832031 210.800781 103.222656 218.046875 L 87.203125 235.664062 " fill-opacity="1" fill-rule="nonzero"/><path fill="#478a8d" d="M 87.277344 235.664062 L 86.625 234.839844 L 100.230469 224.050781 C 108.882812 217.1875 120.632812 215.453125 130.902344 219.527344 C 137.890625 222.296875 145.613281 222.34375 152.636719 219.65625 L 161.207031 216.371094 C 167.007812 214.152344 173.273438 213.722656 179.324219 215.132812 L 197.300781 219.328125 L 197.0625 220.351562 L 179.082031 216.15625 C 173.238281 214.792969 167.1875 215.207031 161.582031 217.355469 L 153.011719 220.636719 C 145.742188 223.417969 137.75 223.371094 130.511719 220.503906 C 120.59375 216.570312 109.242188 218.242188 100.882812 224.871094 L 87.277344 235.664062 " fill-opacity="1" fill-rule="nonzero"/><path fill="#85babd" d="M 87.253906 235.601562 L 86.375 235.023438 L 104.324219 207.71875 L 104.34375 207.695312 C 106.835938 204.675781 110.515625 202.980469 114.425781 203.042969 C 118.34375 203.101562 121.960938 204.914062 124.359375 208.011719 L 137.753906 225.320312 C 138.761719 226.621094 140.28125 227.332031 141.925781 227.273438 C 143.570312 227.210938 145.035156 226.390625 145.941406 225.015625 L 162.558594 199.921875 C 164.234375 197.390625 167.042969 195.851562 170.078125 195.800781 C 173.113281 195.746094 175.976562 197.195312 177.734375 199.667969 L 197.472656 227.425781 L 196.617188 228.035156 L 176.878906 200.277344 C 175.296875 198.054688 172.824219 196.808594 170.097656 196.851562 C 167.367188 196.894531 164.941406 198.226562 163.433594 200.5 L 146.820312 225.597656 C 145.722656 227.253906 143.953125 228.25 141.964844 228.320312 C 139.976562 228.394531 138.140625 227.535156 136.921875 225.960938 L 123.527344 208.652344 C 121.328125 205.8125 118.003906 204.148438 114.410156 204.09375 C 110.828125 204.03125 107.460938 205.585938 105.171875 208.34375 L 87.253906 235.601562 " fill-opacity="1" fill-rule="nonzero"/><path fill="#c5cca7" d="M 87.066406 235.765625 L 86.835938 234.742188 L 107.375 230.117188 C 111.820312 229.445312 115.9375 227.238281 118.960938 223.910156 L 126.679688 215.402344 C 130.574219 211.105469 135.914062 208.703125 141.714844 208.632812 C 147.515625 208.5625 152.910156 210.832031 156.914062 215.03125 C 164.078125 222.542969 175.882812 223.160156 183.792969 216.433594 L 196.839844 205.34375 L 197.519531 206.144531 L 184.472656 217.234375 C 176.140625 224.320312 163.699219 223.667969 156.152344 215.753906 C 152.355469 211.769531 147.230469 209.613281 141.726562 209.683594 C 136.222656 209.75 131.15625 212.03125 127.457031 216.109375 L 119.738281 224.613281 C 116.558594 228.121094 112.230469 230.441406 107.550781 231.152344 L 87.066406 235.765625 " fill-opacity="1" fill-rule="nonzero"/><path fill="#d3ca9f" d="M 214.847656 103.070312 L 214.847656 99.964844 C 212.84375 99.972656 211.039062 100.832031 209.78125 102.203125 L 211.980469 104.402344 C 212.675781 103.597656 213.703125 103.082031 214.847656 103.070312 " fill-opacity="1" fill-rule="nonzero"/><path fill="#d3ca9f" d="M 211.980469 104.402344 L 209.78125 102.203125 C 208.648438 103.433594 207.953125 105.078125 207.953125 106.878906 L 207.953125 106.90625 L 211.0625 106.90625 L 211.0625 106.878906 C 211.0625 105.933594 211.410156 105.070312 211.980469 104.402344 " fill-opacity="1" fill-rule="nonzero"/><path fill="#d3ca9f" d="M 211.0625 106.90625 L 207.953125 106.90625 C 207.960938 108.90625 208.824219 110.710938 210.195312 111.972656 L 212.398438 109.769531 C 211.585938 109.078125 211.070312 108.050781 211.0625 106.90625 " fill-opacity="1" fill-rule="nonzero"/><path fill="#d3ca9f" d="M 210.195312 111.972656 C 211.421875 113.097656 213.054688 113.789062 214.847656 113.796875 L 214.847656 110.6875 C 213.914062 110.679688 213.054688 110.335938 212.398438 109.769531 L 210.195312 111.972656 " fill-opacity="1" fill-rule="nonzero"/><path fill="#c5cca7" d="M 217.765625 104.402344 L 219.964844 102.203125 C 218.699219 100.828125 216.886719 99.964844 214.875 99.964844 L 214.847656 99.964844 L 214.847656 103.070312 L 214.875 103.070312 C 216.027344 103.070312 217.066406 103.589844 217.765625 104.402344 " fill-opacity="1" fill-rule="nonzero"/><path fill="#c5cca7" d="M 219.964844 102.203125 L 217.765625 104.402344 C 218.335938 105.070312 218.683594 105.933594 218.683594 106.878906 L 218.683594 106.90625 L 221.792969 106.90625 L 221.792969 106.878906 C 221.792969 105.078125 221.097656 103.433594 219.964844 102.203125 " fill-opacity="1" fill-rule="nonzero"/><path fill="#d3ca9f" d="M 221.773438 106.890625 L 218.664062 106.910156 C 218.664062 108.058594 218.15625 109.085938 217.351562 109.785156 L 219.566406 111.972656 C 220.929688 110.703125 221.78125 108.894531 221.773438 106.890625 " fill-opacity="1" fill-rule="nonzero"/><path fill="#d3ca9f" d="M 214.875 110.6875 L 214.847656 110.6875 L 214.847656 113.796875 L 214.875 113.796875 C 216.675781 113.796875 218.316406 113.105469 219.550781 111.972656 L 217.347656 109.769531 C 216.683594 110.34375 215.816406 110.6875 214.875 110.6875 " fill-opacity="1" fill-rule="nonzero"/><path fill="#d3ca9f" d="M 231.847656 103.070312 L 231.847656 99.964844 C 229.84375 99.972656 228.042969 100.832031 226.78125 102.203125 L 228.984375 104.402344 C 229.675781 103.597656 230.703125 103.082031 231.847656 103.070312 " fill-opacity="1" fill-rule="nonzero"/><path fill="#d3ca9f" d="M 228.984375 104.402344 L 226.78125 102.203125 C 225.648438 103.433594 224.953125 105.078125 224.953125 106.878906 L 224.953125 106.90625 L 228.066406 106.90625 L 228.0625 106.878906 C 228.0625 105.933594 228.410156 105.070312 228.984375 104.402344 " fill-opacity="1" fill-rule="nonzero"/><path fill="#d3ca9f" d="M 228.066406 106.90625 L 224.953125 106.90625 C 224.960938 108.90625 225.824219 110.710938 227.195312 111.972656 L 229.398438 109.769531 C 228.589844 109.078125 228.070312 108.050781 228.066406 106.90625 " fill-opacity="1" fill-rule="nonzero"/><path fill="#d3ca9f" d="M 227.195312 111.972656 C 228.421875 113.097656 230.054688 113.789062 231.847656 113.796875 L 231.847656 110.6875 C 230.914062 110.679688 230.058594 110.335938 229.398438 109.769531 L 227.195312 111.972656 " fill-opacity="1" fill-rule="nonzero"/><path fill="#344457" d="M 234.765625 104.402344 L 236.964844 102.203125 C 235.699219 100.828125 233.886719 99.964844 231.875 99.964844 L 231.847656 99.964844 L 231.847656 103.070312 L 231.875 103.070312 C 233.03125 103.070312 234.066406 103.589844 234.765625 104.402344 " fill-opacity="1" fill-rule="nonzero"/><path fill="#344457" d="M 236.964844 102.203125 L 234.765625 104.402344 C 235.335938 105.070312 235.683594 105.933594 235.683594 106.878906 L 235.683594 106.90625 L 238.792969 106.90625 L 238.792969 106.878906 C 238.792969 105.078125 238.101562 103.433594 236.964844 102.203125 " fill-opacity="1" fill-rule="nonzero"/><path fill="#344457" d="M 238.777344 106.890625 L 235.664062 106.910156 C 235.664062 108.058594 235.15625 109.085938 234.351562 109.785156 L 236.566406 111.972656 C 237.929688 110.703125 238.78125 108.894531 238.777344 106.890625 " fill-opacity="1" fill-rule="nonzero"/><path fill="#344457" d="M 231.875 110.6875 L 231.847656 110.6875 L 231.847656 113.796875 L 231.875 113.796875 C 233.675781 113.796875 235.320312 113.105469 236.550781 111.972656 L 234.347656 109.769531 C 233.683594 110.34375 232.816406 110.6875 231.875 110.6875 " fill-opacity="1" fill-rule="nonzero"/><path fill="#d3ca9f" d="M 248.847656 103.070312 L 248.847656 99.964844 C 246.847656 99.972656 245.042969 100.832031 243.78125 102.203125 L 245.984375 104.402344 C 246.675781 103.597656 247.703125 103.082031 248.847656 103.070312 " fill-opacity="1" fill-rule="nonzero"/><path fill="#d3ca9f" d="M 245.984375 104.402344 L 243.78125 102.203125 C 242.648438 103.433594 241.953125 105.078125 241.953125 106.878906 L 241.953125 106.90625 L 245.066406 106.90625 L 245.066406 106.878906 C 245.066406 105.933594 245.410156 105.070312 245.984375 104.402344 " fill-opacity="1" fill-rule="nonzero"/><path fill="#85babd" d="M 245.066406 106.90625 L 241.953125 106.90625 C 241.964844 108.90625 242.824219 110.710938 244.195312 111.972656 L 246.398438 109.769531 C 245.589844 109.078125 245.074219 108.050781 245.066406 106.90625 " fill-opacity="1" fill-rule="nonzero"/><path fill="#85babd" d="M 244.195312 111.972656 C 245.421875 113.097656 247.058594 113.789062 248.847656 113.796875 L 248.847656 110.6875 C 247.914062 110.679688 247.058594 110.335938 246.398438 109.769531 L 244.195312 111.972656 " fill-opacity="1" fill-rule="nonzero"/><path fill="#85babd" d="M 251.765625 104.402344 L 253.96875 102.203125 C 252.703125 100.828125 250.886719 99.964844 248.875 99.964844 L 248.847656 99.964844 L 248.847656 103.070312 L 248.875 103.070312 C 250.03125 103.070312 251.066406 103.589844 251.765625 104.402344 " fill-opacity="1" fill-rule="nonzero"/><path fill="#85babd" d="M 253.96875 102.203125 L 251.765625 104.402344 C 252.335938 105.070312 252.683594 105.933594 252.683594 106.878906 L 252.683594 106.90625 L 255.792969 106.90625 L 255.792969 106.878906 C 255.792969 105.078125 255.101562 103.433594 253.96875 102.203125 " fill-opacity="1" fill-rule="nonzero"/><path fill="#85babd" d="M 255.777344 106.890625 L 252.667969 106.910156 C 252.667969 108.058594 252.15625 109.085938 251.355469 109.785156 L 253.570312 111.972656 C 254.929688 110.703125 255.78125 108.894531 255.777344 106.890625 " fill-opacity="1" fill-rule="nonzero"/><path fill="#85babd" d="M 248.875 110.6875 L 248.847656 110.6875 L 248.847656 113.796875 L 248.875 113.796875 C 250.679688 113.796875 252.320312 113.105469 253.554688 111.972656 L 251.351562 109.769531 C 250.683594 110.34375 249.820312 110.6875 248.875 110.6875 " fill-opacity="1" fill-rule="nonzero"/><path fill="#d3ca9f" d="M 265.847656 103.070312 L 265.847656 99.964844 C 263.847656 99.972656 262.042969 100.832031 260.78125 102.203125 L 262.984375 104.402344 C 263.679688 103.597656 264.703125 103.082031 265.847656 103.070312 " fill-opacity="1" fill-rule="nonzero"/><path fill="#478a8d" d="M 262.984375 104.402344 L 260.78125 102.203125 C 259.648438 103.433594 258.957031 105.078125 258.957031 106.878906 L 258.957031 106.90625 L 262.066406 106.90625 L 262.066406 106.878906 C 262.066406 105.933594 262.414062 105.070312 262.984375 104.402344 " fill-opacity="1" fill-rule="nonzero"/><path fill="#478a8d" d="M 262.066406 106.90625 L 258.957031 106.90625 C 258.964844 108.90625 259.824219 110.710938 261.195312 111.972656 L 263.398438 109.769531 C 262.589844 109.078125 262.074219 108.050781 262.066406 106.90625 " fill-opacity="1" fill-rule="nonzero"/><path fill="#478a8d" d="M 261.195312 111.972656 C 262.425781 113.097656 264.058594 113.789062 265.847656 113.796875 L 265.847656 110.6875 C 264.914062 110.679688 264.058594 110.335938 263.398438 109.769531 L 261.195312 111.972656 " fill-opacity="1" fill-rule="nonzero"/><path fill="#478a8d" d="M 268.765625 104.402344 L 270.96875 102.203125 C 269.703125 100.828125 267.886719 99.964844 265.875 99.964844 L 265.847656 99.964844 L 265.847656 103.070312 L 265.875 103.070312 C 267.03125 103.070312 268.066406 103.589844 268.765625 104.402344 " fill-opacity="1" fill-rule="nonzero"/><path fill="#478a8d" d="M 270.96875 102.203125 L 268.765625 104.402344 C 269.335938 105.070312 269.683594 105.933594 269.683594 106.878906 L 269.683594 106.90625 L 272.792969 106.90625 L 272.792969 106.878906 C 272.792969 105.078125 272.101562 103.433594 270.96875 102.203125 " fill-opacity="1" fill-rule="nonzero"/><path fill="#478a8d" d="M 272.777344 106.890625 L 269.667969 106.910156 C 269.667969 108.058594 269.15625 109.085938 268.355469 109.785156 L 270.570312 111.972656 C 271.933594 110.703125 272.785156 108.894531 272.777344 106.890625 " fill-opacity="1" fill-rule="nonzero"/><path fill="#478a8d" d="M 265.875 110.6875 L 265.847656 110.6875 L 265.847656 113.796875 L 265.875 113.796875 C 267.679688 113.796875 269.320312 113.105469 270.550781 111.972656 L 268.351562 109.769531 C 267.683594 110.34375 266.820312 110.6875 265.875 110.6875 " fill-opacity="1" fill-rule="nonzero"/><path fill="#d3ca9f" d="M 214.847656 119.757812 L 214.847656 116.648438 C 212.84375 116.65625 211.039062 117.519531 209.78125 118.886719 L 211.980469 121.089844 C 212.675781 120.28125 213.703125 119.765625 214.847656 119.757812 " fill-opacity="1" fill-rule="nonzero"/><path fill="#d3ca9f" d="M 211.980469 121.089844 L 209.78125 118.886719 C 208.648438 120.121094 207.953125 121.761719 207.953125 123.5625 L 207.953125 123.589844 L 211.0625 123.589844 L 211.0625 123.5625 C 211.0625 122.621094 211.410156 121.753906 211.980469 121.089844 " fill-opacity="1" fill-rule="nonzero"/><path fill="#478a8d" d="M 211.0625 123.589844 L 207.953125 123.589844 C 207.960938 125.59375 208.824219 127.394531 210.195312 128.65625 L 212.398438 126.453125 C 211.585938 125.761719 211.070312 124.734375 211.0625 123.589844 " fill-opacity="1" fill-rule="nonzero"/><path fill="#85babd" d="M 210.195312 128.65625 C 211.421875 129.78125 213.054688 130.472656 214.847656 130.480469 L 214.847656 127.371094 C 213.914062 127.367188 213.054688 127.019531 212.398438 126.453125 L 210.195312 128.65625 " fill-opacity="1" fill-rule="nonzero"/><path fill="#c5cca7" d="M 217.765625 121.089844 L 219.964844 118.886719 C 218.699219 117.511719 216.886719 116.644531 214.875 116.644531 L 214.847656 116.648438 L 214.847656 119.757812 L 214.875 119.757812 C 216.027344 119.757812 217.066406 120.273438 217.765625 121.089844 " fill-opacity="1" fill-rule="nonzero"/><path fill="#c5cca7" d="M 219.964844 118.886719 L 217.765625 121.089844 C 218.335938 121.753906 218.683594 122.621094 218.683594 123.5625 L 218.683594 123.589844 L 221.792969 123.589844 L 221.792969 123.5625 C 221.792969 121.761719 221.097656 120.121094 219.964844 118.886719 " fill-opacity="1" fill-rule="nonzero"/><path fill="#344457" d="M 221.773438 123.574219 L 218.664062 123.597656 C 218.664062 124.742188 218.15625 125.769531 217.351562 126.46875 L 219.566406 128.65625 C 220.929688 127.386719 221.78125 125.578125 221.773438 123.574219 " fill-opacity="1" fill-rule="nonzero"/><path fill="#85babd" d="M 214.875 127.371094 L 214.847656 127.371094 L 214.847656 130.480469 L 214.875 130.480469 C 216.675781 130.480469 218.316406 129.789062 219.550781 128.65625 L 217.347656 126.453125 C 216.683594 127.027344 215.816406 127.371094 214.875 127.371094 " fill-opacity="1" fill-rule="nonzero"/><path fill="#d3ca9f" d="M 231.847656 119.757812 L 231.847656 116.648438 C 229.84375 116.65625 228.042969 117.519531 226.78125 118.886719 L 228.984375 121.089844 C 229.679688 120.28125 230.703125 119.765625 231.847656 119.757812 " fill-opacity="1" fill-rule="nonzero"/><path fill="#d3ca9f" d="M 228.984375 121.089844 L 226.78125 118.886719 C 225.648438 120.121094 224.953125 121.761719 224.953125 123.5625 L 224.957031 123.589844 L 228.066406 123.589844 L 228.066406 123.5625 C 228.066406 122.621094 228.410156 121.753906 228.984375 121.089844 " fill-opacity="1" fill-rule="nonzero"/><path fill="#85babd" d="M 228.066406 123.589844 L 224.953125 123.589844 C 224.960938 125.59375 225.824219 127.394531 227.195312 128.65625 L 229.398438 126.453125 C 228.589844 125.761719 228.070312 124.734375 228.066406 123.589844 " fill-opacity="1" fill-rule="nonzero"/><path fill="#85babd" d="M 227.195312 128.65625 C 228.421875 129.78125 230.054688 130.472656 231.847656 130.480469 L 231.847656 127.371094 C 230.914062 127.367188 230.058594 127.019531 229.398438 126.453125 L 227.195312 128.65625 " fill-opacity="1" fill-rule="nonzero"/><path fill="#c5cca7" d="M 234.765625 121.089844 L 236.964844 118.886719 C 235.699219 117.511719 233.886719 116.644531 231.875 116.644531 L 231.847656 116.648438 L 231.847656 119.757812 L 231.875 119.757812 C 233.03125 119.757812 234.066406 120.273438 234.765625 121.089844 " fill-opacity="1" fill-rule="nonzero"/><path fill="#344457" d="M 236.964844 118.886719 L 234.765625 121.089844 C 235.335938 121.753906 235.683594 122.621094 235.683594 123.5625 L 235.683594 123.589844 L 238.792969 123.589844 L 238.792969 123.5625 C 238.792969 121.761719 238.101562 120.121094 236.964844 118.886719 " fill-opacity="1" fill-rule="nonzero"/><path fill="#344457" d="M 238.777344 123.574219 L 235.664062 123.597656 C 235.664062 124.742188 235.15625 125.769531 234.351562 126.46875 L 236.566406 128.65625 C 237.929688 127.386719 238.78125 125.578125 238.777344 123.574219 " fill-opacity="1" fill-rule="nonzero"/><path fill="#85babd" d="M 231.875 127.371094 L 231.847656 127.371094 L 231.847656 130.480469 L 231.875 130.480469 C 233.675781 130.480469 235.320312 129.789062 236.550781 128.65625 L 234.347656 126.453125 C 233.683594 127.027344 232.816406 127.371094 231.875 127.371094 " fill-opacity="1" fill-rule="nonzero"/><path fill="#d3ca9f" d="M 248.851562 119.757812 L 248.851562 116.648438 C 246.847656 116.65625 245.042969 117.519531 243.78125 118.886719 L 245.984375 121.089844 C 246.679688 120.28125 247.703125 119.765625 248.851562 119.757812 " fill-opacity="1" fill-rule="nonzero"/><path fill="#85babd" d="M 245.984375 121.089844 L 243.78125 118.886719 C 242.648438 120.121094 241.953125 121.761719 241.953125 123.5625 L 241.953125 123.589844 L 245.066406 123.589844 L 245.066406 123.5625 C 245.066406 122.621094 245.410156 121.753906 245.984375 121.089844 " fill-opacity="1" fill-rule="nonzero"/><path fill="#344457" d="M 245.066406 123.589844 L 241.953125 123.589844 C 241.964844 125.59375 242.824219 127.394531 244.195312 128.65625 L 246.398438 126.453125 C 245.589844 125.761719 245.074219 124.734375 245.066406 123.589844 " fill-opacity="1" fill-rule="nonzero"/><path fill="#344457" d="M 244.195312 128.65625 C 245.421875 129.78125 247.058594 130.472656 248.847656 130.480469 L 248.847656 127.371094 C 247.914062 127.367188 247.058594 127.019531 246.398438 126.453125 L 244.195312 128.65625 " fill-opacity="1" fill-rule="nonzero"/><path fill="#c5cca7" d="M 251.765625 121.089844 L 253.96875 118.886719 C 252.703125 117.511719 250.886719 116.644531 248.875 116.644531 L 248.847656 116.648438 L 248.847656 119.757812 L 248.875 119.757812 C 250.03125 119.757812 251.066406 120.273438 251.765625 121.089844 " fill-opacity="1" fill-rule="nonzero"/><path fill="#c5cca7" d="M 253.96875 118.886719 L 251.765625 121.089844 C 252.335938 121.753906 252.683594 122.621094 252.683594 123.5625 L 252.683594 123.589844 L 255.792969 123.589844 L 255.792969 123.5625 C 255.792969 121.761719 255.101562 120.121094 253.96875 118.886719 " fill-opacity="1" fill-rule="nonzero"/><path fill="#c5cca7" d="M 255.777344 123.574219 L 252.667969 123.597656 C 252.667969 124.742188 252.15625 125.769531 251.355469 126.46875 L 253.570312 128.65625 C 254.929688 127.386719 255.78125 125.578125 255.777344 123.574219 " fill-opacity="1" fill-rule="nonzero"/><path fill="#c5cca7" d="M 248.875 127.371094 L 248.847656 127.371094 L 248.847656 130.480469 L 248.875 130.480469 C 250.679688 130.480469 252.320312 129.789062 253.554688 128.65625 L 251.351562 126.453125 C 250.683594 127.027344 249.820312 127.371094 248.875 127.371094 " fill-opacity="1" fill-rule="nonzero"/><path fill="#d3ca9f" d="M 265.847656 119.757812 L 265.847656 116.648438 C 263.847656 116.65625 262.042969 117.519531 260.78125 118.886719 L 262.984375 121.089844 C 263.679688 120.28125 264.703125 119.765625 265.847656 119.757812 " fill-opacity="1" fill-rule="nonzero"/><path fill="#243e40" d="M 262.984375 121.089844 L 260.78125 118.886719 C 259.648438 120.121094 258.957031 121.761719 258.957031 123.5625 L 258.957031 123.589844 L 262.066406 123.589844 L 262.066406 123.5625 C 262.066406 122.621094 262.414062 121.753906 262.984375 121.089844 " fill-opacity="1" fill-rule="nonzero"/><path fill="#478a8d" d="M 262.066406 123.589844 L 258.957031 123.589844 C 258.964844 125.59375 259.824219 127.394531 261.195312 128.65625 L 263.398438 126.453125 C 262.589844 125.761719 262.074219 124.734375 262.066406 123.589844 " fill-opacity="1" fill-rule="nonzero"/><path fill="#85babd" d="M 261.195312 128.65625 C 262.425781 129.78125 264.058594 130.472656 265.847656 130.480469 L 265.847656 127.371094 C 264.914062 127.367188 264.058594 127.019531 263.398438 126.453125 L 261.195312 128.65625 " fill-opacity="1" fill-rule="nonzero"/><path fill="#c5cca7" d="M 268.765625 121.089844 L 270.96875 118.886719 C 269.703125 117.511719 267.886719 116.644531 265.875 116.644531 L 265.847656 116.648438 L 265.847656 119.757812 L 265.875 119.757812 C 267.03125 119.757812 268.066406 120.273438 268.765625 121.089844 " fill-opacity="1" fill-rule="nonzero"/><path fill="#344457" d="M 270.96875 118.886719 L 268.765625 121.089844 C 269.335938 121.753906 269.683594 122.621094 269.683594 123.5625 L 269.683594 123.589844 L 272.792969 123.589844 L 272.792969 123.5625 C 272.792969 121.761719 272.101562 120.121094 270.96875 118.886719 " fill-opacity="1" fill-rule="nonzero"/><path fill="#344457" d="M 272.777344 123.574219 L 269.667969 123.597656 C 269.667969 124.742188 269.15625 125.769531 268.355469 126.46875 L 270.570312 128.65625 C 271.933594 127.386719 272.785156 125.578125 272.777344 123.574219 " fill-opacity="1" fill-rule="nonzero"/><path fill="#344457" d="M 265.875 127.371094 L 265.847656 127.371094 L 265.847656 130.480469 L 265.875 130.480469 C 267.679688 130.480469 269.320312 129.789062 270.550781 128.65625 L 268.351562 126.453125 C 267.683594 127.027344 266.820312 127.371094 265.875 127.371094 " fill-opacity="1" fill-rule="nonzero"/><path fill="#c1ba9c" d="M 292.300781 102.710938 L 276.734375 102.710938 L 276.734375 100 L 292.300781 100 L 292.300781 102.710938 " fill-opacity="1" fill-rule="nonzero"/><path fill="#c1ba9c" d="M 289.066406 104.265625 L 276.734375 104.265625 L 276.734375 103.996094 L 289.066406 103.996094 L 289.066406 104.265625 " fill-opacity="1" fill-rule="nonzero"/><path fill="#c1ba9c" d="M 284.519531 105.125 L 276.734375 105.125 L 276.734375 104.851562 L 284.519531 104.851562 L 284.519531 105.125 " fill-opacity="1" fill-rule="nonzero"/><path fill="#c1ba9c" d="M 284.519531 105.980469 L 276.734375 105.980469 L 276.734375 105.707031 L 284.519531 105.707031 L 284.519531 105.980469 " fill-opacity="1" fill-rule="nonzero"/><path fill="#c1ba9c" d="M 292.335938 110.527344 L 276.773438 110.527344 L 276.773438 107.816406 L 292.335938 107.816406 L 292.335938 110.527344 " fill-opacity="1" fill-rule="nonzero"/><path fill="#c1ba9c" d="M 289.105469 112.082031 L 276.773438 112.082031 L 276.773438 111.8125 L 289.105469 111.8125 L 289.105469 112.082031 " fill-opacity="1" fill-rule="nonzero"/><path fill="#c1ba9c" d="M 284.554688 112.941406 L 276.773438 112.941406 L 276.773438 112.667969 L 284.554688 112.667969 L 284.554688 112.941406 " fill-opacity="1" fill-rule="nonzero"/><path fill="#c1ba9c" d="M 284.554688 113.796875 L 276.773438 113.796875 L 276.773438 113.527344 L 284.554688 113.527344 L 284.554688 113.796875 " fill-opacity="1" fill-rule="nonzero"/><path fill="#c1ba9c" d="M 292.300781 119.390625 L 276.734375 119.390625 L 276.734375 116.675781 L 292.300781 116.675781 L 292.300781 119.390625 " fill-opacity="1" fill-rule="nonzero"/><path fill="#c1ba9c" d="M 289.066406 120.945312 L 276.734375 120.945312 L 276.734375 120.675781 L 289.066406 120.675781 L 289.066406 120.945312 " fill-opacity="1" fill-rule="nonzero"/><path fill="#c1ba9c" d="M 284.519531 121.800781 L 276.734375 121.800781 L 276.734375 121.53125 L 284.519531 121.53125 L 284.519531 121.800781 " fill-opacity="1" fill-rule="nonzero"/><path fill="#c1ba9c" d="M 284.519531 122.65625 L 276.734375 122.65625 L 276.734375 122.386719 L 284.519531 122.386719 L 284.519531 122.65625 " fill-opacity="1" fill-rule="nonzero"/><path fill="#c1ba9c" d="M 292.335938 127.207031 L 276.773438 127.207031 L 276.773438 124.492188 L 292.335938 124.492188 L 292.335938 127.207031 " fill-opacity="1" fill-rule="nonzero"/><path fill="#c1ba9c" d="M 289.105469 128.757812 L 276.773438 128.757812 L 276.773438 128.492188 L 289.105469 128.492188 L 289.105469 128.757812 " fill-opacity="1" fill-rule="nonzero"/><path fill="#c1ba9c" d="M 284.554688 129.617188 L 276.773438 129.617188 L 276.773438 129.347656 L 284.554688 129.347656 L 284.554688 129.617188 " fill-opacity="1" fill-rule="nonzero"/><path fill="#c1ba9c" d="M 284.554688 130.472656 L 276.773438 130.472656 L 276.773438 130.203125 L 284.554688 130.203125 L 284.554688 130.472656 " fill-opacity="1" fill-rule="nonzero"/><path fill="#c5cca7" d="M 232.328125 145.234375 L 209.617188 145.234375 L 209.617188 142.097656 L 232.328125 142.097656 L 232.328125 145.234375 " fill-opacity="1" fill-rule="nonzero"/><path fill="#344457" d="M 245.25 145.234375 L 232.328125 145.234375 L 232.328125 142.097656 L 245.25 142.097656 L 245.25 145.234375 " fill-opacity="1" fill-rule="nonzero"/><path fill="#85babd" d="M 260.617188 145.234375 L 245.25 145.234375 L 245.25 142.097656 L 260.617188 142.097656 L 260.617188 145.234375 " fill-opacity="1" fill-rule="nonzero"/><path fill="#478a8d" d="M 274.40625 145.234375 L 260.589844 145.234375 L 260.589844 142.097656 L 274.40625 142.097656 L 274.40625 145.234375 " fill-opacity="1" fill-rule="nonzero"/><path fill="#478a8d" d="M 262.484375 152.007812 L 249.734375 152.007812 L 249.734375 148.871094 L 262.484375 148.871094 L 262.484375 152.007812 " fill-opacity="1" fill-rule="nonzero"/><path fill="#478a8d" d="M 266.007812 158.78125 L 250.976562 158.78125 L 250.976562 155.644531 L 266.007812 155.644531 L 266.007812 158.78125 " fill-opacity="1" fill-rule="nonzero"/><path fill="#478a8d" d="M 268.910156 165.554688 L 264.554688 165.554688 L 264.554688 162.417969 L 268.910156 162.417969 L 268.910156 165.554688 " fill-opacity="1" fill-rule="nonzero"/><path fill="#c5cca7" d="M 219.027344 152.007812 L 209.617188 152.007812 L 209.617188 148.871094 L 219.027344 148.871094 L 219.027344 152.007812 " fill-opacity="1" fill-rule="nonzero"/><path fill="#344457" d="M 232.355469 152.007812 L 219.027344 152.007812 L 219.027344 148.871094 L 232.355469 148.871094 L 232.355469 152.007812 " fill-opacity="1" fill-rule="nonzero"/><path fill="#85babd" d="M 249.761719 152.007812 L 232.355469 152.007812 L 232.355469 148.871094 L 249.761719 148.871094 L 249.761719 152.007812 " fill-opacity="1" fill-rule="nonzero"/><path fill="#c5cca7" d="M 225.71875 158.78125 L 209.617188 158.78125 L 209.617188 155.644531 L 225.71875 155.644531 L 225.71875 158.78125 " fill-opacity="1" fill-rule="nonzero"/><path fill="#344457" d="M 243.78125 158.78125 L 225.71875 158.78125 L 225.71875 155.644531 L 243.78125 155.644531 L 243.78125 158.78125 " fill-opacity="1" fill-rule="nonzero"/><path fill="#85babd" d="M 250.992188 158.78125 L 243.78125 158.78125 L 243.78125 155.644531 L 250.992188 155.644531 L 250.992188 158.78125 " fill-opacity="1" fill-rule="nonzero"/><path fill="#c5cca7" d="M 238.53125 165.554688 L 209.617188 165.554688 L 209.617188 162.417969 L 238.53125 162.417969 L 238.53125 165.554688 " fill-opacity="1" fill-rule="nonzero"/><path fill="#344457" d="M 245.003906 165.554688 L 238.53125 165.554688 L 238.53125 162.417969 L 245.003906 162.417969 L 245.003906 165.554688 " fill-opacity="1" fill-rule="nonzero"/><path fill="#85babd" d="M 264.59375 165.554688 L 245.003906 165.554688 L 245.003906 162.417969 L 264.59375 162.417969 L 264.59375 165.554688 " fill-opacity="1" fill-rule="nonzero"/><path fill="#d3ca9f" d="M 274.40625 169.714844 L 209.617188 169.714844 L 209.617188 169.195312 L 274.40625 169.195312 L 274.40625 169.714844 " fill-opacity="1" fill-rule="nonzero"/><path fill="#d3ca9f" d="M 274.40625 170.933594 L 273.886719 170.933594 L 273.886719 169.195312 L 274.40625 169.195312 L 274.40625 170.933594 " fill-opacity="1" fill-rule="nonzero"/><path fill="#d3ca9f" d="M 210.132812 170.933594 L 209.617188 170.933594 L 209.617188 169.195312 L 210.132812 169.195312 L 210.132812 170.933594 " fill-opacity="1" fill-rule="nonzero"/><path fill="#d3ca9f" d="M 242.269531 170.933594 L 241.75 170.933594 L 241.75 169.195312 L 242.269531 169.195312 L 242.269531 170.933594 " fill-opacity="1" fill-rule="nonzero"/><path fill="#d3ca9f" d="M 226.199219 170.933594 L 225.683594 170.933594 L 225.683594 169.195312 L 226.199219 169.195312 L 226.199219 170.933594 " fill-opacity="1" fill-rule="nonzero"/><path fill="#d3ca9f" d="M 258.335938 170.933594 L 257.816406 170.933594 L 257.816406 169.195312 L 258.335938 169.195312 L 258.335938 170.933594 " fill-opacity="1" fill-rule="nonzero"/><path fill="#c1ba9c" d="M 281.859375 145.234375 L 278.398438 145.234375 L 278.398438 142.097656 L 281.859375 142.097656 L 281.859375 145.234375 " fill-opacity="1" fill-rule="nonzero"/><path fill="#c1ba9c" d="M 292.71875 142.523438 L 282.894531 142.523438 L 282.894531 142.097656 L 292.71875 142.097656 L 292.71875 142.523438 " fill-opacity="1" fill-rule="nonzero"/><path fill="#c1ba9c" d="M 289.097656 143.871094 L 282.894531 143.871094 L 282.894531 143.445312 L 289.097656 143.445312 L 289.097656 143.871094 " fill-opacity="1" fill-rule="nonzero"/><path fill="#c1ba9c" d="M 289.097656 145.222656 L 282.894531 145.222656 L 282.894531 144.796875 L 289.097656 144.796875 L 289.097656 145.222656 " fill-opacity="1" fill-rule="nonzero"/><path fill="#c1ba9c" d="M 281.859375 152.007812 L 278.398438 152.007812 L 278.398438 148.871094 L 281.859375 148.871094 L 281.859375 152.007812 " fill-opacity="1" fill-rule="nonzero"/><path fill="#c1ba9c" d="M 292.71875 149.296875 L 282.894531 149.296875 L 282.894531 148.871094 L 292.71875 148.871094 L 292.71875 149.296875 " fill-opacity="1" fill-rule="nonzero"/><path fill="#c1ba9c" d="M 289.097656 150.644531 L 282.894531 150.644531 L 282.894531 150.21875 L 289.097656 150.21875 L 289.097656 150.644531 " fill-opacity="1" fill-rule="nonzero"/><path fill="#c1ba9c" d="M 289.097656 151.996094 L 282.894531 151.996094 L 282.894531 151.570312 L 289.097656 151.570312 L 289.097656 151.996094 " fill-opacity="1" fill-rule="nonzero"/><path fill="#c1ba9c" d="M 281.859375 158.78125 L 278.398438 158.78125 L 278.398438 155.644531 L 281.859375 155.644531 L 281.859375 158.78125 " fill-opacity="1" fill-rule="nonzero"/><path fill="#c1ba9c" d="M 292.71875 156.070312 L 282.894531 156.070312 L 282.894531 155.644531 L 292.71875 155.644531 L 292.71875 156.070312 " fill-opacity="1" fill-rule="nonzero"/><path fill="#c1ba9c" d="M 289.097656 157.421875 L 282.894531 157.421875 L 282.894531 156.996094 L 289.097656 156.996094 L 289.097656 157.421875 " fill-opacity="1" fill-rule="nonzero"/><path fill="#c1ba9c" d="M 289.097656 158.769531 L 282.894531 158.769531 L 282.894531 158.34375 L 289.097656 158.34375 L 289.097656 158.769531 " fill-opacity="1" fill-rule="nonzero"/><path fill="#c1ba9c" d="M 281.859375 165.554688 L 278.398438 165.554688 L 278.398438 162.417969 L 281.859375 162.417969 L 281.859375 165.554688 " fill-opacity="1" fill-rule="nonzero"/><path fill="#c1ba9c" d="M 292.71875 162.84375 L 282.894531 162.84375 L 282.894531 162.417969 L 292.71875 162.417969 L 292.71875 162.84375 " fill-opacity="1" fill-rule="nonzero"/><path fill="#c1ba9c" d="M 289.097656 164.195312 L 282.894531 164.195312 L 282.894531 163.769531 L 289.097656 163.769531 L 289.097656 164.195312 " fill-opacity="1" fill-rule="nonzero"/><path fill="#c1ba9c" d="M 289.097656 165.542969 L 282.894531 165.542969 L 282.894531 165.117188 L 289.097656 165.117188 L 289.097656 165.542969 " fill-opacity="1" fill-rule="nonzero"/><g clip-path="url(#4a564563e4)"><path fill="#70c3d8" d="M 305.96875 82.667969 L 60.839844 82.667969 L 60.839844 53.308594 L 305.96875 53.308594 L 305.96875 82.667969 " fill-opacity="1" fill-rule="nonzero"/></g><path fill="#64aec2" d="M 306.574219 82.667969 L 60.839844 82.667969 L 60.839844 71.894531 L 306.574219 71.894531 L 306.574219 82.667969 " fill-opacity="1" fill-rule="nonzero"/><path fill="#f2f2f2" d="M 146.117188 83.640625 L 94.5625 83.640625 L 95.984375 80.484375 C 96.765625 78.757812 98.484375 77.644531 100.378906 77.644531 L 140.300781 77.644531 C 142.195312 77.644531 143.917969 78.757812 144.695312 80.484375 L 146.117188 83.640625 " fill-opacity="1" fill-rule="nonzero"/><path fill="#f2f2f2" d="M 70.609375 59.667969 C 70.609375 60.832031 69.664062 61.773438 68.503906 61.773438 C 67.335938 61.773438 66.394531 60.832031 66.394531 59.667969 C 66.394531 58.503906 67.335938 57.5625 68.503906 57.5625 C 69.664062 57.5625 70.609375 58.503906 70.609375 59.667969 " fill-opacity="1" fill-rule="nonzero"/><path fill="#f2f2f2" d="M 78.308594 59.667969 C 78.308594 60.832031 77.367188 61.773438 76.203125 61.773438 C 75.039062 61.773438 74.09375 60.832031 74.09375 59.667969 C 74.09375 58.503906 75.039062 57.5625 76.203125 57.5625 C 77.367188 57.5625 78.308594 58.503906 78.308594 59.667969 " fill-opacity="1" fill-rule="nonzero"/><path fill="#f2f2f2" d="M 86.011719 59.667969 C 86.011719 60.832031 85.066406 61.773438 83.902344 61.773438 C 82.738281 61.773438 81.796875 60.832031 81.796875 59.667969 C 81.796875 58.503906 82.738281 57.5625 83.902344 57.5625 C 85.066406 57.5625 86.011719 58.503906 86.011719 59.667969 " fill-opacity="1" fill-rule="nonzero"/><path fill="#c5cca7" d="M 229.4375 186.707031 L 209.617188 186.707031 L 209.617188 183.355469 L 229.4375 183.355469 L 229.4375 186.707031 " fill-opacity="1" fill-rule="nonzero"/><path fill="#c5cca7" d="M 251.296875 186.707031 L 231.472656 186.707031 L 231.472656 183.355469 L 251.296875 183.355469 L 251.296875 186.707031 " fill-opacity="1" fill-rule="nonzero"/><path fill="#c1ba9c" d="M 226.152344 192.058594 L 209.617188 192.058594 L 209.617188 188.710938 L 226.152344 188.710938 L 226.152344 192.058594 " fill-opacity="1" fill-rule="nonzero"/><path fill="#c1ba9c" d="M 244.140625 192.058594 L 231.472656 192.058594 L 231.472656 188.710938 L 244.140625 188.710938 L 244.140625 192.058594 " fill-opacity="1" fill-rule="nonzero"/><path fill="#c1ba9c" d="M 228.105469 197.414062 L 209.617188 197.414062 L 209.617188 194.0625 L 228.105469 194.0625 L 228.105469 197.414062 " fill-opacity="1" fill-rule="nonzero"/><path fill="#c1ba9c" d="M 249.324219 197.414062 L 231.472656 197.414062 L 231.472656 194.0625 L 249.324219 194.0625 L 249.324219 197.414062 " fill-opacity="1" fill-rule="nonzero"/><path fill="#c1ba9c" d="M 225.273438 202.765625 L 209.617188 202.765625 L 209.617188 199.414062 L 225.273438 199.414062 L 225.273438 202.765625 " fill-opacity="1" fill-rule="nonzero"/><path fill="#c1ba9c" d="M 247.757812 202.765625 L 231.472656 202.765625 L 231.472656 199.414062 L 247.757812 199.414062 L 247.757812 202.765625 " fill-opacity="1" fill-rule="nonzero"/><path fill="#c1ba9c" d="M 223.902344 208.121094 L 209.617188 208.121094 L 209.617188 204.769531 L 223.902344 204.769531 L 223.902344 208.121094 " fill-opacity="1" fill-rule="nonzero"/><path fill="#c1ba9c" d="M 250.203125 208.121094 L 231.472656 208.121094 L 231.472656 204.769531 L 250.203125 204.769531 L 250.203125 208.121094 " fill-opacity="1" fill-rule="nonzero"/><path fill="#478a8d" d="M 229.4375 215.507812 L 209.617188 215.507812 L 209.617188 212.160156 L 229.4375 212.160156 L 229.4375 215.507812 " fill-opacity="1" fill-rule="nonzero"/><path fill="#478a8d" d="M 251.296875 215.507812 L 231.472656 215.507812 L 231.472656 212.160156 L 251.296875 212.160156 L 251.296875 215.507812 " fill-opacity="1" fill-rule="nonzero"/><path fill="#c1ba9c" d="M 224.585938 220.863281 L 209.617188 220.863281 L 209.617188 217.511719 L 224.585938 217.511719 L 224.585938 220.863281 " fill-opacity="1" fill-rule="nonzero"/><path fill="#c1ba9c" d="M 249.738281 220.863281 L 231.472656 220.863281 L 231.472656 217.511719 L 249.738281 217.511719 L 249.738281 220.863281 " fill-opacity="1" fill-rule="nonzero"/><path fill="#36414d" d="M 229.4375 226.214844 L 209.617188 226.214844 L 209.617188 222.863281 L 229.4375 222.863281 L 229.4375 226.214844 " fill-opacity="1" fill-rule="nonzero"/><path fill="#c1ba9c" d="M 246.148438 226.214844 L 231.472656 226.214844 L 231.472656 222.863281 L 246.148438 222.863281 L 246.148438 226.214844 " fill-opacity="1" fill-rule="nonzero"/><path fill="#c1ba9c" d="M 227.59375 231.570312 L 209.617188 231.570312 L 209.617188 228.21875 L 227.59375 228.21875 L 227.59375 231.570312 " fill-opacity="1" fill-rule="nonzero"/><path fill="#c1ba9c" d="M 248.273438 231.570312 L 231.472656 231.570312 L 231.472656 228.21875 L 248.273438 228.21875 L 248.273438 231.570312 " fill-opacity="1" fill-rule="nonzero"/><path fill="#c1ba9c" d="M 225.273438 236.921875 L 209.617188 236.921875 L 209.617188 233.574219 L 225.273438 233.574219 L 225.273438 236.921875 " fill-opacity="1" fill-rule="nonzero"/><path fill="#c1ba9c" d="M 245.707031 236.921875 L 231.472656 236.921875 L 231.472656 233.574219 L 245.707031 233.574219 L 245.707031 236.921875 " fill-opacity="1" fill-rule="nonzero"/><path fill="#344457" d="M 272.875 186.707031 L 253.050781 186.707031 L 253.050781 183.355469 L 272.875 183.355469 L 272.875 186.707031 " fill-opacity="1" fill-rule="nonzero"/><path fill="#344457" d="M 294.734375 186.707031 L 274.910156 186.707031 L 274.910156 183.355469 L 294.734375 183.355469 L 294.734375 186.707031 " fill-opacity="1" fill-rule="nonzero"/><path fill="#c1ba9c" d="M 266.335938 192.058594 L 253.050781 192.058594 L 253.050781 188.710938 L 266.335938 188.710938 L 266.335938 192.058594 " fill-opacity="1" fill-rule="nonzero"/><path fill="#c1ba9c" d="M 290.890625 192.058594 L 274.910156 192.058594 L 274.910156 188.710938 L 290.890625 188.710938 L 290.890625 192.058594 " fill-opacity="1" fill-rule="nonzero"/><path fill="#36414d" d="M 267.898438 197.414062 L 253.050781 197.414062 L 253.050781 194.0625 L 267.898438 194.0625 L 267.898438 197.414062 " fill-opacity="1" fill-rule="nonzero"/><path fill="#c1ba9c" d="M 293.078125 197.414062 L 274.910156 197.414062 L 274.910156 194.0625 L 293.078125 194.0625 L 293.078125 197.414062 " fill-opacity="1" fill-rule="nonzero"/><path fill="#c1ba9c" d="M 272.875 202.765625 L 253.050781 202.765625 L 253.050781 199.414062 L 272.875 199.414062 L 272.875 202.765625 " fill-opacity="1" fill-rule="nonzero"/><path fill="#c1ba9c" d="M 288.238281 202.765625 L 274.910156 202.765625 L 274.910156 199.414062 L 288.238281 199.414062 L 288.238281 202.765625 " fill-opacity="1" fill-rule="nonzero"/><path fill="#c1ba9c" d="M 269.953125 208.121094 L 253.050781 208.121094 L 253.050781 204.769531 L 269.953125 204.769531 L 269.953125 208.121094 " fill-opacity="1" fill-rule="nonzero"/><path fill="#c1ba9c" d="M 290.890625 208.121094 L 274.910156 208.121094 L 274.910156 204.769531 L 290.890625 204.769531 L 290.890625 208.121094 " fill-opacity="1" fill-rule="nonzero"/><path fill="#85babd" d="M 272.875 215.507812 L 253.050781 215.507812 L 253.050781 212.160156 L 272.875 212.160156 L 272.875 215.507812 " fill-opacity="1" fill-rule="nonzero"/><path fill="#85babd" d="M 294.734375 215.507812 L 274.910156 215.507812 L 274.910156 212.160156 L 294.734375 212.160156 L 294.734375 215.507812 " fill-opacity="1" fill-rule="nonzero"/><path fill="#c1ba9c" d="M 269.613281 220.863281 L 253.050781 220.863281 L 253.050781 217.511719 L 269.613281 217.511719 L 269.613281 220.863281 " fill-opacity="1" fill-rule="nonzero"/><path fill="#c1ba9c" d="M 290.890625 220.863281 L 274.910156 220.863281 L 274.910156 217.511719 L 290.890625 217.511719 L 290.890625 220.863281 " fill-opacity="1" fill-rule="nonzero"/><path fill="#c1ba9c" d="M 267.414062 226.214844 L 253.050781 226.214844 L 253.050781 222.863281 L 267.414062 222.863281 L 267.414062 226.214844 " fill-opacity="1" fill-rule="nonzero"/><path fill="#c1ba9c" d="M 292.855469 226.214844 L 274.910156 226.214844 L 274.910156 222.863281 L 292.855469 222.863281 L 292.855469 226.214844 " fill-opacity="1" fill-rule="nonzero"/><path fill="#c1ba9c" d="M 271.664062 231.570312 L 253.050781 231.570312 L 253.050781 228.21875 L 271.664062 228.21875 L 271.664062 231.570312 " fill-opacity="1" fill-rule="nonzero"/><path fill="#c1ba9c" d="M 290.890625 231.570312 L 274.910156 231.570312 L 274.910156 228.21875 L 290.890625 228.21875 L 290.890625 231.570312 " fill-opacity="1" fill-rule="nonzero"/><path fill="#c1ba9c" d="M 269.613281 236.921875 L 253.050781 236.921875 L 253.050781 233.574219 L 269.613281 233.574219 L 269.613281 236.921875 " fill-opacity="1" fill-rule="nonzero"/><path fill="#c1ba9c" d="M 294.734375 236.921875 L 274.910156 236.921875 L 274.910156 233.574219 L 294.734375 233.574219 L 294.734375 236.921875 " fill-opacity="1" fill-rule="nonzero"/><path fill="#70c3d8" d="M 61.042969 250.242188 L 306.011719 250.492188 L 305.996094 265.003906 L 61.027344 264.753906 L 61.042969 250.242188 " fill-opacity="1" fill-rule="nonzero"/><path fill="#f2f2f2" d="M 123.476562 253.660156 L 244.128906 253.785156 L 244.121094 257.660156 L 123.472656 257.539062 L 123.476562 253.660156 " fill-opacity="1" fill-rule="nonzero"/><path fill="#f2f2f2" d="M 147.613281 259.972656 L 216.53125 260.042969 L 216.527344 262.929688 L 147.609375 262.859375 L 147.613281 259.972656 " fill-opacity="1" fill-rule="nonzero"/></svg>