<svg xmlns="http://www.w3.org/2000/svg" xmlns:xlink="http://www.w3.org/1999/xlink" width="500" zoomAndPan="magnify" viewBox="0 0 375 374.999991" height="500" preserveAspectRatio="xMidYMid meet" version="1.0"><defs><clipPath id="f30d334762"><path d="M 0 0 L 372.75 0 L 372.75 375 L 0 375 Z M 0 0 " clip-rule="nonzero"/></clipPath></defs><rect x="-37.5" width="450" fill="#ffffff" y="-37.499999" height="449.999989" fill-opacity="1"/><rect x="-37.5" width="450" fill="#ffffff" y="-37.499999" height="449.999989" fill-opacity="1"/><g clip-path="url(#f30d334762)"><path fill="#383838" d="M 308.007812 183.179688 C 305.722656 183.179688 303.816406 185.085938 303.816406 187.5 C 303.816406 189.785156 305.722656 191.691406 308.132812 191.691406 C 310.546875 191.691406 312.324219 189.785156 312.324219 187.371094 C 312.324219 185.085938 310.417969 183.179688 308.007812 183.179688 Z M 308.007812 244.410156 C 305.722656 244.410156 303.816406 246.316406 303.816406 248.730469 C 303.816406 251.015625 305.722656 252.921875 308.132812 252.921875 C 310.546875 252.921875 312.324219 251.015625 312.324219 248.601562 C 312.324219 246.316406 310.417969 244.410156 308.007812 244.410156 Z M 308.007812 305.511719 C 305.722656 305.511719 303.816406 307.417969 303.816406 309.832031 C 303.816406 312.117188 305.722656 314.023438 308.132812 314.023438 C 310.546875 314.023438 312.324219 312.117188 312.324219 309.707031 C 312.324219 307.417969 310.417969 305.511719 308.007812 305.511719 Z M 308.007812 367.25 C 305.976562 367.25 304.453125 368.902344 304.453125 370.933594 C 304.453125 372.96875 306.101562 374.492188 308.132812 374.492188 C 310.164062 374.492188 311.6875 372.839844 311.6875 370.808594 C 311.6875 368.773438 310.039062 367.25 308.007812 367.25 Z M 308.007812 122.078125 C 305.722656 122.078125 303.816406 123.984375 303.816406 126.269531 C 303.816406 128.558594 305.722656 130.460938 308.007812 130.460938 C 310.292969 130.460938 312.195312 128.558594 312.195312 126.269531 C 312.324219 123.984375 310.292969 122.078125 308.007812 122.078125 Z M 308.007812 0.507812 C 305.976562 0.507812 304.453125 2.160156 304.453125 4.191406 C 304.453125 6.222656 306.101562 7.75 308.132812 7.75 C 310.164062 7.75 311.6875 6.097656 311.6875 4.066406 C 311.6875 2.03125 310.039062 0.507812 308.007812 0.507812 Z M 186.375 181.402344 C 183.328125 181.402344 180.789062 183.941406 180.789062 186.992188 C 180.789062 190.039062 183.328125 192.582031 186.375 192.582031 C 189.421875 192.582031 191.960938 190.039062 191.960938 186.992188 C 191.960938 183.941406 189.421875 181.402344 186.375 181.402344 Z M 186.375 243.394531 C 183.707031 243.394531 181.421875 245.679688 181.421875 248.222656 C 181.421875 250.890625 183.707031 252.921875 186.375 252.921875 C 189.042969 252.921875 191.328125 250.636719 191.328125 248.222656 C 191.328125 245.425781 189.042969 243.394531 186.375 243.394531 C 186.375 243.140625 186.375 243.140625 186.375 243.394531 Z M 186.375 304.878906 C 183.960938 304.878906 182.058594 306.910156 182.058594 309.195312 C 182.058594 311.609375 184.089844 313.515625 186.375 313.515625 C 188.660156 313.515625 190.691406 311.484375 190.691406 309.195312 C 190.691406 306.785156 188.789062 304.878906 186.375 304.878906 Z M 186.375 366.742188 C 184.34375 366.742188 182.691406 368.394531 182.691406 370.425781 C 182.691406 372.460938 184.34375 374.109375 186.375 374.109375 C 188.40625 374.109375 190.058594 372.460938 190.058594 370.425781 C 190.058594 368.394531 188.40625 366.742188 186.375 366.742188 Z M 186.375 121.0625 C 183.707031 121.0625 181.550781 123.347656 181.550781 126.015625 C 181.550781 128.683594 183.835938 130.84375 186.5 130.84375 C 189.167969 130.84375 191.328125 128.558594 191.328125 126.015625 C 191.328125 123.222656 189.042969 121.0625 186.375 121.0625 C 186.375 120.933594 186.375 120.933594 186.375 121.0625 Z M 186.375 0 C 184.34375 0 182.691406 1.652344 182.691406 3.683594 C 182.691406 5.714844 184.34375 7.367188 186.375 7.367188 C 188.40625 7.367188 190.058594 5.714844 190.058594 3.683594 C 190.058594 1.652344 188.40625 0 186.375 0 Z M 125.558594 183.179688 C 122.894531 183.179688 120.605469 185.339844 120.605469 188.007812 C 120.605469 190.675781 122.765625 192.960938 125.433594 192.960938 C 128.097656 192.960938 130.382812 190.804688 130.382812 188.136719 C 130.382812 185.46875 128.226562 183.179688 125.558594 183.179688 Z M 125.558594 244.285156 C 122.894531 244.285156 120.605469 246.441406 120.605469 249.109375 C 120.605469 251.777344 122.765625 254.066406 125.433594 254.066406 C 128.097656 254.066406 130.382812 251.90625 130.382812 249.238281 C 130.382812 246.570312 128.226562 244.285156 125.558594 244.285156 Z M 125.558594 306.019531 C 123.273438 306.019531 121.242188 307.925781 121.242188 310.214844 C 121.242188 312.5 123.148438 314.53125 125.433594 314.53125 C 127.71875 314.53125 129.75 312.628906 129.75 310.339844 C 129.75 307.925781 127.84375 306.019531 125.558594 306.019531 Z M 125.558594 367.757812 C 123.527344 367.757812 121.875 369.285156 121.875 371.316406 C 121.875 373.347656 123.402344 375 125.433594 375 C 127.464844 375 129.113281 373.476562 129.113281 371.441406 C 129.113281 369.410156 127.589844 367.757812 125.558594 367.757812 Z M 125.558594 122.078125 C 122.894531 122.078125 120.734375 124.238281 120.734375 126.90625 C 120.734375 129.574219 122.894531 131.734375 125.558594 131.734375 C 128.226562 131.734375 130.382812 129.574219 130.382812 126.90625 C 130.382812 124.363281 128.226562 122.078125 125.558594 122.078125 Z M 64.742188 183.816406 C 62.457031 183.816406 60.425781 185.722656 60.425781 188.007812 C 60.425781 190.292969 62.332031 192.328125 64.617188 192.328125 C 66.902344 192.328125 68.933594 190.421875 68.933594 188.136719 C 69.058594 185.722656 67.027344 183.6875 64.742188 183.816406 C 64.742188 183.6875 64.742188 183.6875 64.742188 183.816406 Z M 64.742188 244.917969 C 62.457031 244.917969 60.425781 246.824219 60.425781 249.109375 C 60.425781 251.398438 62.332031 253.429688 64.617188 253.429688 C 66.902344 253.429688 68.933594 251.523438 68.933594 249.238281 C 69.058594 246.824219 67.027344 244.792969 64.742188 244.917969 C 64.742188 244.792969 64.742188 244.792969 64.742188 244.917969 Z M 64.742188 306.019531 C 62.457031 306.019531 60.425781 307.925781 60.425781 310.214844 C 60.425781 312.5 62.332031 314.53125 64.617188 314.53125 C 66.902344 314.53125 68.933594 312.628906 68.933594 310.339844 C 69.058594 307.925781 67.027344 305.894531 64.742188 306.019531 C 64.742188 305.894531 64.742188 305.894531 64.742188 306.019531 Z M 64.742188 367.757812 C 62.710938 367.757812 61.0625 369.285156 61.0625 371.316406 C 61.0625 373.347656 62.585938 375 64.617188 375 C 66.648438 375 68.296875 373.476562 68.296875 371.441406 C 68.425781 369.285156 66.773438 367.632812 64.742188 367.757812 C 64.742188 367.632812 64.742188 367.632812 64.742188 367.757812 Z M 247.316406 61.609375 C 245.03125 61.609375 243 63.515625 243 65.804688 C 243 68.089844 244.90625 70.121094 247.191406 70.121094 C 249.476562 70.121094 251.507812 68.214844 251.507812 65.929688 C 251.636719 63.515625 249.601562 61.484375 247.316406 61.609375 C 247.316406 61.484375 247.316406 61.484375 247.316406 61.609375 Z M 125.558594 1.144531 C 123.527344 1.144531 121.875 2.667969 121.875 4.699219 C 121.875 6.734375 123.402344 8.382812 125.433594 8.382812 C 127.464844 8.382812 129.113281 6.859375 129.113281 4.828125 C 129.242188 2.667969 127.589844 1.015625 125.558594 1.144531 C 125.558594 1.015625 125.558594 1.015625 125.558594 1.144531 Z M 3.925781 184.324219 C 1.894531 184.324219 0.246094 185.847656 0.246094 187.882812 C 0.246094 189.914062 1.769531 191.566406 3.800781 191.566406 C 5.832031 191.566406 7.480469 190.039062 7.480469 188.007812 C 7.480469 185.976562 5.957031 184.324219 3.925781 184.324219 Z M 3.925781 245.425781 C 1.894531 245.425781 0.246094 246.953125 0.246094 248.984375 C 0.246094 251.015625 1.769531 252.667969 3.800781 252.667969 C 5.832031 252.667969 7.480469 251.144531 7.480469 249.109375 C 7.480469 247.078125 5.957031 245.425781 3.925781 245.425781 Z M 3.925781 306.53125 C 1.894531 306.53125 0.246094 308.054688 0.246094 310.085938 C 0.246094 312.117188 1.769531 313.769531 3.800781 313.769531 C 5.832031 313.769531 7.480469 312.246094 7.480469 310.214844 C 7.480469 308.179688 5.957031 306.53125 3.925781 306.53125 Z M 3.925781 367.632812 C 1.894531 367.632812 0.246094 369.15625 0.246094 371.1875 C 0.246094 373.222656 1.769531 374.871094 3.800781 374.871094 C 5.832031 374.871094 7.480469 373.347656 7.480469 371.316406 C 7.480469 369.285156 5.957031 367.632812 3.925781 367.632812 Z M 3.925781 62.246094 C 1.894531 62.246094 0.246094 63.898438 0.246094 65.804688 C 0.246094 67.707031 1.894531 69.359375 3.925781 69.359375 C 5.957031 69.359375 7.609375 67.707031 7.609375 65.804688 C 7.355469 63.769531 5.957031 62.246094 3.925781 62.246094 Z M 3.925781 123.347656 C 1.894531 123.347656 0.246094 125 0.246094 126.90625 C 0.246094 128.8125 1.894531 130.460938 3.925781 130.460938 C 5.957031 130.460938 7.609375 128.8125 7.609375 126.90625 C 7.355469 124.871094 5.957031 123.347656 3.925781 123.347656 Z M 3.925781 1.015625 C 1.894531 1.015625 0.246094 2.539062 0.246094 4.574219 C 0.246094 6.605469 1.769531 8.257812 3.800781 8.257812 C 5.832031 8.257812 7.480469 6.734375 7.480469 4.699219 C 7.480469 2.667969 5.957031 1.015625 3.925781 1.015625 Z M 247.191406 182.546875 C 244.523438 182.546875 242.238281 184.707031 242.238281 187.5 C 242.238281 190.292969 244.398438 192.453125 247.191406 192.453125 C 249.984375 192.453125 252.144531 190.292969 252.144531 187.5 C 252.144531 184.707031 249.855469 182.546875 247.191406 182.546875 Z M 247.191406 243.648438 C 244.523438 243.648438 242.238281 245.933594 242.238281 248.601562 C 242.238281 251.269531 244.523438 253.558594 247.191406 253.558594 C 249.855469 253.558594 252.144531 251.269531 252.144531 248.601562 C 252.144531 245.933594 249.855469 243.648438 247.191406 243.648438 Z M 247.191406 305.386719 C 244.777344 305.386719 242.875 307.417969 242.875 309.707031 C 242.875 312.117188 244.90625 314.023438 247.191406 314.023438 C 249.476562 314.023438 251.507812 311.992188 251.507812 309.707031 C 251.507812 307.417969 249.601562 305.386719 247.191406 305.386719 Z M 247.191406 367.25 C 245.160156 367.25 243.507812 368.902344 243.507812 370.933594 C 243.507812 372.96875 245.160156 374.617188 247.191406 374.617188 C 249.222656 374.617188 250.871094 372.96875 250.871094 370.933594 C 250.871094 368.773438 249.222656 367.25 247.191406 367.25 Z M 308.007812 61.101562 C 305.722656 61.101562 303.691406 63.007812 303.691406 65.292969 C 303.691406 67.582031 305.59375 69.488281 308.007812 69.488281 C 310.417969 69.488281 312.324219 67.582031 312.324219 65.292969 C 312.324219 62.882812 310.292969 61.101562 308.007812 61.101562 Z M 247.191406 121.441406 C 244.523438 121.441406 242.367188 123.730469 242.367188 126.398438 C 242.367188 129.066406 244.652344 131.222656 247.316406 131.222656 C 249.984375 131.222656 252.144531 128.9375 252.144531 126.269531 C 252.144531 123.601562 249.855469 121.441406 247.191406 121.441406 Z M 247.191406 0.382812 C 245.160156 0.382812 243.507812 2.03125 243.507812 3.9375 C 243.507812 5.96875 245.160156 7.621094 247.191406 7.621094 C 249.222656 7.621094 250.871094 5.96875 250.871094 3.9375 C 250.871094 2.03125 249.222656 0.382812 247.191406 0.382812 Z M 368.824219 183.941406 C 366.792969 183.941406 365.269531 185.59375 365.269531 187.628906 C 365.269531 189.660156 366.917969 191.183594 368.949219 191.183594 C 370.980469 191.183594 372.503906 189.53125 372.503906 187.5 C 372.503906 185.46875 370.855469 183.941406 368.824219 183.941406 Z M 368.824219 245.046875 C 366.792969 245.046875 365.269531 246.695312 365.269531 248.730469 C 365.269531 250.761719 366.917969 252.285156 368.949219 252.285156 C 370.980469 252.285156 372.503906 250.636719 372.503906 248.601562 C 372.503906 246.570312 370.855469 245.046875 368.824219 245.046875 Z M 368.824219 306.148438 C 366.792969 306.148438 365.269531 307.800781 365.269531 309.832031 C 365.269531 311.863281 366.917969 313.390625 368.949219 313.390625 C 370.980469 313.390625 372.503906 311.738281 372.503906 309.707031 C 372.503906 307.671875 370.855469 306.148438 368.824219 306.148438 Z M 368.824219 367.25 C 366.792969 367.25 365.269531 368.902344 365.269531 370.933594 C 365.269531 372.96875 366.917969 374.492188 368.949219 374.492188 C 370.980469 374.492188 372.503906 372.839844 372.503906 370.808594 C 372.503906 368.773438 370.855469 367.25 368.824219 367.25 Z M 368.824219 61.738281 C 366.917969 61.738281 365.269531 63.390625 365.269531 65.292969 C 365.269531 67.199219 366.917969 68.851562 368.824219 68.851562 C 370.726562 68.851562 372.378906 67.199219 372.378906 65.292969 C 372.503906 63.261719 370.726562 61.738281 368.824219 61.738281 Z M 368.824219 0.507812 C 366.792969 0.507812 365.269531 2.160156 365.269531 4.191406 C 365.269531 6.222656 366.917969 7.75 368.949219 7.75 C 370.980469 7.75 372.503906 6.097656 372.503906 4.066406 C 372.503906 2.03125 370.855469 0.507812 368.824219 0.507812 Z M 64.742188 122.714844 C 62.332031 122.714844 60.554688 124.617188 60.554688 126.90625 C 60.554688 129.191406 62.457031 131.097656 64.742188 131.097656 C 67.027344 131.097656 68.933594 129.191406 68.933594 126.90625 C 69.058594 124.492188 67.027344 122.714844 64.742188 122.714844 Z M 64.742188 1.144531 C 62.710938 1.144531 61.0625 2.667969 61.0625 4.699219 C 61.0625 6.734375 62.585938 8.382812 64.617188 8.382812 C 66.648438 8.382812 68.296875 6.859375 68.296875 4.828125 C 68.425781 2.667969 66.773438 1.015625 64.742188 1.144531 C 64.742188 1.015625 64.742188 1.015625 64.742188 1.144531 Z M 186.5 61.609375 C 184.214844 61.609375 182.183594 63.515625 182.183594 65.804688 C 182.183594 68.089844 184.089844 70.121094 186.375 70.121094 C 188.660156 70.121094 190.691406 68.214844 190.691406 65.929688 C 190.820312 63.515625 188.789062 61.484375 186.5 61.609375 C 186.5 61.484375 186.5 61.484375 186.5 61.609375 Z M 125.558594 61.609375 C 123.273438 61.609375 121.367188 63.390625 121.367188 65.804688 C 121.367188 68.089844 123.148438 69.996094 125.558594 69.996094 C 127.972656 69.996094 129.75 68.214844 129.75 65.804688 C 129.875 63.515625 127.972656 61.609375 125.558594 61.609375 Z M 64.742188 61.609375 C 62.332031 61.609375 60.554688 63.515625 60.554688 65.804688 C 60.554688 68.089844 62.457031 69.996094 64.742188 69.996094 C 67.027344 69.996094 68.933594 68.089844 68.933594 65.804688 C 69.058594 63.390625 67.15625 61.609375 64.742188 61.609375 Z M 368.824219 122.839844 C 366.917969 122.839844 365.269531 124.492188 365.269531 126.398438 C 365.269531 128.304688 366.917969 129.953125 368.824219 129.953125 C 370.726562 129.953125 372.378906 128.304688 372.378906 126.398438 C 372.503906 124.363281 370.726562 122.839844 368.824219 122.839844 Z M 368.824219 122.839844 " fill-opacity="1" fill-rule="nonzero"/></g></svg>