<svg xmlns="http://www.w3.org/2000/svg" xmlns:xlink="http://www.w3.org/1999/xlink" width="500" zoomAndPan="magnify" viewBox="0 0 375 374.999991" height="500" preserveAspectRatio="xMidYMid meet" version="1.0"><defs><clipPath id="6c1f2c1abe"><path d="M 6.191406 11.464844 L 368.441406 11.464844 L 368.441406 363.214844 L 6.191406 363.214844 Z M 6.191406 11.464844 " clip-rule="nonzero"/></clipPath></defs><rect x="-37.5" width="450" fill="#ffffff" y="-37.499999" height="449.999989" fill-opacity="1"/><rect x="-37.5" width="450" fill="#ffffff" y="-37.499999" height="449.999989" fill-opacity="1"/><g clip-path="url(#6c1f2c1abe)"><path fill="#383838" d="M 195.332031 16.578125 C 195.332031 13.769531 193.027344 11.464844 190.222656 11.464844 L 105.851562 11.464844 C 103.046875 11.464844 100.742188 13.769531 100.742188 16.578125 C 100.742188 19.382812 103.046875 21.6875 105.851562 21.6875 L 190.324219 21.6875 C 193.128906 21.589844 195.332031 19.382812 195.332031 16.578125 Z M 310.867188 16.578125 C 310.867188 13.769531 308.5625 11.464844 305.757812 11.464844 L 256.355469 11.464844 C 253.550781 11.464844 251.246094 13.769531 251.246094 16.578125 C 251.246094 19.382812 253.550781 21.6875 256.355469 21.6875 L 305.757812 21.6875 C 308.5625 21.6875 310.867188 19.382812 310.867188 16.578125 Z M 244.734375 16.578125 C 244.734375 13.769531 242.429688 11.464844 239.625 11.464844 L 205.453125 11.464844 C 202.648438 11.464844 200.34375 13.769531 200.34375 16.578125 C 200.34375 19.382812 202.648438 21.6875 205.453125 21.6875 L 239.625 21.6875 C 242.429688 21.6875 244.734375 19.382812 244.734375 16.578125 Z M 96.230469 16.578125 C 96.230469 13.769531 93.925781 11.464844 91.121094 11.464844 L 79.699219 11.464844 C 76.894531 11.464844 74.589844 13.769531 74.589844 16.578125 C 74.589844 19.382812 76.894531 21.6875 79.699219 21.6875 L 91.023438 21.6875 C 93.828125 21.6875 96.230469 19.382812 96.230469 16.578125 Z M 66.273438 16.578125 C 66.273438 13.769531 63.96875 11.464844 61.160156 11.464844 L 11.859375 11.464844 C 9.054688 11.464844 6.75 13.769531 6.75 16.578125 C 6.75 19.382812 9.054688 21.6875 11.859375 21.6875 L 61.160156 21.6875 C 63.96875 21.6875 66.273438 19.382812 66.273438 16.578125 Z M 203.949219 84.722656 C 203.949219 81.917969 201.644531 79.613281 198.839844 79.613281 L 141.925781 79.613281 C 139.121094 79.613281 136.816406 81.917969 136.816406 84.722656 C 136.816406 87.527344 139.121094 89.832031 141.925781 89.832031 L 198.839844 89.832031 C 201.644531 89.832031 203.949219 87.527344 203.949219 84.722656 Z M 118.378906 84.722656 C 118.378906 81.917969 116.074219 79.613281 113.265625 79.613281 L 79.097656 79.613281 C 76.292969 79.613281 73.988281 81.917969 73.988281 84.722656 C 73.988281 87.527344 76.292969 89.832031 79.097656 89.832031 L 113.265625 89.832031 C 116.074219 89.832031 118.378906 87.527344 118.378906 84.722656 Z M 48.335938 84.722656 C 48.335938 81.917969 46.03125 79.613281 43.226562 79.613281 L 31.902344 79.613281 C 29.097656 79.613281 26.792969 81.917969 26.792969 84.722656 C 26.792969 87.527344 29.097656 89.832031 31.902344 89.832031 L 43.226562 89.832031 C 46.03125 89.832031 48.335938 87.628906 48.335938 84.722656 Z M 17.273438 84.722656 C 17.273438 81.917969 14.96875 79.613281 12.160156 79.613281 C 9.355469 79.613281 7.050781 81.917969 7.050781 84.722656 C 7.050781 87.527344 9.355469 89.832031 12.160156 89.832031 C 14.96875 89.832031 17.273438 87.527344 17.273438 84.722656 Z M 253.050781 84.722656 C 253.050781 81.917969 250.746094 79.613281 247.941406 79.613281 L 213.769531 79.613281 C 210.964844 79.613281 208.660156 81.917969 208.660156 84.722656 C 208.660156 87.527344 210.964844 89.832031 213.769531 89.832031 L 247.941406 89.832031 C 250.746094 89.832031 253.050781 87.527344 253.050781 84.722656 Z M 279.101562 84.722656 C 279.101562 81.917969 276.796875 79.613281 273.992188 79.613281 L 262.671875 79.613281 C 259.863281 79.613281 257.558594 81.917969 257.558594 84.722656 C 257.558594 87.527344 259.863281 89.832031 262.671875 89.832031 L 273.992188 89.832031 C 276.796875 89.832031 279.101562 87.527344 279.101562 84.722656 Z M 200.242188 175.515625 C 200.242188 172.710938 197.9375 170.40625 195.132812 170.40625 L 160.964844 170.40625 C 158.15625 170.40625 155.851562 172.710938 155.851562 175.515625 C 155.851562 178.324219 158.15625 180.628906 160.964844 180.628906 L 195.132812 180.628906 C 197.9375 180.628906 200.242188 178.324219 200.242188 175.515625 Z M 126.792969 175.515625 C 126.792969 172.710938 124.488281 170.40625 121.683594 170.40625 L 87.515625 170.40625 C 84.707031 170.40625 82.40625 172.710938 82.40625 175.515625 C 82.40625 178.324219 84.707031 180.628906 87.515625 180.628906 L 121.683594 180.628906 C 124.488281 180.628906 126.792969 178.324219 126.792969 175.515625 Z M 150.34375 175.515625 C 150.34375 172.710938 148.039062 170.40625 145.230469 170.40625 L 137.617188 170.40625 C 134.8125 170.40625 132.507812 172.710938 132.507812 175.515625 C 132.507812 178.324219 134.8125 180.628906 137.617188 180.628906 L 145.230469 180.628906 C 148.039062 180.628906 150.34375 178.324219 150.34375 175.515625 Z M 23.382812 175.515625 C 23.382812 172.710938 21.078125 170.40625 18.273438 170.40625 C 15.46875 170.40625 13.164062 172.710938 13.164062 175.515625 C 13.164062 178.324219 15.46875 180.628906 18.273438 180.628906 C 21.078125 180.628906 23.382812 178.324219 23.382812 175.515625 Z M 253.050781 175.515625 C 253.050781 172.710938 250.746094 170.40625 247.941406 170.40625 L 213.769531 170.40625 C 210.964844 170.40625 208.660156 172.710938 208.660156 175.515625 C 208.660156 178.324219 210.964844 180.628906 213.769531 180.628906 L 247.941406 180.628906 C 250.746094 180.628906 253.050781 178.324219 253.050781 175.515625 Z M 279.101562 175.515625 C 279.101562 172.710938 276.796875 170.40625 273.992188 170.40625 L 262.671875 170.40625 C 259.863281 170.40625 257.558594 172.710938 257.558594 175.515625 C 257.558594 178.324219 259.863281 180.628906 262.671875 180.628906 L 273.992188 180.628906 C 276.796875 180.628906 279.101562 178.324219 279.101562 175.515625 Z M 70.378906 175.515625 C 70.378906 172.710938 68.074219 170.40625 65.269531 170.40625 L 53.945312 170.40625 C 51.140625 170.40625 48.835938 172.710938 48.835938 175.515625 C 48.835938 178.324219 51.140625 180.628906 53.945312 180.628906 L 65.269531 180.628906 C 68.074219 180.628906 70.378906 178.324219 70.378906 175.515625 Z M 121.28125 221.113281 C 121.28125 218.308594 118.980469 216.003906 116.171875 216.003906 L 51.640625 216.003906 C 48.835938 216.003906 46.53125 218.308594 46.53125 221.113281 C 46.53125 223.917969 48.835938 226.222656 51.640625 226.222656 L 116.171875 226.222656 C 118.980469 226.125 121.28125 223.917969 121.28125 221.113281 Z M 203.949219 221.113281 C 203.949219 218.308594 201.644531 216.003906 198.839844 216.003906 L 157.054688 216.003906 C 154.25 216.003906 151.945312 218.308594 151.945312 221.113281 C 151.945312 223.917969 154.25 226.222656 157.054688 226.222656 L 198.839844 226.222656 C 201.644531 226.125 203.949219 223.917969 203.949219 221.113281 Z M 20.578125 221.113281 C 20.578125 218.308594 18.273438 216.003906 15.46875 216.003906 C 12.664062 216.003906 10.359375 218.308594 10.359375 221.113281 C 10.359375 223.917969 12.664062 226.222656 15.46875 226.222656 C 18.273438 226.222656 20.578125 223.917969 20.578125 221.113281 Z M 248.039062 221.113281 C 248.039062 218.308594 245.734375 216.003906 242.929688 216.003906 L 212.570312 216.003906 C 209.761719 216.003906 207.457031 218.308594 207.457031 221.113281 C 207.457031 223.917969 209.761719 226.222656 212.570312 226.222656 L 242.929688 226.222656 C 245.734375 226.125 248.039062 223.917969 248.039062 221.113281 Z M 279.804688 221.113281 C 279.804688 218.308594 277.5 216.003906 274.695312 216.003906 L 263.371094 216.003906 C 260.566406 216.003906 258.261719 218.308594 258.261719 221.113281 C 258.261719 223.917969 260.566406 226.222656 263.371094 226.222656 L 274.695312 226.222656 C 277.5 226.125 279.804688 223.917969 279.804688 221.113281 Z M 172.886719 243.761719 C 172.886719 240.957031 170.582031 238.652344 167.777344 238.652344 L 141.222656 238.652344 C 138.417969 238.652344 136.113281 240.957031 136.113281 243.761719 C 136.113281 246.566406 138.417969 248.871094 141.222656 248.871094 L 167.777344 248.871094 C 170.582031 248.871094 172.886719 246.566406 172.886719 243.761719 Z M 124.488281 243.761719 C 124.488281 240.957031 122.183594 238.652344 119.378906 238.652344 L 85.210938 238.652344 C 82.40625 238.652344 80.101562 240.957031 80.101562 243.761719 C 80.101562 246.566406 82.40625 248.871094 85.210938 248.871094 L 119.378906 248.871094 C 122.183594 248.871094 124.488281 246.566406 124.488281 243.761719 Z M 48.335938 243.761719 C 48.335938 240.957031 46.03125 238.652344 43.226562 238.652344 L 31.902344 238.652344 C 29.097656 238.652344 26.792969 240.957031 26.792969 243.761719 C 26.792969 246.566406 29.097656 248.871094 31.902344 248.871094 L 43.226562 248.871094 C 46.03125 248.871094 48.335938 246.667969 48.335938 243.761719 Z M 68.476562 243.761719 C 68.476562 240.957031 66.171875 238.652344 63.367188 238.652344 L 55.75 238.652344 C 52.945312 238.652344 50.640625 240.957031 50.640625 243.761719 C 50.640625 246.566406 52.945312 248.871094 55.75 248.871094 L 63.367188 248.871094 C 66.171875 248.871094 68.476562 246.566406 68.476562 243.761719 Z M 238.722656 243.863281 C 238.722656 241.054688 236.417969 238.75 233.609375 238.75 L 199.441406 238.75 C 196.636719 238.75 194.332031 241.054688 194.332031 243.863281 C 194.332031 246.667969 196.636719 248.972656 199.441406 248.972656 L 233.609375 248.972656 C 236.417969 248.972656 238.722656 246.667969 238.722656 243.863281 Z M 303.152344 243.761719 C 303.152344 240.957031 300.847656 238.652344 298.042969 238.652344 L 271.488281 238.652344 C 268.683594 238.652344 266.378906 240.957031 266.378906 243.761719 C 266.378906 246.566406 268.683594 248.871094 271.488281 248.871094 L 298.042969 248.871094 C 300.847656 248.871094 303.152344 246.566406 303.152344 243.761719 Z M 191.726562 39.324219 C 191.726562 36.519531 189.421875 34.214844 186.617188 34.214844 L 137.316406 34.214844 C 134.511719 34.214844 132.207031 36.519531 132.207031 39.324219 C 132.207031 42.132812 134.511719 44.4375 137.316406 44.4375 L 186.714844 44.4375 C 189.523438 44.335938 191.726562 42.132812 191.726562 39.324219 Z M 231.40625 39.324219 C 231.40625 36.519531 229.101562 34.214844 226.296875 34.214844 L 214.972656 34.214844 C 212.167969 34.214844 209.863281 36.519531 209.863281 39.324219 C 209.863281 42.132812 212.167969 44.4375 214.972656 44.4375 L 226.296875 44.4375 C 229.101562 44.4375 231.40625 42.132812 231.40625 39.324219 Z M 100.742188 39.324219 C 100.742188 36.519531 98.4375 34.214844 95.632812 34.214844 L 84.308594 34.214844 C 81.503906 34.214844 79.199219 36.519531 79.199219 39.324219 C 79.199219 42.132812 81.503906 44.4375 84.308594 44.4375 L 95.632812 44.4375 C 98.4375 44.4375 100.742188 42.132812 100.742188 39.324219 Z M 121.582031 39.324219 C 121.582031 36.519531 119.277344 34.214844 116.472656 34.214844 L 108.859375 34.214844 C 106.050781 34.214844 103.746094 36.519531 103.746094 39.324219 C 103.746094 42.132812 106.050781 44.4375 108.859375 44.4375 L 116.472656 44.4375 C 119.277344 44.4375 121.582031 42.132812 121.582031 39.324219 Z M 279.703125 39.324219 C 279.703125 36.519531 277.398438 34.214844 274.59375 34.214844 L 240.425781 34.214844 C 237.621094 34.214844 235.316406 36.519531 235.316406 39.324219 C 235.316406 42.132812 237.621094 44.4375 240.425781 44.4375 L 274.59375 44.4375 C 277.398438 44.4375 279.703125 42.132812 279.703125 39.324219 Z M 59.859375 39.324219 C 59.859375 36.519531 57.554688 34.214844 54.75 34.214844 L 12.964844 34.214844 C 10.15625 34.214844 7.851562 36.519531 7.851562 39.324219 C 7.851562 42.132812 10.15625 44.4375 12.964844 44.4375 L 54.75 44.4375 C 57.554688 44.4375 59.859375 42.132812 59.859375 39.324219 Z M 152.546875 130.121094 C 152.546875 127.3125 150.242188 125.007812 147.4375 125.007812 L 136.113281 125.007812 C 133.308594 125.007812 131.003906 127.3125 131.003906 130.121094 C 131.003906 132.925781 133.308594 135.230469 136.113281 135.230469 L 147.4375 135.230469 C 150.242188 135.230469 152.546875 132.925781 152.546875 130.121094 Z M 93.027344 130.121094 C 93.027344 127.3125 90.722656 125.007812 87.914062 125.007812 L 53.746094 125.007812 C 50.941406 125.007812 48.636719 127.3125 48.636719 130.121094 C 48.636719 132.925781 50.941406 135.230469 53.746094 135.230469 L 87.914062 135.230469 C 90.722656 135.230469 93.027344 132.925781 93.027344 130.121094 Z M 232.808594 130.121094 C 232.808594 127.3125 230.503906 125.007812 227.699219 125.007812 L 167.675781 125.007812 C 164.871094 125.007812 162.566406 127.3125 162.566406 130.121094 C 162.566406 132.925781 164.871094 135.230469 167.675781 135.230469 L 227.699219 135.230469 C 230.503906 135.230469 232.808594 133.027344 232.808594 130.121094 C 232.808594 130.21875 232.808594 130.121094 232.808594 130.121094 Z M 113.96875 130.121094 C 113.96875 127.3125 111.664062 125.007812 108.859375 125.007812 C 106.050781 125.007812 103.746094 127.3125 103.746094 130.121094 C 103.746094 132.925781 106.050781 135.230469 108.859375 135.230469 C 111.664062 135.230469 113.96875 132.925781 113.96875 130.121094 Z M 279.804688 130.121094 C 279.804688 127.3125 277.5 125.007812 274.695312 125.007812 L 263.371094 125.007812 C 260.566406 125.007812 258.261719 127.3125 258.261719 130.121094 C 258.261719 132.925781 260.566406 135.230469 263.371094 135.230469 L 274.695312 135.230469 C 277.5 135.230469 279.804688 132.925781 279.804688 130.121094 Z M 28.496094 130.121094 C 28.496094 127.3125 26.191406 125.007812 23.382812 125.007812 L 12.0625 125.007812 C 9.257812 125.007812 6.953125 127.3125 6.953125 130.121094 C 6.953125 132.925781 9.257812 135.230469 12.0625 135.230469 L 23.382812 135.230469 C 26.191406 135.230469 28.496094 132.925781 28.496094 130.121094 Z M 38.113281 312.007812 C 38.113281 309.203125 35.808594 306.894531 33.003906 306.894531 L 14.066406 306.894531 C 11.261719 306.894531 8.957031 309.203125 8.957031 312.007812 C 8.957031 314.8125 11.261719 317.117188 14.066406 317.117188 L 33.003906 317.117188 C 35.808594 317.117188 38.113281 314.8125 38.113281 312.007812 Z M 116.675781 312.007812 C 116.675781 309.203125 114.371094 306.894531 111.5625 306.894531 L 77.394531 306.894531 C 74.589844 306.894531 72.285156 309.203125 72.285156 312.007812 C 72.285156 314.8125 74.589844 317.117188 77.394531 317.117188 L 111.5625 317.117188 C 114.371094 317.117188 116.675781 314.8125 116.675781 312.007812 Z M 206.855469 312.007812 C 206.855469 309.203125 204.550781 306.894531 201.746094 306.894531 L 167.578125 306.894531 C 164.769531 306.894531 162.464844 309.203125 162.464844 312.007812 C 162.464844 314.8125 164.769531 317.117188 167.578125 317.117188 L 201.746094 317.117188 C 204.550781 317.117188 206.855469 314.8125 206.855469 312.007812 Z M 240.824219 312.007812 C 240.824219 309.203125 238.519531 306.894531 235.714844 306.894531 L 224.390625 306.894531 C 221.585938 306.894531 219.28125 309.203125 219.28125 312.007812 C 219.28125 314.8125 221.585938 317.117188 224.390625 317.117188 L 235.714844 317.117188 C 238.519531 317.117188 240.824219 314.8125 240.824219 312.007812 Z M 276.097656 312.007812 C 276.097656 309.203125 273.792969 306.894531 270.988281 306.894531 C 268.179688 306.894531 265.875 309.203125 265.875 312.007812 C 265.875 314.8125 268.179688 317.117188 270.988281 317.117188 C 273.792969 317.117188 276.097656 314.8125 276.097656 312.007812 Z M 197.4375 289.257812 C 197.4375 286.453125 195.132812 284.148438 192.328125 284.148438 L 158.15625 284.148438 C 155.351562 284.148438 153.046875 286.453125 153.046875 289.257812 C 153.046875 292.066406 155.351562 294.371094 158.15625 294.371094 L 192.328125 294.371094 C 195.132812 294.371094 197.4375 292.066406 197.4375 289.257812 Z M 127.394531 289.257812 C 127.394531 286.453125 125.089844 284.148438 122.285156 284.148438 L 110.960938 284.148438 C 108.15625 284.148438 105.851562 286.453125 105.851562 289.257812 C 105.851562 292.066406 108.15625 294.371094 110.960938 294.371094 L 122.285156 294.371094 C 125.089844 294.371094 127.394531 292.066406 127.394531 289.257812 Z M 147.4375 289.257812 C 147.4375 286.453125 145.132812 284.148438 142.324219 284.148438 L 134.710938 284.148438 C 131.90625 284.148438 129.601562 286.453125 129.601562 289.257812 C 129.601562 292.066406 131.90625 294.371094 134.710938 294.371094 L 142.324219 294.371094 C 145.132812 294.371094 147.4375 292.164062 147.4375 289.257812 Z M 20.480469 289.257812 C 20.480469 286.453125 18.175781 284.148438 15.367188 284.148438 C 12.5625 284.148438 10.257812 286.453125 10.257812 289.257812 C 10.257812 292.066406 12.5625 294.371094 15.367188 294.371094 C 18.175781 294.371094 20.480469 292.164062 20.480469 289.257812 C 20.480469 289.359375 20.480469 289.257812 20.480469 289.257812 Z M 250.144531 289.257812 C 250.144531 286.453125 247.839844 284.148438 245.035156 284.148438 L 210.863281 284.148438 C 208.058594 284.148438 205.753906 286.453125 205.753906 289.257812 C 205.753906 292.066406 208.058594 294.371094 210.863281 294.371094 L 245.035156 294.371094 C 247.839844 294.371094 250.144531 292.066406 250.144531 289.257812 Z M 276.199219 289.257812 C 276.199219 286.453125 273.894531 284.148438 271.085938 284.148438 L 259.765625 284.148438 C 256.957031 284.148438 254.652344 286.453125 254.652344 289.257812 C 254.652344 292.066406 256.957031 294.371094 259.765625 294.371094 L 271.085938 294.371094 C 273.894531 294.371094 276.199219 292.164062 276.199219 289.257812 C 276.199219 289.359375 276.199219 289.257812 276.199219 289.257812 Z M 81.402344 289.257812 C 81.402344 286.453125 79.097656 284.148438 76.292969 284.148438 C 73.484375 284.148438 71.179688 286.453125 71.179688 289.257812 C 71.179688 292.066406 73.484375 294.371094 76.292969 294.371094 C 79.097656 294.371094 81.402344 292.066406 81.402344 289.257812 Z M 48.734375 289.257812 C 48.734375 286.453125 46.429688 284.148438 43.625 284.148438 L 32.300781 284.148438 C 29.496094 284.148438 27.191406 286.453125 27.191406 289.257812 C 27.191406 292.066406 29.496094 294.371094 32.300781 294.371094 L 43.625 294.371094 C 46.429688 294.371094 48.734375 292.066406 48.734375 289.257812 Z M 192.527344 266.609375 C 192.527344 263.804688 190.222656 261.5 187.417969 261.5 L 127.394531 261.5 C 124.589844 261.5 122.285156 263.804688 122.285156 266.609375 C 122.285156 269.417969 124.589844 271.722656 127.394531 271.722656 L 187.417969 271.722656 C 190.222656 271.722656 192.527344 269.417969 192.527344 266.609375 Z M 89.019531 266.609375 C 89.019531 263.804688 86.714844 261.5 83.90625 261.5 C 81.101562 261.5 78.796875 263.804688 78.796875 266.609375 C 78.796875 269.417969 81.101562 271.722656 83.90625 271.722656 C 86.714844 271.722656 89.019531 269.417969 89.019531 266.609375 Z M 268.683594 266.609375 C 268.683594 263.804688 266.378906 261.5 263.570312 261.5 L 218.78125 261.5 C 215.976562 261.5 213.671875 263.804688 213.671875 266.609375 C 213.671875 269.417969 215.976562 271.722656 218.78125 271.722656 L 263.570312 271.722656 C 266.378906 271.722656 268.683594 269.417969 268.683594 266.609375 Z M 61.664062 266.609375 C 61.664062 263.804688 59.359375 261.5 56.550781 261.5 L 11.761719 261.5 C 8.957031 261.5 6.652344 263.804688 6.652344 266.609375 C 6.652344 269.417969 8.957031 271.722656 11.761719 271.722656 L 56.550781 271.722656 C 59.359375 271.722656 61.664062 269.417969 61.664062 266.609375 Z M 202.347656 152.867188 C 202.347656 150.0625 200.042969 147.757812 197.238281 147.757812 L 137.316406 147.757812 C 134.511719 147.757812 132.207031 150.0625 132.207031 152.867188 C 132.207031 155.675781 134.511719 157.980469 137.316406 157.980469 L 197.335938 157.980469 C 200.144531 157.878906 202.347656 155.675781 202.347656 152.867188 Z M 91.824219 152.867188 C 91.824219 150.0625 89.519531 147.757812 86.714844 147.757812 C 83.90625 147.757812 81.601562 150.0625 81.601562 152.867188 C 81.601562 155.675781 83.90625 157.980469 86.714844 157.980469 C 89.519531 157.878906 91.824219 155.675781 91.824219 152.867188 Z M 276.097656 152.867188 C 276.097656 150.0625 273.792969 147.757812 270.988281 147.757812 L 226.195312 147.757812 C 223.390625 147.757812 221.085938 150.0625 221.085938 152.867188 C 221.085938 155.675781 223.390625 157.980469 226.195312 157.980469 L 270.988281 157.980469 C 273.792969 157.878906 276.097656 155.675781 276.097656 152.867188 Z M 64.46875 152.867188 C 64.46875 150.0625 62.164062 147.757812 59.359375 147.757812 L 14.566406 147.757812 C 11.761719 147.757812 9.457031 150.0625 9.457031 152.867188 C 9.457031 155.675781 11.761719 157.980469 14.566406 157.980469 L 59.359375 157.980469 C 62.164062 157.878906 64.46875 155.675781 64.46875 152.867188 Z M 117.777344 152.867188 C 117.777344 150.0625 115.472656 147.757812 112.664062 147.757812 L 105.050781 147.757812 C 102.246094 147.757812 99.941406 150.0625 99.941406 152.867188 C 99.941406 155.675781 102.246094 157.980469 105.050781 157.980469 L 112.664062 157.980469 C 115.472656 157.878906 117.777344 155.675781 117.777344 152.867188 Z M 223.890625 61.972656 C 223.890625 59.167969 221.585938 56.863281 218.78125 56.863281 L 176.996094 56.863281 C 174.191406 56.863281 171.886719 59.167969 171.886719 61.972656 C 171.886719 64.78125 174.191406 67.085938 176.996094 67.085938 L 218.78125 67.085938 C 221.585938 67.085938 223.890625 64.78125 223.890625 61.972656 Z M 93.027344 61.972656 C 93.027344 59.167969 90.722656 56.863281 87.914062 56.863281 L 23.382812 56.863281 C 20.578125 56.863281 18.273438 59.167969 18.273438 61.972656 C 18.273438 64.78125 20.578125 67.085938 23.382812 67.085938 L 87.914062 67.085938 C 90.722656 67.085938 93.027344 64.78125 93.027344 61.972656 Z M 129.300781 61.972656 C 129.300781 59.167969 126.996094 56.863281 124.1875 56.863281 C 121.382812 56.863281 119.078125 59.167969 119.078125 61.972656 C 119.078125 64.78125 121.382812 67.085938 124.1875 67.085938 C 126.996094 67.085938 129.300781 64.78125 129.300781 61.972656 Z M 275.09375 61.972656 C 275.09375 59.167969 272.789062 56.863281 269.984375 56.863281 L 258.660156 56.863281 C 255.855469 56.863281 253.550781 59.167969 253.550781 61.972656 C 253.550781 64.78125 255.855469 67.085938 258.660156 67.085938 L 269.984375 67.085938 C 272.789062 67.085938 275.09375 64.878906 275.09375 61.972656 Z M 244.433594 61.972656 C 244.433594 59.167969 242.128906 56.863281 239.324219 56.863281 C 236.515625 56.863281 234.210938 59.167969 234.210938 61.972656 C 234.210938 64.78125 236.515625 67.085938 239.324219 67.085938 C 242.128906 67.085938 244.433594 64.78125 244.433594 61.972656 Z M 171.085938 335.355469 C 171.085938 332.550781 168.78125 330.246094 165.972656 330.246094 L 154.652344 330.246094 C 151.84375 330.246094 149.539062 332.550781 149.539062 335.355469 C 149.539062 338.164062 151.84375 340.46875 154.652344 340.46875 L 165.972656 340.46875 C 168.78125 340.46875 171.085938 338.164062 171.085938 335.355469 Z M 98.035156 335.355469 C 98.035156 332.550781 95.730469 330.246094 92.925781 330.246094 L 58.757812 330.246094 C 55.949219 330.246094 53.644531 332.550781 53.644531 335.355469 C 53.644531 338.164062 55.949219 340.46875 58.757812 340.46875 L 92.925781 340.46875 C 95.730469 340.46875 98.035156 338.164062 98.035156 335.355469 Z M 129.300781 335.355469 C 129.300781 332.550781 126.996094 330.246094 124.1875 330.246094 C 121.382812 330.246094 119.078125 332.550781 119.078125 335.355469 C 119.078125 338.164062 121.382812 340.46875 124.1875 340.46875 C 126.996094 340.46875 129.300781 338.164062 129.300781 335.355469 Z M 269.382812 335.355469 C 269.382812 332.550781 267.078125 330.246094 264.273438 330.246094 L 204.25 330.246094 C 201.445312 330.246094 199.140625 332.550781 199.140625 335.355469 C 199.140625 338.164062 201.445312 340.46875 204.25 340.46875 L 264.273438 340.46875 C 267.078125 340.46875 269.382812 338.164062 269.382812 335.355469 Z M 113.96875 335.355469 C 113.96875 332.550781 111.664062 330.246094 108.859375 330.246094 C 106.050781 330.246094 103.746094 332.550781 103.746094 335.355469 C 103.746094 338.164062 106.050781 340.46875 108.859375 340.46875 C 111.664062 340.46875 113.96875 338.164062 113.96875 335.355469 Z M 43.125 334.65625 C 43.125 331.851562 40.820312 329.542969 38.015625 329.542969 L 19.074219 329.542969 C 16.269531 329.542969 13.964844 331.851562 13.964844 334.65625 C 13.964844 337.460938 16.269531 339.765625 19.074219 339.765625 L 38.113281 339.765625 C 40.921875 339.765625 43.125 337.5625 43.125 334.757812 C 43.125 334.757812 43.125 334.65625 43.125 334.65625 Z M 35.710938 198.363281 C 35.710938 195.558594 33.40625 193.253906 30.597656 193.253906 L 11.5625 193.253906 C 8.753906 193.253906 6.449219 195.558594 6.449219 198.363281 C 6.449219 201.171875 8.753906 203.476562 11.5625 203.476562 L 30.5 203.476562 C 33.304688 203.476562 35.710938 201.171875 35.710938 198.363281 Z M 119.480469 198.363281 C 119.480469 195.558594 117.175781 193.253906 114.371094 193.253906 L 80.199219 193.253906 C 77.394531 193.253906 75.089844 195.558594 75.089844 198.363281 C 75.089844 201.171875 77.394531 203.476562 80.199219 203.476562 L 114.371094 203.476562 C 117.175781 203.476562 119.480469 201.171875 119.480469 198.363281 Z M 187.21875 198.265625 C 187.21875 195.457031 184.914062 193.152344 182.105469 193.152344 L 140.320312 193.152344 C 137.515625 193.152344 135.210938 195.457031 135.210938 198.265625 C 135.210938 201.070312 137.515625 203.375 140.320312 203.375 L 182.105469 203.375 C 184.914062 203.277344 187.21875 201.070312 187.21875 198.265625 Z M 243.632812 198.363281 C 243.632812 195.558594 241.328125 193.253906 238.519531 193.253906 L 227.199219 193.253906 C 224.390625 193.253906 222.085938 195.558594 222.085938 198.363281 C 222.085938 201.171875 224.390625 203.476562 227.199219 203.476562 L 238.519531 203.476562 C 241.328125 203.476562 243.632812 201.171875 243.632812 198.363281 Z M 263.671875 198.363281 C 263.671875 195.558594 261.367188 193.253906 258.5625 193.253906 C 255.757812 193.253906 253.453125 195.558594 253.453125 198.363281 C 253.453125 201.171875 255.757812 203.476562 258.5625 203.476562 C 261.367188 203.476562 263.671875 201.171875 263.671875 198.363281 Z M 277.800781 198.265625 C 277.800781 195.457031 275.496094 193.152344 272.691406 193.152344 C 269.882812 193.152344 267.578125 195.457031 267.578125 198.265625 C 267.578125 201.070312 269.882812 203.375 272.691406 203.375 C 275.496094 203.277344 277.800781 201.070312 277.800781 198.265625 Z M 111.664062 107.472656 C 111.664062 104.664062 109.359375 102.359375 106.554688 102.359375 L 34.40625 102.359375 C 31.601562 102.359375 29.296875 104.664062 29.296875 107.472656 C 29.296875 110.277344 31.601562 112.582031 34.40625 112.582031 L 106.554688 112.582031 C 109.359375 112.480469 111.664062 110.277344 111.664062 107.472656 Z M 170.582031 107.472656 C 170.582031 104.664062 168.277344 102.359375 165.472656 102.359375 L 131.304688 102.359375 C 128.496094 102.359375 126.191406 104.664062 126.191406 107.472656 C 126.191406 110.277344 128.496094 112.582031 131.304688 112.582031 L 165.472656 112.582031 C 168.277344 112.480469 170.582031 110.277344 170.582031 107.472656 Z M 239.722656 107.472656 C 239.722656 104.664062 237.417969 102.359375 234.613281 102.359375 L 200.445312 102.359375 C 197.636719 102.359375 195.332031 104.664062 195.332031 107.472656 C 195.332031 110.277344 197.636719 112.582031 200.445312 112.582031 L 234.613281 112.582031 C 237.417969 112.480469 239.722656 110.277344 239.722656 107.472656 Z M 273.691406 107.472656 C 273.691406 104.664062 271.386719 102.359375 268.582031 102.359375 L 257.257812 102.359375 C 254.453125 102.359375 252.148438 104.664062 252.148438 107.472656 C 252.148438 110.277344 254.453125 112.582031 257.257812 112.582031 L 268.582031 112.582031 C 271.386719 112.480469 273.691406 110.277344 273.691406 107.472656 Z M 306.660156 107.472656 C 306.660156 104.664062 304.355469 102.359375 301.550781 102.359375 C 298.742188 102.359375 296.4375 104.664062 296.4375 107.472656 C 296.4375 110.277344 298.742188 112.582031 301.550781 112.582031 C 304.355469 112.480469 306.660156 110.277344 306.660156 107.472656 Z M 24.6875 107.472656 C 24.6875 104.664062 22.382812 102.359375 19.578125 102.359375 L 15.871094 102.359375 C 13.0625 102.359375 10.757812 104.664062 10.757812 107.472656 C 10.757812 110.277344 13.0625 112.582031 15.871094 112.582031 L 19.675781 112.582031 C 22.484375 112.480469 24.6875 110.277344 24.6875 107.472656 Z M 95.832031 358.105469 C 95.832031 355.300781 93.527344 352.996094 90.722656 352.996094 L 26.191406 352.996094 C 23.382812 352.996094 21.078125 355.300781 21.078125 358.105469 C 21.078125 360.910156 23.382812 363.214844 26.191406 363.214844 L 90.722656 363.214844 C 93.527344 363.214844 95.832031 360.910156 95.832031 358.105469 Z M 200.542969 358.105469 C 200.542969 355.300781 198.238281 352.996094 195.433594 352.996094 L 153.648438 352.996094 C 150.84375 352.996094 148.539062 355.300781 148.539062 358.105469 C 148.539062 360.910156 150.84375 363.214844 153.648438 363.214844 L 195.433594 363.214844 C 198.238281 363.214844 200.542969 360.910156 200.542969 358.105469 Z M 17.171875 358.105469 C 17.171875 355.300781 14.867188 352.996094 12.0625 352.996094 C 9.257812 352.996094 6.953125 355.300781 6.953125 358.105469 C 6.953125 360.910156 9.257812 363.214844 12.0625 363.214844 C 14.867188 363.214844 17.171875 360.910156 17.171875 358.105469 Z M 244.632812 358.105469 C 244.632812 355.300781 242.328125 352.996094 239.523438 352.996094 L 209.160156 352.996094 C 206.355469 352.996094 204.050781 355.300781 204.050781 358.105469 C 204.050781 360.910156 206.355469 363.214844 209.160156 363.214844 L 239.523438 363.214844 C 242.328125 363.214844 244.632812 361.011719 244.632812 358.105469 Z M 276.398438 358.105469 C 276.398438 355.300781 274.09375 352.996094 271.289062 352.996094 L 259.964844 352.996094 C 257.160156 352.996094 254.855469 355.300781 254.855469 358.105469 C 254.855469 360.910156 257.160156 363.214844 259.964844 363.214844 L 271.289062 363.214844 C 274.09375 363.214844 276.398438 360.910156 276.398438 358.105469 Z M 325.398438 84.421875 C 325.398438 81.617188 323.09375 79.3125 320.285156 79.3125 L 286.117188 79.3125 C 283.3125 79.3125 281.007812 81.617188 281.007812 84.421875 C 281.007812 87.226562 283.3125 89.53125 286.117188 89.53125 L 320.285156 89.53125 C 323.09375 89.53125 325.398438 87.226562 325.398438 84.421875 Z M 328.804688 175.714844 C 328.804688 172.910156 326.5 170.605469 323.695312 170.605469 L 289.523438 170.605469 C 286.71875 170.605469 284.414062 172.910156 284.414062 175.714844 C 284.414062 178.523438 286.71875 180.828125 289.523438 180.828125 L 323.695312 180.828125 C 326.5 180.726562 328.703125 178.523438 328.804688 175.714844 Z M 361.46875 175.714844 C 361.46875 172.910156 359.164062 170.605469 356.359375 170.605469 L 348.746094 170.605469 C 345.9375 170.605469 343.632812 172.910156 343.632812 175.714844 C 343.632812 178.523438 345.9375 180.828125 348.746094 180.828125 L 356.359375 180.828125 C 359.164062 180.726562 361.371094 178.523438 361.46875 175.714844 Z M 347.640625 16.578125 C 347.640625 13.769531 345.335938 11.464844 342.53125 11.464844 L 334.917969 11.464844 C 332.109375 11.464844 329.804688 13.769531 329.804688 16.578125 C 329.804688 19.382812 332.109375 21.6875 334.917969 21.6875 L 342.53125 21.6875 C 345.335938 21.6875 347.640625 19.382812 347.640625 16.578125 Z M 340.328125 130.121094 C 340.328125 127.3125 338.023438 125.007812 335.21875 125.007812 L 323.894531 125.007812 C 321.089844 125.007812 318.785156 127.3125 318.785156 130.121094 C 318.785156 132.925781 321.089844 135.230469 323.894531 135.230469 L 335.21875 135.230469 C 338.023438 135.230469 340.328125 132.925781 340.328125 130.121094 Z M 295.035156 130.121094 C 295.035156 127.3125 292.730469 125.007812 289.925781 125.007812 C 287.121094 125.007812 284.816406 127.3125 284.816406 130.121094 C 284.816406 132.925781 287.121094 135.230469 289.925781 135.230469 C 292.730469 135.230469 295.035156 132.925781 295.035156 130.121094 Z M 365.378906 152.867188 C 365.378906 150.0625 363.074219 147.757812 360.269531 147.757812 L 320.285156 147.757812 C 317.480469 147.757812 315.175781 150.0625 315.175781 152.867188 C 315.175781 155.675781 317.480469 157.980469 320.285156 157.980469 L 360.269531 157.980469 C 363.074219 157.878906 365.378906 155.675781 365.378906 152.867188 Z M 307.761719 151.964844 C 307.761719 149.160156 305.457031 146.855469 302.652344 146.855469 L 295.035156 146.855469 C 292.230469 146.855469 289.925781 149.160156 289.925781 151.964844 C 289.925781 154.773438 292.230469 157.078125 295.035156 157.078125 L 302.652344 157.078125 C 305.457031 157.078125 307.761719 154.773438 307.761719 151.964844 Z M 366.28125 61.972656 C 366.28125 59.167969 363.976562 56.863281 361.171875 56.863281 L 319.386719 56.863281 C 316.578125 56.863281 314.273438 59.167969 314.273438 61.972656 C 314.273438 64.78125 316.578125 67.085938 319.386719 67.085938 L 361.171875 67.085938 C 363.976562 67.085938 366.28125 64.78125 366.28125 61.972656 Z M 297.339844 61.972656 C 297.339844 59.167969 295.035156 56.863281 292.230469 56.863281 C 289.425781 56.863281 287.121094 59.167969 287.121094 61.972656 C 287.121094 64.78125 289.425781 67.085938 292.230469 67.085938 C 295.035156 67.085938 297.339844 64.78125 297.339844 61.972656 Z M 309.464844 198.566406 C 309.464844 195.757812 307.160156 193.453125 304.355469 193.453125 L 270.183594 193.453125 C 267.378906 193.453125 265.074219 195.757812 265.074219 198.566406 C 265.074219 201.371094 267.378906 203.675781 270.183594 203.675781 L 304.355469 203.675781 C 307.160156 203.574219 309.464844 201.371094 309.464844 198.566406 Z M 368.183594 198.363281 C 368.183594 195.558594 365.878906 193.253906 363.074219 193.253906 L 330.308594 193.253906 C 327.5 193.253906 325.195312 195.558594 325.195312 198.363281 C 325.195312 201.171875 327.5 203.476562 330.308594 203.476562 L 363.074219 203.476562 C 365.878906 203.476562 368.183594 201.171875 368.183594 198.363281 Z M 367.984375 106.570312 C 367.984375 103.761719 365.679688 101.457031 362.875 101.457031 L 328.703125 101.457031 C 325.898438 101.457031 323.59375 103.761719 323.59375 106.570312 C 323.59375 109.375 325.898438 111.679688 328.703125 111.679688 L 362.875 111.679688 C 365.679688 111.679688 367.984375 109.476562 367.984375 106.570312 Z M 348.542969 39.324219 C 348.542969 36.519531 346.238281 34.214844 343.433594 34.214844 L 301.648438 34.214844 C 298.84375 34.214844 296.539062 36.519531 296.539062 39.324219 C 296.539062 42.132812 298.84375 44.4375 301.648438 44.4375 L 343.433594 44.4375 C 346.238281 44.4375 348.542969 42.132812 348.542969 39.324219 Z M 365.378906 16.578125 C 365.378906 13.769531 363.074219 11.464844 360.269531 11.464844 C 357.460938 11.464844 355.15625 13.769531 355.15625 16.578125 C 355.15625 19.382812 357.460938 21.6875 360.269531 21.6875 C 363.074219 21.6875 365.378906 19.382812 365.378906 16.578125 Z M 350.949219 84.121094 C 350.847656 81.316406 348.542969 79.109375 345.738281 79.210938 C 342.933594 79.3125 340.726562 81.617188 340.828125 84.421875 C 340.929688 87.226562 343.234375 89.433594 346.039062 89.332031 C 348.84375 89.230469 351.050781 87.027344 350.949219 84.222656 C 350.949219 84.222656 350.949219 84.121094 350.949219 84.121094 Z M 295.035156 130.121094 C 295.035156 127.3125 292.730469 125.007812 289.925781 125.007812 C 287.121094 125.007812 284.816406 127.3125 284.816406 130.121094 C 284.816406 132.925781 287.121094 135.230469 289.925781 135.230469 C 292.730469 135.230469 295.035156 132.925781 295.035156 130.121094 Z M 312.269531 312.007812 C 312.269531 309.203125 309.964844 306.894531 307.160156 306.894531 L 288.222656 306.894531 C 285.417969 306.894531 283.113281 309.203125 283.113281 312.007812 C 283.113281 314.8125 285.417969 317.117188 288.222656 317.117188 L 307.160156 317.117188 C 309.964844 317.117188 312.269531 314.8125 312.269531 312.007812 Z M 365.277344 221.113281 C 365.277344 218.308594 362.972656 216.003906 360.167969 216.003906 L 346.039062 216.003906 C 343.234375 216.003906 340.929688 218.308594 340.929688 221.113281 C 340.929688 223.917969 343.234375 226.222656 346.039062 226.222656 L 360.167969 226.222656 C 362.972656 226.125 365.277344 223.917969 365.277344 221.113281 Z M 294.636719 289.257812 C 294.636719 286.453125 292.332031 284.148438 289.523438 284.148438 C 286.71875 284.148438 284.414062 286.453125 284.414062 289.257812 C 284.414062 292.066406 286.71875 294.371094 289.523438 294.371094 C 292.332031 294.371094 294.636719 292.066406 294.636719 289.257812 Z M 355.558594 289.257812 C 355.558594 286.453125 353.253906 284.148438 350.449219 284.148438 C 347.640625 284.148438 345.335938 286.453125 345.335938 289.257812 C 345.335938 292.066406 347.640625 294.371094 350.449219 294.371094 C 353.253906 294.371094 355.558594 292.066406 355.558594 289.257812 Z M 355.757812 266.609375 C 355.757812 263.804688 353.453125 261.5 350.648438 261.5 L 305.859375 261.5 C 303.050781 261.5 300.746094 263.804688 300.746094 266.609375 C 300.746094 269.417969 303.050781 271.722656 305.859375 271.722656 L 350.648438 271.722656 C 353.453125 271.722656 355.757812 269.417969 355.757812 266.609375 Z M 367.082031 335.355469 C 367.082031 332.550781 364.777344 330.246094 361.972656 330.246094 L 327.800781 330.246094 C 324.996094 330.246094 322.691406 332.550781 322.691406 335.355469 C 322.691406 338.164062 324.996094 340.46875 327.800781 340.46875 L 361.972656 340.46875 C 364.777344 340.46875 367.082031 338.261719 367.082031 335.355469 Z M 317.28125 334.65625 C 317.28125 331.851562 314.976562 329.542969 312.171875 329.542969 L 293.230469 329.542969 C 290.425781 329.542969 288.121094 331.851562 288.121094 334.65625 C 288.121094 337.460938 290.425781 339.765625 293.230469 339.765625 L 312.171875 339.765625 C 314.976562 339.765625 317.28125 337.460938 317.28125 334.65625 Z M 361.972656 358.105469 C 361.972656 355.300781 359.667969 352.996094 356.859375 352.996094 L 322.390625 352.996094 C 319.585938 352.996094 317.28125 355.300781 317.28125 358.105469 C 317.28125 360.910156 319.585938 363.214844 322.390625 363.214844 L 356.859375 363.214844 C 359.667969 363.214844 361.972656 360.910156 361.972656 358.105469 Z M 331.609375 221.113281 C 331.609375 218.308594 329.304688 216.003906 326.5 216.003906 L 292.332031 216.003906 C 289.523438 216.003906 287.21875 218.308594 287.21875 221.113281 C 287.21875 223.917969 289.523438 226.222656 292.332031 226.222656 L 326.5 226.222656 C 329.304688 226.125 331.609375 223.917969 331.609375 221.113281 Z M 355.558594 289.257812 C 355.558594 286.453125 353.253906 284.148438 350.449219 284.148438 C 347.640625 284.148438 345.335938 286.453125 345.335938 289.257812 C 345.335938 292.066406 347.640625 294.371094 350.449219 294.371094 C 353.253906 294.371094 355.558594 292.066406 355.558594 289.257812 Z M 358.664062 312.007812 C 358.664062 309.203125 356.359375 306.894531 353.554688 306.894531 L 319.386719 306.894531 C 316.578125 306.894531 314.273438 309.203125 314.273438 312.007812 C 314.273438 314.8125 316.578125 317.117188 319.386719 317.117188 L 353.554688 317.117188 C 356.359375 317.117188 358.664062 314.8125 358.664062 312.007812 Z M 361.972656 358.105469 C 361.972656 355.300781 359.667969 352.996094 356.859375 352.996094 L 322.390625 352.996094 C 319.585938 352.996094 317.28125 355.300781 317.28125 358.105469 C 317.28125 360.910156 319.585938 363.214844 322.390625 363.214844 L 356.859375 363.214844 C 359.667969 363.214844 361.972656 360.910156 361.972656 358.105469 Z M 355.558594 289.257812 C 355.558594 286.453125 353.253906 284.148438 350.449219 284.148438 C 347.640625 284.148438 345.335938 286.453125 345.335938 289.257812 C 345.335938 292.066406 347.640625 294.371094 350.449219 294.371094 C 353.253906 294.371094 355.558594 292.066406 355.558594 289.257812 Z M 318.28125 243.863281 C 318.28125 241.054688 315.976562 238.75 313.171875 238.75 C 310.367188 238.75 308.0625 241.054688 308.0625 243.863281 C 308.0625 246.667969 310.367188 248.972656 313.171875 248.972656 C 315.976562 248.972656 318.28125 246.667969 318.28125 243.863281 Z M 366.582031 243.761719 C 366.582031 240.957031 364.277344 238.652344 361.46875 238.652344 C 358.664062 238.652344 356.359375 240.957031 356.359375 243.761719 C 356.359375 246.566406 358.664062 248.871094 361.46875 248.871094 C 364.277344 248.871094 366.582031 246.566406 366.582031 243.761719 Z M 366.582031 243.761719 " fill-opacity="1" fill-rule="nonzero"/></g></svg>