<svg xmlns="http://www.w3.org/2000/svg" xmlns:xlink="http://www.w3.org/1999/xlink" width="500" zoomAndPan="magnify" viewBox="0 0 375 374.999991" height="500" preserveAspectRatio="xMidYMid meet" version="1.0"><rect x="-37.5" width="450" fill="#ffffff" y="-37.499999" height="449.999989" fill-opacity="1"/><rect x="-37.5" width="450" fill="#ffffff" y="-37.499999" height="449.999989" fill-opacity="1"/><path fill="#383838" d="M 33.101562 46.8125 L 33.101562 43.691406 C 36.535156 43.691406 39.347656 40.882812 39.347656 37.449219 C 39.347656 34.019531 36.535156 31.210938 33.101562 31.210938 L 33.101562 28.089844 C 38.304688 28.089844 42.46875 32.25 42.46875 37.449219 C 42.46875 42.652344 38.304688 46.8125 33.101562 46.8125 Z M 196.941406 38.90625 L 196.941406 35.785156 L 178.203125 35.785156 L 178.203125 38.90625 Z M 187.570312 341.8125 C 192.777344 341.8125 196.941406 337.652344 196.941406 332.453125 L 193.816406 332.453125 C 193.816406 335.886719 191.007812 338.691406 187.570312 338.691406 C 184.136719 338.691406 181.324219 335.886719 181.324219 332.453125 L 178.203125 332.453125 C 178.203125 337.550781 182.367188 341.8125 187.570312 341.8125 Z M 107.941406 262.03125 C 107.941406 267.230469 112.105469 271.390625 117.308594 271.390625 L 117.308594 268.273438 C 113.875 268.273438 111.066406 265.464844 111.066406 262.03125 C 111.066406 258.597656 113.875 255.789062 117.308594 255.789062 L 117.308594 252.667969 C 112.210938 252.667969 107.941406 256.933594 107.941406 262.03125 Z M 43.613281 194.730469 L 45.800781 192.441406 L 32.582031 179.230469 L 30.394531 181.414062 Z M 346.832031 114.320312 L 346.832031 111.203125 L 328.09375 111.203125 L 328.09375 114.320312 Z M 332.777344 187.550781 C 332.777344 192.753906 336.941406 196.914062 342.144531 196.914062 L 342.144531 193.792969 C 338.710938 193.792969 335.902344 190.984375 335.902344 187.550781 C 335.902344 184.121094 338.710938 181.3125 342.144531 181.3125 L 342.144531 178.191406 C 337.046875 178.191406 332.777344 182.351562 332.777344 187.550781 Z M 192.046875 112.449219 C 192.046875 107.25 187.882812 103.085938 182.679688 103.085938 L 182.679688 106.207031 C 186.113281 106.207031 188.925781 109.015625 188.925781 112.449219 C 188.925781 115.882812 186.113281 118.691406 182.679688 118.691406 L 182.679688 121.8125 C 187.882812 121.8125 192.046875 117.546875 192.046875 112.449219 Z M 114.082031 102.878906 L 110.960938 102.878906 L 110.960938 121.601562 L 114.082031 121.601562 Z M 196.835938 188.800781 L 196.835938 185.679688 L 178.097656 185.679688 L 178.097656 188.800781 Z M 346.832031 338.484375 L 346.832031 335.363281 L 328.09375 335.363281 L 328.09375 338.484375 Z M 346.832031 338.484375 " fill-opacity="1" fill-rule="nonzero"/><path fill="#ed14ed" d="M 339.023438 271.601562 L 335.902344 271.601562 L 335.902344 252.875 L 339.023438 252.875 Z M 114.082031 28.089844 L 110.960938 28.089844 L 110.960938 46.8125 L 114.082031 46.8125 Z M 32.476562 120.457031 L 30.289062 118.273438 L 43.511719 105.0625 L 45.695312 107.25 Z M 254.398438 31.832031 L 256.582031 29.648438 L 269.804688 42.859375 L 267.617188 45.042969 Z M 271.886719 117.027344 L 268.761719 117.027344 C 268.761719 113.59375 265.953125 110.785156 262.515625 110.785156 C 259.082031 110.785156 256.269531 113.59375 256.269531 117.027344 L 253.148438 117.027344 C 253.148438 111.824219 257.3125 107.664062 262.515625 107.664062 C 267.617188 107.664062 271.886719 111.929688 271.886719 117.027344 Z M 182.574219 270.558594 L 180.390625 268.375 L 193.609375 255.164062 L 195.792969 257.347656 Z M 38.929688 271.496094 L 35.808594 271.496094 L 35.808594 252.773438 L 38.929688 252.773438 Z M 263.972656 346.390625 L 260.851562 346.390625 L 260.851562 327.667969 L 263.972656 327.667969 Z M 46.839844 341.710938 L 43.71875 341.710938 C 43.71875 338.277344 40.90625 335.46875 37.472656 335.46875 C 34.039062 335.46875 31.226562 338.277344 31.226562 341.710938 L 28.105469 341.710938 C 28.105469 336.507812 32.269531 332.347656 37.472656 332.347656 C 42.675781 332.347656 46.839844 336.507812 46.839844 341.710938 Z M 331.945312 45.148438 L 329.757812 42.964844 L 342.980469 29.753906 L 345.164062 31.9375 Z M 106.796875 345.140625 L 104.609375 342.957031 L 117.832031 329.746094 L 120.015625 331.933594 Z M 256.582031 195.25 L 254.398438 193.066406 L 267.617188 179.855469 L 269.804688 182.039062 Z M 103.152344 182.558594 L 106.277344 182.558594 C 106.277344 185.992188 109.085938 188.800781 112.523438 188.800781 C 115.957031 188.800781 118.765625 185.992188 118.765625 182.558594 L 121.890625 182.558594 C 121.890625 187.761719 117.726562 191.921875 112.523438 191.921875 C 107.421875 191.921875 103.152344 187.761719 103.152344 182.558594 Z M 271.886719 266.710938 L 268.761719 266.710938 C 268.761719 263.277344 265.953125 260.46875 262.515625 260.46875 C 259.082031 260.46875 256.269531 263.277344 256.269531 266.710938 L 253.148438 266.710938 C 253.148438 261.511719 257.3125 257.347656 262.515625 257.347656 C 267.722656 257.347656 271.886719 261.613281 271.886719 266.710938 Z M 271.886719 266.710938 " fill-opacity="1" fill-rule="nonzero"/></svg>