<svg xmlns="http://www.w3.org/2000/svg" xmlns:xlink="http://www.w3.org/1999/xlink" width="500" zoomAndPan="magnify" viewBox="0 0 375 374.999991" height="500" preserveAspectRatio="xMidYMid meet" version="1.0"><defs><clipPath id="8b3b90843f"><path d="M 0 0 L 372.75 0 L 372.75 375 L 0 375 Z M 0 0 " clip-rule="nonzero"/></clipPath></defs><rect x="-37.5" width="450" fill="#ffffff" y="-37.499999" height="449.999989" fill-opacity="1"/><rect x="-37.5" width="450" fill="#ffffff" y="-37.499999" height="449.999989" fill-opacity="1"/><path fill="#ed3b3b" d="M 191.902344 66 C 191.902344 69.015625 189.515625 71.40625 186.5 71.40625 C 184.617188 71.40625 182.730469 70.398438 181.726562 68.765625 L 131.34375 68.765625 C 130.589844 70.902344 128.453125 72.285156 126.191406 72.285156 C 123.175781 72.285156 120.789062 69.769531 120.789062 66.753906 C 120.789062 64.492188 122.296875 62.480469 124.433594 61.726562 L 124.433594 11.441406 L 123.679688 11.0625 L 70.90625 64.492188 C 71.285156 65.246094 71.410156 66 71.410156 66.878906 C 71.410156 69.894531 68.898438 72.285156 65.882812 72.285156 C 62.867188 72.285156 60.476562 69.769531 60.476562 66.753906 C 60.476562 63.734375 62.992188 61.347656 66.007812 61.347656 C 66.761719 61.347656 67.515625 61.472656 68.269531 61.726562 L 121.039062 8.171875 C 120.789062 7.542969 120.664062 6.789062 120.664062 6.160156 C 120.664062 3.144531 123.175781 0.753906 126.191406 0.753906 C 129.207031 0.753906 131.59375 3.269531 131.59375 6.285156 C 131.59375 8.546875 130.210938 10.558594 128.074219 11.3125 L 128.074219 61.597656 C 129.582031 62.226562 130.714844 63.359375 131.34375 64.867188 L 181.097656 64.867188 C 181.601562 62.351562 183.738281 60.46875 186.375 60.34375 C 189.515625 60.46875 191.902344 62.980469 191.902344 66 Z M 306.742188 363.308594 C 305.863281 363.308594 304.859375 363.558594 304.105469 364.0625 L 251.460938 310.761719 C 251.835938 310.007812 252.085938 309.125 252.085938 308.246094 C 252.085938 305.230469 249.574219 302.839844 246.558594 302.839844 C 243.542969 302.839844 241.15625 305.355469 241.15625 308.371094 C 241.15625 310.636719 242.539062 312.648438 244.675781 313.402344 L 244.675781 363.6875 C 241.910156 364.816406 240.402344 367.960938 241.535156 370.726562 C 242.664062 373.492188 245.804688 375 248.570312 373.867188 C 250.707031 372.988281 252.085938 370.976562 252.085938 368.714844 C 252.085938 366.453125 250.578125 364.441406 248.445312 363.6875 L 248.445312 313.527344 C 248.570312 313.527344 248.695312 313.402344 248.820312 313.402344 L 301.71875 366.953125 C 301.464844 367.582031 301.339844 368.335938 301.339844 368.964844 C 301.464844 371.984375 303.980469 374.371094 306.996094 374.246094 C 310.011719 374.121094 312.398438 371.605469 312.273438 368.589844 C 312.144531 365.699219 309.757812 363.308594 306.742188 363.308594 Z M 306.742188 363.308594 " fill-opacity="1" fill-rule="nonzero"/><g clip-path="url(#8b3b90843f)"><path fill="#383838" d="M 306.742188 181.78125 C 303.726562 181.78125 301.339844 184.292969 301.339844 187.3125 C 301.339844 190.328125 303.851562 192.71875 306.867188 192.71875 C 309.882812 192.71875 312.269531 190.203125 312.269531 187.1875 C 312.269531 184.167969 309.757812 181.78125 306.742188 181.78125 Z M 306.742188 242.375 C 303.726562 242.375 301.339844 244.886719 301.339844 247.90625 C 301.339844 250.921875 303.851562 253.308594 306.867188 253.308594 C 309.882812 253.308594 312.269531 250.796875 312.269531 247.777344 C 312.269531 244.761719 309.757812 242.375 306.742188 242.375 Z M 306.742188 302.839844 C 303.726562 302.839844 301.339844 305.355469 301.339844 308.371094 C 301.339844 311.390625 303.851562 313.777344 306.867188 313.777344 C 309.882812 313.777344 312.269531 311.265625 312.269531 308.246094 C 312.269531 305.230469 309.757812 302.839844 306.742188 302.839844 Z M 306.742188 121.3125 C 303.726562 121.3125 301.339844 123.828125 301.339844 126.84375 C 301.339844 129.859375 303.851562 132.25 306.867188 132.25 C 309.882812 132.25 312.269531 129.734375 312.269531 126.71875 C 312.269531 123.699219 309.757812 121.3125 306.742188 121.3125 Z M 306.742188 0.378906 C 303.726562 0.378906 301.339844 2.890625 301.339844 5.910156 C 301.339844 8.925781 303.851562 11.3125 306.867188 11.3125 C 309.882812 11.3125 312.269531 8.800781 312.269531 5.78125 C 312.269531 2.765625 309.757812 0.378906 306.742188 0.378906 Z M 186.375 181.402344 C 183.359375 181.402344 180.972656 183.917969 180.972656 186.933594 C 180.972656 189.953125 183.484375 192.339844 186.5 192.339844 C 189.515625 192.339844 191.902344 189.953125 191.902344 186.933594 C 191.902344 183.917969 189.515625 181.402344 186.5 181.402344 C 186.5 181.402344 186.375 181.402344 186.375 181.402344 Z M 186.375 241.871094 C 183.359375 241.871094 180.972656 244.386719 180.972656 247.402344 C 180.972656 250.417969 183.484375 252.808594 186.5 252.808594 C 189.515625 252.808594 191.902344 250.417969 191.902344 247.402344 C 191.902344 244.386719 189.515625 241.871094 186.5 241.871094 C 186.5 241.871094 186.375 241.871094 186.375 241.871094 Z M 186.375 302.339844 C 183.359375 302.339844 180.972656 304.851562 180.972656 307.871094 C 180.972656 310.886719 183.484375 313.273438 186.5 313.273438 C 189.515625 313.273438 191.902344 310.886719 191.902344 307.871094 C 191.902344 304.851562 189.515625 302.339844 186.5 302.339844 C 186.5 302.339844 186.375 302.339844 186.375 302.339844 Z M 186.375 362.804688 C 183.359375 362.804688 180.972656 365.320312 180.972656 368.335938 C 180.972656 371.355469 183.484375 373.742188 186.5 373.742188 C 189.515625 373.742188 191.902344 371.355469 191.902344 368.335938 C 191.902344 365.320312 189.515625 362.804688 186.5 362.804688 C 186.5 362.804688 186.375 362.804688 186.375 362.804688 Z M 186.375 120.933594 C 183.359375 120.933594 180.972656 123.449219 180.972656 126.464844 C 180.972656 129.484375 183.484375 131.871094 186.5 131.871094 C 189.515625 131.871094 191.902344 129.484375 191.902344 126.464844 C 191.902344 123.449219 189.515625 120.933594 186.5 120.933594 C 186.5 120.933594 186.375 120.933594 186.375 120.933594 Z M 186.375 0 C 183.359375 0 180.972656 2.515625 180.972656 5.53125 C 180.972656 8.546875 183.484375 10.9375 186.5 10.9375 C 189.515625 10.9375 191.902344 8.546875 191.902344 5.53125 C 191.902344 2.515625 189.515625 0 186.5 0 C 186.5 0 186.375 0 186.375 0 Z M 126.191406 182.410156 C 123.175781 182.410156 120.664062 184.796875 120.664062 187.8125 C 120.664062 190.832031 123.050781 193.34375 126.066406 193.34375 C 129.082031 193.34375 131.59375 190.957031 131.59375 187.941406 C 131.59375 184.921875 129.207031 182.535156 126.191406 182.410156 Z M 126.191406 242.875 C 123.175781 242.875 120.664062 245.265625 120.664062 248.28125 C 120.664062 251.300781 123.050781 253.8125 126.066406 253.8125 C 129.082031 253.8125 131.59375 251.425781 131.59375 248.40625 C 131.59375 245.390625 129.207031 243.003906 126.191406 242.875 Z M 126.191406 303.34375 C 123.175781 303.34375 120.664062 305.734375 120.664062 308.75 C 120.664062 311.765625 123.050781 314.28125 126.066406 314.28125 C 129.082031 314.28125 131.59375 311.890625 131.59375 308.875 C 131.59375 305.859375 129.207031 303.46875 126.191406 303.34375 Z M 126.191406 363.8125 C 123.175781 363.8125 120.664062 366.199219 120.664062 369.21875 C 120.664062 372.234375 123.050781 374.75 126.066406 374.75 C 129.082031 374.75 131.59375 372.359375 131.59375 369.34375 C 131.59375 366.324219 129.207031 363.9375 126.191406 363.8125 Z M 126.191406 121.941406 C 123.175781 121.941406 120.664062 124.328125 120.664062 127.347656 C 120.664062 130.363281 123.050781 132.878906 126.066406 132.878906 C 129.082031 132.878906 131.59375 130.488281 131.59375 127.472656 C 131.59375 124.457031 129.207031 122.066406 126.191406 121.941406 Z M 66.007812 242.875 C 62.992188 242.875 60.476562 245.265625 60.476562 248.28125 C 60.476562 251.300781 62.867188 253.8125 65.882812 253.8125 C 68.898438 253.8125 71.410156 251.425781 71.410156 248.40625 C 71.535156 245.515625 69.398438 243.003906 66.382812 242.875 C 66.257812 242.875 66.132812 242.875 66.007812 242.875 Z M 66.007812 303.34375 C 62.992188 303.34375 60.476562 305.734375 60.476562 308.75 C 60.476562 311.765625 62.867188 314.28125 65.882812 314.28125 C 68.898438 314.28125 71.410156 311.890625 71.410156 308.875 C 71.535156 305.984375 69.398438 303.46875 66.382812 303.34375 C 66.257812 303.34375 66.132812 303.34375 66.007812 303.34375 Z M 66.007812 363.8125 C 62.992188 363.8125 60.476562 366.199219 60.476562 369.21875 C 60.476562 372.234375 62.867188 374.75 65.882812 374.75 C 68.898438 374.75 71.410156 372.359375 71.410156 369.34375 C 71.535156 366.453125 69.398438 363.9375 66.382812 363.8125 C 66.257812 363.8125 66.132812 363.8125 66.007812 363.8125 Z M 66.007812 121.941406 C 62.992188 121.941406 60.476562 124.328125 60.476562 127.347656 C 60.476562 130.363281 62.867188 132.878906 65.882812 132.878906 C 68.898438 132.878906 71.410156 130.488281 71.410156 127.472656 C 71.535156 124.582031 69.398438 122.066406 66.382812 121.941406 C 66.257812 121.941406 66.132812 121.941406 66.007812 121.941406 Z M 66.007812 1.003906 C 62.992188 1.003906 60.476562 3.394531 60.476562 6.410156 C 60.476562 9.429688 62.867188 11.941406 65.882812 11.941406 C 68.898438 11.941406 71.410156 9.554688 71.410156 6.535156 C 71.535156 3.644531 69.398438 1.132812 66.382812 1.003906 C 66.257812 1.003906 66.132812 1.003906 66.007812 1.003906 Z M 5.824219 303.21875 C 2.808594 303.21875 0.292969 305.605469 0.292969 308.625 C 0.292969 311.640625 2.683594 314.15625 5.695312 314.15625 C 8.710938 314.15625 11.226562 311.765625 11.226562 308.75 C 11.226562 305.734375 8.839844 303.34375 5.824219 303.21875 Z M 5.824219 363.6875 C 2.808594 363.6875 0.292969 366.074219 0.292969 369.089844 C 0.292969 372.109375 2.683594 374.621094 5.695312 374.621094 C 8.710938 374.621094 11.226562 372.234375 11.226562 369.21875 C 11.226562 366.199219 8.839844 363.8125 5.824219 363.6875 Z M 5.824219 61.347656 C 2.808594 61.347656 0.292969 63.734375 0.292969 66.753906 C 0.292969 69.769531 2.683594 72.285156 5.695312 72.285156 C 8.710938 72.285156 11.226562 69.894531 11.226562 66.878906 C 11.226562 63.863281 8.839844 61.347656 5.824219 61.347656 Z M 5.824219 121.816406 C 2.808594 121.816406 0.292969 124.203125 0.292969 127.222656 C 0.292969 130.238281 2.683594 132.753906 5.695312 132.753906 C 8.710938 132.753906 11.226562 130.363281 11.226562 127.347656 C 11.226562 124.328125 8.839844 121.941406 5.824219 121.816406 Z M 5.824219 0.878906 C 2.808594 0.878906 0.292969 3.269531 0.292969 6.285156 C 0.292969 9.300781 2.683594 11.816406 5.695312 11.816406 C 8.710938 11.816406 11.226562 9.429688 11.226562 6.410156 C 11.226562 3.394531 8.839844 1.003906 5.824219 0.878906 Z M 246.558594 181.78125 C 243.542969 181.78125 241.15625 184.292969 241.15625 187.3125 C 241.15625 190.328125 243.667969 192.71875 246.683594 192.71875 C 249.699219 192.71875 252.085938 190.203125 252.085938 187.1875 C 252.085938 184.167969 249.574219 181.78125 246.558594 181.78125 Z M 246.558594 242.375 C 243.542969 242.375 241.15625 244.886719 241.15625 247.90625 C 241.15625 250.921875 243.667969 253.308594 246.683594 253.308594 C 249.699219 253.308594 252.085938 250.796875 252.085938 247.777344 C 252.085938 244.761719 249.574219 242.375 246.558594 242.375 Z M 246.558594 60.84375 C 243.542969 60.84375 241.15625 63.359375 241.15625 66.375 C 241.15625 69.394531 243.667969 71.78125 246.683594 71.78125 C 249.699219 71.78125 252.085938 69.265625 252.085938 66.25 C 252.085938 63.234375 249.574219 60.84375 246.558594 60.84375 Z M 246.558594 121.3125 C 243.542969 121.3125 241.15625 123.828125 241.15625 126.84375 C 241.15625 129.859375 243.667969 132.25 246.683594 132.25 C 249.699219 132.25 252.085938 129.734375 252.085938 126.71875 C 252.085938 123.699219 249.574219 121.3125 246.558594 121.3125 Z M 246.558594 0.378906 C 243.542969 0.378906 241.15625 2.890625 241.15625 5.910156 C 241.15625 8.925781 243.667969 11.3125 246.683594 11.3125 C 249.699219 11.3125 252.085938 8.800781 252.085938 5.78125 C 252.085938 2.765625 249.574219 0.378906 246.558594 0.378906 Z M 366.925781 181.78125 C 363.910156 181.78125 361.523438 184.292969 361.523438 187.3125 C 361.523438 190.328125 364.039062 192.71875 367.054688 192.71875 C 370.066406 192.71875 372.457031 190.203125 372.457031 187.1875 C 372.457031 184.167969 369.941406 181.78125 366.925781 181.78125 Z M 366.925781 242.375 C 363.910156 242.375 361.523438 244.886719 361.523438 247.90625 C 361.523438 250.921875 364.039062 253.308594 367.054688 253.308594 C 370.066406 253.308594 372.457031 250.796875 372.457031 247.777344 C 372.457031 244.761719 369.941406 242.375 366.925781 242.375 Z M 366.925781 302.839844 C 363.910156 302.839844 361.523438 305.355469 361.523438 308.371094 C 361.523438 311.390625 364.039062 313.777344 367.054688 313.777344 C 370.066406 313.777344 372.457031 311.265625 372.457031 308.246094 C 372.457031 305.230469 369.941406 302.839844 366.925781 302.839844 Z M 366.925781 363.308594 C 363.910156 363.308594 361.523438 365.824219 361.523438 368.839844 C 361.523438 371.855469 364.039062 374.246094 367.054688 374.246094 C 370.066406 374.246094 372.457031 371.730469 372.457031 368.714844 C 372.457031 365.699219 369.941406 363.308594 366.925781 363.308594 Z M 366.925781 60.84375 C 363.910156 60.84375 361.523438 63.359375 361.523438 66.375 C 361.523438 69.394531 364.039062 71.78125 367.054688 71.78125 C 370.066406 71.78125 372.457031 69.265625 372.457031 66.25 C 372.457031 63.234375 369.941406 60.84375 366.925781 60.84375 Z M 366.925781 0.378906 C 363.910156 0.378906 361.523438 2.890625 361.523438 5.910156 C 361.523438 8.925781 364.039062 11.3125 367.054688 11.3125 C 370.066406 11.3125 372.457031 8.800781 372.457031 5.78125 C 372.457031 2.765625 369.941406 0.378906 366.925781 0.378906 Z M 306.742188 60.84375 C 303.726562 60.84375 301.339844 63.359375 301.339844 66.375 C 301.339844 69.394531 303.851562 71.78125 306.867188 71.78125 C 309.882812 71.78125 312.269531 69.265625 312.269531 66.25 C 312.269531 63.234375 309.757812 60.84375 306.742188 60.84375 Z M 366.925781 120.933594 C 363.910156 120.933594 361.523438 123.449219 361.523438 126.464844 C 361.523438 129.484375 364.039062 131.871094 367.054688 131.871094 C 370.066406 131.871094 372.457031 129.359375 372.457031 126.339844 C 372.457031 123.324219 369.941406 120.933594 366.925781 120.933594 Z M 5.824219 182.28125 C 2.808594 182.28125 0.292969 184.671875 0.292969 187.6875 C 0.292969 190.707031 2.683594 193.21875 5.695312 193.21875 C 8.710938 193.21875 11.226562 190.832031 11.226562 187.8125 C 11.226562 184.796875 8.839844 182.410156 5.824219 182.28125 Z M 5.824219 242.75 C 2.808594 242.75 0.292969 245.140625 0.292969 248.15625 C 0.292969 251.171875 2.683594 253.6875 5.695312 253.6875 C 8.710938 253.6875 11.226562 251.300781 11.226562 248.28125 C 11.226562 245.265625 8.839844 242.875 5.824219 242.75 Z M 66.007812 182.28125 C 62.992188 182.28125 60.476562 184.671875 60.476562 187.6875 C 60.476562 190.707031 62.867188 193.21875 65.882812 193.21875 C 68.898438 193.21875 71.410156 190.832031 71.410156 187.8125 C 71.410156 184.796875 69.023438 182.410156 66.007812 182.28125 Z M 66.007812 182.28125 " fill-opacity="1" fill-rule="nonzero"/></g></svg>