<svg xmlns="http://www.w3.org/2000/svg" xmlns:xlink="http://www.w3.org/1999/xlink" width="500" zoomAndPan="magnify" viewBox="0 0 375 374.999991" height="500" preserveAspectRatio="xMidYMid meet" version="1.0"><defs><g/></defs><g fill="#000000" fill-opacity="1"><g transform="translate(88.022042, 198.743526)"><g><path d="M 17.046875 -19.609375 C 15.335938 -19.609375 13.867188 -18.976562 12.640625 -17.71875 C 11.410156 -16.457031 10.796875 -14.9375 10.796875 -13.15625 C 10.796875 -11.351562 11.410156 -9.816406 12.640625 -8.546875 C 13.867188 -7.285156 15.335938 -6.65625 17.046875 -6.65625 C 17.867188 -6.65625 18.644531 -6.753906 19.375 -6.953125 C 20.113281 -7.160156 20.65625 -7.367188 21 -7.578125 L 21.453125 -7.890625 L 24.53125 -1.59375 C 24.289062 -1.414062 23.957031 -1.195312 23.53125 -0.9375 C 23.101562 -0.6875 22.128906 -0.34375 20.609375 0.09375 C 19.085938 0.539062 17.457031 0.765625 15.71875 0.765625 C 11.863281 0.765625 8.472656 -0.585938 5.546875 -3.296875 C 2.628906 -6.015625 1.171875 -9.269531 1.171875 -13.0625 C 1.171875 -16.882812 2.628906 -20.164062 5.546875 -22.90625 C 8.472656 -25.65625 11.863281 -27.03125 15.71875 -27.03125 C 17.457031 -27.03125 19.0625 -26.828125 20.53125 -26.421875 C 22 -26.015625 23.039062 -25.601562 23.65625 -25.1875 L 24.53125 -24.578125 L 21.453125 -18.375 C 20.328125 -19.195312 18.859375 -19.609375 17.046875 -19.609375 Z M 17.046875 -19.609375 "/></g></g></g><g fill="#000000" fill-opacity="1"><g transform="translate(108.346742, 198.743526)"><g><path d="M 5.546875 -3.125 C 2.628906 -5.71875 1.171875 -9.046875 1.171875 -13.109375 C 1.171875 -17.171875 2.691406 -20.503906 5.734375 -23.109375 C 8.773438 -25.722656 12.53125 -27.03125 17 -27.03125 C 21.40625 -27.03125 25.117188 -25.71875 28.140625 -23.09375 C 31.160156 -20.46875 32.671875 -17.140625 32.671875 -13.109375 C 32.671875 -9.078125 31.191406 -5.753906 28.234375 -3.140625 C 25.285156 -0.535156 21.539062 0.765625 17 0.765625 C 12.289062 0.765625 8.472656 -0.53125 5.546875 -3.125 Z M 12.5625 -17.5625 C 11.382812 -16.40625 10.796875 -14.921875 10.796875 -13.109375 C 10.796875 -11.296875 11.359375 -9.816406 12.484375 -8.671875 C 13.617188 -7.535156 15.109375 -6.96875 16.953125 -6.96875 C 18.722656 -6.96875 20.179688 -7.546875 21.328125 -8.703125 C 22.472656 -9.867188 23.046875 -11.335938 23.046875 -13.109375 C 23.046875 -14.921875 22.457031 -16.40625 21.28125 -17.5625 C 20.101562 -18.71875 18.660156 -19.296875 16.953125 -19.296875 C 15.210938 -19.296875 13.75 -18.71875 12.5625 -17.5625 Z M 12.5625 -17.5625 "/></g></g></g><g fill="#000000" fill-opacity="1"><g transform="translate(137.375314, 198.743526)"><g><path d="M 17.046875 -19.609375 C 15.335938 -19.609375 13.867188 -18.976562 12.640625 -17.71875 C 11.410156 -16.457031 10.796875 -14.9375 10.796875 -13.15625 C 10.796875 -11.351562 11.410156 -9.816406 12.640625 -8.546875 C 13.867188 -7.285156 15.335938 -6.65625 17.046875 -6.65625 C 17.867188 -6.65625 18.644531 -6.753906 19.375 -6.953125 C 20.113281 -7.160156 20.65625 -7.367188 21 -7.578125 L 21.453125 -7.890625 L 24.53125 -1.59375 C 24.289062 -1.414062 23.957031 -1.195312 23.53125 -0.9375 C 23.101562 -0.6875 22.128906 -0.34375 20.609375 0.09375 C 19.085938 0.539062 17.457031 0.765625 15.71875 0.765625 C 11.863281 0.765625 8.472656 -0.585938 5.546875 -3.296875 C 2.628906 -6.015625 1.171875 -9.269531 1.171875 -13.0625 C 1.171875 -16.882812 2.628906 -20.164062 5.546875 -22.90625 C 8.472656 -25.65625 11.863281 -27.03125 15.71875 -27.03125 C 17.457031 -27.03125 19.0625 -26.828125 20.53125 -26.421875 C 22 -26.015625 23.039062 -25.601562 23.65625 -25.1875 L 24.53125 -24.578125 L 21.453125 -18.375 C 20.328125 -19.195312 18.859375 -19.609375 17.046875 -19.609375 Z M 17.046875 -19.609375 "/></g></g></g><g fill="#000000" fill-opacity="1"><g transform="translate(157.700014, 198.743526)"><g><path d="M 5.546875 -3.125 C 2.628906 -5.71875 1.171875 -9.046875 1.171875 -13.109375 C 1.171875 -17.171875 2.691406 -20.503906 5.734375 -23.109375 C 8.773438 -25.722656 12.53125 -27.03125 17 -27.03125 C 21.40625 -27.03125 25.117188 -25.71875 28.140625 -23.09375 C 31.160156 -20.46875 32.671875 -17.140625 32.671875 -13.109375 C 32.671875 -9.078125 31.191406 -5.753906 28.234375 -3.140625 C 25.285156 -0.535156 21.539062 0.765625 17 0.765625 C 12.289062 0.765625 8.472656 -0.53125 5.546875 -3.125 Z M 12.5625 -17.5625 C 11.382812 -16.40625 10.796875 -14.921875 10.796875 -13.109375 C 10.796875 -11.296875 11.359375 -9.816406 12.484375 -8.671875 C 13.617188 -7.535156 15.109375 -6.96875 16.953125 -6.96875 C 18.722656 -6.96875 20.179688 -7.546875 21.328125 -8.703125 C 22.472656 -9.867188 23.046875 -11.335938 23.046875 -13.109375 C 23.046875 -14.921875 22.457031 -16.40625 21.28125 -17.5625 C 20.101562 -18.71875 18.660156 -19.296875 16.953125 -19.296875 C 15.210938 -19.296875 13.75 -18.71875 12.5625 -17.5625 Z M 12.5625 -17.5625 "/></g></g></g><g fill="#000000" fill-opacity="1"><g transform="translate(186.728586, 198.743526)"><g><path d="M 3.078125 0 L 3.078125 -26.265625 L 12.140625 -26.265625 L 12.140625 -23.5 L 12.234375 -23.5 C 14.585938 -25.851562 17.097656 -27.03125 19.765625 -27.03125 C 21.054688 -27.03125 22.34375 -26.859375 23.625 -26.515625 C 24.90625 -26.179688 26.132812 -25.65625 27.3125 -24.9375 C 28.488281 -24.21875 29.441406 -23.203125 30.171875 -21.890625 C 30.910156 -20.578125 31.28125 -19.050781 31.28125 -17.3125 L 31.28125 0 L 22.21875 0 L 22.21875 -14.84375 C 22.21875 -16.207031 21.78125 -17.398438 20.90625 -18.421875 C 20.039062 -19.453125 18.910156 -19.96875 17.515625 -19.96875 C 16.148438 -19.96875 14.910156 -19.4375 13.796875 -18.375 C 12.691406 -17.320312 12.140625 -16.144531 12.140625 -14.84375 L 12.140625 0 Z M 3.078125 0 "/></g></g></g><g fill="#000000" fill-opacity="1"><g transform="translate(215.757164, 198.743526)"><g><path d="M 11.625 -26.265625 L 11.625 -13.78125 C 11.625 -11.175781 12.015625 -9.328125 12.796875 -8.234375 C 13.585938 -7.148438 14.921875 -6.609375 16.796875 -6.609375 C 18.671875 -6.609375 20 -7.148438 20.78125 -8.234375 C 21.570312 -9.328125 21.96875 -11.175781 21.96875 -13.78125 L 21.96875 -26.265625 L 31.03125 -26.265625 L 31.03125 -11.578125 C 31.03125 -7.203125 29.894531 -4.050781 27.625 -2.125 C 25.351562 -0.195312 21.742188 0.765625 16.796875 0.765625 C 11.847656 0.765625 8.238281 -0.195312 5.96875 -2.125 C 3.695312 -4.050781 2.5625 -7.203125 2.5625 -11.578125 L 2.5625 -26.265625 Z M 11.625 -26.265625 "/></g></g></g><g fill="#000000" fill-opacity="1"><g transform="translate(244.529738, 198.743526)"><g><path d="M 4.609375 -26.265625 L 4.609375 -36.046875 L 13.671875 -36.046875 L 13.671875 -26.265625 L 19.203125 -26.265625 L 19.203125 -19.359375 L 13.671875 -19.359375 L 13.671875 -11.015625 C 13.671875 -8.585938 14.351562 -7.375 15.71875 -7.375 C 16.0625 -7.375 16.421875 -7.441406 16.796875 -7.578125 C 17.171875 -7.710938 17.460938 -7.847656 17.671875 -7.984375 L 17.96875 -8.1875 L 20.21875 -0.875 C 18.28125 0.21875 16.0625 0.765625 13.5625 0.765625 C 11.863281 0.765625 10.398438 0.46875 9.171875 -0.125 C 7.941406 -0.726562 7.007812 -1.53125 6.375 -2.53125 C 5.738281 -3.539062 5.285156 -4.597656 5.015625 -5.703125 C 4.742188 -6.816406 4.609375 -8.003906 4.609375 -9.265625 L 4.609375 -19.359375 L 0.8125 -19.359375 L 0.8125 -26.265625 Z M 4.609375 -26.265625 "/></g></g></g><g fill="#000000" fill-opacity="1"><g transform="translate(259.939298, 198.743526)"><g/></g></g><g fill="#000000" fill-opacity="1"><g transform="translate(269.102559, 198.743526)"><g><path d="M 8.90625 -10.953125 C 10.539062 -10.953125 11.929688 -10.378906 13.078125 -9.234375 C 14.222656 -8.097656 14.796875 -6.707031 14.796875 -5.0625 C 14.796875 -3.457031 14.222656 -2.082031 13.078125 -0.9375 C 11.929688 0.195312 10.539062 0.765625 8.90625 0.765625 C 7.300781 0.765625 5.925781 0.195312 4.78125 -0.9375 C 3.644531 -2.082031 3.078125 -3.457031 3.078125 -5.0625 C 3.078125 -6.707031 3.644531 -8.097656 4.78125 -9.234375 C 5.925781 -10.378906 7.300781 -10.953125 8.90625 -10.953125 Z M 8.90625 -10.953125 "/></g></g></g><g fill="#000000" fill-opacity="1"><g transform="translate(136.491105, 212.619406)"><g><path d="M 3.078125 -5.53125 C 3.617188 -5.53125 4.070312 -5.441406 4.4375 -5.265625 C 4.800781 -5.097656 4.984375 -4.878906 4.984375 -4.609375 C 4.984375 -4.492188 4.941406 -4.390625 4.859375 -4.296875 C 4.785156 -4.203125 4.691406 -4.15625 4.578125 -4.15625 C 4.484375 -4.15625 4.410156 -4.164062 4.359375 -4.1875 C 4.316406 -4.21875 4.25 -4.265625 4.15625 -4.328125 C 4.113281 -4.367188 4.046875 -4.414062 3.953125 -4.46875 C 3.878906 -4.507812 3.765625 -4.546875 3.609375 -4.578125 C 3.453125 -4.609375 3.316406 -4.625 3.203125 -4.625 C 2.835938 -4.625 2.515625 -4.539062 2.234375 -4.375 C 1.960938 -4.207031 1.75 -3.976562 1.59375 -3.6875 C 1.445312 -3.394531 1.375 -3.070312 1.375 -2.71875 C 1.375 -2.351562 1.445312 -2.023438 1.59375 -1.734375 C 1.75 -1.441406 1.957031 -1.210938 2.21875 -1.046875 C 2.488281 -0.878906 2.796875 -0.796875 3.140625 -0.796875 C 3.503906 -0.796875 3.796875 -0.851562 4.015625 -0.96875 C 4.054688 -1 4.117188 -1.046875 4.203125 -1.109375 C 4.273438 -1.160156 4.335938 -1.195312 4.390625 -1.21875 C 4.441406 -1.25 4.503906 -1.265625 4.578125 -1.265625 C 4.710938 -1.265625 4.816406 -1.222656 4.890625 -1.140625 C 4.972656 -1.054688 5.015625 -0.941406 5.015625 -0.796875 C 5.015625 -0.660156 4.921875 -0.519531 4.734375 -0.375 C 4.554688 -0.238281 4.316406 -0.125 4.015625 -0.03125 C 3.710938 0.0625 3.382812 0.109375 3.03125 0.109375 C 2.507812 0.109375 2.046875 -0.0078125 1.640625 -0.25 C 1.242188 -0.5 0.9375 -0.835938 0.71875 -1.265625 C 0.507812 -1.703125 0.40625 -2.1875 0.40625 -2.71875 C 0.40625 -3.238281 0.515625 -3.710938 0.734375 -4.140625 C 0.960938 -4.578125 1.28125 -4.914062 1.6875 -5.15625 C 2.09375 -5.40625 2.554688 -5.53125 3.078125 -5.53125 Z M 3.078125 -5.53125 "/></g></g></g><g fill="#000000" fill-opacity="1"><g transform="translate(148.505918, 212.619406)"><g><path d="M 5.84375 -2.703125 C 5.84375 -2.160156 5.722656 -1.675781 5.484375 -1.25 C 5.242188 -0.832031 4.914062 -0.5 4.5 -0.25 C 4.082031 -0.0078125 3.625 0.109375 3.125 0.109375 C 2.625 0.109375 2.164062 -0.0078125 1.75 -0.25 C 1.332031 -0.5 1.003906 -0.832031 0.765625 -1.25 C 0.523438 -1.675781 0.40625 -2.160156 0.40625 -2.703125 C 0.40625 -3.234375 0.523438 -3.71875 0.765625 -4.15625 C 1.003906 -4.59375 1.332031 -4.929688 1.75 -5.171875 C 2.164062 -5.410156 2.625 -5.53125 3.125 -5.53125 C 3.625 -5.53125 4.082031 -5.410156 4.5 -5.171875 C 4.914062 -4.929688 5.242188 -4.59375 5.484375 -4.15625 C 5.722656 -3.71875 5.84375 -3.234375 5.84375 -2.703125 Z M 4.875 -2.703125 C 4.875 -3.078125 4.796875 -3.410156 4.640625 -3.703125 C 4.484375 -3.992188 4.269531 -4.21875 4 -4.375 C 3.738281 -4.539062 3.445312 -4.625 3.125 -4.625 C 2.800781 -4.625 2.503906 -4.539062 2.234375 -4.375 C 1.972656 -4.21875 1.765625 -3.992188 1.609375 -3.703125 C 1.453125 -3.410156 1.375 -3.078125 1.375 -2.703125 C 1.375 -2.335938 1.453125 -2.007812 1.609375 -1.71875 C 1.765625 -1.4375 1.972656 -1.210938 2.234375 -1.046875 C 2.503906 -0.878906 2.800781 -0.796875 3.125 -0.796875 C 3.445312 -0.796875 3.738281 -0.878906 4 -1.046875 C 4.269531 -1.210938 4.484375 -1.4375 4.640625 -1.71875 C 4.796875 -2.007812 4.875 -2.335938 4.875 -2.703125 Z M 4.875 -2.703125 "/></g></g></g><g fill="#000000" fill-opacity="1"><g transform="translate(161.468406, 212.619406)"><g><path d="M 0.421875 -0.84375 C 0.359375 -0.9375 0.328125 -1.03125 0.328125 -1.125 C 0.328125 -1.257812 0.398438 -1.375 0.546875 -1.46875 C 0.617188 -1.519531 0.695312 -1.546875 0.78125 -1.546875 C 0.90625 -1.546875 1.019531 -1.492188 1.125 -1.390625 C 1.332031 -1.160156 1.550781 -0.984375 1.78125 -0.859375 C 2.019531 -0.742188 2.304688 -0.6875 2.640625 -0.6875 C 2.898438 -0.695312 3.128906 -0.757812 3.328125 -0.875 C 3.523438 -0.988281 3.625 -1.171875 3.625 -1.421875 C 3.625 -1.660156 3.519531 -1.835938 3.3125 -1.953125 C 3.113281 -2.078125 2.820312 -2.191406 2.4375 -2.296875 C 2.050781 -2.398438 1.726562 -2.507812 1.46875 -2.625 C 1.21875 -2.738281 1.003906 -2.898438 0.828125 -3.109375 C 0.648438 -3.328125 0.5625 -3.613281 0.5625 -3.96875 C 0.5625 -4.28125 0.648438 -4.550781 0.828125 -4.78125 C 1.003906 -5.019531 1.238281 -5.203125 1.53125 -5.328125 C 1.820312 -5.460938 2.140625 -5.53125 2.484375 -5.53125 C 2.816406 -5.53125 3.144531 -5.46875 3.46875 -5.34375 C 3.789062 -5.21875 4.054688 -5.03125 4.265625 -4.78125 C 4.347656 -4.675781 4.390625 -4.570312 4.390625 -4.46875 C 4.390625 -4.363281 4.335938 -4.257812 4.234375 -4.15625 C 4.160156 -4.09375 4.070312 -4.0625 3.96875 -4.0625 C 3.84375 -4.0625 3.742188 -4.101562 3.671875 -4.1875 C 3.523438 -4.351562 3.347656 -4.476562 3.140625 -4.5625 C 2.929688 -4.65625 2.695312 -4.703125 2.4375 -4.703125 C 2.175781 -4.703125 1.953125 -4.648438 1.765625 -4.546875 C 1.585938 -4.441406 1.5 -4.257812 1.5 -4 C 1.507812 -3.757812 1.613281 -3.582031 1.8125 -3.46875 C 2.019531 -3.351562 2.332031 -3.238281 2.75 -3.125 C 3.113281 -3.03125 3.414062 -2.925781 3.65625 -2.8125 C 3.894531 -2.707031 4.097656 -2.546875 4.265625 -2.328125 C 4.429688 -2.109375 4.515625 -1.820312 4.515625 -1.46875 C 4.515625 -1.144531 4.421875 -0.863281 4.234375 -0.625 C 4.046875 -0.394531 3.800781 -0.210938 3.5 -0.078125 C 3.207031 0.046875 2.894531 0.109375 2.5625 0.109375 C 2.125 0.109375 1.71875 0.0351562 1.34375 -0.109375 C 0.976562 -0.265625 0.671875 -0.507812 0.421875 -0.84375 Z M 0.421875 -0.84375 "/></g></g></g><g fill="#000000" fill-opacity="1"><g transform="translate(173.102097, 212.619406)"><g><path d="M 6.9375 -5.5 C 8.132812 -5.5 8.734375 -4.75 8.734375 -3.25 L 8.734375 -0.5 C 8.734375 -0.351562 8.6875 -0.234375 8.59375 -0.140625 C 8.507812 -0.046875 8.394531 0 8.25 0 C 8.101562 0 7.984375 -0.046875 7.890625 -0.140625 C 7.796875 -0.234375 7.75 -0.351562 7.75 -0.5 L 7.75 -3.234375 C 7.75 -4.140625 7.375 -4.59375 6.625 -4.59375 C 6.351562 -4.59375 6.109375 -4.53125 5.890625 -4.40625 C 5.671875 -4.289062 5.5 -4.128906 5.375 -3.921875 C 5.257812 -3.710938 5.203125 -3.484375 5.203125 -3.234375 L 5.203125 -0.5 C 5.203125 -0.351562 5.15625 -0.234375 5.0625 -0.140625 C 4.96875 -0.046875 4.851562 0 4.71875 0 C 4.570312 0 4.453125 -0.046875 4.359375 -0.140625 C 4.273438 -0.234375 4.234375 -0.351562 4.234375 -0.5 L 4.234375 -3.25 C 4.234375 -3.65625 4.144531 -3.976562 3.96875 -4.21875 C 3.800781 -4.46875 3.515625 -4.59375 3.109375 -4.59375 C 2.703125 -4.59375 2.367188 -4.460938 2.109375 -4.203125 C 1.847656 -3.941406 1.71875 -3.625 1.71875 -3.25 L 1.71875 -0.5 C 1.71875 -0.351562 1.671875 -0.234375 1.578125 -0.140625 C 1.484375 -0.046875 1.363281 0 1.21875 0 C 1.070312 0 0.953125 -0.046875 0.859375 -0.140625 C 0.773438 -0.234375 0.734375 -0.351562 0.734375 -0.5 L 0.734375 -4.90625 C 0.734375 -5.039062 0.78125 -5.15625 0.875 -5.25 C 0.96875 -5.351562 1.082031 -5.40625 1.21875 -5.40625 C 1.363281 -5.40625 1.484375 -5.351562 1.578125 -5.25 C 1.671875 -5.15625 1.71875 -5.039062 1.71875 -4.90625 L 1.71875 -4.546875 C 1.894531 -4.816406 2.128906 -5.039062 2.421875 -5.21875 C 2.722656 -5.40625 3.050781 -5.5 3.40625 -5.5 C 4.257812 -5.5 4.8125 -5.117188 5.0625 -4.359375 C 5.21875 -4.648438 5.46875 -4.910156 5.8125 -5.140625 C 6.164062 -5.378906 6.539062 -5.5 6.9375 -5.5 Z M 6.9375 -5.5 "/></g></g></g><g fill="#000000" fill-opacity="1"><g transform="translate(189.278417, 212.619406)"><g><path d="M 5.46875 -2.90625 C 5.46875 -2.78125 5.414062 -2.675781 5.3125 -2.59375 C 5.21875 -2.507812 5.109375 -2.46875 4.984375 -2.46875 L 1.34375 -2.46875 C 1.394531 -1.96875 1.585938 -1.5625 1.921875 -1.25 C 2.253906 -0.945312 2.660156 -0.796875 3.140625 -0.796875 C 3.472656 -0.796875 3.742188 -0.84375 3.953125 -0.9375 C 4.160156 -1.039062 4.34375 -1.164062 4.5 -1.3125 C 4.601562 -1.375 4.703125 -1.40625 4.796875 -1.40625 C 4.910156 -1.40625 5.003906 -1.363281 5.078125 -1.28125 C 5.160156 -1.207031 5.203125 -1.113281 5.203125 -1 C 5.203125 -0.851562 5.132812 -0.722656 5 -0.609375 C 4.800781 -0.410156 4.535156 -0.238281 4.203125 -0.09375 C 3.878906 0.0390625 3.546875 0.109375 3.203125 0.109375 C 2.640625 0.109375 2.144531 -0.00390625 1.71875 -0.234375 C 1.300781 -0.472656 0.976562 -0.800781 0.75 -1.21875 C 0.519531 -1.644531 0.40625 -2.125 0.40625 -2.65625 C 0.40625 -3.226562 0.519531 -3.734375 0.75 -4.171875 C 0.988281 -4.609375 1.300781 -4.941406 1.6875 -5.171875 C 2.082031 -5.410156 2.503906 -5.53125 2.953125 -5.53125 C 3.390625 -5.53125 3.800781 -5.414062 4.1875 -5.1875 C 4.570312 -4.957031 4.878906 -4.644531 5.109375 -4.25 C 5.347656 -3.851562 5.46875 -3.40625 5.46875 -2.90625 Z M 2.953125 -4.625 C 2.566406 -4.625 2.234375 -4.515625 1.953125 -4.296875 C 1.671875 -4.078125 1.484375 -3.742188 1.390625 -3.296875 L 4.4375 -3.296875 L 4.4375 -3.375 C 4.40625 -3.738281 4.238281 -4.035156 3.9375 -4.265625 C 3.644531 -4.503906 3.316406 -4.625 2.953125 -4.625 Z M 2.953125 -4.625 "/></g></g></g><g fill="#000000" fill-opacity="1"><g transform="translate(201.87007, 212.619406)"><g><path d="M 2.203125 -4.4375 L 2.203125 -1.375 C 2.203125 -1.03125 2.351562 -0.859375 2.65625 -0.859375 C 2.707031 -0.859375 2.773438 -0.867188 2.859375 -0.890625 C 2.941406 -0.910156 3.003906 -0.921875 3.046875 -0.921875 C 3.140625 -0.921875 3.21875 -0.882812 3.28125 -0.8125 C 3.34375 -0.738281 3.375 -0.644531 3.375 -0.53125 C 3.375 -0.382812 3.289062 -0.257812 3.125 -0.15625 C 2.957031 -0.0507812 2.769531 0 2.5625 0 C 2.34375 0 2.132812 -0.0195312 1.9375 -0.0625 C 1.75 -0.113281 1.582031 -0.238281 1.4375 -0.4375 C 1.289062 -0.632812 1.21875 -0.929688 1.21875 -1.328125 L 1.21875 -4.4375 L 0.625 -4.4375 C 0.488281 -4.4375 0.378906 -4.476562 0.296875 -4.5625 C 0.210938 -4.65625 0.171875 -4.769531 0.171875 -4.90625 C 0.171875 -5.03125 0.210938 -5.132812 0.296875 -5.21875 C 0.378906 -5.300781 0.488281 -5.34375 0.625 -5.34375 L 1.21875 -5.34375 L 1.21875 -6.203125 C 1.21875 -6.347656 1.265625 -6.46875 1.359375 -6.5625 C 1.453125 -6.65625 1.570312 -6.703125 1.71875 -6.703125 C 1.851562 -6.703125 1.96875 -6.65625 2.0625 -6.5625 C 2.15625 -6.46875 2.203125 -6.347656 2.203125 -6.203125 L 2.203125 -5.34375 L 3.046875 -5.34375 C 3.179688 -5.34375 3.289062 -5.296875 3.375 -5.203125 C 3.457031 -5.117188 3.5 -5.015625 3.5 -4.890625 C 3.5 -4.753906 3.457031 -4.644531 3.375 -4.5625 C 3.289062 -4.476562 3.179688 -4.4375 3.046875 -4.4375 Z M 2.203125 -4.4375 "/></g></g></g><g fill="#000000" fill-opacity="1"><g transform="translate(212.504589, 212.619406)"><g><path d="M 1.65625 -0.5 C 1.65625 -0.351562 1.609375 -0.234375 1.515625 -0.140625 C 1.421875 -0.046875 1.304688 0 1.171875 0 C 1.023438 0 0.90625 -0.046875 0.8125 -0.140625 C 0.726562 -0.234375 0.6875 -0.351562 0.6875 -0.5 L 0.6875 -4.953125 C 0.6875 -5.097656 0.726562 -5.21875 0.8125 -5.3125 C 0.90625 -5.40625 1.023438 -5.453125 1.171875 -5.453125 C 1.304688 -5.453125 1.421875 -5.40625 1.515625 -5.3125 C 1.609375 -5.21875 1.65625 -5.097656 1.65625 -4.953125 Z M 1.15625 -6.140625 C 0.957031 -6.140625 0.816406 -6.175781 0.734375 -6.25 C 0.648438 -6.320312 0.609375 -6.4375 0.609375 -6.59375 L 0.609375 -6.75 C 0.609375 -6.914062 0.65625 -7.03125 0.75 -7.09375 C 0.84375 -7.164062 0.984375 -7.203125 1.171875 -7.203125 C 1.359375 -7.203125 1.492188 -7.164062 1.578125 -7.09375 C 1.671875 -7.019531 1.71875 -6.90625 1.71875 -6.75 L 1.71875 -6.59375 C 1.71875 -6.425781 1.671875 -6.304688 1.578125 -6.234375 C 1.492188 -6.171875 1.351562 -6.140625 1.15625 -6.140625 Z M 1.15625 -6.140625 "/></g></g></g><g fill="#000000" fill-opacity="1"><g transform="translate(221.563085, 212.619406)"><g><path d="M 3.078125 -5.53125 C 3.617188 -5.53125 4.070312 -5.441406 4.4375 -5.265625 C 4.800781 -5.097656 4.984375 -4.878906 4.984375 -4.609375 C 4.984375 -4.492188 4.941406 -4.390625 4.859375 -4.296875 C 4.785156 -4.203125 4.691406 -4.15625 4.578125 -4.15625 C 4.484375 -4.15625 4.410156 -4.164062 4.359375 -4.1875 C 4.316406 -4.21875 4.25 -4.265625 4.15625 -4.328125 C 4.113281 -4.367188 4.046875 -4.414062 3.953125 -4.46875 C 3.878906 -4.507812 3.765625 -4.546875 3.609375 -4.578125 C 3.453125 -4.609375 3.316406 -4.625 3.203125 -4.625 C 2.835938 -4.625 2.515625 -4.539062 2.234375 -4.375 C 1.960938 -4.207031 1.75 -3.976562 1.59375 -3.6875 C 1.445312 -3.394531 1.375 -3.070312 1.375 -2.71875 C 1.375 -2.351562 1.445312 -2.023438 1.59375 -1.734375 C 1.75 -1.441406 1.957031 -1.210938 2.21875 -1.046875 C 2.488281 -0.878906 2.796875 -0.796875 3.140625 -0.796875 C 3.503906 -0.796875 3.796875 -0.851562 4.015625 -0.96875 C 4.054688 -1 4.117188 -1.046875 4.203125 -1.109375 C 4.273438 -1.160156 4.335938 -1.195312 4.390625 -1.21875 C 4.441406 -1.25 4.503906 -1.265625 4.578125 -1.265625 C 4.710938 -1.265625 4.816406 -1.222656 4.890625 -1.140625 C 4.972656 -1.054688 5.015625 -0.941406 5.015625 -0.796875 C 5.015625 -0.660156 4.921875 -0.519531 4.734375 -0.375 C 4.554688 -0.238281 4.316406 -0.125 4.015625 -0.03125 C 3.710938 0.0625 3.382812 0.109375 3.03125 0.109375 C 2.507812 0.109375 2.046875 -0.0078125 1.640625 -0.25 C 1.242188 -0.5 0.9375 -0.835938 0.71875 -1.265625 C 0.507812 -1.703125 0.40625 -2.1875 0.40625 -2.71875 C 0.40625 -3.238281 0.515625 -3.710938 0.734375 -4.140625 C 0.960938 -4.578125 1.28125 -4.914062 1.6875 -5.15625 C 2.09375 -5.40625 2.554688 -5.53125 3.078125 -5.53125 Z M 3.078125 -5.53125 "/></g></g></g><g fill="#000000" fill-opacity="1"><g transform="translate(233.577899, 212.619406)"><g><path d="M 0.421875 -0.84375 C 0.359375 -0.9375 0.328125 -1.03125 0.328125 -1.125 C 0.328125 -1.257812 0.398438 -1.375 0.546875 -1.46875 C 0.617188 -1.519531 0.695312 -1.546875 0.78125 -1.546875 C 0.90625 -1.546875 1.019531 -1.492188 1.125 -1.390625 C 1.332031 -1.160156 1.550781 -0.984375 1.78125 -0.859375 C 2.019531 -0.742188 2.304688 -0.6875 2.640625 -0.6875 C 2.898438 -0.695312 3.128906 -0.757812 3.328125 -0.875 C 3.523438 -0.988281 3.625 -1.171875 3.625 -1.421875 C 3.625 -1.660156 3.519531 -1.835938 3.3125 -1.953125 C 3.113281 -2.078125 2.820312 -2.191406 2.4375 -2.296875 C 2.050781 -2.398438 1.726562 -2.507812 1.46875 -2.625 C 1.21875 -2.738281 1.003906 -2.898438 0.828125 -3.109375 C 0.648438 -3.328125 0.5625 -3.613281 0.5625 -3.96875 C 0.5625 -4.28125 0.648438 -4.550781 0.828125 -4.78125 C 1.003906 -5.019531 1.238281 -5.203125 1.53125 -5.328125 C 1.820312 -5.460938 2.140625 -5.53125 2.484375 -5.53125 C 2.816406 -5.53125 3.144531 -5.46875 3.46875 -5.34375 C 3.789062 -5.21875 4.054688 -5.03125 4.265625 -4.78125 C 4.347656 -4.675781 4.390625 -4.570312 4.390625 -4.46875 C 4.390625 -4.363281 4.335938 -4.257812 4.234375 -4.15625 C 4.160156 -4.09375 4.070312 -4.0625 3.96875 -4.0625 C 3.84375 -4.0625 3.742188 -4.101562 3.671875 -4.1875 C 3.523438 -4.351562 3.347656 -4.476562 3.140625 -4.5625 C 2.929688 -4.65625 2.695312 -4.703125 2.4375 -4.703125 C 2.175781 -4.703125 1.953125 -4.648438 1.765625 -4.546875 C 1.585938 -4.441406 1.5 -4.257812 1.5 -4 C 1.507812 -3.757812 1.613281 -3.582031 1.8125 -3.46875 C 2.019531 -3.351562 2.332031 -3.238281 2.75 -3.125 C 3.113281 -3.03125 3.414062 -2.925781 3.65625 -2.8125 C 3.894531 -2.707031 4.097656 -2.546875 4.265625 -2.328125 C 4.429688 -2.109375 4.515625 -1.820312 4.515625 -1.46875 C 4.515625 -1.144531 4.421875 -0.863281 4.234375 -0.625 C 4.046875 -0.394531 3.800781 -0.210938 3.5 -0.078125 C 3.207031 0.046875 2.894531 0.109375 2.5625 0.109375 C 2.125 0.109375 1.71875 0.0351562 1.34375 -0.109375 C 0.976562 -0.265625 0.671875 -0.507812 0.421875 -0.84375 Z M 0.421875 -0.84375 "/></g></g></g></svg>