<svg xmlns="http://www.w3.org/2000/svg" xmlns:xlink="http://www.w3.org/1999/xlink" width="500" zoomAndPan="magnify" viewBox="0 0 375 374.999991" height="500" preserveAspectRatio="xMidYMid meet" version="1.0"><defs><g/><clipPath id="76b9bdd348"><path d="M 252.300781 207.300781 L 271.902344 207.300781 L 271.902344 226.902344 L 252.300781 226.902344 Z M 252.300781 207.300781 " clip-rule="nonzero"/></clipPath><clipPath id="0d357fc113"><path d="M 262.101562 207.300781 C 256.691406 207.300781 252.300781 211.6875 252.300781 217.101562 C 252.300781 222.515625 256.691406 226.902344 262.101562 226.902344 C 267.515625 226.902344 271.902344 222.515625 271.902344 217.101562 C 271.902344 211.6875 267.515625 207.300781 262.101562 207.300781 " clip-rule="nonzero"/></clipPath></defs><g fill="#000000" fill-opacity="1"><g transform="translate(124.173321, 224.624985)"><g><path d="M 22.203125 0.75 C 8.585938 0.75 1.78125 -6.148438 1.78125 -19.953125 L 1.875 -25.40625 L 18.34375 -25.40625 L 18.453125 -17.3125 C 18.453125 -15.6875 18.765625 -14.445312 19.390625 -13.59375 C 20.015625 -12.75 21.046875 -12.328125 22.484375 -12.328125 C 24.679688 -12.328125 25.78125 -14.113281 25.78125 -17.6875 C 25.78125 -20.320312 25.265625 -22.390625 24.234375 -23.890625 C 23.203125 -25.398438 21.554688 -27.003906 19.296875 -28.703125 L 10.546875 -35.484375 C 7.523438 -37.804688 5.359375 -40.203125 4.046875 -42.671875 C 2.734375 -45.148438 2.078125 -48.648438 2.078125 -53.171875 C 2.078125 -56.679688 3 -59.675781 4.84375 -62.15625 C 6.695312 -64.632812 9.160156 -66.5 12.234375 -67.75 C 15.304688 -69.007812 18.722656 -69.640625 22.484375 -69.640625 C 35.847656 -69.640625 42.53125 -62.988281 42.53125 -49.6875 L 42.53125 -48.375 L 25.5 -48.375 L 25.5 -51 C 25.5 -52.632812 25.234375 -54.03125 24.703125 -55.1875 C 24.171875 -56.351562 23.273438 -56.9375 22.015625 -56.9375 C 20.890625 -56.9375 20.03125 -56.601562 19.4375 -55.9375 C 18.84375 -55.28125 18.546875 -54.390625 18.546875 -53.265625 C 18.546875 -50.753906 19.515625 -48.8125 21.453125 -47.4375 L 31.625 -40 C 35.257812 -37.300781 38.046875 -34.363281 39.984375 -31.1875 C 41.929688 -28.019531 42.90625 -24.023438 42.90625 -19.203125 C 42.90625 -12.796875 41.085938 -7.867188 37.453125 -4.421875 C 33.816406 -0.972656 28.734375 0.75 22.203125 0.75 Z M 22.203125 0.75 "/></g></g></g><g fill="#000000" fill-opacity="1"><g transform="translate(163.695581, 224.624985)"><g><path d="M 15.8125 0.75 C 10.476562 0.75 6.820312 -1.019531 4.84375 -4.5625 C 2.863281 -8.101562 1.875 -13.171875 1.875 -19.765625 C 1.875 -25.160156 2.578125 -29.300781 3.984375 -32.1875 C 5.398438 -35.070312 7.363281 -37.1875 9.875 -38.53125 C 12.382812 -39.882812 16.210938 -41.378906 21.359375 -43.015625 L 25.875 -44.515625 L 25.875 -51.578125 C 25.875 -53.390625 25.515625 -54.78125 24.796875 -55.75 C 24.078125 -56.726562 23.210938 -57.21875 22.203125 -57.21875 C 21.328125 -57.21875 20.5625 -56.804688 19.90625 -55.984375 C 19.25 -55.171875 18.921875 -54.078125 18.921875 -52.703125 L 18.921875 -48.5625 L 2.921875 -48.5625 L 2.921875 -50.8125 C 2.921875 -57.59375 4.503906 -62.425781 7.671875 -65.3125 C 10.835938 -68.195312 16 -69.640625 23.15625 -69.640625 C 28.863281 -69.640625 33.503906 -68.148438 37.078125 -65.171875 C 40.648438 -62.191406 42.4375 -57.972656 42.4375 -52.515625 L 42.4375 0 L 26.0625 0 L 26.0625 -8.1875 C 25.25 -5.363281 23.945312 -3.164062 22.15625 -1.59375 C 20.375 -0.03125 18.257812 0.75 15.8125 0.75 Z M 22.296875 -12.046875 C 23.554688 -12.046875 24.453125 -12.5625 24.984375 -13.59375 C 25.515625 -14.632812 25.78125 -15.90625 25.78125 -17.40625 L 25.78125 -36.609375 C 23.332031 -35.671875 21.53125 -34.476562 20.375 -33.03125 C 19.21875 -31.59375 18.640625 -29.585938 18.640625 -27.015625 L 18.640625 -18.15625 C 18.640625 -14.082031 19.859375 -12.046875 22.296875 -12.046875 Z M 22.296875 -12.046875 "/></g></g></g><g fill="#000000" fill-opacity="1"><g transform="translate(203.970656, 224.624985)"><g><path d="M 3.296875 0 L 3.296875 -81.3125 L 20.046875 -81.3125 L 20.046875 0 Z M 3.296875 0 "/></g></g></g><g fill="#000000" fill-opacity="1"><g transform="translate(222.131868, 224.624985)"><g><path d="M 17.5 0.75 C 13.175781 0.75 10.195312 -0.15625 8.5625 -1.96875 C 6.925781 -3.789062 6.109375 -6.710938 6.109375 -10.734375 L 6.109375 -53.734375 L 1.5 -53.734375 L 1.5 -66.25 L 6.109375 -66.25 L 6.109375 -80.84375 L 22.109375 -80.84375 L 22.109375 -66.25 L 26.828125 -66.25 L 26.828125 -53.734375 L 22.109375 -53.734375 L 22.109375 -15.0625 C 22.109375 -13.863281 22.203125 -12.984375 22.390625 -12.421875 C 22.585938 -11.859375 23.09375 -11.578125 23.90625 -11.578125 C 24.53125 -11.578125 25.125 -11.609375 25.6875 -11.671875 C 26.25 -11.734375 26.628906 -11.765625 26.828125 -11.765625 L 26.828125 -0.46875 C 25.878906 -0.21875 24.507812 0.046875 22.71875 0.328125 C 20.9375 0.609375 19.195312 0.75 17.5 0.75 Z M 17.5 0.75 "/></g></g></g><g clip-path="url(#76b9bdd348)"><g clip-path="url(#0d357fc113)"><path fill="#000000" d="M 252.300781 207.300781 L 271.902344 207.300781 L 271.902344 226.902344 L 252.300781 226.902344 Z M 252.300781 207.300781 " fill-opacity="1" fill-rule="nonzero"/></g></g></svg>