<svg xmlns="http://www.w3.org/2000/svg" xmlns:xlink="http://www.w3.org/1999/xlink" width="500" zoomAndPan="magnify" viewBox="0 0 375 374.999991" height="500" preserveAspectRatio="xMidYMid meet" version="1.0"><defs><g/><clipPath id="e51517fc2a"><path d="M 91.738281 187.5 L 105.800781 187.5 L 105.800781 195 L 91.738281 195 Z M 91.738281 187.5 " clip-rule="nonzero"/></clipPath><clipPath id="d93627c36b"><path d="M 93.238281 187.5 L 103.976562 187.5 C 104.375 187.5 104.753906 187.65625 105.035156 187.9375 C 105.316406 188.21875 105.476562 188.601562 105.476562 189 L 105.476562 193.074219 C 105.476562 193.472656 105.316406 193.851562 105.035156 194.132812 C 104.753906 194.414062 104.375 194.574219 103.976562 194.574219 L 93.238281 194.574219 C 92.839844 194.574219 92.460938 194.414062 92.179688 194.132812 C 91.898438 193.851562 91.738281 193.472656 91.738281 193.074219 L 91.738281 189 C 91.738281 188.601562 91.898438 188.21875 92.179688 187.9375 C 92.460938 187.65625 92.839844 187.5 93.238281 187.5 " clip-rule="nonzero"/></clipPath><clipPath id="79f22e6f49"><path d="M 267.855469 191.035156 L 278.375 191.035156 L 278.375 201.554688 L 267.855469 201.554688 Z M 267.855469 191.035156 " clip-rule="nonzero"/></clipPath><clipPath id="532b654852"><path d="M 273.113281 191.035156 C 270.210938 191.035156 267.855469 193.390625 267.855469 196.296875 C 267.855469 199.203125 270.210938 201.554688 273.113281 201.554688 C 276.019531 201.554688 278.375 199.203125 278.375 196.296875 C 278.375 193.390625 276.019531 191.035156 273.113281 191.035156 " clip-rule="nonzero"/></clipPath><clipPath id="7d7fbded1e"><path d="M 159.261719 220.613281 L 214 220.613281 L 214 235.613281 L 159.261719 235.613281 Z M 159.261719 220.613281 " clip-rule="nonzero"/></clipPath><clipPath id="202c4aa67c"><path d="M 166.597656 220.613281 L 206.65625 220.613281 C 210.707031 220.613281 213.992188 223.972656 213.992188 228.113281 C 213.992188 232.257812 210.707031 235.613281 206.65625 235.613281 L 166.597656 235.613281 C 162.546875 235.613281 159.261719 232.257812 159.261719 228.113281 C 159.261719 223.972656 162.546875 220.613281 166.597656 220.613281 " clip-rule="nonzero"/></clipPath></defs><g clip-path="url(#e51517fc2a)"><g clip-path="url(#d93627c36b)"><path fill="#000000" d="M 91.738281 187.5 L 105.214844 187.5 L 105.214844 194.53125 L 91.738281 194.53125 Z M 91.738281 187.5 " fill-opacity="1" fill-rule="nonzero"/></g></g><g clip-path="url(#79f22e6f49)"><g clip-path="url(#532b654852)"><path fill="#000000" d="M 267.855469 191.035156 L 278.375 191.035156 L 278.375 201.554688 L 267.855469 201.554688 Z M 267.855469 191.035156 " fill-opacity="1" fill-rule="nonzero"/></g></g><g clip-path="url(#7d7fbded1e)"><g clip-path="url(#202c4aa67c)"><path stroke-linecap="butt" transform="matrix(0.746962, 0, 0, 0.763723, 159.261131, 220.614478)" fill="none" stroke-linejoin="miter" d="M 9.821816 -0.00156636 L 63.450494 -0.00156636 C 68.873501 -0.00156636 73.271524 4.397115 73.271524 9.818746 C 73.271524 15.245492 68.873501 19.639059 63.450494 19.639059 L 9.821816 19.639059 C 4.398809 19.639059 0.000787065 15.245492 0.000787065 9.818746 C 0.000787065 4.397115 4.398809 -0.00156636 9.821816 -0.00156636 " stroke="#000000" stroke-width="2" stroke-opacity="1" stroke-miterlimit="4"/></g></g><g fill="#000000" fill-opacity="1"><g transform="translate(107.949716, 200.524706)"><g><path d="M 17.703125 0 L 17.015625 -2.984375 C 15.472656 -0.671875 13.242188 0.484375 10.328125 0.484375 C 7.484375 0.484375 5.289062 -0.445312 3.75 -2.3125 C 2.207031 -4.175781 1.4375 -6.925781 1.4375 -10.5625 C 1.4375 -14.175781 2.207031 -16.90625 3.75 -18.75 C 5.289062 -20.601562 7.484375 -21.53125 10.328125 -21.53125 C 12.742188 -21.53125 14.707031 -20.71875 16.21875 -19.09375 L 16.21875 -28.890625 L 24.15625 -28.890625 L 24.15625 0 Z M 12.796875 -15.671875 C 10.503906 -15.671875 9.359375 -14.300781 9.359375 -11.5625 L 9.359375 -9.453125 C 9.359375 -6.734375 10.503906 -5.375 12.796875 -5.375 C 13.960938 -5.375 14.835938 -5.785156 15.421875 -6.609375 C 16.003906 -7.441406 16.296875 -8.519531 16.296875 -9.84375 L 16.296875 -11.15625 C 16.296875 -12.488281 16.003906 -13.570312 15.421875 -14.40625 C 14.835938 -15.25 13.960938 -15.671875 12.796875 -15.671875 Z M 12.796875 -15.671875 "/></g></g></g><g fill="#000000" fill-opacity="1"><g transform="translate(130.467214, 200.524706)"><g><path d="M 2.671875 -23.515625 L 2.671875 -28.890625 L 10.609375 -28.890625 L 10.609375 -23.515625 Z M 2.671875 0 L 2.671875 -21.046875 L 10.609375 -21.046875 L 10.609375 0 Z M 2.671875 0 "/></g></g></g><g fill="#000000" fill-opacity="1"><g transform="translate(139.673077, 200.524706)"><g><path d="M 12.796875 -21.53125 C 16.015625 -21.53125 18.628906 -20.988281 20.640625 -19.90625 C 22.660156 -18.832031 23.671875 -17.085938 23.671875 -14.671875 L 23.671875 -6.453125 C 23.671875 -6.003906 23.773438 -5.632812 23.984375 -5.34375 C 24.203125 -5.050781 24.523438 -4.90625 24.953125 -4.90625 L 26.390625 -4.90625 L 26.390625 -0.3125 C 26.304688 -0.257812 26.097656 -0.171875 25.765625 -0.046875 C 25.429688 0.0664062 24.957031 0.179688 24.34375 0.296875 C 23.738281 0.421875 23.035156 0.484375 22.234375 0.484375 C 20.691406 0.484375 19.421875 0.25 18.421875 -0.21875 C 17.429688 -0.6875 16.75 -1.332031 16.375 -2.15625 C 15.375 -1.351562 14.25 -0.710938 13 -0.234375 C 11.75 0.242188 10.285156 0.484375 8.609375 0.484375 C 3.671875 0.484375 1.203125 -1.484375 1.203125 -5.421875 C 1.203125 -7.460938 1.75 -9.019531 2.84375 -10.09375 C 3.945312 -11.175781 5.535156 -11.914062 7.609375 -12.3125 C 9.679688 -12.71875 12.394531 -12.921875 15.75 -12.921875 L 15.75 -13.953125 C 15.75 -14.773438 15.460938 -15.398438 14.890625 -15.828125 C 14.316406 -16.253906 13.578125 -16.46875 12.671875 -16.46875 C 11.847656 -16.46875 11.132812 -16.316406 10.53125 -16.015625 C 9.9375 -15.722656 9.640625 -15.257812 9.640625 -14.625 L 9.640625 -14.46875 L 1.828125 -14.46875 C 1.804688 -14.601562 1.796875 -14.789062 1.796875 -15.03125 C 1.796875 -17.019531 2.742188 -18.597656 4.640625 -19.765625 C 6.546875 -20.941406 9.265625 -21.53125 12.796875 -21.53125 Z M 15.75 -9.171875 C 13.488281 -9.171875 11.816406 -8.921875 10.734375 -8.421875 C 9.660156 -7.929688 9.125 -7.273438 9.125 -6.453125 C 9.125 -5.128906 10.03125 -4.46875 11.84375 -4.46875 C 12.875 -4.46875 13.78125 -4.742188 14.5625 -5.296875 C 15.351562 -5.859375 15.75 -6.550781 15.75 -7.375 Z M 15.75 -9.171875 "/></g></g></g><g fill="#000000" fill-opacity="1"><g transform="translate(162.190576, 200.524706)"><g><path d="M 2.671875 0 L 2.671875 -28.890625 L 10.609375 -28.890625 L 10.609375 0 Z M 2.671875 0 "/></g></g></g><g fill="#000000" fill-opacity="1"><g transform="translate(171.396439, 200.524706)"><g><path d="M 13.265625 -21.53125 C 16.960938 -21.53125 19.867188 -20.59375 21.984375 -18.71875 C 24.097656 -16.84375 25.15625 -14.109375 25.15625 -10.515625 C 25.15625 -6.929688 24.097656 -4.203125 21.984375 -2.328125 C 19.867188 -0.453125 16.960938 0.484375 13.265625 0.484375 C 9.578125 0.484375 6.679688 -0.445312 4.578125 -2.3125 C 2.484375 -4.175781 1.4375 -6.910156 1.4375 -10.515625 C 1.4375 -14.128906 2.484375 -16.867188 4.578125 -18.734375 C 6.679688 -20.597656 9.578125 -21.53125 13.265625 -21.53125 Z M 13.265625 -16.140625 C 10.660156 -16.140625 9.359375 -14.640625 9.359375 -11.640625 L 9.359375 -9.359375 C 9.359375 -6.390625 10.660156 -4.90625 13.265625 -4.90625 C 15.898438 -4.90625 17.21875 -6.390625 17.21875 -9.359375 L 17.21875 -11.640625 C 17.21875 -14.640625 15.898438 -16.140625 13.265625 -16.140625 Z M 13.265625 -16.140625 "/></g></g></g><g fill="#000000" fill-opacity="1"><g transform="translate(193.913938, 200.524706)"><g><path d="M 26.0625 -24.984375 C 26.0625 -23.367188 25.65625 -22.117188 24.84375 -21.234375 C 24.039062 -20.359375 22.828125 -19.710938 21.203125 -19.296875 C 21.972656 -18.710938 22.578125 -18.023438 23.015625 -17.234375 C 23.453125 -16.453125 23.671875 -15.625 23.671875 -14.75 C 23.671875 -12.519531 22.828125 -10.832031 21.140625 -9.6875 C 19.453125 -8.539062 17.347656 -7.96875 14.828125 -7.96875 L 11.796875 -7.96875 C 10.117188 -7.96875 9.28125 -7.582031 9.28125 -6.8125 C 9.28125 -6.445312 9.46875 -6.148438 9.84375 -5.921875 C 10.21875 -5.691406 10.867188 -5.578125 11.796875 -5.578125 L 18.96875 -5.578125 C 21.3125 -5.578125 23.078125 -4.960938 24.265625 -3.734375 C 25.460938 -2.515625 26.0625 -0.882812 26.0625 1.15625 C 26.0625 2.664062 25.660156 3.96875 24.859375 5.0625 C 24.066406 6.15625 22.992188 6.976562 21.640625 7.53125 C 20.285156 8.09375 18.8125 8.375 17.21875 8.375 L 5.5 8.375 C 4.539062 8.375 3.65625 8.144531 2.84375 7.6875 C 2.039062 7.238281 1.398438 6.617188 0.921875 5.828125 C 0.441406 5.046875 0.203125 4.179688 0.203125 3.234375 C 0.203125 2.191406 0.519531 1.25 1.15625 0.40625 C 1.789062 -0.425781 2.585938 -1.050781 3.546875 -1.46875 C 2.910156 -1.925781 2.40625 -2.472656 2.03125 -3.109375 C 1.65625 -3.742188 1.46875 -4.4375 1.46875 -5.1875 C 1.46875 -6.21875 1.851562 -7.148438 2.625 -7.984375 C 3.394531 -8.828125 4.351562 -9.394531 5.5 -9.6875 C 4.46875 -10.351562 3.644531 -11.113281 3.03125 -11.96875 C 2.414062 -12.832031 2.109375 -13.742188 2.109375 -14.703125 C 2.109375 -17.148438 3.097656 -18.898438 5.078125 -19.953125 C 7.054688 -21.003906 9.679688 -21.53125 12.953125 -21.53125 C 14.390625 -21.53125 15.546875 -21.445312 16.421875 -21.28125 C 17.722656 -22.101562 18.566406 -22.851562 18.953125 -23.53125 C 19.335938 -24.207031 19.53125 -24.691406 19.53125 -24.984375 Z M 12.875 -17.375 C 12 -17.375 11.28125 -17.144531 10.71875 -16.6875 C 10.164062 -16.238281 9.890625 -15.59375 9.890625 -14.75 C 9.890625 -13.875 10.144531 -13.21875 10.65625 -12.78125 C 11.175781 -12.34375 11.914062 -12.125 12.875 -12.125 C 13.832031 -12.125 14.582031 -12.34375 15.125 -12.78125 C 15.664062 -13.21875 15.9375 -13.875 15.9375 -14.75 C 15.9375 -15.625 15.664062 -16.28125 15.125 -16.71875 C 14.582031 -17.15625 13.832031 -17.375 12.875 -17.375 Z M 9.8125 0 C 9.195312 0 8.695312 0.164062 8.3125 0.5 C 7.925781 0.832031 7.734375 1.300781 7.734375 1.90625 C 7.734375 2.519531 7.929688 3.015625 8.328125 3.390625 C 8.722656 3.765625 9.21875 3.953125 9.8125 3.953125 L 16.015625 3.953125 C 16.609375 3.953125 17.109375 3.769531 17.515625 3.40625 C 17.929688 3.050781 18.140625 2.566406 18.140625 1.953125 C 18.140625 1.335938 17.9375 0.859375 17.53125 0.515625 C 17.132812 0.171875 16.628906 0 16.015625 0 Z M 9.8125 0 "/></g></g></g><g fill="#000000" fill-opacity="1"><g transform="translate(216.431436, 200.524706)"><g><path d="M 17.65625 0 L 17.140625 -3.1875 C 16.316406 -2.039062 15.234375 -1.140625 13.890625 -0.484375 C 12.546875 0.160156 11.128906 0.484375 9.640625 0.484375 C 7.203125 0.484375 5.367188 -0.191406 4.140625 -1.546875 C 2.921875 -2.910156 2.3125 -4.863281 2.3125 -7.40625 L 2.3125 -21.046875 L 10.25 -21.046875 L 10.25 -8.375 C 10.25 -7.46875 10.476562 -6.738281 10.9375 -6.1875 C 11.40625 -5.644531 12.066406 -5.375 12.921875 -5.375 C 13.898438 -5.375 14.691406 -5.691406 15.296875 -6.328125 C 15.910156 -6.972656 16.21875 -7.757812 16.21875 -8.6875 L 16.21875 -21.046875 L 24.15625 -21.046875 L 24.15625 0 Z M 17.65625 0 "/></g></g></g><g fill="#000000" fill-opacity="1"><g transform="translate(238.948935, 200.524706)"><g><path d="M 13.265625 -21.53125 C 17.117188 -21.53125 20.0625 -20.625 22.09375 -18.8125 C 24.132812 -17.007812 25.15625 -14.242188 25.15625 -10.515625 L 25.15625 -9.171875 L 9.359375 -9.171875 C 9.359375 -7.648438 9.695312 -6.503906 10.375 -5.734375 C 11.0625 -4.960938 12.132812 -4.578125 13.59375 -4.578125 C 14.914062 -4.578125 15.890625 -4.859375 16.515625 -5.421875 C 17.140625 -5.984375 17.453125 -6.726562 17.453125 -7.65625 L 25.15625 -7.65625 C 25.15625 -5.101562 24.179688 -3.109375 22.234375 -1.671875 C 20.296875 -0.234375 17.46875 0.484375 13.75 0.484375 C 9.84375 0.484375 6.8125 -0.425781 4.65625 -2.25 C 2.507812 -4.070312 1.4375 -6.828125 1.4375 -10.515625 C 1.4375 -14.128906 2.484375 -16.867188 4.578125 -18.734375 C 6.679688 -20.597656 9.578125 -21.53125 13.265625 -21.53125 Z M 13.59375 -16.46875 C 11.09375 -16.46875 9.695312 -15.285156 9.40625 -12.921875 L 17.140625 -12.921875 C 17.140625 -14.003906 16.828125 -14.863281 16.203125 -15.5 C 15.578125 -16.144531 14.707031 -16.46875 13.59375 -16.46875 Z M 13.59375 -16.46875 "/></g></g></g><g fill="#000000" fill-opacity="1"><g transform="translate(166.424656, 232.108461)"><g><path d="M 5.726562 -3.0625 L 6.753906 0 L 7.921875 0 L 4.933594 -8.664062 L 3.476562 -8.664062 L 0.363281 0 L 1.519531 0 L 2.535156 -3.0625 Z M 2.835938 -3.941406 L 4.179688 -7.808594 L 5.4375 -3.941406 Z M 2.835938 -3.941406 "/></g></g></g><g fill="#000000" fill-opacity="1"><g transform="translate(173.000175, 232.108461)"><g><path d="M 5.007812 -4.179688 L 5.007812 -3.300781 L 7.03125 -3.300781 C 7.03125 -1.757812 5.988281 -0.679688 4.582031 -0.679688 C 2.875 -0.679688 1.796875 -2.210938 1.796875 -4.34375 C 1.796875 -6.441406 2.886719 -7.984375 4.65625 -7.984375 C 6.101562 -7.984375 6.867188 -7.144531 7.117188 -5.902344 L 7.144531 -5.773438 L 8.222656 -5.773438 L 8.210938 -5.902344 C 8.035156 -7.597656 6.878906 -8.839844 4.683594 -8.839844 C 2.222656 -8.839844 0.589844 -6.929688 0.589844 -4.292969 C 0.589844 -1.757812 1.996094 0.175781 4.519531 0.175781 C 5.511719 0.175781 6.277344 -0.152344 6.765625 -0.703125 L 7.15625 -1.507812 L 7.15625 0 L 8.109375 0 L 8.109375 -4.179688 Z M 5.007812 -4.179688 "/></g></g></g><g fill="#000000" fill-opacity="1"><g transform="translate(180.466799, 232.108461)"><g><path d="M 7.019531 -0.878906 L 2.335938 -0.878906 L 2.335938 -3.890625 L 6.515625 -3.890625 L 6.515625 -4.769531 L 2.335938 -4.769531 L 2.335938 -7.785156 L 6.894531 -7.785156 L 6.894531 -8.664062 L 1.253906 -8.664062 L 1.253906 0 L 7.019531 0 Z M 7.019531 -0.878906 "/></g></g></g><g fill="#000000" fill-opacity="1"><g transform="translate(186.389684, 232.108461)"><g><path d="M 8.035156 0 L 8.011719 -8.664062 L 6.957031 -8.664062 L 6.957031 -4.332031 C 6.957031 -3.316406 6.96875 -2.070312 6.992188 -1.054688 L 2.914062 -8.664062 L 1.253906 -8.664062 L 1.253906 0 L 2.335938 0 L 2.335938 -4.332031 C 2.335938 -5.347656 2.324219 -6.589844 2.296875 -7.609375 L 6.378906 0 Z M 8.035156 0 "/></g></g></g><g fill="#000000" fill-opacity="1"><g transform="translate(193.956719, 232.108461)"><g><path d="M 4.683594 -8.839844 C 2.222656 -8.839844 0.589844 -6.929688 0.589844 -4.292969 C 0.589844 -1.757812 1.996094 0.175781 4.519531 0.175781 C 6.804688 0.175781 7.972656 -1.191406 8.136719 -2.761719 L 8.148438 -2.886719 L 7.070312 -2.886719 L 7.042969 -2.761719 C 6.792969 -1.519531 6.027344 -0.679688 4.582031 -0.679688 C 2.875 -0.679688 1.796875 -2.210938 1.796875 -4.34375 C 1.796875 -6.441406 2.886719 -7.984375 4.65625 -7.984375 C 6.101562 -7.984375 6.867188 -7.144531 7.117188 -5.902344 L 7.144531 -5.773438 L 8.222656 -5.773438 L 8.210938 -5.902344 C 8.035156 -7.597656 6.878906 -8.839844 4.683594 -8.839844 Z M 4.683594 -8.839844 "/></g></g></g><g fill="#000000" fill-opacity="1"><g transform="translate(201.28528, 232.108461)"><g><path d="M 4.382812 -3.414062 L 7.445312 -8.664062 L 6.226562 -8.664062 L 3.890625 -4.457031 L 1.480469 -8.664062 L 0.238281 -8.664062 L 3.300781 -3.414062 L 3.300781 0 L 4.382812 0 Z M 4.382812 -3.414062 "/></g></g></g></svg>