<svg xmlns="http://www.w3.org/2000/svg" xmlns:xlink="http://www.w3.org/1999/xlink" width="500" zoomAndPan="magnify" viewBox="0 0 375 374.999991" height="500" preserveAspectRatio="xMidYMid meet" version="1.0"><defs><g/></defs><g fill="#000000" fill-opacity="1"><g transform="translate(87.608223, 212.624986)"><g><path d="M 25.5625 0 L 25.5625 -0.386719 C 8.46875 -6.621094 11.242188 -38.496094 13.167969 -52.28125 C 14.707031 -63.289062 14.707031 -63.214844 16.246094 -73.914062 C 19.019531 -71.683594 19.480469 -67.910156 20.328125 -61.75 C 21.171875 -54.203125 21.789062 -49.355469 23.023438 -40.730469 C 24.484375 -32.105469 25.871094 -1.078125 42.886719 -1.078125 C 50.816406 -1.078125 51.664062 -6.851562 51.664062 -10.316406 C 51.664062 -21.480469 44.347656 -47.660156 44.347656 -59.441406 C 44.347656 -64.984375 45.273438 -72.835938 50.96875 -72.835938 C 56.285156 -72.835938 56.207031 -64.367188 57.128906 -57.59375 C 60.132812 -35.648438 61.980469 -22.484375 65.0625 0 L 76.609375 0 C 73.53125 -22.484375 71.914062 -35.570312 68.679688 -57.667969 C 67.292969 -67.214844 66.910156 -77.765625 56.667969 -77.765625 C 47.8125 -77.765625 42.5 -70.988281 42.964844 -59.363281 C 43.425781 -48.351562 46.734375 -34.570312 47.890625 -27.332031 C 49.660156 -16.015625 52.125 -6.46875 45.964844 -6.46875 C 41.269531 -6.46875 38.035156 -17.554688 36.804688 -25.484375 C 34.339844 -41.578125 33.109375 -51.585938 30.566406 -69.449219 C 29.875 -74.300781 27.332031 -76.996094 23.714844 -76.996094 L 7.082031 -76.996094 L 7.082031 -76.609375 C 8.625 -76.457031 9.933594 -76.300781 11.085938 -76.070312 C 16.476562 -74.144531 14.320312 -68.679688 13.550781 -64.058594 L 1.539062 0 Z M 25.5625 0 "/></g></g></g><g fill="#000000" fill-opacity="1"><g transform="translate(165.755378, 212.624986)"><g><path d="M 5.390625 0 L 16.554688 0 L 16.554688 -76.996094 L 5.390625 -76.996094 Z M 5.390625 0 "/></g></g></g><g fill="#000000" fill-opacity="1"><g transform="translate(187.698175, 212.624986)"><g><path d="M 5.390625 0 L 51.585938 0 L 51.585938 -12.628906 C 46.351562 -7.238281 30.027344 -1.230469 16.554688 -1.15625 L 16.554688 -76.996094 L 5.390625 -76.996094 Z M 5.390625 0 "/></g></g></g><g fill="#000000" fill-opacity="1"><g transform="translate(224.095728, 212.624986)"><g><path d="M 5.390625 -76.996094 L 5.390625 0 L 16.554688 0 L 16.554688 -38.804688 C 17.863281 -39.960938 19.019531 -40.652344 20.480469 -40.652344 C 22.40625 -40.652344 23.023438 -39.5 24.175781 -37.804688 C 33.953125 -23.40625 39.191406 -14.707031 48.507812 0 L 61.75 0 C 52.433594 -14.707031 47.042969 -23.253906 37.417969 -37.804688 C 33.492188 -43.734375 31.953125 -46.351562 27.871094 -46.351562 C 26.871094 -46.351562 25.714844 -46.195312 24.5625 -45.8125 L 60.285156 -76.996094 L 41.191406 -76.996094 L 41.191406 -76.609375 C 42.578125 -76.53125 44.347656 -75.992188 44.347656 -73.222656 C 44.347656 -67.910156 36.957031 -58.902344 28.335938 -50.894531 C 23.636719 -46.582031 20.710938 -43.808594 16.554688 -39.960938 L 16.554688 -76.996094 Z M 5.390625 -76.996094 "/></g></g></g><g fill="#000000" fill-opacity="1"><g transform="translate(155.929841, 225.474725)"><g><path d="M 2.8125 0.046875 C 2.34375 0.046875 1.914062 -0.0546875 1.53125 -0.265625 C 1.15625 -0.472656 0.859375 -0.757812 0.640625 -1.125 C 0.429688 -1.488281 0.328125 -1.898438 0.328125 -2.359375 C 0.328125 -2.816406 0.429688 -3.226562 0.640625 -3.59375 C 0.859375 -3.957031 1.15625 -4.242188 1.53125 -4.453125 C 1.914062 -4.660156 2.347656 -4.765625 2.828125 -4.765625 C 3.191406 -4.765625 3.523438 -4.703125 3.828125 -4.578125 C 4.140625 -4.453125 4.398438 -4.269531 4.609375 -4.03125 L 4.171875 -3.609375 C 3.816406 -3.984375 3.375 -4.171875 2.84375 -4.171875 C 2.5 -4.171875 2.179688 -4.09375 1.890625 -3.9375 C 1.609375 -3.78125 1.390625 -3.5625 1.234375 -3.28125 C 1.078125 -3.007812 1 -2.703125 1 -2.359375 C 1 -2.015625 1.078125 -1.703125 1.234375 -1.421875 C 1.390625 -1.148438 1.609375 -0.9375 1.890625 -0.78125 C 2.179688 -0.625 2.5 -0.546875 2.84375 -0.546875 C 3.375 -0.546875 3.816406 -0.734375 4.171875 -1.109375 L 4.609375 -0.6875 C 4.398438 -0.445312 4.140625 -0.265625 3.828125 -0.140625 C 3.515625 -0.015625 3.175781 0.046875 2.8125 0.046875 Z M 2.8125 0.046875 "/></g></g></g><g fill="#000000" fill-opacity="1"><g transform="translate(160.798302, 225.474725)"><g><path d="M 3.859375 0 L 2.84375 -1.453125 C 2.71875 -1.441406 2.617188 -1.4375 2.546875 -1.4375 L 1.375 -1.4375 L 1.375 0 L 0.703125 0 L 0.703125 -4.71875 L 2.546875 -4.71875 C 3.160156 -4.71875 3.640625 -4.570312 3.984375 -4.28125 C 4.335938 -3.988281 4.515625 -3.585938 4.515625 -3.078125 C 4.515625 -2.710938 4.421875 -2.398438 4.234375 -2.140625 C 4.054688 -1.878906 3.800781 -1.691406 3.46875 -1.578125 L 4.59375 0 Z M 2.53125 -2 C 2.957031 -2 3.28125 -2.09375 3.5 -2.28125 C 3.726562 -2.46875 3.84375 -2.734375 3.84375 -3.078125 C 3.84375 -3.410156 3.726562 -3.664062 3.5 -3.84375 C 3.28125 -4.03125 2.957031 -4.125 2.53125 -4.125 L 1.375 -4.125 L 1.375 -2 Z M 2.53125 -2 "/></g></g></g><g fill="#000000" fill-opacity="1"><g transform="translate(165.693699, 225.474725)"><g><path d="M 4.125 -0.578125 L 4.125 0 L 0.703125 0 L 0.703125 -4.71875 L 4.03125 -4.71875 L 4.03125 -4.125 L 1.375 -4.125 L 1.375 -2.6875 L 3.75 -2.6875 L 3.75 -2.109375 L 1.375 -2.109375 L 1.375 -0.578125 Z M 4.125 -0.578125 "/></g></g></g><g fill="#000000" fill-opacity="1"><g transform="translate(170.205275, 225.474725)"><g><path d="M 3.703125 -1.171875 L 1.203125 -1.171875 L 0.6875 0 L 0 0 L 2.125 -4.71875 L 2.796875 -4.71875 L 4.9375 0 L 4.234375 0 Z M 3.46875 -1.71875 L 2.453125 -4.03125 L 1.4375 -1.71875 Z M 3.46875 -1.71875 "/></g></g></g><g fill="#000000" fill-opacity="1"><g transform="translate(175.134339, 225.474725)"><g><path d="M 1.640625 -4.125 L 0.03125 -4.125 L 0.03125 -4.71875 L 3.921875 -4.71875 L 3.921875 -4.125 L 2.3125 -4.125 L 2.3125 0 L 1.640625 0 Z M 1.640625 -4.125 "/></g></g></g><g fill="#000000" fill-opacity="1"><g transform="translate(179.08702, 225.474725)"><g><path d="M 0.703125 -4.71875 L 1.375 -4.71875 L 1.375 0 L 0.703125 0 Z M 0.703125 -4.71875 "/></g></g></g><g fill="#000000" fill-opacity="1"><g transform="translate(181.174469, 225.474725)"><g><path d="M 4.796875 -4.71875 L 2.734375 0 L 2.0625 0 L 0 -4.71875 L 0.71875 -4.71875 L 2.421875 -0.84375 L 4.125 -4.71875 Z M 4.796875 -4.71875 "/></g></g></g><g fill="#000000" fill-opacity="1"><g transform="translate(185.968866, 225.474725)"><g><path d="M 4.125 -0.578125 L 4.125 0 L 0.703125 0 L 0.703125 -4.71875 L 4.03125 -4.71875 L 4.03125 -4.125 L 1.375 -4.125 L 1.375 -2.6875 L 3.75 -2.6875 L 3.75 -2.109375 L 1.375 -2.109375 L 1.375 -0.578125 Z M 4.125 -0.578125 "/></g></g></g><g fill="#000000" fill-opacity="1"><g transform="translate(190.480442, 225.474725)"><g/></g></g><g fill="#000000" fill-opacity="1"><g transform="translate(192.291809, 225.474725)"><g><path d="M 2.078125 0.046875 C 1.722656 0.046875 1.378906 -0.00390625 1.046875 -0.109375 C 0.722656 -0.222656 0.46875 -0.363281 0.28125 -0.53125 L 0.53125 -1.0625 C 0.707031 -0.90625 0.9375 -0.773438 1.21875 -0.671875 C 1.5 -0.566406 1.785156 -0.515625 2.078125 -0.515625 C 2.472656 -0.515625 2.765625 -0.582031 2.953125 -0.71875 C 3.148438 -0.851562 3.25 -1.03125 3.25 -1.25 C 3.25 -1.40625 3.191406 -1.535156 3.078125 -1.640625 C 2.972656 -1.742188 2.84375 -1.820312 2.6875 -1.875 C 2.539062 -1.925781 2.328125 -1.984375 2.046875 -2.046875 C 1.691406 -2.140625 1.40625 -2.226562 1.1875 -2.3125 C 0.96875 -2.394531 0.78125 -2.523438 0.625 -2.703125 C 0.46875 -2.878906 0.390625 -3.117188 0.390625 -3.421875 C 0.390625 -3.671875 0.453125 -3.894531 0.578125 -4.09375 C 0.710938 -4.300781 0.914062 -4.460938 1.1875 -4.578125 C 1.457031 -4.703125 1.796875 -4.765625 2.203125 -4.765625 C 2.472656 -4.765625 2.742188 -4.726562 3.015625 -4.65625 C 3.285156 -4.582031 3.515625 -4.476562 3.703125 -4.34375 L 3.484375 -3.8125 C 3.285156 -3.9375 3.070312 -4.03125 2.84375 -4.09375 C 2.625 -4.164062 2.410156 -4.203125 2.203125 -4.203125 C 1.816406 -4.203125 1.523438 -4.128906 1.328125 -3.984375 C 1.140625 -3.847656 1.046875 -3.671875 1.046875 -3.453125 C 1.046875 -3.285156 1.097656 -3.148438 1.203125 -3.046875 C 1.316406 -2.953125 1.453125 -2.875 1.609375 -2.8125 C 1.773438 -2.757812 1.992188 -2.703125 2.265625 -2.640625 C 2.617188 -2.554688 2.898438 -2.46875 3.109375 -2.375 C 3.328125 -2.289062 3.515625 -2.160156 3.671875 -1.984375 C 3.828125 -1.816406 3.90625 -1.582031 3.90625 -1.28125 C 3.90625 -1.039062 3.835938 -0.816406 3.703125 -0.609375 C 3.566406 -0.398438 3.363281 -0.238281 3.09375 -0.125 C 2.820312 -0.0078125 2.484375 0.046875 2.078125 0.046875 Z M 2.078125 0.046875 "/></g></g></g><g fill="#000000" fill-opacity="1"><g transform="translate(196.473437, 225.474725)"><g><path d="M 1.640625 -4.125 L 0.03125 -4.125 L 0.03125 -4.71875 L 3.921875 -4.71875 L 3.921875 -4.125 L 2.3125 -4.125 L 2.3125 0 L 1.640625 0 Z M 1.640625 -4.125 "/></g></g></g><g fill="#000000" fill-opacity="1"><g transform="translate(200.426119, 225.474725)"><g><path d="M 2.65625 0.046875 C 2.03125 0.046875 1.539062 -0.128906 1.1875 -0.484375 C 0.84375 -0.847656 0.671875 -1.363281 0.671875 -2.03125 L 0.671875 -4.71875 L 1.34375 -4.71875 L 1.34375 -2.0625 C 1.34375 -1.050781 1.785156 -0.546875 2.671875 -0.546875 C 3.097656 -0.546875 3.425781 -0.671875 3.65625 -0.921875 C 3.882812 -1.171875 4 -1.550781 4 -2.0625 L 4 -4.71875 L 4.65625 -4.71875 L 4.65625 -2.03125 C 4.65625 -1.351562 4.476562 -0.835938 4.125 -0.484375 C 3.78125 -0.128906 3.289062 0.046875 2.65625 0.046875 Z M 2.65625 0.046875 "/></g></g></g><g fill="#000000" fill-opacity="1"><g transform="translate(205.752473, 225.474725)"><g><path d="M 0.703125 -4.71875 L 2.6875 -4.71875 C 3.1875 -4.71875 3.628906 -4.617188 4.015625 -4.421875 C 4.398438 -4.222656 4.695312 -3.941406 4.90625 -3.578125 C 5.125 -3.222656 5.234375 -2.816406 5.234375 -2.359375 C 5.234375 -1.890625 5.125 -1.476562 4.90625 -1.125 C 4.695312 -0.769531 4.398438 -0.492188 4.015625 -0.296875 C 3.628906 -0.0976562 3.1875 0 2.6875 0 L 0.703125 0 Z M 2.65625 -0.578125 C 3.03125 -0.578125 3.363281 -0.648438 3.65625 -0.796875 C 3.945312 -0.953125 4.171875 -1.160156 4.328125 -1.421875 C 4.484375 -1.691406 4.5625 -2.003906 4.5625 -2.359375 C 4.5625 -2.703125 4.484375 -3.007812 4.328125 -3.28125 C 4.171875 -3.550781 3.945312 -3.757812 3.65625 -3.90625 C 3.363281 -4.050781 3.03125 -4.125 2.65625 -4.125 L 1.375 -4.125 L 1.375 -0.578125 Z M 2.65625 -0.578125 "/></g></g></g><g fill="#000000" fill-opacity="1"><g transform="translate(211.314503, 225.474725)"><g><path d="M 0.703125 -4.71875 L 1.375 -4.71875 L 1.375 0 L 0.703125 0 Z M 0.703125 -4.71875 "/></g></g></g><g fill="#000000" fill-opacity="1"><g transform="translate(213.401952, 225.474725)"><g><path d="M 2.828125 0.046875 C 2.359375 0.046875 1.929688 -0.0546875 1.546875 -0.265625 C 1.160156 -0.472656 0.859375 -0.757812 0.640625 -1.125 C 0.429688 -1.488281 0.328125 -1.898438 0.328125 -2.359375 C 0.328125 -2.804688 0.429688 -3.210938 0.640625 -3.578125 C 0.859375 -3.953125 1.160156 -4.242188 1.546875 -4.453125 C 1.929688 -4.660156 2.359375 -4.765625 2.828125 -4.765625 C 3.304688 -4.765625 3.734375 -4.660156 4.109375 -4.453125 C 4.492188 -4.242188 4.789062 -3.957031 5 -3.59375 C 5.21875 -3.226562 5.328125 -2.816406 5.328125 -2.359375 C 5.328125 -1.898438 5.21875 -1.488281 5 -1.125 C 4.789062 -0.757812 4.492188 -0.472656 4.109375 -0.265625 C 3.734375 -0.0546875 3.304688 0.046875 2.828125 0.046875 Z M 2.828125 -0.546875 C 3.179688 -0.546875 3.492188 -0.625 3.765625 -0.78125 C 4.046875 -0.9375 4.265625 -1.148438 4.421875 -1.421875 C 4.578125 -1.703125 4.65625 -2.015625 4.65625 -2.359375 C 4.65625 -2.703125 4.578125 -3.007812 4.421875 -3.28125 C 4.265625 -3.5625 4.046875 -3.78125 3.765625 -3.9375 C 3.492188 -4.09375 3.179688 -4.171875 2.828125 -4.171875 C 2.484375 -4.171875 2.171875 -4.09375 1.890625 -3.9375 C 1.609375 -3.78125 1.390625 -3.5625 1.234375 -3.28125 C 1.078125 -3.007812 1 -2.703125 1 -2.359375 C 1 -2.015625 1.078125 -1.703125 1.234375 -1.421875 C 1.390625 -1.148438 1.609375 -0.9375 1.890625 -0.78125 C 2.171875 -0.625 2.484375 -0.546875 2.828125 -0.546875 Z M 2.828125 -0.546875 "/></g></g></g></svg>