<svg xmlns="http://www.w3.org/2000/svg" xmlns:xlink="http://www.w3.org/1999/xlink" width="500" zoomAndPan="magnify" viewBox="0 0 375 374.999991" height="500" preserveAspectRatio="xMidYMid meet" version="1.0"><defs><g/></defs><g fill="#000000" fill-opacity="1"><g transform="translate(73.667685, 195.726157)"><g><path d="M 15.921875 -18.3125 C 14.328125 -18.3125 12.957031 -17.722656 11.8125 -16.546875 C 10.664062 -15.367188 10.09375 -13.945312 10.09375 -12.28125 C 10.09375 -10.59375 10.664062 -9.160156 11.8125 -7.984375 C 12.957031 -6.804688 14.328125 -6.21875 15.921875 -6.21875 C 16.679688 -6.21875 17.40625 -6.3125 18.09375 -6.5 C 18.78125 -6.695312 19.285156 -6.890625 19.609375 -7.078125 L 20.03125 -7.359375 L 22.90625 -1.484375 C 22.675781 -1.328125 22.363281 -1.128906 21.96875 -0.890625 C 21.570312 -0.648438 20.660156 -0.320312 19.234375 0.09375 C 17.816406 0.507812 16.296875 0.71875 14.671875 0.71875 C 11.078125 0.71875 7.914062 -0.546875 5.1875 -3.078125 C 2.457031 -5.617188 1.09375 -8.65625 1.09375 -12.1875 C 1.09375 -15.757812 2.457031 -18.828125 5.1875 -21.390625 C 7.914062 -23.960938 11.078125 -25.25 14.671875 -25.25 C 16.296875 -25.25 17.796875 -25.054688 19.171875 -24.671875 C 20.546875 -24.285156 21.519531 -23.90625 22.09375 -23.53125 L 22.90625 -22.953125 L 20.03125 -17.171875 C 18.976562 -17.929688 17.609375 -18.3125 15.921875 -18.3125 Z M 15.921875 -18.3125 "/></g></g></g><g fill="#000000" fill-opacity="1"><g transform="translate(96.182108, 195.726157)"><g><path d="M 5.1875 -2.90625 C 2.457031 -5.332031 1.09375 -8.441406 1.09375 -12.234375 C 1.09375 -16.023438 2.507812 -19.140625 5.34375 -21.578125 C 8.1875 -24.023438 11.695312 -25.25 15.875 -25.25 C 19.988281 -25.25 23.453125 -24.019531 26.265625 -21.5625 C 29.085938 -19.101562 30.5 -15.992188 30.5 -12.234375 C 30.5 -8.472656 29.117188 -5.375 26.359375 -2.9375 C 23.609375 -0.5 20.113281 0.71875 15.875 0.71875 C 11.476562 0.71875 7.914062 -0.488281 5.1875 -2.90625 Z M 11.734375 -16.40625 C 10.640625 -15.320312 10.09375 -13.929688 10.09375 -12.234375 C 10.09375 -10.546875 10.617188 -9.164062 11.671875 -8.09375 C 12.722656 -7.03125 14.109375 -6.5 15.828125 -6.5 C 17.484375 -6.5 18.84375 -7.039062 19.90625 -8.125 C 20.976562 -9.207031 21.515625 -10.578125 21.515625 -12.234375 C 21.515625 -13.929688 20.960938 -15.320312 19.859375 -16.40625 C 18.765625 -17.488281 17.421875 -18.03125 15.828125 -18.03125 C 14.203125 -18.03125 12.835938 -17.488281 11.734375 -16.40625 Z M 11.734375 -16.40625 "/></g></g></g><g fill="#000000" fill-opacity="1"><g transform="translate(126.822902, 195.726157)"><g><path d="M 2.875 0 L 2.875 -24.53125 L 11.328125 -24.53125 L 11.328125 -21.953125 L 11.421875 -21.953125 C 13.617188 -24.148438 15.960938 -25.25 18.453125 -25.25 C 19.660156 -25.25 20.863281 -25.085938 22.0625 -24.765625 C 23.257812 -24.441406 24.40625 -23.945312 25.5 -23.28125 C 26.601562 -22.613281 27.5 -21.664062 28.1875 -20.4375 C 28.875 -19.207031 29.21875 -17.78125 29.21875 -16.15625 L 29.21875 0 L 20.75 0 L 20.75 -13.859375 C 20.75 -15.140625 20.34375 -16.253906 19.53125 -17.203125 C 18.71875 -18.160156 17.660156 -18.640625 16.359375 -18.640625 C 15.078125 -18.640625 13.914062 -18.144531 12.875 -17.15625 C 11.84375 -16.175781 11.328125 -15.078125 11.328125 -13.859375 L 11.328125 0 Z M 2.875 0 "/></g></g></g><g fill="#000000" fill-opacity="1"><g transform="translate(157.463699, 195.726157)"><g><path d="M 15.921875 -18.3125 C 14.328125 -18.3125 12.957031 -17.722656 11.8125 -16.546875 C 10.664062 -15.367188 10.09375 -13.945312 10.09375 -12.28125 C 10.09375 -10.59375 10.664062 -9.160156 11.8125 -7.984375 C 12.957031 -6.804688 14.328125 -6.21875 15.921875 -6.21875 C 16.679688 -6.21875 17.40625 -6.3125 18.09375 -6.5 C 18.78125 -6.695312 19.285156 -6.890625 19.609375 -7.078125 L 20.03125 -7.359375 L 22.90625 -1.484375 C 22.675781 -1.328125 22.363281 -1.128906 21.96875 -0.890625 C 21.570312 -0.648438 20.660156 -0.320312 19.234375 0.09375 C 17.816406 0.507812 16.296875 0.71875 14.671875 0.71875 C 11.078125 0.71875 7.914062 -0.546875 5.1875 -3.078125 C 2.457031 -5.617188 1.09375 -8.65625 1.09375 -12.1875 C 1.09375 -15.757812 2.457031 -18.828125 5.1875 -21.390625 C 7.914062 -23.960938 11.078125 -25.25 14.671875 -25.25 C 16.296875 -25.25 17.796875 -25.054688 19.171875 -24.671875 C 20.546875 -24.285156 21.519531 -23.90625 22.09375 -23.53125 L 22.90625 -22.953125 L 20.03125 -17.171875 C 18.976562 -17.929688 17.609375 -18.3125 15.921875 -18.3125 Z M 15.921875 -18.3125 "/></g></g></g><g fill="#000000" fill-opacity="1"><g transform="translate(179.978119, 195.726157)"><g><path d="M 27.6875 -11.09375 L 9.890625 -11.09375 C 9.890625 -9.375 10.445312 -8.097656 11.5625 -7.265625 C 12.6875 -6.441406 13.898438 -6.03125 15.203125 -6.03125 C 16.578125 -6.03125 17.660156 -6.210938 18.453125 -6.578125 C 19.253906 -6.941406 20.164062 -7.664062 21.1875 -8.75 L 27.296875 -5.6875 C 24.742188 -1.414062 20.503906 0.71875 14.578125 0.71875 C 10.878906 0.71875 7.707031 -0.546875 5.0625 -3.078125 C 2.414062 -5.617188 1.09375 -8.671875 1.09375 -12.234375 C 1.09375 -15.804688 2.414062 -18.867188 5.0625 -21.421875 C 7.707031 -23.972656 10.878906 -25.25 14.578125 -25.25 C 18.472656 -25.25 21.640625 -24.125 24.078125 -21.875 C 26.515625 -19.625 27.734375 -16.410156 27.734375 -12.234375 C 27.734375 -11.660156 27.71875 -11.28125 27.6875 -11.09375 Z M 10.140625 -15.78125 L 19.453125 -15.78125 C 19.265625 -17.050781 18.765625 -18.03125 17.953125 -18.71875 C 17.140625 -19.40625 16.097656 -19.75 14.828125 -19.75 C 13.421875 -19.75 12.300781 -19.378906 11.46875 -18.640625 C 10.644531 -17.910156 10.203125 -16.957031 10.140625 -15.78125 Z M 10.140625 -15.78125 "/></g></g></g><g fill="#000000" fill-opacity="1"><g transform="translate(207.846383, 195.726157)"><g><path d="M 28.109375 -21.484375 C 30.410156 -18.984375 31.5625 -15.914062 31.5625 -12.28125 C 31.5625 -8.65625 30.410156 -5.582031 28.109375 -3.0625 C 25.816406 -0.539062 22.898438 0.71875 19.359375 0.71875 C 16.109375 0.71875 13.429688 -0.300781 11.328125 -2.34375 L 11.328125 12.4375 L 2.875 12.4375 L 2.875 -24.53125 L 11.234375 -24.53125 L 11.234375 -21.75 L 11.328125 -21.75 C 13.429688 -24.082031 16.109375 -25.25 19.359375 -25.25 C 22.898438 -25.25 25.816406 -23.992188 28.109375 -21.484375 Z M 20.90625 -8.125 C 22.007812 -9.207031 22.5625 -10.59375 22.5625 -12.28125 C 22.5625 -13.976562 22.035156 -15.359375 20.984375 -16.421875 C 19.929688 -17.492188 18.546875 -18.03125 16.828125 -18.03125 C 15.171875 -18.03125 13.804688 -17.488281 12.734375 -16.40625 C 11.671875 -15.320312 11.140625 -13.945312 11.140625 -12.28125 C 11.140625 -10.59375 11.6875 -9.207031 12.78125 -8.125 C 13.882812 -7.039062 15.234375 -6.5 16.828125 -6.5 C 18.453125 -6.5 19.8125 -7.039062 20.90625 -8.125 Z M 20.90625 -8.125 "/></g></g></g><g fill="#000000" fill-opacity="1"><g transform="translate(239.538812, 195.726157)"><g><path d="M 4.296875 -24.53125 L 4.296875 -33.65625 L 12.765625 -33.65625 L 12.765625 -24.53125 L 17.921875 -24.53125 L 17.921875 -18.078125 L 12.765625 -18.078125 L 12.765625 -10.28125 C 12.765625 -8.019531 13.398438 -6.890625 14.671875 -6.890625 C 14.992188 -6.890625 15.328125 -6.953125 15.671875 -7.078125 C 16.023438 -7.203125 16.300781 -7.328125 16.5 -7.453125 L 16.78125 -7.65625 L 18.890625 -0.8125 C 17.066406 0.207031 14.992188 0.71875 12.671875 0.71875 C 11.078125 0.71875 9.707031 0.441406 8.5625 -0.109375 C 7.414062 -0.671875 6.546875 -1.421875 5.953125 -2.359375 C 5.359375 -3.304688 4.929688 -4.296875 4.671875 -5.328125 C 4.421875 -6.367188 4.296875 -7.476562 4.296875 -8.65625 L 4.296875 -18.078125 L 0.765625 -18.078125 L 0.765625 -24.53125 Z M 4.296875 -24.53125 "/></g></g></g><g fill="#000000" fill-opacity="1"><g transform="translate(257.464228, 195.726157)"><g><path d="M 4.53125 -3.03125 C 2.238281 -5.539062 1.09375 -8.609375 1.09375 -12.234375 C 1.09375 -15.867188 2.238281 -18.945312 4.53125 -21.46875 C 6.832031 -23.988281 9.753906 -25.25 13.296875 -25.25 C 16.546875 -25.25 19.222656 -24.226562 21.328125 -22.1875 L 21.328125 -24.53125 L 29.78125 -24.53125 L 29.78125 0 L 21.421875 0 L 21.421875 -2.765625 L 21.328125 -2.765625 C 19.222656 -0.441406 16.546875 0.71875 13.296875 0.71875 C 9.753906 0.71875 6.832031 -0.53125 4.53125 -3.03125 Z M 11.734375 -16.40625 C 10.640625 -15.320312 10.09375 -13.929688 10.09375 -12.234375 C 10.09375 -10.546875 10.617188 -9.164062 11.671875 -8.09375 C 12.722656 -7.03125 14.109375 -6.5 15.828125 -6.5 C 17.484375 -6.5 18.84375 -7.039062 19.90625 -8.125 C 20.976562 -9.207031 21.515625 -10.578125 21.515625 -12.234375 C 21.515625 -13.929688 20.960938 -15.320312 19.859375 -16.40625 C 18.765625 -17.488281 17.421875 -18.03125 15.828125 -18.03125 C 14.203125 -18.03125 12.835938 -17.488281 11.734375 -16.40625 Z M 11.734375 -16.40625 "/></g></g></g><g fill="#000000" fill-opacity="1"><g transform="translate(289.156657, 195.726157)"><g><path d="M 8.3125 -10.234375 C 9.84375 -10.234375 11.140625 -9.695312 12.203125 -8.625 C 13.273438 -7.5625 13.8125 -6.265625 13.8125 -4.734375 C 13.8125 -3.234375 13.273438 -1.945312 12.203125 -0.875 C 11.140625 0.1875 9.84375 0.71875 8.3125 0.71875 C 6.820312 0.71875 5.539062 0.1875 4.46875 -0.875 C 3.40625 -1.945312 2.875 -3.234375 2.875 -4.734375 C 2.875 -6.265625 3.40625 -7.5625 4.46875 -8.625 C 5.539062 -9.695312 6.820312 -10.234375 8.3125 -10.234375 Z M 8.3125 -10.234375 "/></g></g></g><g fill="#000000" fill-opacity="1"><g transform="translate(108.415252, 216.397395)"><g><path d="M 8.734375 -5.328125 C 9.316406 -5.140625 9.773438 -4.828125 10.109375 -4.390625 C 10.441406 -3.960938 10.609375 -3.429688 10.609375 -2.796875 C 10.609375 -1.898438 10.257812 -1.207031 9.5625 -0.71875 C 8.863281 -0.238281 7.847656 0 6.515625 0 L 1.21875 0 L 1.21875 -10.234375 L 6.21875 -10.234375 C 7.46875 -10.234375 8.425781 -9.992188 9.09375 -9.515625 C 9.757812 -9.035156 10.09375 -8.390625 10.09375 -7.578125 C 10.09375 -7.078125 9.972656 -6.628906 9.734375 -6.234375 C 9.492188 -5.847656 9.160156 -5.546875 8.734375 -5.328125 Z M 3.5625 -8.453125 L 3.5625 -6.046875 L 5.921875 -6.046875 C 6.503906 -6.046875 6.945312 -6.144531 7.25 -6.34375 C 7.550781 -6.550781 7.703125 -6.851562 7.703125 -7.25 C 7.703125 -7.65625 7.550781 -7.957031 7.25 -8.15625 C 6.945312 -8.351562 6.503906 -8.453125 5.921875 -8.453125 Z M 6.328125 -1.78125 C 6.953125 -1.78125 7.421875 -1.882812 7.734375 -2.09375 C 8.054688 -2.300781 8.21875 -2.617188 8.21875 -3.046875 C 8.21875 -3.890625 7.585938 -4.3125 6.328125 -4.3125 L 3.5625 -4.3125 L 3.5625 -1.78125 Z M 6.328125 -1.78125 "/></g></g></g><g fill="#000000" fill-opacity="1"><g transform="translate(121.793237, 216.397395)"><g><path d="M 7.734375 0 L 5.765625 -2.859375 L 3.578125 -2.859375 L 3.578125 0 L 1.21875 0 L 1.21875 -10.234375 L 5.640625 -10.234375 C 6.546875 -10.234375 7.332031 -10.082031 8 -9.78125 C 8.675781 -9.476562 9.191406 -9.046875 9.546875 -8.484375 C 9.910156 -7.929688 10.09375 -7.273438 10.09375 -6.515625 C 10.09375 -5.753906 9.910156 -5.097656 9.546875 -4.546875 C 9.179688 -4.003906 8.660156 -3.585938 7.984375 -3.296875 L 10.28125 0 Z M 7.6875 -6.515625 C 7.6875 -7.097656 7.5 -7.539062 7.125 -7.84375 C 6.757812 -8.15625 6.222656 -8.3125 5.515625 -8.3125 L 3.578125 -8.3125 L 3.578125 -4.734375 L 5.515625 -4.734375 C 6.222656 -4.734375 6.757812 -4.890625 7.125 -5.203125 C 7.5 -5.515625 7.6875 -5.953125 7.6875 -6.515625 Z M 7.6875 -6.515625 "/></g></g></g><g fill="#000000" fill-opacity="1"><g transform="translate(134.732626, 216.397395)"><g><path d="M 7.953125 -2.1875 L 3.203125 -2.1875 L 2.296875 0 L -0.125 0 L 4.4375 -10.234375 L 6.765625 -10.234375 L 11.34375 0 L 8.859375 0 Z M 7.203125 -4 L 5.59375 -7.90625 L 3.96875 -4 Z M 7.203125 -4 "/></g></g></g><g fill="#000000" fill-opacity="1"><g transform="translate(148.125236, 216.397395)"><g><path d="M 10.609375 -10.234375 L 10.609375 0 L 8.65625 0 L 3.546875 -6.21875 L 3.546875 0 L 1.21875 0 L 1.21875 -10.234375 L 3.171875 -10.234375 L 8.265625 -4.015625 L 8.265625 -10.234375 Z M 10.609375 -10.234375 "/></g></g></g><g fill="#000000" fill-opacity="1"><g transform="translate(162.131879, 216.397395)"><g><path d="M 1.21875 -10.234375 L 5.859375 -10.234375 C 6.972656 -10.234375 7.957031 -10.019531 8.8125 -9.59375 C 9.664062 -9.175781 10.328125 -8.582031 10.796875 -7.8125 C 11.273438 -7.039062 11.515625 -6.144531 11.515625 -5.125 C 11.515625 -4.09375 11.273438 -3.191406 10.796875 -2.421875 C 10.328125 -1.648438 9.664062 -1.050781 8.8125 -0.625 C 7.957031 -0.207031 6.972656 0 5.859375 0 L 1.21875 0 Z M 5.75 -1.9375 C 6.769531 -1.9375 7.582031 -2.222656 8.1875 -2.796875 C 8.800781 -3.367188 9.109375 -4.144531 9.109375 -5.125 C 9.109375 -6.09375 8.800781 -6.863281 8.1875 -7.4375 C 7.582031 -8.007812 6.769531 -8.296875 5.75 -8.296875 L 3.578125 -8.296875 L 3.578125 -1.9375 Z M 5.75 -1.9375 "/></g></g></g><g fill="#000000" fill-opacity="1"><g transform="translate(176.401679, 216.397395)"><g><path d="M 9.140625 -1.90625 L 9.140625 0 L 1.21875 0 L 1.21875 -10.234375 L 8.953125 -10.234375 L 8.953125 -8.34375 L 3.5625 -8.34375 L 3.5625 -6.109375 L 8.328125 -6.109375 L 8.328125 -4.265625 L 3.5625 -4.265625 L 3.5625 -1.90625 Z M 9.140625 -1.90625 "/></g></g></g><g fill="#000000" fill-opacity="1"><g transform="translate(188.405384, 216.397395)"><g><path d="M 1.21875 -10.234375 L 5.859375 -10.234375 C 6.972656 -10.234375 7.957031 -10.019531 8.8125 -9.59375 C 9.664062 -9.175781 10.328125 -8.582031 10.796875 -7.8125 C 11.273438 -7.039062 11.515625 -6.144531 11.515625 -5.125 C 11.515625 -4.09375 11.273438 -3.191406 10.796875 -2.421875 C 10.328125 -1.648438 9.664062 -1.050781 8.8125 -0.625 C 7.957031 -0.207031 6.972656 0 5.859375 0 L 1.21875 0 Z M 5.75 -1.9375 C 6.769531 -1.9375 7.582031 -2.222656 8.1875 -2.796875 C 8.800781 -3.367188 9.109375 -4.144531 9.109375 -5.125 C 9.109375 -6.09375 8.800781 -6.863281 8.1875 -7.4375 C 7.582031 -8.007812 6.769531 -8.296875 5.75 -8.296875 L 3.578125 -8.296875 L 3.578125 -1.9375 Z M 5.75 -1.9375 "/></g></g></g><path stroke-linecap="butt" transform="matrix(0.000000000000000045, 0.733154, -0.75, 0.000000000000000046, 219.180165, 204.58569)" fill="none" stroke-linejoin="miter" d="M 0.000337903 5.500637 L 17.390965 5.500637 " stroke="#000000" stroke-width="11" stroke-opacity="1" stroke-miterlimit="4"/></svg>