<svg xmlns="http://www.w3.org/2000/svg" xmlns:xlink="http://www.w3.org/1999/xlink" width="500" zoomAndPan="magnify" viewBox="0 0 375 374.999991" height="500" preserveAspectRatio="xMidYMid meet" version="1.0"><defs><g/></defs><g fill="#000000" fill-opacity="1"><g transform="translate(100.513739, 202.874987)"><g><path d="M 11.109375 -30 L 18.421875 -13.6875 L 25.734375 -30 L 38.015625 -30 L 21.9375 0 L 14.90625 0 L -1.171875 -30 Z M 11.109375 -30 "/></g></g></g><g fill="#000000" fill-opacity="1"><g transform="translate(130.627388, 202.874987)"><g><path d="M 33.859375 -13.5625 L 12.109375 -13.5625 C 12.109375 -11.457031 12.789062 -9.898438 14.15625 -8.890625 C 15.519531 -7.878906 17 -7.375 18.59375 -7.375 C 20.269531 -7.375 21.59375 -7.597656 22.5625 -8.046875 C 23.539062 -8.492188 24.65625 -9.378906 25.90625 -10.703125 L 33.390625 -6.953125 C 30.273438 -1.734375 25.09375 0.875 17.84375 0.875 C 13.3125 0.875 9.425781 -0.671875 6.1875 -3.765625 C 2.957031 -6.867188 1.34375 -10.601562 1.34375 -14.96875 C 1.34375 -19.332031 2.957031 -23.070312 6.1875 -26.1875 C 9.425781 -29.3125 13.3125 -30.875 17.84375 -30.875 C 22.59375 -30.875 26.457031 -29.5 29.4375 -26.75 C 32.425781 -24.007812 33.921875 -20.082031 33.921875 -14.96875 C 33.921875 -14.269531 33.898438 -13.800781 33.859375 -13.5625 Z M 12.40625 -19.296875 L 23.796875 -19.296875 C 23.566406 -20.859375 22.953125 -22.054688 21.953125 -22.890625 C 20.960938 -23.734375 19.6875 -24.15625 18.125 -24.15625 C 16.414062 -24.15625 15.050781 -23.707031 14.03125 -22.8125 C 13.019531 -21.914062 12.476562 -20.742188 12.40625 -19.296875 Z M 12.40625 -19.296875 "/></g></g></g><g fill="#000000" fill-opacity="1"><g transform="translate(159.162176, 202.874987)"><g><path d="M 3.515625 0 L 3.515625 -50.296875 L 13.859375 -50.296875 L 13.859375 0 Z M 3.515625 0 "/></g></g></g><g fill="#000000" fill-opacity="1"><g transform="translate(169.80311, 202.874987)"><g><path d="M 11.109375 -30 L 18.421875 -13.6875 L 25.734375 -30 L 38.015625 -30 L 21.9375 0 L 14.90625 0 L -1.171875 -30 Z M 11.109375 -30 "/></g></g></g><g fill="#000000" fill-opacity="1"><g transform="translate(199.916759, 202.874987)"><g><path d="M 33.859375 -13.5625 L 12.109375 -13.5625 C 12.109375 -11.457031 12.789062 -9.898438 14.15625 -8.890625 C 15.519531 -7.878906 17 -7.375 18.59375 -7.375 C 20.269531 -7.375 21.59375 -7.597656 22.5625 -8.046875 C 23.539062 -8.492188 24.65625 -9.378906 25.90625 -10.703125 L 33.390625 -6.953125 C 30.273438 -1.734375 25.09375 0.875 17.84375 0.875 C 13.3125 0.875 9.425781 -0.671875 6.1875 -3.765625 C 2.957031 -6.867188 1.34375 -10.601562 1.34375 -14.96875 C 1.34375 -19.332031 2.957031 -23.070312 6.1875 -26.1875 C 9.425781 -29.3125 13.3125 -30.875 17.84375 -30.875 C 22.59375 -30.875 26.457031 -29.5 29.4375 -26.75 C 32.425781 -24.007812 33.921875 -20.082031 33.921875 -14.96875 C 33.921875 -14.269531 33.898438 -13.800781 33.859375 -13.5625 Z M 12.40625 -19.296875 L 23.796875 -19.296875 C 23.566406 -20.859375 22.953125 -22.054688 21.953125 -22.890625 C 20.960938 -23.734375 19.6875 -24.15625 18.125 -24.15625 C 16.414062 -24.15625 15.050781 -23.707031 14.03125 -22.8125 C 13.019531 -21.914062 12.476562 -20.742188 12.40625 -19.296875 Z M 12.40625 -19.296875 "/></g></g></g><g fill="#000000" fill-opacity="1"><g transform="translate(228.451547, 202.874987)"><g><path d="M 5.265625 -30 L 5.265625 -41.171875 L 15.609375 -41.171875 L 15.609375 -30 L 21.9375 -30 L 21.9375 -22.109375 L 15.609375 -22.109375 L 15.609375 -12.578125 C 15.609375 -9.804688 16.390625 -8.421875 17.953125 -8.421875 C 18.347656 -8.421875 18.757812 -8.5 19.1875 -8.65625 C 19.613281 -8.8125 19.941406 -8.96875 20.171875 -9.125 L 20.53125 -9.359375 L 23.09375 -1 C 20.875 0.25 18.34375 0.875 15.5 0.875 C 13.550781 0.875 11.875 0.535156 10.46875 -0.140625 C 9.0625 -0.828125 8 -1.742188 7.28125 -2.890625 C 6.5625 -4.046875 6.046875 -5.253906 5.734375 -6.515625 C 5.421875 -7.785156 5.265625 -9.140625 5.265625 -10.578125 L 5.265625 -22.109375 L 0.9375 -22.109375 L 0.9375 -30 Z M 5.265625 -30 "/></g></g></g><g fill="#000000" fill-opacity="1"><g transform="translate(244.823189, 202.874987)"><g/></g></g><g fill="#000000" fill-opacity="1"><g transform="translate(254.060688, 202.874987)"><g><path d="M 10.171875 -12.515625 C 12.046875 -12.515625 13.632812 -11.859375 14.9375 -10.546875 C 16.25 -9.242188 16.90625 -7.660156 16.90625 -5.796875 C 16.90625 -3.960938 16.25 -2.390625 14.9375 -1.078125 C 13.632812 0.222656 12.046875 0.875 10.171875 0.875 C 8.335938 0.875 6.769531 0.222656 5.46875 -1.078125 C 4.164062 -2.390625 3.515625 -3.960938 3.515625 -5.796875 C 3.515625 -7.660156 4.164062 -9.242188 5.46875 -10.546875 C 6.769531 -11.859375 8.335938 -12.515625 10.171875 -12.515625 Z M 10.171875 -12.515625 "/></g></g></g><g fill="#000000" fill-opacity="1"><g transform="translate(159.69622, 219.146676)"><g><path d="M 5.109375 -7.886719 C 2.65625 -7.886719 0.671875 -5.925781 0.671875 -3.035156 C 0.671875 -1.007812 1.859375 0.15625 3.789062 0.15625 C 5.769531 0.15625 7.105469 -0.863281 7.574219 -2.566406 L 7.609375 -2.679688 L 6.074219 -2.679688 L 6.027344 -2.566406 C 5.660156 -1.601562 4.996094 -0.996094 3.988281 -0.996094 C 3.015625 -0.996094 2.332031 -1.648438 2.332031 -3.171875 C 2.332031 -5.3125 3.449219 -6.734375 4.941406 -6.734375 C 5.972656 -6.734375 6.519531 -6.273438 6.53125 -5.222656 L 6.53125 -5.109375 L 8.078125 -5.109375 L 8.089844 -5.222656 C 8.203125 -6.746094 7.203125 -7.886719 5.109375 -7.886719 Z M 5.109375 -7.886719 "/></g></g></g><g fill="#000000" fill-opacity="1"><g transform="translate(166.753437, 219.146676)"><g><path d="M 5.132812 -7.886719 C 2.386719 -7.886719 0.695312 -5.835938 0.695312 -3.195312 C 0.695312 -1.320312 1.917969 0.15625 4.132812 0.15625 C 6.878906 0.15625 8.570312 -1.894531 8.570312 -4.539062 C 8.570312 -6.410156 7.351562 -7.886719 5.132812 -7.886719 Z M 4.257812 -0.996094 C 3.023438 -0.996094 2.34375 -1.90625 2.34375 -3.226562 C 2.34375 -4.808594 3.195312 -6.734375 5.007812 -6.734375 C 6.230469 -6.734375 6.925781 -5.828125 6.925781 -4.503906 C 6.925781 -2.925781 6.074219 -0.996094 4.257812 -0.996094 Z M 4.257812 -0.996094 "/></g></g></g><g fill="#000000" fill-opacity="1"><g transform="translate(174.213967, 219.146676)"><g><path d="M 4.15625 -7.886719 C 2.519531 -7.886719 1.054688 -6.9375 1.054688 -5.265625 C 1.054688 -4.15625 1.894531 -3.628906 3.238281 -3.292969 C 4.191406 -3.046875 4.582031 -2.6875 4.582031 -2.164062 C 4.582031 -1.433594 3.945312 -0.996094 3.136719 -0.996094 C 2.34375 -0.996094 1.769531 -1.433594 1.746094 -2.285156 L 0.179688 -2.285156 C 0.0429688 -0.660156 1.199219 0.15625 2.945312 0.15625 C 4.726562 0.15625 6.261719 -0.785156 6.261719 -2.453125 C 6.261719 -3.519531 5.589844 -4.203125 4.167969 -4.550781 C 3.125 -4.808594 2.722656 -5.109375 2.722656 -5.636719 C 2.722656 -6.34375 3.25 -6.734375 3.957031 -6.734375 C 4.761719 -6.734375 5.15625 -6.242188 5.109375 -5.457031 L 6.679688 -5.457031 C 6.757812 -6.835938 5.996094 -7.886719 4.15625 -7.886719 Z M 4.15625 -7.886719 "/></g></g></g><g fill="#000000" fill-opacity="1"><g transform="translate(179.63555, 219.146676)"><g><path d="M 10.097656 -7.730469 L 7.53125 -7.730469 L 4.863281 -1.625 L 4.28125 -7.730469 L 1.757812 -7.730469 L 0.390625 0 L 1.9375 0 L 3.023438 -6.242188 L 3.640625 0 L 5.480469 0 L 8.304688 -6.21875 L 7.183594 0 L 8.730469 0 Z M 10.097656 -7.730469 "/></g></g></g><g fill="#000000" fill-opacity="1"><g transform="translate(188.350822, 219.146676)"><g><path d="M 3.09375 -6.519531 L 7.003906 -6.519531 L 7.214844 -7.730469 L 1.757812 -7.730469 L 0.390625 0 L 5.960938 0 L 6.183594 -1.222656 L 2.152344 -1.222656 L 2.511719 -3.261719 L 6.164062 -3.261719 L 6.375 -4.480469 L 2.734375 -4.480469 Z M 3.09375 -6.519531 "/></g></g></g><g fill="#000000" fill-opacity="1"><g transform="translate(193.91804, 219.146676)"><g><path d="M 7.664062 -6.519531 L 7.886719 -7.730469 L 1.097656 -7.730469 L 0.875 -6.519531 L 3.507812 -6.519531 L 2.351562 0 L 3.898438 0 L 5.054688 -6.519531 Z M 7.664062 -6.519531 "/></g></g></g><g fill="#000000" fill-opacity="1"><g transform="translate(199.608488, 219.146676)"><g><path d="M 1.9375 0 L 3.304688 -7.730469 L 1.757812 -7.730469 L 0.390625 0 Z M 1.9375 0 "/></g></g></g><g fill="#000000" fill-opacity="1"><g transform="translate(201.534715, 219.146676)"><g><path d="M 5.109375 -7.886719 C 2.65625 -7.886719 0.671875 -5.925781 0.671875 -3.035156 C 0.671875 -1.007812 1.859375 0.15625 3.789062 0.15625 C 5.769531 0.15625 7.105469 -0.863281 7.574219 -2.566406 L 7.609375 -2.679688 L 6.074219 -2.679688 L 6.027344 -2.566406 C 5.660156 -1.601562 4.996094 -0.996094 3.988281 -0.996094 C 3.015625 -0.996094 2.332031 -1.648438 2.332031 -3.171875 C 2.332031 -5.3125 3.449219 -6.734375 4.941406 -6.734375 C 5.972656 -6.734375 6.519531 -6.273438 6.53125 -5.222656 L 6.53125 -5.109375 L 8.078125 -5.109375 L 8.089844 -5.222656 C 8.203125 -6.746094 7.203125 -7.886719 5.109375 -7.886719 Z M 5.109375 -7.886719 "/></g></g></g><g fill="#000000" fill-opacity="1"><g transform="translate(208.591934, 219.146676)"><g><path d="M 4.15625 -7.886719 C 2.519531 -7.886719 1.054688 -6.9375 1.054688 -5.265625 C 1.054688 -4.15625 1.894531 -3.628906 3.238281 -3.292969 C 4.191406 -3.046875 4.582031 -2.6875 4.582031 -2.164062 C 4.582031 -1.433594 3.945312 -0.996094 3.136719 -0.996094 C 2.34375 -0.996094 1.769531 -1.433594 1.746094 -2.285156 L 0.179688 -2.285156 C 0.0429688 -0.660156 1.199219 0.15625 2.945312 0.15625 C 4.726562 0.15625 6.261719 -0.785156 6.261719 -2.453125 C 6.261719 -3.519531 5.589844 -4.203125 4.167969 -4.550781 C 3.125 -4.808594 2.722656 -5.109375 2.722656 -5.636719 C 2.722656 -6.34375 3.25 -6.734375 3.957031 -6.734375 C 4.761719 -6.734375 5.15625 -6.242188 5.109375 -5.457031 L 6.679688 -5.457031 C 6.757812 -6.835938 5.996094 -7.886719 4.15625 -7.886719 Z M 4.15625 -7.886719 "/></g></g></g></svg>