<svg xmlns="http://www.w3.org/2000/svg" xmlns:xlink="http://www.w3.org/1999/xlink" width="500" zoomAndPan="magnify" viewBox="0 0 375 374.999991" height="500" preserveAspectRatio="xMidYMid meet" version="1.0"><defs><g/><clipPath id="ac9c0ea527"><path d="M 56.488281 151.464844 L 318.238281 151.464844 L 318.238281 223.464844 L 56.488281 223.464844 Z M 56.488281 151.464844 " clip-rule="nonzero"/></clipPath><clipPath id="7d76e7b1f5"><path d="M 63.558594 158.238281 L 187.332031 158.238281 L 187.332031 216.761719 L 63.558594 216.761719 Z M 63.558594 158.238281 " clip-rule="nonzero"/></clipPath></defs><g clip-path="url(#ac9c0ea527)"><path stroke-linecap="butt" transform="matrix(0.750202, 0, 0, 0.749268, 56.489269, 151.465435)" fill="none" stroke-linejoin="miter" d="M -0.00131637 -0.000788908 L 348.904932 -0.000788908 L 348.904932 96.092971 L -0.00131637 96.092971 L -0.00131637 -0.000788908 " stroke="#000000" stroke-width="6" stroke-opacity="1" stroke-miterlimit="4"/></g><g clip-path="url(#7d76e7b1f5)"><path fill="#000000" d="M 63.558594 158.238281 L 187.515625 158.238281 L 187.515625 216.84375 L 63.558594 216.84375 Z M 63.558594 158.238281 " fill-opacity="1" fill-rule="nonzero"/></g><g fill="#ffffff" fill-opacity="1"><g transform="translate(78.231759, 196.618288)"><g><path d="M 2.863281 0 L 14.886719 0 L 14.886719 -2.359375 L 5.335938 -2.359375 L 5.335938 -19.660156 L 2.863281 -19.660156 Z M 2.863281 0 "/></g></g></g><g fill="#ffffff" fill-opacity="1"><g transform="translate(96.118363, 196.618288)"><g><path d="M 2.863281 0 L 5.335938 0 L 5.335938 -19.660156 L 2.863281 -19.660156 Z M 2.863281 0 "/></g></g></g><g fill="#ffffff" fill-opacity="1"><g transform="translate(106.45196, 196.618288)"><g><path d="M 11.628906 0.363281 C 17.667969 0.363281 21.738281 -4.214844 21.628906 -10.671875 L 10.953125 -10.671875 L 10.953125 -8.3125 L 18.960938 -8.3125 C 18.453125 -4.605469 15.644531 -2.105469 11.683594 -2.105469 C 7.273438 -2.105469 4.15625 -5.28125 4.15625 -9.832031 C 4.15625 -14.378906 7.246094 -17.554688 11.65625 -17.554688 C 14.691406 -17.554688 17.105469 -16.066406 18.339844 -13.539062 L 21.039062 -13.539062 C 19.773438 -17.414062 16.066406 -20.027344 11.570312 -20.027344 C 5.8125 -20.027344 1.628906 -15.730469 1.628906 -9.832031 C 1.628906 -3.902344 5.84375 0.363281 11.628906 0.363281 Z M 11.628906 0.363281 "/></g></g></g><g fill="#ffffff" fill-opacity="1"><g transform="translate(131.751177, 196.618288)"><g><path d="M 15.757812 0 L 18.230469 0 L 18.230469 -19.660156 L 15.757812 -19.660156 L 15.757812 -11.207031 L 5.335938 -11.207031 L 5.335938 -19.660156 L 2.863281 -19.660156 L 2.863281 0 L 5.335938 0 L 5.335938 -8.847656 L 15.757812 -8.847656 Z M 15.757812 0 "/></g></g></g><g fill="#ffffff" fill-opacity="1"><g transform="translate(154.972617, 196.618288)"><g><path d="M 7.613281 0 L 10.082031 0 L 10.082031 -17.300781 L 16.710938 -17.300781 L 16.710938 -19.660156 L 0.953125 -19.660156 L 0.953125 -17.300781 L 7.613281 -17.300781 Z M 7.613281 0 "/></g></g></g><g fill="#000000" fill-opacity="1"><g transform="translate(196.273275, 196.769541)"><g><path d="M 9.128906 0.421875 C 14.015625 0.421875 16.90625 -1.882812 16.90625 -5.757812 C 16.90625 -9.015625 14.800781 -10.925781 10.027344 -11.992188 C 7.5 -12.554688 6.574219 -13.171875 6.574219 -14.183594 C 6.574219 -15.140625 7.414062 -15.730469 8.734375 -15.730469 C 10.308594 -15.730469 11.207031 -14.914062 11.207031 -13.425781 L 16.542969 -13.425781 C 16.542969 -17.46875 13.453125 -20.082031 8.621094 -20.082031 C 3.988281 -20.082031 1.125 -17.777344 1.125 -14.070312 C 1.125 -10.757812 3.285156 -8.707031 7.722656 -7.863281 C 10.109375 -7.386719 11.261719 -6.65625 11.261719 -5.53125 C 11.261719 -4.550781 10.421875 -3.988281 9.042969 -3.988281 C 7.414062 -3.988281 6.460938 -4.859375 6.460938 -6.375 L 0.984375 -6.375 C 0.984375 -2.132812 4.015625 0.421875 9.128906 0.421875 Z M 9.128906 0.421875 "/></g></g></g><g fill="#000000" fill-opacity="1"><g transform="translate(214.219602, 196.769541)"><g><path d="M 6.769531 0 L 12.414062 0 L 12.414062 -14.410156 L 18.398438 -14.410156 L 18.398438 -19.660156 L 0.785156 -19.660156 L 0.785156 -14.410156 L 6.769531 -14.410156 Z M 6.769531 0 "/></g></g></g><g fill="#000000" fill-opacity="1"><g transform="translate(233.401667, 196.769541)"><g><path d="M 10.53125 0.421875 C 15.839844 0.421875 19.128906 -2.808594 19.128906 -8.089844 L 19.128906 -19.660156 L 13.480469 -19.660156 L 13.480469 -8.453125 C 13.480469 -6.121094 12.5 -4.886719 10.53125 -4.886719 C 8.566406 -4.886719 7.582031 -6.121094 7.582031 -8.453125 L 7.582031 -19.660156 L 1.910156 -19.660156 L 1.910156 -8.089844 C 1.910156 -2.808594 5.222656 0.421875 10.53125 0.421875 Z M 10.53125 0.421875 "/></g></g></g><g fill="#000000" fill-opacity="1"><g transform="translate(254.465434, 196.769541)"><g><path d="M 2.078125 0 L 10.421875 0 C 16.769531 0 20.980469 -3.902344 20.980469 -9.832031 C 20.980469 -15.730469 16.769531 -19.660156 10.421875 -19.660156 L 2.078125 -19.660156 Z M 7.75 -5.082031 L 7.75 -14.578125 L 10.25 -14.578125 C 13.257812 -14.578125 15.195312 -12.722656 15.195312 -9.832031 C 15.195312 -6.9375 13.257812 -5.082031 10.25 -5.082031 Z M 7.75 -5.082031 "/></g></g></g><g fill="#000000" fill-opacity="1"><g transform="translate(276.399825, 196.769541)"><g><path d="M 2.078125 0 L 7.75 0 L 7.75 -19.660156 L 2.078125 -19.660156 Z M 2.078125 0 "/></g></g></g><g fill="#000000" fill-opacity="1"><g transform="translate(286.229585, 196.769541)"><g><path d="M 11.65625 0.421875 C 17.917969 0.421875 22.355469 -3.820312 22.355469 -9.832031 C 22.355469 -15.839844 17.917969 -20.082031 11.65625 -20.082031 C 5.394531 -20.082031 0.953125 -15.839844 0.953125 -9.832031 C 0.953125 -3.820312 5.394531 0.421875 11.65625 0.421875 Z M 6.710938 -9.832031 C 6.710938 -12.78125 8.761719 -14.828125 11.65625 -14.828125 C 14.578125 -14.828125 16.597656 -12.78125 16.597656 -9.832031 C 16.597656 -6.882812 14.578125 -4.832031 11.65625 -4.832031 C 8.761719 -4.832031 6.710938 -6.882812 6.710938 -9.832031 Z M 6.710938 -9.832031 "/></g></g></g></svg>