<svg xmlns="http://www.w3.org/2000/svg" xmlns:xlink="http://www.w3.org/1999/xlink" width="500" zoomAndPan="magnify" viewBox="0 0 375 374.999991" height="500" preserveAspectRatio="xMidYMid meet" version="1.0"><defs><g/><clipPath id="e4d83871c7"><path d="M 68.59375 168.355469 L 106.84375 168.355469 L 106.84375 206.605469 L 68.59375 206.605469 Z M 68.59375 168.355469 " clip-rule="nonzero"/></clipPath></defs><g clip-path="url(#e4d83871c7)"><path fill="#000000" d="M 76.226562 199.722656 L 76.660156 200.152344 L 76.703125 200.195312 C 78.050781 201.589844 78.035156 203.839844 76.660156 205.214844 C 75.285156 206.59375 73.039062 206.605469 71.644531 205.257812 L 71.597656 205.214844 L 71.167969 204.785156 L 69.988281 203.601562 C 68.597656 202.210938 68.597656 199.933594 69.988281 198.539062 C 71.378906 197.144531 73.660156 197.144531 75.050781 198.539062 Z M 100.101562 180.128906 L 100.519531 179.707031 L 105.414062 174.8125 C 106.804688 173.421875 106.804688 171.144531 105.414062 169.746094 C 104.019531 168.355469 101.742188 168.355469 100.351562 169.746094 L 95.941406 174.164062 L 95.460938 174.644531 L 95.039062 175.0625 L 92.507812 177.59375 C 91.121094 178.988281 91.121094 181.265625 92.507812 182.660156 L 95.039062 185.191406 L 95.492188 185.640625 L 100.386719 190.535156 C 101.777344 191.925781 104.050781 191.925781 105.449219 190.535156 C 106.839844 189.144531 106.839844 186.863281 105.449219 185.472656 L 100.554688 180.574219 Z M 70.191406 169.78125 L 70.191406 169.777344 C 71.582031 168.386719 73.859375 168.386719 75.25 169.777344 L 105.378906 199.929688 C 106.777344 201.320312 106.777344 203.601562 105.378906 204.992188 C 103.988281 206.386719 101.714844 206.386719 100.320312 204.992188 L 70.191406 174.839844 C 68.800781 173.449219 68.800781 171.171875 70.191406 169.78125 Z M 70.144531 184.214844 C 71.535156 182.824219 73.8125 182.824219 75.207031 184.214844 L 78.636719 187.648438 L 86.0625 195.074219 L 90.957031 199.972656 C 92.347656 201.363281 92.347656 203.644531 90.957031 205.035156 C 89.558594 206.429688 87.285156 206.429688 85.894531 205.035156 L 81 200.140625 L 73.578125 192.710938 L 70.144531 189.28125 C 68.753906 187.886719 68.753906 185.605469 70.144531 184.214844 Z M 70.144531 184.214844 " fill-opacity="1" fill-rule="evenodd"/></g><g fill="#000000" fill-opacity="1"><g transform="translate(122.636829, 196.856837)"><g><path d="M 2.15625 0 L 2.15625 -22.1875 L 6.203125 -22.1875 L 6.203125 -3.171875 L 16.03125 -3.171875 L 16.03125 0 Z M 2.15625 0 "/></g></g></g><g fill="#000000" fill-opacity="1"><g transform="translate(145.001668, 196.856837)"><g><path d="M 2.15625 0 L 2.15625 -22.1875 L 6.203125 -22.1875 L 6.203125 0 Z M 2.15625 0 "/></g></g></g><g fill="#000000" fill-opacity="1"><g transform="translate(158.276097, 196.856837)"><g><path d="M 2.15625 0 L 2.15625 -22.1875 L 6.203125 -22.1875 L 16.640625 -6.5625 L 16.640625 -22.1875 L 20.6875 -22.1875 L 20.6875 0 L 16.640625 0 L 6.203125 -15.59375 L 6.203125 0 Z M 2.15625 0 "/></g></g></g><g fill="#000000" fill-opacity="1"><g transform="translate(186.025489, 196.856837)"><g><path d="M 2.15625 0 L 2.15625 -22.1875 L 16.640625 -22.1875 L 16.640625 -18.921875 L 6.203125 -18.921875 L 6.203125 -12.828125 L 15.6875 -12.828125 L 15.6875 -9.671875 L 6.203125 -9.671875 L 6.203125 -3.265625 L 16.640625 -3.265625 L 16.640625 0 Z M 2.15625 0 "/></g></g></g><g fill="#000000" fill-opacity="1"><g transform="translate(209.243293, 196.856837)"><g><path d="M 7.546875 0 L 7.546875 -20 L 0.921875 -20 L 0.921875 -22.1875 L 16.828125 -22.1875 L 16.828125 -20 L 10.203125 -20 L 10.203125 0 Z M 7.546875 0 "/></g></g></g><g fill="#000000" fill-opacity="1"><g transform="translate(231.893188, 196.856837)"><g><path d="M 2.34375 0 L 2.34375 -22.1875 L 16.0625 -22.1875 L 16.0625 -20 L 5 -20 L 5 -12.265625 L 15.109375 -12.265625 L 15.109375 -10.109375 L 5 -10.109375 L 5 -2.1875 L 16.0625 -2.1875 L 16.0625 0 Z M 2.34375 0 "/></g></g></g><g fill="#000000" fill-opacity="1"><g transform="translate(254.669784, 196.856837)"><g><path d="M 12.078125 0.375 C 9.898438 0.375 8.023438 -0.101562 6.453125 -1.0625 C 4.878906 -2.019531 3.65625 -3.359375 2.78125 -5.078125 C 1.914062 -6.804688 1.484375 -8.8125 1.484375 -11.09375 C 1.484375 -13.351562 1.914062 -15.34375 2.78125 -17.0625 C 3.65625 -18.78125 4.878906 -20.125 6.453125 -21.09375 C 8.023438 -22.070312 9.898438 -22.5625 12.078125 -22.5625 C 14.609375 -22.5625 16.671875 -21.953125 18.265625 -20.734375 C 19.859375 -19.523438 20.878906 -17.832031 21.328125 -15.65625 L 18.375 -15.65625 C 18.039062 -17.03125 17.347656 -18.132812 16.296875 -18.96875 C 15.253906 -19.800781 13.847656 -20.21875 12.078125 -20.21875 C 10.492188 -20.21875 9.109375 -19.851562 7.921875 -19.125 C 6.734375 -18.394531 5.816406 -17.347656 5.171875 -15.984375 C 4.535156 -14.617188 4.21875 -12.988281 4.21875 -11.09375 C 4.21875 -9.1875 4.535156 -7.550781 5.171875 -6.1875 C 5.816406 -4.832031 6.734375 -3.789062 7.921875 -3.0625 C 9.109375 -2.332031 10.492188 -1.96875 12.078125 -1.96875 C 13.847656 -1.96875 15.253906 -2.375 16.296875 -3.1875 C 17.347656 -4 18.039062 -5.082031 18.375 -6.4375 L 21.328125 -6.4375 C 20.878906 -4.300781 19.859375 -2.628906 18.265625 -1.421875 C 16.671875 -0.222656 14.609375 0.375 12.078125 0.375 Z M 12.078125 0.375 "/></g></g></g><g fill="#000000" fill-opacity="1"><g transform="translate(282.387505, 196.856837)"><g><path d="M 2.34375 0 L 2.34375 -22.1875 L 5 -22.1875 L 5 -12.390625 L 16.515625 -12.390625 L 16.515625 -22.1875 L 19.171875 -22.1875 L 19.171875 0 L 16.515625 0 L 16.515625 -10.203125 L 5 -10.203125 L 5 0 Z M 2.34375 0 "/></g></g></g></svg>