<svg xmlns="http://www.w3.org/2000/svg" xmlns:xlink="http://www.w3.org/1999/xlink" width="500" zoomAndPan="magnify" viewBox="0 0 375 374.999991" height="500" preserveAspectRatio="xMidYMid meet" version="1.0"><defs><g/><clipPath id="5653c50cee"><path d="M 11.851562 82.792969 L 62.851562 82.792969 L 62.851562 192 L 11.851562 192 Z M 11.851562 82.792969 " clip-rule="nonzero"/></clipPath><clipPath id="b487e8a9c9"><path d="M 11.851562 172 L 62.851562 172 L 62.851562 281.542969 L 11.851562 281.542969 Z M 11.851562 172 " clip-rule="nonzero"/></clipPath></defs><g clip-path="url(#5653c50cee)"><path fill="#000000" d="M 49.308594 82.792969 L 62.734375 96.300781 L 62.734375 191.691406 L 11.957031 140.609375 L 11.957031 82.792969 Z M 49.308594 82.792969 " fill-opacity="1" fill-rule="nonzero"/></g><g clip-path="url(#b487e8a9c9)"><path fill="#ff5604" d="M 25.382812 281.539062 L 11.957031 268.03125 L 11.957031 172.636719 L 62.734375 223.722656 L 62.734375 281.539062 Z M 25.382812 281.539062 " fill-opacity="1" fill-rule="nonzero"/></g><g fill="#000000" fill-opacity="1"><g transform="translate(73.35498, 175.072817)"><g><path d="M 24.6875 1.0625 C 21.675781 1.0625 18.832031 0.707031 16.15625 0 C 13.488281 -0.707031 11.148438 -1.628906 9.140625 -2.765625 C 7.128906 -3.898438 5.539062 -5.082031 4.375 -6.3125 L 9.328125 -16.53125 C 10.078125 -15.550781 11.210938 -14.507812 12.734375 -13.40625 C 14.253906 -12.3125 15.992188 -11.375 17.953125 -10.59375 C 19.921875 -9.8125 21.875 -9.421875 23.8125 -9.421875 C 26.375 -9.421875 28.519531 -10.125 30.25 -11.53125 C 31.988281 -12.945312 32.859375 -14.9375 32.859375 -17.5 C 32.859375 -19.144531 32.457031 -20.578125 31.65625 -21.796875 C 30.863281 -23.015625 29.8125 -24.097656 28.5 -25.046875 C 27.1875 -26.003906 25.171875 -27.3125 22.453125 -28.96875 C 18.722656 -31.238281 15.804688 -33.175781 13.703125 -34.78125 C 11.597656 -36.382812 9.773438 -38.488281 8.234375 -41.09375 C 6.691406 -43.695312 5.921875 -46.847656 5.921875 -50.546875 C 5.921875 -54.140625 6.691406 -57.320312 8.234375 -60.09375 C 9.773438 -62.863281 12.050781 -65.023438 15.0625 -66.578125 C 18.082031 -68.140625 21.710938 -68.921875 25.953125 -68.921875 C 32.859375 -68.921875 38.625 -66.8125 43.25 -62.59375 L 37.8125 -52.6875 C 37.257812 -53.457031 36.429688 -54.304688 35.328125 -55.234375 C 34.234375 -56.160156 32.90625 -56.953125 31.34375 -57.609375 C 29.789062 -58.273438 28.15625 -58.609375 26.4375 -58.609375 C 23.945312 -58.609375 22.007812 -57.882812 20.625 -56.4375 C 19.25 -55 18.5625 -53.195312 18.5625 -51.03125 C 18.5625 -49.375 18.972656 -47.90625 19.796875 -46.625 C 20.628906 -45.351562 21.71875 -44.210938 23.0625 -43.203125 C 24.40625 -42.203125 26.210938 -41.019531 28.484375 -39.65625 C 32.597656 -37.226562 35.738281 -35.1875 37.90625 -33.53125 C 40.082031 -31.882812 41.90625 -29.785156 43.375 -27.234375 C 44.851562 -24.691406 45.59375 -21.578125 45.59375 -17.890625 C 45.59375 -13.960938 44.75 -10.570312 43.0625 -7.71875 C 41.375 -4.875 38.957031 -2.695312 35.8125 -1.1875 C 32.675781 0.3125 28.96875 1.0625 24.6875 1.0625 Z M 24.6875 1.0625 "/></g></g></g><g fill="#000000" fill-opacity="1"><g transform="translate(124.285499, 175.072817)"><g><path d="M 64.828125 -68.921875 L 64.828125 0 L 52.78125 0 L 52.78125 -29.0625 L 53.21875 -40.53125 L 49.765625 -35.28125 L 36.453125 -19.640625 L 23.140625 -35.28125 L 19.6875 -40.53125 L 20.21875 -29.0625 L 20.21875 0 L 8.171875 0 L 8.171875 -68.921875 L 9.140625 -68.921875 L 36.546875 -36.59375 L 63.765625 -68.921875 Z M 64.828125 -68.921875 "/></g></g></g><g fill="#000000" fill-opacity="1"><g transform="translate(199.223273, 175.072817)"><g><path d="M 39.75 -9.8125 L 15.546875 -9.8125 L 11.953125 0 L -1.65625 0 L 27.015625 -68.921875 L 28 -68.921875 L 56.765625 0 L 43.546875 0 Z M 36.15625 -19.25 L 29.0625 -37.71875 L 27.40625 -43.15625 L 25.859375 -37.71875 L 19.046875 -19.25 Z M 36.15625 -19.25 "/></g></g></g><g fill="#000000" fill-opacity="1"><g transform="translate(256.277091, 175.072817)"><g><path d="M 37.90625 0 L 20.515625 -24.5 L 20.515625 0 L 8.171875 0 L 8.171875 -67.75 L 27.015625 -67.75 C 43.085938 -67.75 51.125 -60.554688 51.125 -46.171875 C 51.125 -42.960938 50.601562 -39.8125 49.5625 -36.71875 C 48.53125 -33.625 46.835938 -30.878906 44.484375 -28.484375 C 42.140625 -26.085938 39.140625 -24.429688 35.484375 -23.515625 L 52.96875 0 Z M 25.65625 -30.625 C 28.414062 -30.625 30.773438 -31.28125 32.734375 -32.59375 C 34.691406 -33.90625 36.171875 -35.648438 37.171875 -37.828125 C 38.179688 -40.015625 38.6875 -42.40625 38.6875 -45 C 38.6875 -49.476562 37.65625 -52.769531 35.59375 -54.875 C 33.539062 -56.976562 30.132812 -58.03125 25.375 -58.03125 L 20.515625 -58.03125 L 20.515625 -30.625 Z M 25.65625 -30.625 "/></g></g></g><g fill="#000000" fill-opacity="1"><g transform="translate(314.302855, 175.072817)"><g><path d="M 45.59375 -56.765625 L 29.9375 -56.765625 L 29.9375 0 L 17.40625 0 L 17.40625 -56.765625 L 1.75 -56.765625 L 1.75 -67.75 L 45.59375 -67.75 Z M 45.59375 -56.765625 "/></g></g></g><g fill="#000000" fill-opacity="1"><g transform="translate(363.569808, 175.072817)"><g/></g></g><g fill="#ff5604" fill-opacity="1"><g transform="translate(73.35498, 270.608785)"><g><path d="M 14.15625 0.453125 C 10.632812 0.453125 7.832031 -0.472656 5.75 -2.328125 C 3.675781 -4.179688 2.640625 -6.664062 2.640625 -9.78125 L 2.640625 -11.296875 C 2.640625 -11.671875 2.828125 -11.859375 3.203125 -11.859375 L 5.953125 -11.859375 C 6.328125 -11.859375 6.515625 -11.671875 6.515625 -11.296875 L 6.515625 -10 C 6.515625 -7.90625 7.222656 -6.21875 8.640625 -4.9375 C 10.066406 -3.664062 11.960938 -3.03125 14.328125 -3.03125 C 16.535156 -3.03125 18.273438 -3.628906 19.546875 -4.828125 C 20.816406 -6.023438 21.453125 -7.597656 21.453125 -9.546875 C 21.453125 -10.816406 21.148438 -11.921875 20.546875 -12.859375 C 19.953125 -13.796875 19.070312 -14.65625 17.90625 -15.4375 C 16.75 -16.226562 15.085938 -17.222656 12.921875 -18.421875 C 10.597656 -19.660156 8.769531 -20.75 7.4375 -21.6875 C 6.113281 -22.625 5.039062 -23.765625 4.21875 -25.109375 C 3.394531 -26.453125 2.984375 -28.097656 2.984375 -30.046875 C 2.984375 -33.085938 3.953125 -35.46875 5.890625 -37.1875 C 7.835938 -38.90625 10.441406 -39.765625 13.703125 -39.765625 C 17.191406 -39.765625 19.960938 -38.8125 22.015625 -36.90625 C 24.078125 -35 25.109375 -32.472656 25.109375 -29.328125 L 25.109375 -28.03125 C 25.109375 -27.65625 24.921875 -27.46875 24.546875 -27.46875 L 21.734375 -27.46875 C 21.359375 -27.46875 21.171875 -27.65625 21.171875 -28.03125 L 21.171875 -29.265625 C 21.171875 -31.359375 20.492188 -33.050781 19.140625 -34.34375 C 17.796875 -35.632812 15.945312 -36.28125 13.59375 -36.28125 C 11.5 -36.28125 9.859375 -35.738281 8.671875 -34.65625 C 7.492188 -33.570312 6.90625 -32.035156 6.90625 -30.046875 C 6.90625 -28.773438 7.1875 -27.707031 7.75 -26.84375 C 8.3125 -25.988281 9.125 -25.203125 10.1875 -24.484375 C 11.257812 -23.773438 12.898438 -22.820312 15.109375 -21.625 C 17.660156 -20.195312 19.617188 -18.988281 20.984375 -18 C 22.347656 -17.007812 23.429688 -15.867188 24.234375 -14.578125 C 25.046875 -13.285156 25.453125 -11.703125 25.453125 -9.828125 C 25.453125 -6.679688 24.4375 -4.179688 22.40625 -2.328125 C 20.382812 -0.472656 17.632812 0.453125 14.15625 0.453125 Z M 14.15625 0.453125 "/></g></g></g><g fill="#ff5604" fill-opacity="1"><g transform="translate(102.556506, 270.608785)"><g><path d="M 15.109375 0.453125 C 12.828125 0.453125 10.8125 -0.0234375 9.0625 -0.984375 C 7.320312 -1.941406 5.972656 -3.28125 5.015625 -5 C 4.066406 -6.71875 3.59375 -8.703125 3.59375 -10.953125 L 3.59375 -28.3125 C 3.59375 -30.5625 4.066406 -32.554688 5.015625 -34.296875 C 5.972656 -36.035156 7.320312 -37.378906 9.0625 -38.328125 C 10.8125 -39.285156 12.828125 -39.765625 15.109375 -39.765625 C 17.390625 -39.765625 19.398438 -39.285156 21.140625 -38.328125 C 22.890625 -37.378906 24.25 -36.035156 25.21875 -34.296875 C 26.195312 -32.554688 26.6875 -30.5625 26.6875 -28.3125 L 26.6875 -10.953125 C 26.6875 -8.703125 26.195312 -6.71875 25.21875 -5 C 24.25 -3.28125 22.890625 -1.941406 21.140625 -0.984375 C 19.398438 -0.0234375 17.390625 0.453125 15.109375 0.453125 Z M 15.109375 -3.03125 C 17.390625 -3.03125 19.222656 -3.738281 20.609375 -5.15625 C 21.992188 -6.582031 22.6875 -8.457031 22.6875 -10.78125 L 22.6875 -28.421875 C 22.6875 -30.785156 21.992188 -32.6875 20.609375 -34.125 C 19.222656 -35.5625 17.390625 -36.28125 15.109375 -36.28125 C 12.859375 -36.28125 11.039062 -35.5625 9.65625 -34.125 C 8.269531 -32.6875 7.578125 -30.785156 7.578125 -28.421875 L 7.578125 -10.78125 C 7.578125 -8.457031 8.269531 -6.582031 9.65625 -5.15625 C 11.039062 -3.738281 12.859375 -3.03125 15.109375 -3.03125 Z M 15.109375 -3.03125 "/></g></g></g><g fill="#ff5604" fill-opacity="1"><g transform="translate(133.948123, 270.608785)"><g><path d="M 5.21875 0 C 4.84375 0 4.65625 -0.1875 4.65625 -0.5625 L 4.65625 -38.765625 C 4.65625 -39.140625 4.84375 -39.328125 5.21875 -39.328125 L 8.09375 -39.328125 C 8.46875 -39.328125 8.65625 -39.140625 8.65625 -38.765625 L 8.65625 -3.703125 C 8.65625 -3.554688 8.726562 -3.484375 8.875 -3.484375 L 25.21875 -3.484375 C 25.59375 -3.484375 25.78125 -3.296875 25.78125 -2.921875 L 25.78125 -0.5625 C 25.78125 -0.1875 25.59375 0 25.21875 0 Z M 5.21875 0 "/></g></g></g><g fill="#ff5604" fill-opacity="1"><g transform="translate(162.138839, 270.608785)"><g><path d="M 15.78125 0.453125 C 13.5 0.453125 11.488281 -0.03125 9.75 -1 C 8.007812 -1.976562 6.660156 -3.347656 5.703125 -5.109375 C 4.742188 -6.867188 4.265625 -8.910156 4.265625 -11.234375 L 4.265625 -38.765625 C 4.265625 -39.140625 4.453125 -39.328125 4.828125 -39.328125 L 7.703125 -39.328125 C 8.066406 -39.328125 8.25 -39.140625 8.25 -38.765625 L 8.25 -11.015625 C 8.25 -8.617188 8.941406 -6.6875 10.328125 -5.21875 C 11.710938 -3.757812 13.53125 -3.03125 15.78125 -3.03125 C 18.03125 -3.03125 19.847656 -3.757812 21.234375 -5.21875 C 22.617188 -6.6875 23.3125 -8.617188 23.3125 -11.015625 L 23.3125 -38.765625 C 23.3125 -39.140625 23.5 -39.328125 23.875 -39.328125 L 26.734375 -39.328125 C 27.109375 -39.328125 27.296875 -39.140625 27.296875 -38.765625 L 27.296875 -11.234375 C 27.296875 -8.910156 26.816406 -6.867188 25.859375 -5.109375 C 24.910156 -3.347656 23.5625 -1.976562 21.8125 -1 C 20.070312 -0.03125 18.0625 0.453125 15.78125 0.453125 Z M 15.78125 0.453125 "/></g></g></g><g fill="#ff5604" fill-opacity="1"><g transform="translate(194.822059, 270.608785)"><g><path d="M 25.109375 -39.328125 C 25.484375 -39.328125 25.671875 -39.140625 25.671875 -38.765625 L 25.671875 -36.40625 C 25.671875 -36.03125 25.484375 -35.84375 25.109375 -35.84375 L 15.953125 -35.84375 C 15.804688 -35.84375 15.734375 -35.765625 15.734375 -35.609375 L 15.734375 -0.5625 C 15.734375 -0.1875 15.546875 0 15.171875 0 L 12.296875 0 C 11.921875 0 11.734375 -0.1875 11.734375 -0.5625 L 11.734375 -35.609375 C 11.734375 -35.765625 11.660156 -35.84375 11.515625 -35.84375 L 2.703125 -35.84375 C 2.328125 -35.84375 2.140625 -36.03125 2.140625 -36.40625 L 2.140625 -38.765625 C 2.140625 -39.140625 2.328125 -39.328125 2.703125 -39.328125 Z M 25.109375 -39.328125 "/></g></g></g><g fill="#ff5604" fill-opacity="1"><g transform="translate(223.798955, 270.608785)"><g><path d="M 5.21875 0 C 4.84375 0 4.65625 -0.1875 4.65625 -0.5625 L 4.65625 -38.765625 C 4.65625 -39.140625 4.84375 -39.328125 5.21875 -39.328125 L 8.09375 -39.328125 C 8.46875 -39.328125 8.65625 -39.140625 8.65625 -38.765625 L 8.65625 -0.5625 C 8.65625 -0.1875 8.46875 0 8.09375 0 Z M 5.21875 0 "/></g></g></g><g fill="#ff5604" fill-opacity="1"><g transform="translate(238.231373, 270.608785)"><g><path d="M 15.109375 0.453125 C 12.828125 0.453125 10.8125 -0.0234375 9.0625 -0.984375 C 7.320312 -1.941406 5.972656 -3.28125 5.015625 -5 C 4.066406 -6.71875 3.59375 -8.703125 3.59375 -10.953125 L 3.59375 -28.3125 C 3.59375 -30.5625 4.066406 -32.554688 5.015625 -34.296875 C 5.972656 -36.035156 7.320312 -37.378906 9.0625 -38.328125 C 10.8125 -39.285156 12.828125 -39.765625 15.109375 -39.765625 C 17.390625 -39.765625 19.398438 -39.285156 21.140625 -38.328125 C 22.890625 -37.378906 24.25 -36.035156 25.21875 -34.296875 C 26.195312 -32.554688 26.6875 -30.5625 26.6875 -28.3125 L 26.6875 -10.953125 C 26.6875 -8.703125 26.195312 -6.71875 25.21875 -5 C 24.25 -3.28125 22.890625 -1.941406 21.140625 -0.984375 C 19.398438 -0.0234375 17.390625 0.453125 15.109375 0.453125 Z M 15.109375 -3.03125 C 17.390625 -3.03125 19.222656 -3.738281 20.609375 -5.15625 C 21.992188 -6.582031 22.6875 -8.457031 22.6875 -10.78125 L 22.6875 -28.421875 C 22.6875 -30.785156 21.992188 -32.6875 20.609375 -34.125 C 19.222656 -35.5625 17.390625 -36.28125 15.109375 -36.28125 C 12.859375 -36.28125 11.039062 -35.5625 9.65625 -34.125 C 8.269531 -32.6875 7.578125 -30.785156 7.578125 -28.421875 L 7.578125 -10.78125 C 7.578125 -8.457031 8.269531 -6.582031 9.65625 -5.15625 C 11.039062 -3.738281 12.859375 -3.03125 15.109375 -3.03125 Z M 15.109375 -3.03125 "/></g></g></g><g fill="#ff5604" fill-opacity="1"><g transform="translate(269.622995, 270.608785)"><g><path d="M 24.203125 -38.765625 C 24.203125 -39.140625 24.390625 -39.328125 24.765625 -39.328125 L 27.640625 -39.328125 C 28.015625 -39.328125 28.203125 -39.140625 28.203125 -38.765625 L 28.203125 -0.5625 C 28.203125 -0.1875 28.015625 0 27.640625 0 L 24.609375 0 C 24.265625 0 24.035156 -0.128906 23.921875 -0.390625 L 8.875 -30.4375 C 8.800781 -30.519531 8.734375 -30.5625 8.671875 -30.5625 C 8.617188 -30.5625 8.59375 -30.503906 8.59375 -30.390625 L 8.65625 -0.5625 C 8.65625 -0.1875 8.46875 0 8.09375 0 L 5.21875 0 C 4.84375 0 4.65625 -0.1875 4.65625 -0.5625 L 4.65625 -38.765625 C 4.65625 -39.140625 4.84375 -39.328125 5.21875 -39.328125 L 8.25 -39.328125 C 8.59375 -39.328125 8.820312 -39.191406 8.9375 -38.921875 L 23.984375 -8.765625 C 24.054688 -8.691406 24.117188 -8.65625 24.171875 -8.65625 C 24.234375 -8.65625 24.265625 -8.707031 24.265625 -8.8125 Z M 24.203125 -38.765625 "/></g></g></g><g fill="#ff5604" fill-opacity="1"><g transform="translate(303.597801, 270.608785)"><g><path d="M 14.15625 0.453125 C 10.632812 0.453125 7.832031 -0.472656 5.75 -2.328125 C 3.675781 -4.179688 2.640625 -6.664062 2.640625 -9.78125 L 2.640625 -11.296875 C 2.640625 -11.671875 2.828125 -11.859375 3.203125 -11.859375 L 5.953125 -11.859375 C 6.328125 -11.859375 6.515625 -11.671875 6.515625 -11.296875 L 6.515625 -10 C 6.515625 -7.90625 7.222656 -6.21875 8.640625 -4.9375 C 10.066406 -3.664062 11.960938 -3.03125 14.328125 -3.03125 C 16.535156 -3.03125 18.273438 -3.628906 19.546875 -4.828125 C 20.816406 -6.023438 21.453125 -7.597656 21.453125 -9.546875 C 21.453125 -10.816406 21.148438 -11.921875 20.546875 -12.859375 C 19.953125 -13.796875 19.070312 -14.65625 17.90625 -15.4375 C 16.75 -16.226562 15.085938 -17.222656 12.921875 -18.421875 C 10.597656 -19.660156 8.769531 -20.75 7.4375 -21.6875 C 6.113281 -22.625 5.039062 -23.765625 4.21875 -25.109375 C 3.394531 -26.453125 2.984375 -28.097656 2.984375 -30.046875 C 2.984375 -33.085938 3.953125 -35.46875 5.890625 -37.1875 C 7.835938 -38.90625 10.441406 -39.765625 13.703125 -39.765625 C 17.191406 -39.765625 19.960938 -38.8125 22.015625 -36.90625 C 24.078125 -35 25.109375 -32.472656 25.109375 -29.328125 L 25.109375 -28.03125 C 25.109375 -27.65625 24.921875 -27.46875 24.546875 -27.46875 L 21.734375 -27.46875 C 21.359375 -27.46875 21.171875 -27.65625 21.171875 -28.03125 L 21.171875 -29.265625 C 21.171875 -31.359375 20.492188 -33.050781 19.140625 -34.34375 C 17.796875 -35.632812 15.945312 -36.28125 13.59375 -36.28125 C 11.5 -36.28125 9.859375 -35.738281 8.671875 -34.65625 C 7.492188 -33.570312 6.90625 -32.035156 6.90625 -30.046875 C 6.90625 -28.773438 7.1875 -27.707031 7.75 -26.84375 C 8.3125 -25.988281 9.125 -25.203125 10.1875 -24.484375 C 11.257812 -23.773438 12.898438 -22.820312 15.109375 -21.625 C 17.660156 -20.195312 19.617188 -18.988281 20.984375 -18 C 22.347656 -17.007812 23.429688 -15.867188 24.234375 -14.578125 C 25.046875 -13.285156 25.453125 -11.703125 25.453125 -9.828125 C 25.453125 -6.679688 24.4375 -4.179688 22.40625 -2.328125 C 20.382812 -0.472656 17.632812 0.453125 14.15625 0.453125 Z M 14.15625 0.453125 "/></g></g></g></svg>